<?xml version="1.0" encoding="utf-8"?>
<!-- Generator: Adobe Illustrator 25.0.0, SVG Export Plug-In . SVG Version: 6.00 Build 0)  -->
<svg version="1.1" id="Layer_1" xmlns="http://www.w3.org/2000/svg" xmlns:xlink="http://www.w3.org/1999/xlink" x="0px" y="0px"
	 viewBox="0 0 767.15 233.59" style="enable-background:new 0 0 767.15 233.59;" xml:space="preserve">
<style type="text/css">
	.st0{fill:none;stroke:#36353A;stroke-miterlimit:10;}
	.st1{fill:#FFD356;}
	.st2{fill:#50B3C5;}
	.st3{fill:#329AA8;}
	.st4{fill:#EA5D4C;}
	.st5{fill:#CA3428;}
	.st6{fill:#EEB82A;}
	.st7{fill:#989898;}
	.st8{fill:#737371;}
</style>
<g>
	<line class="st0" x1="751.81" y1="98.06" x2="757.21" y2="161.73"/>
	<polyline class="st0" points="159.56,181.91 225.44,173.31 276.97,218.29 320.56,176.08 374.44,197.81 388.44,133.31 
		471.27,108.21 419,173.31 427.41,220.5 	"/>
	<polyline class="st0" points="521.94,165.98 491.27,165.98 476.27,183.14 	"/>
	<path class="st0" d="M564.44,28.81l35.5-17.33c0,0,28.67,37.33,29.33,37.4l-83.09,48.68l48.42,93.76l36.83-78l-85.26-15.76
		l-45.74-45.24l-29.17,55.9l74.91-10.65l-24.24,68.42l-22.67-32.83"/>
	<polyline class="st0" points="302.74,148.73 320.56,176.08 282.9,175.93 	"/>
	<polyline class="st0" points="200.69,138.06 225.44,173.31 254.6,159.48 	"/>
	<line class="st0" x1="201.44" y1="139.31" x2="133.1" y2="110.48"/>
	<line class="st0" x1="491.27" y1="165.98" x2="472.35" y2="153.81"/>
	<polyline class="st0" points="471.27,108.21 423.94,83.81 388.44,133.31 332.94,120.81 347.6,158.81 	"/>
	<polyline class="st0" points="419,173.5 533.19,211.28 594.6,191.31 	"/>
	<path class="st0" d="M388.44,133.31"/>
	<line class="st0" x1="374.44" y1="197.81" x2="427.31" y2="220.5"/>
	<polyline class="st0" points="133.1,110.48 65.81,151.31 87.81,209.81 16.81,177.48 	"/>
	<polyline class="st0" points="685.81,131.14 665.15,174.48 711.81,210.48 757.21,161.75 	"/>
	<polyline class="st0" points="666.56,36.06 688.56,76.81 721.81,33.31 751.81,98.06 685.81,131.14 631.44,113.31 	"/>
	<line class="st0" x1="665.15" y1="174.48" x2="627.81" y2="206.31"/>
	<polyline class="st0" points="123.81,156.31 159.56,181.91 135.06,196.56 	"/>
	<line class="st0" x1="225.44" y1="173.31" x2="193.56" y2="204.56"/>
	<g>
		
			<ellipse transform="matrix(0.9227 -0.3856 0.3856 0.9227 -57.8073 75.5938)" class="st1" cx="159.56" cy="181.91" rx="12.44" ry="12.44"/>
	</g>
	<g>
		<path class="st1" d="M482.36,155.29c0,2.82-2.28,5.1-5.1,5.1c-2.82,0-5.1-2.28-5.1-5.1c0-2.82,2.28-5.1,5.1-5.1
			C480.08,150.19,482.36,152.48,482.36,155.29z"/>
	</g>
	<g>
		<circle class="st2" cx="388.44" cy="133.31" r="13.79"/>
		<path class="st3" d="M388.6,119.53v27.57c7.54-0.09,13.62-6.22,13.62-13.78C402.23,125.75,396.14,119.62,388.6,119.53z"/>
	</g>
	<g>
		<circle class="st4" cx="333.06" cy="120.81" r="12.38"/>
		<path class="st5" d="M333.44,108.45v24.72c6.66-0.2,12-5.65,12-12.36C345.44,114.1,340.1,108.65,333.44,108.45z"/>
	</g>
	<g>
		
			<ellipse transform="matrix(0.1598 -0.9871 0.9871 0.1598 107.5337 423.8092)" class="st1" cx="302.74" cy="148.73" rx="7.24" ry="7.24"/>
		<path class="st6" d="M302.94,141.5v14.47c3.91-0.11,7.05-3.3,7.05-7.23C309.98,144.8,306.85,141.6,302.94,141.5z"/>
	</g>
	<g>
		
			<ellipse transform="matrix(0.1598 -0.9871 0.9871 0.1598 135.8273 475.052)" class="st7" cx="346.99" cy="157.73" rx="7.24" ry="7.24"/>
		<path class="st8" d="M347.1,150.49v14.48c3.95-0.06,7.13-3.28,7.13-7.24C354.23,153.77,351.05,150.56,347.1,150.49z"/>
	</g>
	<g>
		<circle class="st4" cx="282.9" cy="175.93" r="7.24"/>
		<path class="st5" d="M283.06,168.69v14.47c3.93-0.09,7.08-3.29,7.08-7.24C290.15,171.98,286.99,168.78,283.06,168.69z"/>
	</g>
	<g>
		<circle class="st2" cx="320.56" cy="176.08" r="7.21"/>
		<path class="st3" d="M320.56,168.87c-0.1,0-0.19,0.01-0.29,0.01v14.39c0.1,0,0.19,0.01,0.29,0.01c3.98,0,7.21-3.23,7.21-7.21
			C327.76,172.1,324.54,168.87,320.56,168.87z"/>
	</g>
	<path class="st6" d="M159.69,169.48v24.87c6.81-0.07,12.31-5.61,12.31-12.43C172,175.09,166.5,169.55,159.69,169.48z"/>
	<g>
		<circle class="st4" cx="418.94" cy="173.31" r="12.1"/>
		<path class="st5" d="M419.1,161.22v24.19c6.61-0.09,11.93-5.47,11.93-12.09C431.04,166.68,425.71,161.31,419.1,161.22z"/>
	</g>
	<g>
		<circle class="st4" cx="631.44" cy="113.31" r="16.06"/>
		<path class="st5" d="M631.77,97.27v32.09c8.71-0.18,15.73-7.29,15.73-16.04S640.48,97.45,631.77,97.27z"/>
	</g>
	<g>
		<circle class="st1" cx="533.13" cy="211.26" r="10.26"/>
		<path class="st6" d="M533.13,201.01c-0.01,0-0.02,0-0.03,0v20.51c0.01,0,0.02,0,0.03,0c5.66,0,10.26-4.59,10.26-10.26
			C543.38,205.6,538.79,201.01,533.13,201.01z"/>
	</g>
	<g>
		
			<ellipse transform="matrix(0.651 -0.7591 0.7591 0.651 -37.4074 139.5883)" class="st1" cx="133.1" cy="110.48" rx="14.65" ry="14.65"/>
		<path class="st6" d="M133.44,95.84v29.26c7.93-0.18,14.32-6.65,14.32-14.63C147.75,102.5,141.37,96.02,133.44,95.84z"/>
	</g>
	<g>
		
			<ellipse transform="matrix(0.1608 -0.987 0.987 0.1608 -93.999 192.0089)" class="st2" cx="65.91" cy="151.28" rx="11.38" ry="11.38"/>
		<path class="st3" d="M66.17,139.92v22.73c6.16-0.14,11.12-5.17,11.12-11.36C77.28,145.08,72.33,140.05,66.17,139.92z"/>
	</g>
	<g>
		
			<ellipse transform="matrix(0.9254 -0.3789 0.3789 0.9254 -73.5331 48.8687)" class="st1" cx="87.41" cy="211.28" rx="16.41" ry="16.41"/>
		<path class="st6" d="M87.78,194.89v32.77c8.89-0.2,16.03-7.45,16.03-16.39C103.81,202.34,96.67,195.09,87.78,194.89z"/>
	</g>
	<g>
		
			<ellipse transform="matrix(0.9254 -0.3789 0.3789 0.9254 -66.5128 19.5449)" class="st4" cx="16.41" cy="178.78" rx="16.41" ry="16.41"/>
		<path class="st5" d="M16.78,162.39v32.77c8.89-0.2,16.03-7.45,16.03-16.39C32.81,169.84,25.67,162.59,16.78,162.39z"/>
	</g>
	<g>
		<circle class="st4" cx="665.07" cy="174.44" r="16.41"/>
		<path class="st5" d="M665.45,158.06v32.77c8.89-0.2,16.03-7.45,16.03-16.39C681.48,165.51,674.33,158.26,665.45,158.06z"/>
	</g>
	<g>
		
			<ellipse transform="matrix(0.9239 -0.3827 0.3827 0.9239 41.9876 278.6417)" class="st2" cx="721.41" cy="33.78" rx="17.41" ry="17.41"/>
		<path class="st3" d="M721.8,16.39v34.77c9.43-0.21,17.01-7.91,17.01-17.39C738.81,24.3,731.23,16.6,721.8,16.39z"/>
	</g>
	<g>
		
			<ellipse transform="matrix(0.1602 -0.9871 0.9871 0.1602 502.8056 744.0335)" class="st1" cx="688.66" cy="76.53" rx="11.49" ry="11.49"/>
		<path class="st6" d="M688.92,65.05V88c6.22-0.14,11.23-5.22,11.23-11.48C700.15,70.27,695.14,65.19,688.92,65.05z"/>
	</g>
	<g>
		
			<ellipse transform="matrix(0.2298 -0.9732 0.9732 0.2298 478.592 677.034)" class="st2" cx="667.03" cy="36.15" rx="7.34" ry="7.34"/>
		<path class="st3" d="M667.2,28.82v14.67c3.98-0.09,7.18-3.34,7.18-7.34C674.38,32.15,671.18,28.91,667.2,28.82z"/>
	</g>
	<g>
		
			<ellipse transform="matrix(0.9239 -0.3827 0.3827 0.9239 19.6647 294.9173)" class="st7" cx="751.16" cy="98.03" rx="14.41" ry="14.41"/>
		<path class="st8" d="M751.48,83.64v28.78c7.8-0.18,14.08-6.54,14.08-14.39C765.56,90.18,759.29,83.81,751.48,83.64z"/>
	</g>
	<g>
		<circle class="st2" cx="685.41" cy="131.11" r="9.3"/>
		<path class="st3" d="M685.62,121.82v18.58c5.04-0.11,9.09-4.23,9.09-9.29C694.71,126.05,690.66,121.93,685.62,121.82z"/>
	</g>
	<g>
		<circle class="st2" cx="756.9" cy="161.73" r="10.25"/>
		<path class="st3" d="M757.13,151.49v20.48c5.55-0.13,10.02-4.66,10.02-10.24C767.15,156.14,762.68,151.61,757.13,151.49z"/>
	</g>
	<g>
		
			<ellipse transform="matrix(0.7071 -0.7071 0.7071 0.7071 59.6938 564.7948)" class="st7" cx="711.61" cy="210.34" rx="8.03" ry="8.03"/>
		<path class="st8" d="M711.8,202.32v16.04c4.35-0.1,7.85-3.65,7.85-8.02C719.65,205.97,716.15,202.42,711.8,202.32z"/>
	</g>
	<g>
		
			<ellipse transform="matrix(0.7071 -0.7071 0.7071 0.7071 -39.2926 182.9583)" class="st4" cx="201.2" cy="138.91" rx="7.97" ry="7.97"/>
		<path class="st5" d="M201.2,130.94c-0.09,0-0.18,0.01-0.27,0.01v15.91c0.09,0,0.18,0.01,0.27,0.01c4.4,0,7.97-3.57,7.97-7.97
			C209.17,134.51,205.6,130.94,201.2,130.94z"/>
	</g>
	<g>
		<circle class="st4" cx="123.81" cy="157.11" r="10.3"/>
		<path class="st5" d="M123.81,146.81c-0.12,0-0.23,0.01-0.35,0.02v20.56c0.12,0,0.23,0.02,0.35,0.02c5.69,0,10.3-4.61,10.3-10.3
			S129.5,146.81,123.81,146.81z"/>
	</g>
	<g>
		<circle class="st7" cx="135.31" cy="196.61" r="8"/>
		<path class="st8" d="M135.31,188.61c-0.09,0-0.18,0.01-0.27,0.01v15.97c0.09,0,0.18,0.01,0.27,0.01c4.42,0,8-3.58,8-8
			S139.73,188.61,135.31,188.61z"/>
	</g>
	<g>
		<path class="st7" d="M261.56,159.56c0,3.88-3.15,7.03-7.03,7.03c-3.88,0-7.03-3.15-7.03-7.03c0-3.88,3.15-7.03,7.03-7.03
			C258.42,152.53,261.56,155.68,261.56,159.56z"/>
		<path class="st8" d="M254.72,152.54v14.03c3.8-0.1,6.85-3.2,6.85-7.02C261.56,155.74,258.51,152.64,254.72,152.54z"/>
	</g>
	<g>
		<circle class="st7" cx="374.44" cy="197.81" r="13.11"/>
		<path class="st8" d="M374.6,184.71v26.2c7.16-0.09,12.94-5.92,12.94-13.1C387.55,190.63,381.77,184.8,374.6,184.71z"/>
	</g>
	<g>
		
			<ellipse transform="matrix(0.1608 -0.987 0.987 0.1608 141.0827 606.8866)" class="st2" cx="427.44" cy="220.48" rx="13.11" ry="13.11"/>
		<path class="st3" d="M427.44,207.37c-0.11,0-0.22,0.01-0.33,0.02v26.19c0.11,0,0.22,0.02,0.33,0.02c7.24,0,13.11-5.87,13.11-13.11
			C440.55,213.24,434.68,207.37,427.44,207.37z"/>
	</g>
	<g>
		<circle class="st4" cx="629.27" cy="48.87" r="14.37"/>
		<path class="st5" d="M629.27,34.5c-0.06,0-0.11,0.01-0.16,0.01v28.73c0.06,0,0.11,0.01,0.16,0.01c7.94,0,14.37-6.43,14.37-14.37
			C643.64,40.93,637.21,34.5,629.27,34.5z"/>
	</g>
	<g>
		
			<ellipse transform="matrix(0.9431 -0.3325 0.3325 0.9431 -9.1666 162.8359)" class="st4" cx="471.27" cy="108.21" rx="11.33" ry="11.33"/>
		<path class="st5" d="M471.44,96.88v22.65c6.18-0.09,11.16-5.12,11.16-11.32C482.6,102,477.62,96.97,471.44,96.88z"/>
	</g>
	<g>
		<circle class="st7" cx="500.75" cy="54.02" r="9.8"/>
		<path class="st8" d="M500.94,44.23v19.58c5.33-0.1,9.62-4.44,9.62-9.79C510.55,48.67,506.26,44.33,500.94,44.23z"/>
	</g>
	<g>
		<circle class="st7" cx="424.04" cy="83.01" r="8.98"/>
		<path class="st8" d="M424.19,74.04v17.94c4.89-0.08,8.84-4.06,8.84-8.97C433.02,78.1,429.08,74.12,424.19,74.04z"/>
	</g>
	<g>
		<path class="st2" d="M571.18,28.52c0,3.69-2.99,6.68-6.68,6.68c-3.69,0-6.68-2.99-6.68-6.68s2.99-6.68,6.68-6.68
			C568.19,21.84,571.18,24.83,571.18,28.52z"/>
		<path class="st3" d="M564.5,21.84c-0.02,0-0.04,0-0.06,0V35.2c0.02,0,0.04,0,0.06,0c3.69,0,6.68-2.99,6.68-6.68
			C571.18,24.83,568.19,21.84,564.5,21.84z"/>
	</g>
	<g>
		<circle class="st1" cx="600.71" cy="11.13" r="11.13"/>
		<path class="st6" d="M600.71,0c-0.04,0-0.07,0.01-0.11,0.01v22.25c0.04,0,0.07,0.01,0.11,0.01c6.15,0,11.13-4.98,11.13-11.13
			C611.85,4.98,606.86,0,600.71,0z"/>
	</g>
	<g>
		<circle class="st4" cx="521.94" cy="165.98" r="8.5"/>
		<path class="st5" d="M522.19,157.49v16.97c4.58-0.13,8.25-3.88,8.25-8.49C530.44,161.37,526.76,157.62,522.19,157.49z"/>
	</g>
	<g>
		<path class="st7" d="M496.93,166.06c0,3.22-2.61,5.82-5.82,5.82c-3.22,0-5.82-2.61-5.82-5.82c0-3.22,2.61-5.82,5.82-5.82
			C494.32,160.24,496.93,162.84,496.93,166.06z"/>
		<path class="st8" d="M491.19,160.24v11.63c3.18-0.05,5.74-2.63,5.74-5.82C496.93,162.87,494.36,160.29,491.19,160.24z"/>
	</g>
	<g>
		<path class="st2" d="M482.36,180.35c0,2.82-2.28,5.1-5.1,5.1c-2.82,0-5.1-2.28-5.1-5.1c0-2.82,2.28-5.1,5.1-5.1
			C480.08,175.25,482.36,177.53,482.36,180.35z"/>
		<path class="st3" d="M477.26,175.25c-0.02,0-0.05,0.01-0.07,0.01v10.19c0.02,0,0.05,0.01,0.07,0.01c2.82,0,5.1-2.28,5.1-5.1
			C482.36,177.53,480.08,175.25,477.26,175.25z"/>
	</g>
	<path class="st6" d="M477.44,150.21v10.17c2.73-0.1,4.93-2.33,4.93-5.08C482.36,152.54,480.17,150.3,477.44,150.21z"/>
	<g>
		<circle class="st2" cx="498.94" cy="132.98" r="9.12"/>
		<path class="st3" d="M498.94,123.86v18.24c5.04,0,9.12-4.08,9.12-9.12C508.06,127.94,503.97,123.86,498.94,123.86z"/>
	</g>
	<g>
		<circle class="st7" cx="594.6" cy="191.31" r="11.5"/>
		<path class="st8" d="M594.77,179.82v22.98c6.27-0.09,11.33-5.2,11.33-11.49C606.1,185.02,601.04,179.91,594.77,179.82z"/>
	</g>
	<g>
		<circle class="st2" cx="628.1" cy="205.64" r="11.5"/>
		<path class="st3" d="M628.27,194.15v22.98c6.27-0.09,11.33-5.2,11.33-11.49C639.6,199.35,634.54,194.24,628.27,194.15z"/>
	</g>
	<g>
		
			<ellipse transform="matrix(0.7071 -0.7071 0.7071 0.7071 90.9924 414.7799)" class="st1" cx="546.18" cy="97.55" rx="10.24" ry="10.24"/>
		<path class="st6" d="M546.18,87.31c-0.08,0-0.16,0.01-0.24,0.01v20.46c0.08,0,0.16,0.01,0.24,0.01c5.66,0,10.24-4.59,10.24-10.24
			C556.42,91.9,551.84,87.31,546.18,87.31z"/>
	</g>
	<g>
		
			<ellipse transform="matrix(0.1428 -0.9898 0.9898 0.1428 21.368 461.261)" class="st4" cx="276.97" cy="218.29" rx="9.26" ry="9.26"/>
		<path class="st5" d="M277.27,209.05v18.5c4.98-0.16,8.97-4.23,8.97-9.25C286.24,213.28,282.25,209.21,277.27,209.05z"/>
	</g>
	<g>
		<circle class="st2" cx="225.44" cy="173.31" r="11.48"/>
		<path class="st3" d="M225.6,161.84v22.94c6.26-0.09,11.31-5.19,11.31-11.47C236.92,167.03,231.87,161.93,225.6,161.84z"/>
	</g>
	<g>
		<circle class="st2" cx="193.44" cy="204.56" r="8"/>
		<path class="st3" d="M193.55,196.57v15.99c4.36-0.06,7.88-3.62,7.88-7.99C201.44,200.18,197.92,196.63,193.55,196.57z"/>
	</g>
</g>
</svg>
