<svg xmlns="http://www.w3.org/2000/svg" xmlns:xlink="http://www.w3.org/1999/xlink" width="88" height="88" viewBox="0 0 88 88"><defs><filter id="a" x="0" y="0" width="88" height="88" filterUnits="userSpaceOnUse"><feOffset dy="3" input="SourceAlpha"/><feGaussianBlur stdDeviation="3" result="b"/><feFlood flood-opacity="0.161"/><feComposite operator="in" in2="b"/><feComposite in="SourceGraphic"/></filter></defs><g transform="translate(-28 -3885)"><g transform="translate(37 3890)"><g transform="matrix(1, 0, 0, 1, -9, -5)" filter="url(#a)"><circle cx="35" cy="35" r="35" transform="translate(9 6)" fill="#fff"/></g></g><path d="M64.073,36.036a28.036,28.036,0,1,0-32.417,27.7V44.141H24.534v-8.1h7.122V29.859c0-7.026,4.183-10.907,10.589-10.907a43.147,43.147,0,0,1,6.277.547v6.9H44.986c-3.482,0-4.568,2.162-4.568,4.378v5.262h7.776l-1.244,8.1H40.417V63.734A28.047,28.047,0,0,0,64.073,36.036Z" transform="translate(36.317 3890.317)" fill="#3b5998"/></g></svg>