<svg id="Layer_1" data-name="Layer 1" xmlns="http://www.w3.org/2000/svg" viewBox="0 0 491.74 114.25">
  <defs>
    <style>
      .cls-1 {
        font-size: 36.4px;
        stroke-width: 0.5px;
        letter-spacing: 0.06em;
      }

      .cls-1, .cls-7, .cls-8 {
        fill: #fff;
        stroke-miterlimit: 10;
      }

      .cls-1, .cls-8 {
        stroke: #fff;
        font-family: MyriadPro-Regular, Myriad Pro;
      }

      .cls-2 {
        letter-spacing: 0.06em;
      }

      .cls-3 {
        letter-spacing: 0.05em;
      }

      .cls-4 {
        letter-spacing: 0.06em;
      }

      .cls-5 {
        letter-spacing: 0.06em;
      }

      .cls-6 {
        fill: #bf6849;
      }

      .cls-7 {
        stroke: #000;
        stroke-width: 4px;
      }

      .cls-8 {
        font-size: 53.01px;
        stroke-width: 3px;
        letter-spacing: 0.06em;
      }

      .cls-9 {
        letter-spacing: 0.07em;
      }

      .cls-10 {
        letter-spacing: 0.08em;
      }
    </style>
  </defs>
  <text class="cls-1" transform="translate(197.54 102.4) scale(1.01 1)">S<tspan class="cls-2" x="20.31" y="0">cien</tspan><tspan class="cls-3" x="92.17" y="0">c</tspan><tspan class="cls-4" x="110.4" y="0">e </tspan><tspan class="cls-5" x="140.65" y="0">M</tspan><tspan class="cls-2" x="172.18" y="0">useum</tspan></text>
  <path class="cls-6" d="M119.79,25.47a20.36,20.36,0,0,0-40.06,0A81.59,81.59,0,0,0,5.91,107,16.27,16.27,0,0,0,22.23,123H99.76a4.08,4.08,0,0,0,4.08-4.08,8.17,8.17,0,0,0-8.16-8.17H75.41l9.13-12.32a18.47,18.47,0,0,0-8.6-27.19c-6.09-2.53-13.15-1.18-18.42,2.78l-8.36,6.27a4.08,4.08,0,0,1-4.9-6.53l8.87-6.65A26.49,26.49,0,0,1,95.45,90.92L125.67,123h23A4.08,4.08,0,0,0,152.8,119a8.16,8.16,0,0,0-8.16-8.17H131L105.84,84.1,145.23,62a14.85,14.85,0,0,0-.2-26c-10.34-5.67-25.24-10.53-25.24-10.53Zm-20,9.84a6.12,6.12,0,1,1,6.12-6.12A6.12,6.12,0,0,1,99.76,35.31Z" transform="translate(-5.91 -8.78)"/>
  <ellipse class="cls-7" cx="93.9" cy="20.4" rx="11.22" ry="10.2"/>
  <text class="cls-8" transform="translate(195.63 56.37)">C<tspan class="cls-9" x="33.82" y="0">ommuni</tspan><tspan class="cls-10" x="244.3" y="0">t</tspan><tspan class="cls-9" x="265.98" y="0">y</tspan></text>
</svg>
