<svg xmlns="http://www.w3.org/2000/svg" xmlns:xlink="http://www.w3.org/1999/xlink" width="99.863" height="85.219" viewBox="0 0 99.863 85.219"><defs><filter id="a" x="0" y="0" width="99.863" height="85.219" filterUnits="userSpaceOnUse"><feOffset dy="3" input="SourceAlpha"/><feGaussianBlur stdDeviation="3" result="b"/><feFlood flood-opacity="0.161"/><feComposite operator="in" in2="b"/><feComposite in="SourceGraphic"/></filter></defs><g transform="translate(-666.057 -4040.313)"><g transform="translate(675.057 4046.313)"><g transform="matrix(1, 0, 0, 1, -9, -6)" filter="url(#a)"><path d="M68.54,14.788c.046.649.046,1.3.046,1.947,3.962,20.03-14.074,45.705-42.6,42.6-8.484,0-22.575-7.592-22.575-7.592S-1.029,49.03.223,49.03c7,0,19.826,1.409,24.972-2.625a15,15,0,0,1-14-10.384,18.885,18.885,0,0,0,2.828.232,15.837,15.837,0,0,0,3.94-.51,14.976,14.976,0,0,1-12.007-14.7v-.185a15.08,15.08,0,0,0,6.768,1.9A14.963,14.963,0,0,1,6.048,10.292c0-2.781,2.04-7.556,2.04-7.556S26.539,17.755,38.963,18.4a16.9,16.9,0,0,1-.371-3.43A14.988,14.988,0,0,1,64.507,4.729a29.481,29.481,0,0,0,9.5-3.616,14.934,14.934,0,0,1-6.583,8.252A30.018,30.018,0,0,0,76.05,7.047a32.188,32.188,0,0,1-7.51,7.742Z" transform="matrix(0.99, 0.1, -0.1, 0.99, 15.23, 6)" fill="#fff"/></g></g><path d="M52.441,59.913c.037.519.037,1.039.037,1.558,0,15.836-12.053,34.083-34.083,34.083A33.852,33.852,0,0,1,0,90.176a24.782,24.782,0,0,0,2.893.148,23.991,23.991,0,0,0,14.872-5.118A12,12,0,0,1,6.564,76.9a15.107,15.107,0,0,0,2.262.185,12.67,12.67,0,0,0,3.152-.408A11.981,11.981,0,0,1,2.373,64.92v-.148a12.064,12.064,0,0,0,5.415,1.52A12,12,0,0,1,4.079,50.27a34.05,34.05,0,0,0,24.7,12.535,13.523,13.523,0,0,1-.3-2.744,11.991,11.991,0,0,1,20.732-8.2,23.585,23.585,0,0,0,7.6-2.893,11.947,11.947,0,0,1-5.266,6.6,24.015,24.015,0,0,0,6.9-1.854,25.751,25.751,0,0,1-6.008,6.193Z" transform="translate(691.638 4009.32)" fill="#00acee"/></g></svg>