<svg xmlns="http://www.w3.org/2000/svg" xmlns:xlink="http://www.w3.org/1999/xlink" width="104.089" height="78.531" viewBox="0 0 104.089 78.531"><defs><filter id="a" x="0" y="0" width="104.089" height="78.531" filterUnits="userSpaceOnUse"><feOffset dy="3" input="SourceAlpha"/><feGaussianBlur stdDeviation="3" result="b"/><feFlood flood-opacity="0.161"/><feComposite operator="in" in2="b"/><feComposite in="SourceGraphic"/></filter></defs><g transform="translate(-455 -4042)"><g transform="matrix(1, 0, 0, 1, 455, 4042)" filter="url(#a)"><path d="M99.223,73.471a10.817,10.817,0,0,0-7.611-7.661C84.9,64,57.978,64,57.978,64s-26.921,0-33.634,1.811a10.817,10.817,0,0,0-7.611,7.661c-1.8,6.757-1.8,20.856-1.8,20.856s0,14.1,1.8,20.856a10.656,10.656,0,0,0,7.611,7.538c6.714,1.811,33.634,1.811,33.634,1.811s26.921,0,33.634-1.811a10.656,10.656,0,0,0,7.611-7.538c1.8-6.757,1.8-20.856,1.8-20.856s0-14.1-1.8-20.856Z" transform="translate(-5.93 -58)" fill="#fff"/></g><path d="M78.151,71.1a8.113,8.113,0,0,0-5.708-5.745C67.407,64,47.216,64,47.216,64s-20.19,0-25.226,1.358A8.113,8.113,0,0,0,16.282,71.1c-1.349,5.068-1.349,15.642-1.349,15.642s0,10.574,1.349,15.642a7.992,7.992,0,0,0,5.708,5.654c5.035,1.358,25.226,1.358,25.226,1.358s20.19,0,25.226-1.358a7.992,7.992,0,0,0,5.708-5.654C79.5,97.319,79.5,86.745,79.5,86.745S79.5,76.171,78.151,71.1ZM40.613,96.345v-19.2l16.875,9.6-16.875,9.6Z" transform="translate(459.66 3991.566)" fill="red"/></g></svg>