<?xml version="1.0" encoding="utf-8"?>
<!-- Generator: Adobe Illustrator 25.0.1, SVG Export Plug-In . SVG Version: 6.00 Build 0)  -->
<svg version="1.1" id="Layer_1" xmlns="http://www.w3.org/2000/svg" xmlns:xlink="http://www.w3.org/1999/xlink" x="0px" y="0px"
	 viewBox="0 0 624 374" style="enable-background:new 0 0 624 374;" xml:space="preserve">
<style type="text/css">
	.st0{fill:none;}
	.st1{clip-path:url(#SVGID_2_);}
	.st2{clip-path:url(#SVGID_4_);}
	.st3{opacity:0.5;}
	.st4{clip-path:url(#SVGID_6_);}
	.st5{clip-path:url(#SVGID_8_);}
	.st6{fill:url(#SVGID_9_);}
	.st7{fill:#FFC253;}
	.st8{clip-path:url(#SVGID_11_);}
	.st9{fill:#E09736;}
	.st10{fill:#FFC854;}
	.st11{fill:#40C7A7;}
	.st12{fill:none;stroke:#3B55CE;stroke-width:1.05;stroke-linecap:round;stroke-miterlimit:10;}
	.st13{fill:#3B55CE;}
	.st14{fill:#AAEEED;}
	.st15{fill:#1E4174;}
	.st16{clip-path:url(#SVGID_13_);}
	.st17{fill:none;stroke:#AAEEED;stroke-width:0.551;stroke-linecap:round;stroke-miterlimit:10;}
	.st18{clip-path:url(#SVGID_15_);}
	.st19{fill:#FF9A8D;}
	.st20{clip-path:url(#SVGID_17_);}
	.st21{clip-path:url(#SVGID_19_);}
	.st22{fill:#85B8ED;}
	.st23{fill:#4E7EAC;}
	.st24{clip-path:url(#SVGID_21_);}
	.st25{fill:none;stroke:#274D79;stroke-width:0.551;stroke-miterlimit:10;}
	.st26{clip-path:url(#SVGID_23_);}
	.st27{fill:#001C45;}
	.st28{fill:#03AA99;}
	.st29{fill:#3ED9C7;}
	.st30{fill:#BA5964;}
	.st31{fill:none;stroke:#001C45;stroke-width:0.788;stroke-linecap:round;stroke-miterlimit:10;}
	.st32{fill:#DD7A79;}
	.st33{fill:#2339A0;}
	.st34{fill:#91DBAC;}
	.st35{fill:#22A482;}
	.st36{fill:#3DC19A;}
	.st37{fill:#638BE2;}
	.st38{fill:#E5F7FF;}
	.st39{fill:#8FC9C6;}
	.st40{fill:#228C7E;}
	.st41{clip-path:url(#SVGID_25_);}
	.st42{fill:none;stroke:#8FC9C6;stroke-width:0.525;stroke-linecap:round;stroke-miterlimit:10;}
	.st43{clip-path:url(#SVGID_27_);}
	.st44{clip-path:url(#SVGID_29_);}
	.st45{fill:none;stroke:#AAEEED;stroke-width:0.525;stroke-linecap:round;stroke-miterlimit:10;}
	.st46{clip-path:url(#SVGID_31_);}
	.st47{clip-path:url(#SVGID_33_);}
	.st48{fill:none;stroke:#274D79;stroke-width:0.525;stroke-miterlimit:10;}
	.st49{clip-path:url(#SVGID_35_);}
</style>
<pattern  x="0" y="374" width="463" height="277" patternUnits="userSpaceOnUse" id="e" viewBox="0 -277 463 277" style="overflow:visible;">
	<g>
		<rect y="-277" class="st0" width="463" height="277"/>
		
			<image style="overflow:visible;enable-background:new    ;" width="463" height="277" xlink:href="8751F7F7123EA580.png"  transform="matrix(1 0 0 -1 0 0)">
		</image>
	</g>
</pattern>
<g transform="translate(-0.287 0.532)">
	<g>
		<defs>
			<rect id="SVGID_1_" x="0.3" y="-0.5" width="624" height="374"/>
		</defs>
		<clipPath id="SVGID_2_">
			<use xlink:href="#SVGID_1_"  style="overflow:visible;"/>
		</clipPath>
		<g transform="translate(0.286 -0.512)" class="st1">
			<g transform="translate(0 0)">
				<g>
					<defs>
						<rect id="SVGID_3_" x="0" y="0" width="624" height="374"/>
					</defs>
					<clipPath id="SVGID_4_">
						<use xlink:href="#SVGID_3_"  style="overflow:visible;"/>
					</clipPath>
					<g class="st2">
						<g class="st3">
							<g>
								<defs>
									<rect id="SVGID_5_" x="39" y="465" width="624" height="374"/>
								</defs>
								<clipPath id="SVGID_6_">
									<use xlink:href="#SVGID_5_"  style="overflow:visible;"/>
								</clipPath>
								<g class="st4">
									<g>
										<defs>
											<rect id="SVGID_7_" x="39" y="465" width="624" height="374"/>
										</defs>
										<clipPath id="SVGID_8_">
											<use xlink:href="#SVGID_7_"  style="overflow:visible;"/>
										</clipPath>
										<g class="st5">
											<pattern  id="SVGID_9_" xlink:href="#e" patternTransform="matrix(1.3477 0 0 -1.3466 3109.782 -19345.5664)">
											</pattern>
											<rect x="39" y="465" class="st6" width="624" height="373"/>
										</g>
									</g>
								</g>
							</g>
						</g>
					</g>
				</g>
			</g>
			<rect x="320.6" y="132.7" class="st7" width="241.5" height="163.4"/>
			<g transform="translate(0 0)">
				<g>
					<defs>
						<rect id="SVGID_10_" x="0" y="0" width="624" height="374"/>
					</defs>
					<clipPath id="SVGID_11_">
						<use xlink:href="#SVGID_10_"  style="overflow:visible;"/>
					</clipPath>
					<g class="st8">
						<path class="st9" d="M320.6,132.7l113.4,103.4c4.2,3.8,10.6,3.8,14.8,0l113.4-103.4H320.6z"/>
						<path class="st9" d="M562.1,296L441.3,170l120.8,115.3V296z"/>
						<path class="st9" d="M320.6,296l120.8-126L320.5,285.3L320.6,296z"/>
						<path class="st10" d="M320.6,132.7L432.2,227c5.3,4.5,13,4.5,18.3,0l111.6-94.3H320.6z"/>
						<path class="st11" d="M542.8,296c0,0-7.6-3.5-7.1-11.7c0.6-8.2,6.2-9.9,11-12.9c4.8-3,5.2-8,5.4-14.2
							c0.2-6.2,4.3-12.3,12.5-11.9c8.2,0.4,11.2,2.1,17.2-5s14-6.9,17.3-3c3.4,3.9,3.6,10.6-1.5,15.3c-6.2,5.7-7.8,7.1-9.6,13.3
							c-2.4,8.4,1.1,16.6-2,20.6c-4.2,5.2-8.7,3.9-13,5.7c-4.3,1.7-4.4,3.8-4.4,3.8L542.8,296z"/>
						<path class="st12" d="M591.7,242.9c-12.5,7.3-34.4,29.6-38.1,53.2"/>
						<path class="st13" d="M401.1,54.6c0-2.1,1.7-3.8,3.8-3.8s3.8,1.7,3.8,3.8s-1.7,3.8-3.8,3.8c0,0,0,0,0,0
							C402.8,58.4,401.1,56.7,401.1,54.6"/>
						<path class="st14" d="M364.1,176.7c-0.5,0.6-0.6,2,1.8,3.7s7.3,2.4,9.3,2.5s3.3-0.2,6,1.1s7.4,2.1,9,1.3
							c0.6-0.4,0.6-1.7,0.6-1.7L364.1,176.7z"/>
						<path class="st15" d="M391.4,174.6c-0.1,2,0.4,7-0.6,9.1c-2.4,1.2-6.6,0.3-9.6-1.3s-5.6-0.5-9.7-1.2c-4-0.7-7-2.6-7.4-4.4
							c-0.4-2,6.7-1.7,11.7-2c3.1-0.1,6.1-0.9,8.9-2.3L391.4,174.6z"/>
					</g>
				</g>
			</g>
			<g transform="translate(364.118 172.418)">
				<g>
					<defs>
						<path id="SVGID_12_" d="M11.8,2.3c-5,0.3-12.2,0-11.7,2C0.4,6.1,3.4,8,7.4,8.7C8.8,9,10.3,9.1,11.7,9c1.8-0.2,3.7,0.2,5.3,0.9
							c3,1.6,7.2,2.5,9.6,1.3c1-2.1,0.5-7,0.6-9.1L20.7,0C17.9,1.4,14.8,2.2,11.8,2.3"/>
					</defs>
					<clipPath id="SVGID_13_">
						<use xlink:href="#SVGID_12_"  style="overflow:visible;"/>
					</clipPath>
					<g class="st16">
						<path class="st17" d="M18.1,3.9c0,0-0.3-2.9-1.4-4"/>
						<path class="st17" d="M14.2,4.4c0,0-0.3-2.9-1.4-4"/>
						<path class="st17" d="M10.3,5c0,0-0.3-2.9-1.4-4"/>
					</g>
				</g>
			</g>
			<g transform="translate(0 0)">
				<g>
					<defs>
						<rect id="SVGID_14_" x="0" y="0" width="624" height="374"/>
					</defs>
					<clipPath id="SVGID_15_">
						<use xlink:href="#SVGID_14_"  style="overflow:visible;"/>
					</clipPath>
					<g class="st18">
						<path class="st19" d="M393.5,167.5l-2.1,7.1c-0.5,0-1,0.2-1.4,0.4c-0.5,0.3-1.3,1.7-2,1.6c-2.5-0.5-3.2-4.1-3.2-4.1l1.8-7.4
							L393.5,167.5z"/>
						<path class="st15" d="M429.8,104.9l-1,7.4l-26-0.5c-3.7,0-6.9,2.5-7.9,6.1c-1.8,6.2-8.6,48-8.6,48s3.6,2.7,7.4,2.1
							c0,0,12.3-25.3,14-32.3c1.1-4.2,1.3-8.5,0.9-12.8l31.3-2.7L429.8,104.9z"/>
						<path class="st14" d="M392,193.5c0,0.8,1,1.8,3.9,1.4s6.9-3.4,8.4-4.7s2.2-2.4,5-3.4s6.7-3.6,7.4-5.4c0.1-0.8-0.8-1.6-0.8-1.6
							L392,193.5z"/>
						<path class="st15" d="M410,172.9c1.4,1.5,5.1,4.7,5.9,6.9c-0.9,2.5-4.5,4.9-7.8,5.8s-4.3,3.6-7.7,5.9c-3.3,2.3-6.8,3-8.4,2
							c-1.7-1.1,3.6-5.9,7-9.7c2.1-2.2,3.8-4.9,4.8-7.8L410,172.9z"/>
					</g>
				</g>
			</g>
			<g transform="translate(391.677 172.938)">
				<g>
					<defs>
						<path id="SVGID_16_" d="M12.1,3.1c-1,2.9-2.6,5.6-4.8,7.9c-3.4,3.7-8.7,8.5-7,9.7c1.6,1,5,0.3,8.4-2c3.4-2.3,4.5-4.9,7.7-5.9
							s6.9-3.3,7.8-5.8c-0.8-2.2-4.6-5.4-5.9-6.9L12.1,3.1z"/>
					</defs>
					<clipPath id="SVGID_17_">
						<use xlink:href="#SVGID_16_"  style="overflow:visible;"/>
					</clipPath>
					<g class="st20">
						<path class="st17" d="M12.9,7.7c0,0-2.2-1.8-3.8-1.9"/>
						<path class="st17" d="M10.5,10.8c0,0-2.2-1.8-3.8-1.9"/>
						<path class="st17" d="M8.1,13.9c0,0-2.2-1.8-3.8-1.9"/>
					</g>
				</g>
			</g>
			<g transform="translate(0 0)">
				<g>
					<defs>
						<rect id="SVGID_18_" x="0" y="0" width="624" height="374"/>
					</defs>
					<clipPath id="SVGID_19_">
						<use xlink:href="#SVGID_18_"  style="overflow:visible;"/>
					</clipPath>
					<g class="st21">
						<path class="st19" d="M408.8,166.7l1.1,6.2c-0.3,0.4-0.6,0.8-0.7,1.3c-0.1,0.6,0.2,2.1-0.3,2.5c-2.1,1.4-5.2-0.7-5.2-0.7
							l-2.5-7.7L408.8,166.7z"/>
						<path class="st22" d="M449.4,101.8c0.9,2.4,3.1,5.3,4.4,7.6s5.5,8.3,3.1,14.7c-2.6,6.8-8.2,8.5-14.1,8.5h-13.7
							c-4,0-28.7-6.1-28.7-6.1c2.1,1.5,3.6,3.6,4.2,6.1c1.4,4.4,4.2,34.1,4.2,34.1c-1.8,1.8-4.4,2.6-7.6,2.3c0,0-7.4-23-10.5-31.5
							c-3.2-8.9-6.8-17.5-6.1-21.4c1-5.4,10.3-5.5,18-5.3s25.4,0.9,29,0.4l-1.9-6.4L449.4,101.8z"/>
						<path class="st23" d="M456.9,124.1c2.4-6.4-1.7-12.4-3.1-14.7s-3.5-5.2-4.4-7.6l-19.6,3.1l1.2,4.1c0,0,10.8,1.5,15.6-4.1
							c0,0,3.5,5.3,4.5,8.4c1.4,4.3,1,11.4-7.5,13.1c-8.5,1.7-39.9-2.9-44.1-3.4s-2.8,1.9-0.5,6.8c2.3,4.9,3.3,13.6,5.4,24.1
							c1.3,6.7,2.8,14,2.8,14c0.6-0.3,1.2-0.8,1.7-1.3c0,0-2.8-29.6-4.2-34.1c-0.7-2.5-2.2-4.6-4.2-6.1c0,0,24.7,6.1,28.7,6.1h13.7
							C448.6,132.7,454.3,131,456.9,124.1"/>
					</g>
				</g>
			</g>
			<g transform="translate(384.624 101.822)">
				<g>
					<defs>
						<path id="SVGID_20_" d="M45.2,3.1l1.9,6.4c-3.6,0.5-21.3-0.2-29-0.4s-17-0.1-18,5.3c-0.7,3.8,3,12.6,6.1,21.4
							c3,8.5,10.5,31.5,10.5,31.5c3.2,0.3,5.8-0.5,7.6-2.3c0,0-2.8-29.6-4.2-34.1c-0.7-2.5-2.2-4.6-4.2-6.1c0,0,24.7,6.1,28.7,6.1
							h13.7c5.9,0,11.6-1.7,14.1-8.5c2.4-6.4-1.7-12.4-3.1-14.7S65.7,2.4,64.8,0L45.2,3.1z"/>
					</defs>
					<clipPath id="SVGID_21_">
						<use xlink:href="#SVGID_20_"  style="overflow:visible;"/>
					</clipPath>
					<g class="st24">
						<path class="st25" d="M57.4,0c1,5.8,3.4,8.7,3.2,14s-4.5,8-17,6.9S11.8,17,10.1,17.5s-1.1,3,1.1,10.6s9.9,41.3,9.9,41.3"/>
						<path class="st25" d="M60.4,15.4c-1.8,0.3-3.6-0.2-5-1.3c-2.2-2-2.9-10.9-2.9-10.9"/>
						<path class="st25" d="M14.9,64.5c3.6,0.6,7.2-0.5,9.8-3"/>
					</g>
				</g>
			</g>
			<g transform="translate(0 0)">
				<g>
					<defs>
						<rect id="SVGID_22_" x="0" y="0" width="624" height="374"/>
					</defs>
					<clipPath id="SVGID_23_">
						<use xlink:href="#SVGID_22_"  style="overflow:visible;"/>
					</clipPath>
					<g class="st26">
						<path class="st27" d="M441.1,30.8c0,0-3.9-3.3-11.2-2.6c-5.8,0.6-10.1,3.9-11.4,8.2c-1.9,6.2,0.6,13,6.1,16.4
							c0,0-2.2,1.2,0.2,3.5c0,0-3.8,0.9-5,3s0,4.1,0.7,6.4c0.7,2.4,1,2.7-2.2,5.9s-5.9,8.8-1.4,15.9s12.2,13.2,23,12.6
							c10.9-0.6,23.2-4.2,26.3-21s-7.5-20.6-10.4-19.9c2.1-5.2,2.8-10.8,2.2-16.4c-1-9.3-5.5-13.4-9.3-13.7
							C443.2,28.8,441.1,30.8,441.1,30.8"/>
						<path class="st19" d="M438.8,64c-1.4,0.4-3.9,0.8-5.1,1.8c-1.3,1-13.9,20.6-13.9,20.6S408.2,68.2,406.4,66
							c-1.8-2.3-10.7-5.1-12.3-4.8c-2,0.4-0.9,2.9-0.5,4.5c0.2,0.9,0.6,3.5,2.2,4.6s7.5,2,7.5,2s10.5,22,12.6,25.3
							c1.4,2.1,2.9,2.2,5.5-0.7C424,94.2,434,81.1,434,81.1L438.8,64z"/>
						<path class="st28" d="M438.8,64c-2.3,0.8-4.4,0.8-5.6,2.3s-2.2,8.3-2.2,8.3s5.8-1.1,7.3-4.2c0.9-1.8,1.5-3.8,1.6-5.8L438.8,64
							z"/>
						<path class="st29" d="M446.8,60.2c0.6,0.4,1.3,0.6,2,0.7c1.3,0.2,5.5,1.1,6.3,2.7c2,2.8-0.1,12-1.2,18.5
							c-0.7,3.9-7.7,12.8-2.9,21.9c0,0-10.8,6.4-21.6,1c-1.1-5.4,0.2-9.1,0.2-15.2c-1.7-1.9-2.8-4.2-3.2-6.7
							c-0.5-7.4,6.9-9.6,12.6-17.9c1.6-2.3,2.8-2.2,5-3.9C444.8,60.6,445.8,60.3,446.8,60.2"/>
						<path class="st19" d="M450.2,63.4c3.3-2.1,5.9,0.5,7.4,4.2c1.5,3.7,9.7,26.7,10.4,29.5s-2.4,31.1-3.3,32.8
							c-0.9,1.6-1.8,2.8-5,2.8h-15c0.7-1.2,2-1.9,3.3-2.2c2.6-0.6,9.9-0.9,11.3-3.1s0.8-28.6,0.8-28.6s-9-19.3-11-24.1
							C447.1,69.8,447.8,64.9,450.2,63.4"/>
						<path class="st28" d="M451.7,62.1c-1.9,0-6.3,4.4-2.6,12.5c0,0,4.8-6.9,9.3-5.2C458.3,69.4,456.4,61,451.7,62.1"/>
						<path class="st19" d="M442.9,52.8l3.4,3l1.5,5.1c-1.1,0.7-2.1,1.6-3,2.7c-1,1.5-3.2,5.1-5.9,5.4c0.1-1.7,0.1-3.4-0.1-5
							c-0.4-1.8-1.6-5.3-1.6-5.3L442.9,52.8z"/>
						<path class="st30" d="M442.9,52.8c0.4,1.4,0.6,2.8,0.6,4.3c-0.1,1.4-1.4,4.5-4.7,6.9c-0.4-1.8-1.6-5.3-1.6-5.3L442.9,52.8z"/>
						<path class="st30" d="M428.6,46.4c-0.6,2.3-3.3,5.5-2.7,6.1c0.5,0.5,2.7,0.4,2.7,0.4c1-1,1.4-2.4,1.1-3.8
							C429.2,46.8,428.6,46.4,428.6,46.4"/>
						<path class="st19" d="M434.3,32.1c-3.2,0.3-6.3,4.7-6.3,8.7s1,6.2,0.7,9c-0.4,2.9-0.1,5.8,0.9,8.5c0.8,2,2.8,2.4,5.6,1.7
							c2.5-0.8,4.7-2.1,6.7-3.8c0.8-0.8,0.9-3.4,0.9-3.4c2.3-0.4,4.3-1.9,5.4-4C450.1,45.4,449.8,30.7,434.3,32.1"/>
						<path class="st27" d="M442.9,52.8c2-0.9,3.3-2.9,3.1-5.1c-0.3-3.9-5.5-4-5.3-0.6c-2.3-0.5-4.3-1.7-5.9-3.3
							c-4.2-4.9-4.7-8.9-4.7-8.9c0.9-6.1,10.9-4,10.9-4s5.1-2.2,9.4,0.7c3.1,2.1,4.7,9.5,2.2,15.7s-6.3,8.6-6.3,8.6L442.9,52.8z"/>
						<path class="st27" d="M431.4,47.4c0-0.5,0.5-0.9,1-0.9c0.5,0,0.9,0.5,0.9,1s-0.5,0.9-1,0.9c0,0,0,0,0,0
							C431.7,48.3,431.3,47.9,431.4,47.4"/>
						<path class="st27" d="M430.6,45l4.2,1.3c-0.1-0.9-0.7-1.6-1.5-1.9C432.3,44.1,431.3,44.3,430.6,45"/>
						<path class="st30" d="M443.9,46.8c-0.6-0.2-1.3-0.2-1.9,0.2c-0.2,0.1,0.1,0.4,0.3,0.4c1-0.4,2.1-0.4,2.6,0.7
							c0,0.1,0.1,0,0.1,0C444.9,47.5,444.4,47,443.9,46.8"/>
						<path class="st30" d="M443.4,46.9c-0.1-0.1-0.4,0.2-0.3,0.3c0.2,0.1,0.4,0.3,0.5,0.5c0.2,0.3,0.3,0.7,0.2,1.1
							c0,0.9-0.7,1.7-1.6,1.9c0,0,0,0.1,0,0.1c0.9,0.1,1.7-0.5,1.9-1.4C444.5,48.4,444.2,47.4,443.4,46.9"/>
						<path class="st19" d="M439,65.1c0.1,1.1-2,3.5-1.5,5.2s4,1.9,5.8,0c1.9-1.9,3-7.8,5.5-9.4c-0.6-0.1-1.1-0.5-1.3-1L439,65.1z"
							/>
						<path class="st15" d="M401.7,59.4c0,0-1,9,2.5,16.2c0.3,0.7,0.1,1.6-0.6,1.9l-4.2,2.3c-0.7,0.4-1.6,0.2-2.1-0.6
							c-0.1-0.1-0.1-0.3-0.2-0.5c-1.2-6.6-0.9-13.4,0.8-19.9L401.7,59.4z"/>
						<path class="st19" d="M397.3,61.8c1.1,0.3,2.6,1,2.7,2s-1.6,1.1-1.6,1.1s1.2,0.5,1.3,1.3c0.1,0.8-0.7,1.5-1.8,1.5
							c0,0,1.1,0.4,0.8,1.4c-0.4,1-2,0.2-2.4,0.9c-0.7-0.9-1.1-2-1.1-3.1C395.1,64.6,397.3,61.8,397.3,61.8"/>
						<path class="st19" d="M406.4,66c-0.8-2-2.4-3.5-4.3-4.3c-2-0.8-2.9-2.3-3.4-1.5s0.9,3.2,3,3.9L406.4,66z"/>
						<path class="st15" d="M395.2,59.1l8.7,1.1c2.2,0.3,3.6-11.3,1.4-11.5l-8.6-1.4L395.2,59.1z"/>
						<path class="st13" d="M396.7,47.3c-3.2-0.4-14.1-5.5-16.5-14.7c-9-1.1-13.2,32.1-4.2,33.2c2.5-5.7,14.8-7.2,19.2-6.6
							C396.9,59.3,398.4,47.5,396.7,47.3"/>
						<path class="st31" d="M433.2,23.4c2.8,0.7,6.9,4,7.9,7.4"/>
						<path class="st32" d="M163.6,130.4c7.2,6.6,15,11,24.1,9.3c12.8-2.4,22.8-15.5,22.8-15.5s3.3,4.3,3.3,4.7
							c0,0.4-8.5,17.2-23.8,20.6s-29.1-7.5-29.1-7.5L163.6,130.4z"/>
						<path class="st13" d="M295,221c6.1,8.6,17.4,11.4,26.8,6.8l17.1-8.4c3.2-1.6,7.2-0.5,9.1,2.5l30.8,48.5
							c2.1,3.3,1.1,7.7-2.2,9.8c-0.1,0.1-0.2,0.1-0.3,0.2c-10,5.6-30.6,15.2-53.3,13.3c-31.8-2.6-52.6-32.2-87.6-87.3
							S182.3,120,193.4,90c7.9-21.3,25.3-36,34.6-42.6c3.2-2.3,7.6-1.5,9.9,1.7c0.1,0.1,0.1,0.2,0.2,0.3L269,97.8
							c1.9,3,1.3,7.1-1.5,9.3l-14.8,11.9c-8.2,6.6-10.4,18.1-5.2,27.2L295,221z"/>
						<path class="st33" d="M255,117.2l12.5-10c2.8-2.3,3.5-6.3,1.5-9.3l-16.3-25.6L238,49.1c-2.2-3.2-6.6-4-9.8-1.8c0,0,0,0-0.1,0
							c-4.1,2.9-7.9,6.1-11.6,9.5L255,117.2z"/>
						<path class="st33" d="M362.8,286.8c4.6-1.9,9.1-4,13.5-6.5c3.4-1.9,4.6-6.2,2.6-9.6c0,0,0,0,0,0L347.3,221
							c-2.1-2.4-5.6-3.1-8.4-1.7l-14.5,7.2L362.8,286.8z"/>
						<path class="st9" d="M164.1,130.8l5.8,4.4c0,0,2.6,8.1-1.8,12.3l-7.7-4.7L164.1,130.8z"/>
						<path class="st34" d="M63.3,296c4-3.3,7.2-7.4,9.5-12c3.8-8,0.4-15-4.9-14c-5.7,1.1-6.5-3.6-8.1-9.5
							c-1.9-7.1-11-17.2-18.5-16.2c-9.6,1.3-3.5,11.6-2.6,15.4s3.4,8.1-2.6,8.6c-5.4,0.5-7.8,5.5-3.6,10.5c4,4.8,8.4,4.7,8.6,9.6
							c0.2,4.9,3.2,6.3,5.8,7.4L63.3,296z"/>
						<path class="st12" d="M45.3,252.9c0,0,13.1,17.2,9.8,43.1"/>
						<path class="st11" d="M180.7,296c2.3-3.6,2.9-8.1,1.5-12.2c-2.9-9.3-11.5-13.6-8.4-19.7c2.6-5.1,10.3-2.5,14.5,4.3
							c3.9,6.6,4.3,20.4-2,27.6H180.7z"/>
						<path class="st12" d="M179.9,266.7c0,0,11.9,12.9,4.1,29.3"/>
						<path class="st35" d="M189.5,296c6.1-4.2,11-10,13.9-16.8c4.9-11.3,5.1-24.6,0-29.3c-4.8-4.4-10.5-1.7-12,6s1.9,27.3-8.1,40.2
							L189.5,296z"/>
						<path class="st12" d="M198.9,252c0.8,8.1,0.1,16.2-1.9,24c-1.9,7.3-5.3,14.1-9.9,20"/>
						<path class="st34" d="M316.1,296c0,0,0.2-15.9-12.4-30.6c-12.6-14.8-27-20.1-39.4-15.6c-9.3,3.3-6.9,14.1,0.7,18.6
							c9,5.4,42.5,7.6,43.7,27.6H316.1z"/>
						<path class="st12" d="M265.7,257c17.1-1,43.3,14.8,46.9,39.1"/>
						<path class="st36" d="M320.1,296c0,0,8.3-8.8,6.7-25.8c-1.6-17-16.6-21.2-19.2-13c-2.1,6.5,12.5,21.5,7.3,38.8L320.1,296z"/>
						<path class="st12" d="M314.7,258.4c3.2,4.2,9.4,21.2,3.1,37.6"/>
						<path class="st37" d="M579.6,298.2H23.5c-1.2,0-2.1-1-2.1-2.2c0-1.1,0.9-2.1,2.1-2.1h556.1c1.2,0,2.1,1,2.1,2.2
							C581.7,297.2,580.8,298.1,579.6,298.2"/>
						<path class="st38" d="M502.9,351.2H159c-23.6,0-42.7-19.1-42.7-42.7c0,0,0,0,0,0v-10.3h429.2v10.3
							C545.5,332.1,526.4,351.1,502.9,351.2L502.9,351.2"/>
						<path class="st39" d="M176.4,291.7c0.3,0.6,0.1,2-2.5,3c-2.6,1.1-7.3,0.6-9.2,0.3c-1.9-0.4-3-0.9-5.8-0.3s-7.3,0.3-8.7-0.8
							c-0.5-0.6-0.2-1.7-0.2-1.7L176.4,291.7z"/>
						<path class="st40" d="M151.6,283.6c-0.4,1.9-1.9,6.4-1.5,8.5c1.9,1.6,6.1,1.8,9.2,1c3.1-0.8,5.3,0.8,9.2,1
							c3.8,0.2,7-0.8,7.8-2.5c0.9-1.8-5.8-3.1-10.4-4.5c-2.8-0.8-5.5-2.2-7.8-4.1L151.6,283.6z"/>
					</g>
				</g>
			</g>
			<g transform="translate(150.031 283.055)">
				<g>
					<defs>
						<path id="SVGID_24_" d="M1.6,0.5C1.2,2.4-0.4,6.9,0.1,9c1.9,1.6,6.1,1.8,9.2,1s5.3,0.8,9.2,1c3.8,0.2,7-0.8,7.8-2.4
							c0.9-1.8-5.8-3.1-10.4-4.5C13.1,3.3,10.4,1.9,8.2,0L1.6,0.5z"/>
					</defs>
					<clipPath id="SVGID_25_">
						<use xlink:href="#SVGID_24_"  style="overflow:visible;"/>
					</clipPath>
					<g class="st41">
						<path class="st42" d="M9.7,4.2c0,0,0.9-2.6,2.1-3.4"/>
						<path class="st42" d="M13.2,5.6c0,0,0.9-2.6,2.1-3.4"/>
						<path class="st42" d="M16.7,6.9c0,0,0.9-2.6,2.1-3.4"/>
					</g>
				</g>
			</g>
			<g transform="translate(0 0)">
				<g>
					<defs>
						<rect id="SVGID_26_" x="0" y="0" width="624" height="374"/>
					</defs>
					<clipPath id="SVGID_27_">
						<use xlink:href="#SVGID_26_"  style="overflow:visible;"/>
					</clipPath>
					<g class="st43">
						<path class="st19" d="M151.6,276v7.6c0.5,0.1,0.9,0.4,1.2,0.7c0.4,0.4,0.9,1.9,1.5,1.9c2.4,0.1,3.9-3.1,3.9-3.1l0.9-6.9
							L151.6,276z"/>
						<path class="st14" d="M90.7,293.6c-0.5,0.5-1.9,0.6-3.6-1.6c-1.7-2.2-2.5-6.9-2.7-8.8s0.1-3.1-1.2-5.6s-2.2-6.9-1.5-8.6
							c0.4-0.6,1.6-0.6,1.6-0.6L90.7,293.6z"/>
						<path class="st28" d="M91.9,267.6c-1.9,0.1-6.6-0.2-8.6,0.8c-1.1,2.3-0.1,6.3,1.5,9.1c1.6,2.8,0.6,5.3,1.4,9.2
							c0.8,3.8,2.7,6.6,4.4,6.9c1.9,0.4,1.5-6.5,1.6-11.2c0-3,0.7-5.9,1.9-8.6L91.9,267.6z"/>
					</g>
				</g>
			</g>
			<g transform="translate(82.858 267.595)">
				<g>
					<defs>
						<path id="SVGID_28_" d="M0.4,0.8C-0.6,3.1,0.4,7.2,1.9,10s0.6,5.3,1.4,9.2c0.8,3.8,2.7,6.6,4.4,6.9c1.9,0.4,1.5-6.5,1.6-11.2
							c0-3,0.7-5.9,1.9-8.6L9.1,0C7.1,0.1,2.4-0.2,0.4,0.8"/>
					</defs>
					<clipPath id="SVGID_29_">
						<use xlink:href="#SVGID_28_"  style="overflow:visible;"/>
					</clipPath>
					<g class="st44">
						<path class="st45" d="M7.7,8.8c0,0,2.7,0.2,3.9,1.2"/>
						<path class="st45" d="M7.3,12.5c0,0,2.7,0.2,3.9,1.2"/>
						<path class="st45" d="M6.9,16.3c0,0,2.7,0.2,3.9,1.2"/>
					</g>
				</g>
			</g>
			<g transform="translate(0 0)">
				<g>
					<defs>
						<rect id="SVGID_30_" x="0" y="0" width="624" height="374"/>
					</defs>
					<clipPath id="SVGID_31_">
						<use xlink:href="#SVGID_30_"  style="overflow:visible;"/>
					</clipPath>
					<g class="st46">
						<path class="st19" d="M96.8,264.1l-4.9,3.5c0,0.5-0.1,1-0.4,1.4c-0.3,0.5-1.6,1.3-1.4,1.9c0.5,2.4,4,2.9,4,2.9l6.8-3.6
							L96.8,264.1z"/>
						<path class="st15" d="M166.2,168.3c-8.5,0-14.8,0.6-14.8,0.6c-2.7,1.2-7.4,7.3-8.7,11.2s0.7,9.4,1.4,12.7
							c4,18.7,8,31.7,9.6,39.1c0.9,4.5-2.4,5.3-2.5,12.5c0,10.3,0.4,32.2,0.4,32.2c2.3,1.1,4.9,1.3,7.4,0.6c0,0,6.4-36.2,7-40.3
							c1.1-6.7,1.5-9.5,1.6-21.2C167.8,199.5,166.2,168.3,166.2,168.3"/>
						<path class="st22" d="M166.1,182.5c-1.4,6.6-10.9,14.6-10.9,14.6c-1.1,3.1-15,50.7-17.3,52.6c-2.3,1.8-36.9,20.5-36.9,20.5
							c-1.4-0.8-2.6-2-3.3-3.5c-0.4-0.7-0.6-1.5-0.8-2.3c0-0.1,0-0.2-0.1-0.3c0,0,0,0,0-0.1c0,0,17.7-18.7,21.9-20.7
							c2.3-1.2,4.7-2.1,7.1-2.8v0c4.8-22.1,4.6-39.4,8.5-51.7c0.6-2,1.4-4.1,2.2-6c1-2.2,1.7-4,2.4-5.5c0.3-0.7,0.5-1.3,0.7-1.9
							s0.4-1.1,0.6-1.6c0.1-0.3,0.2-0.7,0.3-1c0.4-1.4,0.8-2.5,1.1-3.6c0.2-0.5,0.3-0.9,0.5-1.4c0.1-0.2,0.2-0.5,0.3-0.7
							c0.1-0.2,0.2-0.5,0.3-0.7h0v0l6.6,4.9l3.2,2.4L166.1,182.5z"/>
						<path class="st23" d="M152.4,173.9c-1.2,1.6-2.6,3-4,4.3c-4.9,4.3-7.9,10.9-10.5,24.7c-3,15.5-7.9,38.6-8.5,40
							s-5,0.9-12.9,6.7c-6,4.4-14.8,13.6-18.8,17.1c-0.4-0.7-0.6-1.5-0.8-2.3c0-0.2,0-0.3-0.1-0.3c0,0,0,0,0-0.1
							c0,0,17.7-18.7,21.9-20.7c2.3-1.2,4.7-2.1,7.1-2.8v0c4.5-22.1,4.6-39.4,8.5-51.7c0.6-2,1.4-4,2.2-6c1-2.2,1.7-4,2.3-5.5
							c0.3-0.7,0.5-1.3,0.7-1.9s0.4-1.1,0.6-1.6c0.1-0.3,0.2-0.7,0.3-1c0.4-1.4,0.8-2.5,1.1-3.6c0.2-0.5,0.3-0.9,0.5-1.4
							c0.1-0.2,0.2-0.5,0.3-0.7c0.1-0.2,0.2-0.5,0.3-0.7v0l6.6,4.9L152.4,173.9z"/>
						<path class="st23" d="M166.1,182.5c0,0-4.3,5.7-16.2,6.1c-4.7,0.3-9.3-0.8-13.5-3l3.2-5L166.1,182.5z"/>
					</g>
				</g>
			</g>
			<g transform="translate(96.795 166.652)">
				<g>
					<defs>
						<path id="SVGID_32_" d="M39.7,16.2c-4.6,9.3-6.3,35.5-10.7,57.7c-2.5,0.7-4.8,1.6-7.1,2.8C17.7,78.7,0,97.4,0,97.4
							c0.4,2.6,1.9,4.8,4.2,6.1c0,0,34.6-18.7,36.9-20.5s16.2-49.5,17.3-52.5c0,0,10.2-8.3,11.7-15L46.3,0
							C44.5,3.9,44.5,6.5,39.7,16.2"/>
					</defs>
					<clipPath id="SVGID_33_">
						<use xlink:href="#SVGID_32_"  style="overflow:visible;"/>
					</clipPath>
					<g class="st47">
						<path class="st48" d="M64.3,2.8c-5,6.4-11.3,10.3-14,14.7s-4.1,13.9-7.5,31.2c-3.4,17.2-6.5,28.9-7.4,30s-6.8,2.1-15.9,8.2
							s-19.7,15.9-19.7,15.9"/>
						<path class="st48" d="M58.8,18c0,0-2,10.9-11.7,9.1"/>
						<path class="st48" d="M1.9,94c0.3,3.9,2.5,7.4,5.8,9.4"/>
					</g>
				</g>
			</g>
			<g transform="translate(0 0)">
				<g>
					<defs>
						<rect id="SVGID_34_" x="0" y="0" width="624" height="374"/>
					</defs>
					<clipPath id="SVGID_35_">
						<use xlink:href="#SVGID_34_"  style="overflow:visible;"/>
					</clipPath>
					<g class="st49">
						<path class="st19" d="M154.1,119.7l8.2,7l4.7-11.2l-9.8-5.6L154.1,119.7z"/>
						<path class="st30" d="M165.6,118.9c0,0-9.7-2.7-8.4-8.9l9.8,5.6L165.6,118.9z"/>
						<path class="st7" d="M162.1,126.4c1.9,1.6,3.1,3.8,3.4,6.3c0.4,4,0.8,9.9,1.1,18.5c0.3,7.8,1.1,30.5,1.1,30.5s-6,3.9-16,3.1
							c-9.6-0.8-13.7-5.5-13.7-5.5s1-31.9,4.2-44.5c4.7-12.9,12-15.2,12-15.2L162.1,126.4z"/>
						<path class="st30" d="M171.8,100.8c0.5,0.9,3.1,4.6,4,5.7s-2.6,1.4-2.6,1.4L171.8,100.8z"/>
						<path class="st19" d="M157.2,109.9c0.3,0.8,0.7,1.5,1.1,2.2c0.6,1,8.6,4.2,10.7,4.5s4.9-0.2,4.4-7.3s-2.4-13.2-7.1-16.4
							c-4.7-3.2-11.4,0.3-14.2,4.8S152.3,111.2,157.2,109.9"/>
						<path class="st27" d="M157.2,109.9L157.2,109.9l-1,3.3c0,0-0.8,0.4-2.9-2.2c-2.2-2.8-6.3-7.5-5.9-10.6c0.5-4,5.1-5.4,5.1-5.4
							s2.3-7.3,11.4-11.2c9.1-3.9,13.1,2.7,6.1,7.5c0,0,4.8,2.4,1.8,4.3s-11.8,1.6-11.8,1.6s4.3,1.6,3,2.9s-6.8,0.7-6.8,0.7l0.7,2.8
							c0,0-2.3-0.7-3.5,0.8C151.8,106.1,154.1,110.8,157.2,109.9"/>
						<path class="st31" d="M151.5,86.5c0,0-2.7,5.8,2.4,9.8c0,0-5.1-0.2-6.1-5"/>
						<path class="st27" d="M168.3,102.2c-0.2-0.5-0.7-0.7-1.1-0.5s-0.7,0.7-0.5,1.1c0.2,0.5,0.7,0.7,1.1,0.5c0,0,0,0,0,0
							C168.2,103.2,168.4,102.7,168.3,102.2"/>
						<path class="st27" d="M168.4,99.8l-3.5,2.3c-0.1-0.8,0.2-1.7,0.9-2.1C166.5,99.4,167.5,99.3,168.4,99.8"/>
						<path class="st30" d="M154.4,105.2c0.5-0.4,1.2-0.5,1.8-0.3c0.2,0.1,0,0.4-0.2,0.4c-1-0.1-2.1,0.2-2.2,1.3c0,0.1-0.1,0-0.1,0
							C153.7,106.1,153.9,105.5,154.4,105.2"/>
						<path class="st30" d="M154.8,105.2c0.1-0.1,0.4,0.1,0.4,0.2c-0.2,0.2-0.3,0.3-0.4,0.6c-0.1,0.4-0.1,0.7,0.1,1.1
							c0.3,0.8,1,1.4,1.9,1.3c0,0,0.1,0,0,0.1c-0.8,0.3-1.7,0-2.1-0.8C154.2,106.8,154.2,105.8,154.8,105.2"/>
						<path class="st9" d="M150.5,126.8c-2,1-4.6,6.8-2.7,13c1.8,6.2,4.2,12.6,4.2,12.6s9.6-2.3,12.1-8.3c0,0-3.4-8.2-4.9-11.6
							S155.5,124.1,150.5,126.8"/>
						<path class="st9" d="M160.5,162.7c2.1,2.1,5.1,4.5,6.7,5.1c-0.1-3.6-0.3-6.7-0.4-10l-7.2-9.5l-4.7-1.3l-1.7,4.9
							C153.3,151.9,157.1,159.3,160.5,162.7"/>
						<path class="st19" d="M152.8,126.7c-4.5,1.2-6.1,7.7-1.5,17.7c4.4,9.6,11.4,18.4,15.7,21.4s21,2,35-2.1c0,0,8-2.9,10.2-4.8
							c4.9-4.4,5.2-10.2,1.6-9.3c-3.6,0.9-9.4,4.8-9.4,4.8s-1.5-3-2.6-5.3c0,0-1,0.3-1.3,2.3c-0.3,2.1-0.3,5-0.9,5.4
							c-1.6,1.1-24,3-26.7,0.4c-3-3-7.4-10.9-10.5-18.2C158.8,130.8,157.4,125.5,152.8,126.7"/>
						<path class="st7" d="M151.2,125.7c-2,1-4.6,6.8-2.7,13c1.8,6.2,4.2,12.6,4.2,12.6s9-1.4,12.8-6.5c0,0-4.1-10.1-5.7-13.4
							C158.3,127.9,156.3,123,151.2,125.7"/>
					</g>
				</g>
			</g>
		</g>
	</g>
</g>
</svg>
