<svg id="Layer_1" data-name="Layer 1" xmlns="http://www.w3.org/2000/svg" viewBox="0 0 194.32 250">
  <defs>
    <style>
      .cls-1 {
        fill: #50bfa5;
      }

      .cls-2 {
        fill: #3c8f7c;
      }

      .cls-3 {
        fill: #f7cc7f;
      }

      .cls-4 {
        fill: #96d9c9;
      }

      .cls-5 {
        fill: #466eb6;
      }

      .cls-6 {
        fill: #9bc1f9;
      }

      .cls-7 {
        fill: #fae0b2;
      }

      .cls-8 {
        fill: #efefef;
      }

      .cls-9 {
        fill: #f79c8d;
      }

      .cls-10 {
        fill: #f47458;
      }

      .cls-11 {
        fill: #184655;
      }

      .cls-12 {
        fill: #b75742;
      }

      .cls-13 {
        fill: #86b1f2;
      }

      .cls-14 {
        fill: #bf6849;
      }

      .cls-15 {
        fill: #f8a492;
      }

      .cls-16 {
        fill: #fe875e;
      }

      .cls-17 {
        fill: #f7a491;
      }

      .cls-18 {
        fill: #355389;
      }

      .cls-19 {
        fill: #13375b;
      }

      .cls-20 {
        fill: #f1b56c;
      }

      .cls-21 {
        fill: #fff;
      }

      .cls-22 {
        fill: #f48c7f;
      }
    </style>
  </defs>
  <g>
    <path class="cls-1" d="M294.86,134.33a2.12,2.12,0,0,0,.6,2.28c1.11.92,4.15-1,5.16-1.41s1.34,0,1.34,0-1.87-4.73-5.32-4.26C294.58,131.21,294.37,132.7,294.86,134.33Z" transform="translate(-111.71)"/>
    <path class="cls-2" d="M299.46,135a4.25,4.25,0,0,1-1.46-.6,31.35,31.35,0,0,1,3.19.44c-.52-.17-1.19-.33-1.92-.5.09-.46,1-.56,1-.56s.06,0,.06,0a0,0,0,0,0,0-.06h0s-1,.1-1.07.63l-1-.19c.17-.81,1.43-1.14,1.44-1.14a.05.05,0,0,0,0-.06,0,0,0,0,0-.06,0c-.06,0-1.34.34-1.51,1.22-.36-.06-.72-.1-1.07-.13.08-1.05,1.56-1.71,1.57-1.71a0,0,0,0,0,0-.07,0,0,0,0,0,0,0c-.07,0-1.55.69-1.63,1.79a10.26,10.26,0,0,0-1.24,0,2.86,2.86,0,0,1,1.1-2,0,0,0,0,0,0-.07,0,0,0,0,0-.06,0,2.84,2.84,0,0,0-1.14,2.08c-.16,0-.32,0-.47.06a1.54,1.54,0,0,1-2-1,.18.18,0,0,0-.21-.12c-.4.09.12,1,.53,1.27a2.35,2.35,0,0,0,2.08.21,2.28,2.28,0,0,0,1.45,1.48h0a.05.05,0,0,0,0,0,0,0,0,0,0,0-.06,2.19,2.19,0,0,1-1.38-1.4,5.84,5.84,0,0,1,.93-.08c.31.71,1.6,1,1.66,1h0a0,0,0,0,0,.05,0,0,0,0,0,0,0-.06s-1.26-.29-1.58-.93c.39,0,.8,0,1.21,0a3.84,3.84,0,0,0,1.58.7s.05,0,.06,0A.07.07,0,0,0,299.46,135Z" transform="translate(-111.71)"/>
    <path class="cls-3" d="M203,18.92l-3.76-.87-1,2.69L194.53,20l-1.36,2.44-2.88-.18v1.16l3.85.25,1.29-2.32,3.9.76,1-2.64,3.41.78Z" transform="translate(-111.71)"/>
    <path class="cls-4" d="M269.3,21.15l.14-1.27-1-.83a.18.18,0,0,1,0-.25.31.31,0,0,1,.1-.05l1.25-.26.49-1.18a.16.16,0,0,1,.21-.11.16.16,0,0,1,.11.1l.63,1.1,1.27.11a.18.18,0,0,1,.18.16.16.16,0,0,1-.06.13l-.85.95.29,1.23a.18.18,0,0,1-.11.22.15.15,0,0,1-.13,0l-1.17-.52-1.09.67a.16.16,0,0,1-.23,0,.18.18,0,0,1,0-.16Z" transform="translate(-111.71)"/>
    <path class="cls-1" d="M293.42,88.52c-.34,2.6,2.37,4.66,4.77,4.49a5.9,5.9,0,0,0,5.3-5c.42-2.83-1.28-5.09-3.9-5.29A3.27,3.27,0,0,0,296,85.63a3.16,3.16,0,0,0,.18,1.49c.52,1.65,2,2.26,2.78,1.81a.75.75,0,0,0,.34-1,.78.78,0,0,0-.5-.4.75.75,0,0,0-.73.32,2.18,2.18,0,0,1-.82-2.62c.52-1.57,2.5-1.65,3.74-.92a3.7,3.7,0,0,1,1.24,4.53A4.82,4.82,0,0,1,298.14,92a3.76,3.76,0,0,1-4-3.44.38.38,0,0,0-.4-.34.38.38,0,0,0-.34.34Z" transform="translate(-111.71)"/>
    <path class="cls-3" d="M132.42,34.34l0-2.39-2-1.34a.34.34,0,0,1-.07-.47.44.44,0,0,1,.15-.12l2.27-.75.66-2.3a.33.33,0,0,1,.42-.21.36.36,0,0,1,.16.11l1.41,1.92,2.39-.08a.34.34,0,0,1,.33.34.35.35,0,0,1,0,.18l-1.39,1.94.82,2.25a.34.34,0,0,1-.22.42.31.31,0,0,1-.19,0l-2.28-.72L133,34.59a.34.34,0,0,1-.47-.07.32.32,0,0,1-.06-.18Z" transform="translate(-111.71)"/>
    <path class="cls-3" d="M294.85,114.94a2,2,0,1,1,2.15,1.88,2,2,0,0,1-2.15-1.88Z" transform="translate(-111.71)"/>
    <path class="cls-3" d="M298.28,120.64a15.11,15.11,0,0,0-.4-1.77.47.47,0,0,0-.6-.27.46.46,0,0,0-.29.45,15.74,15.74,0,0,0,.38,1.91.48.48,0,0,0,.61.29.49.49,0,0,0,.3-.61Z" transform="translate(-111.71)"/>
    <path class="cls-3" d="M301.74,118.14a19.22,19.22,0,0,1-1.87-1.34.46.46,0,1,0-.61.69,8.76,8.76,0,0,0,2,1.54.5.5,0,0,0,.67-.18.48.48,0,0,0-.18-.67l-.05,0Z" transform="translate(-111.71)"/>
    <path class="cls-3" d="M300.47,114.53a.35.35,0,0,0-.09.47c.23.41.8.39,1.21.37a4.4,4.4,0,0,0,1.25-.24.49.49,0,0,0,.24-.65.5.5,0,0,0-.56-.27C301.35,114.61,300.91,114.17,300.47,114.53Z" transform="translate(-111.71)"/>
    <path class="cls-3" d="M299.83,110.6c-.59.86-1.07,1.15-1,1.63a.4.4,0,0,0,.44.36l.08,0c.32-.07.49-.4.68-.63s.36-.46.52-.7a.5.5,0,0,0-.05-.68.49.49,0,0,0-.69,0Z" transform="translate(-111.71)"/>
    <path class="cls-3" d="M297.54,110.45a2.14,2.14,0,0,0-.48-1,.42.42,0,0,0-.59,0,.34.34,0,0,0-.09.18,1.91,1.91,0,0,0,.24,1,.48.48,0,0,0,.61.31.49.49,0,0,0,.32-.61v0Z" transform="translate(-111.71)"/>
    <path class="cls-3" d="M295.07,111.71c-.85-.64-1-.82-1.36-.78a.39.39,0,0,0-.37.42c.08.41.32.52,1.1,1.09a.49.49,0,0,0,.67,0,.47.47,0,0,0-.05-.67Z" transform="translate(-111.71)"/>
    <path class="cls-3" d="M291.66,114.66a.45.45,0,0,0-.1.63.41.41,0,0,0,.27.17,7.83,7.83,0,0,0,2.16-.31.51.51,0,0,0,.46-.52.5.5,0,0,0-.52-.46A9.32,9.32,0,0,0,291.66,114.66Z" transform="translate(-111.71)"/>
    <path class="cls-3" d="M294.3,117.41c-.92.9-1.06.74-1.42,1.28a.42.42,0,0,0,.19.56.45.45,0,0,0,.2,0,1.78,1.78,0,0,0,1-.52c.28-.22.55-.46.81-.71a.49.49,0,0,0-.05-.7.5.5,0,0,0-.69,0Z" transform="translate(-111.71)"/>
    <path class="cls-5" d="M213.92,8.13l5.89,8.08,3.9-4.26Z" transform="translate(-111.71)"/>
    <path class="cls-6" d="M224.23,9.71,223.71,12l-9.79-3.82Z" transform="translate(-111.71)"/>
    <path class="cls-6" d="M223.71,12.8l-9.79-4.67,9.1,8.08Z" transform="translate(-111.71)"/>
    <path class="cls-3" d="M229.65,22.49a10,10,0,0,1-4-1.54,6.93,6.93,0,0,1-3-4.13.27.27,0,0,1,.29-.24.26.26,0,0,1,.24.24A6.5,6.5,0,0,0,226,20.5,9.77,9.77,0,0,0,229.7,22a.25.25,0,0,1,.23.29.26.26,0,0,1-.28.23Z" transform="translate(-111.71)"/>
    <path class="cls-3" d="M240.35,24.88a27.59,27.59,0,0,1-8.67-3.35c-2.23-1.33-4-3.35-6.3-4.47a.28.28,0,0,1-.12-.36.27.27,0,0,1,.35-.11c2.35,1.16,4.14,3.18,6.34,4.49a26.81,26.81,0,0,0,8.51,3.28,16.72,16.72,0,0,0,3.87.24.27.27,0,0,1,.3.23.28.28,0,0,1-.24.3h0a17.29,17.29,0,0,1-4-.25Z" transform="translate(-111.71)"/>
    <path class="cls-7" d="M290,29c-11.06-4.05-22.05-1.83-24.54,5-1.24,3.4-.13,7.3,2.69,10.85L260,53.15l12.3-4.33A32.73,32.73,0,0,0,281,53.56c11.06,4,22.05,1.83,24.53-5S301.06,33,290,29Z" transform="translate(-111.71)"/>
    <path class="cls-3" d="M277.46,39.69a7.42,7.42,0,1,0,2.62-5A7.43,7.43,0,0,0,277.46,39.69Z" transform="translate(-111.71)"/>
    <path class="cls-8" d="M288.72,41.86a4,4,0,0,1-7.92-.69Z" transform="translate(-111.71)"/>
    <path class="cls-1" d="M120.1,50.23l-1.61.16L118,47.84l-2.38-.05L114.85,46l-.93.36,1,2.47,2.25,0,.57,2.65,2.42-.24Z" transform="translate(-111.71)"/>
    <path class="cls-9" d="M290.31,68.19,287.71,65l-1.93,1.91-.92-.92,3-2.94,2.58,3.15,2.24-2.29,2.41,2.83,2.62-2,.8,1-3.61,2.81-2.29-2.69Z" transform="translate(-111.71)"/>
    <path class="cls-10" d="M223.36,249.65H193.63L191,220.19H226Z" transform="translate(-111.71)"/>
    <ellipse class="cls-11" cx="96.79" cy="221.14" rx="16.32" ry="1.73"/>
    <path class="cls-12" d="M192.17,221.14c2.5-1,8.87-1.73,16.32-1.73s13.82.72,16.32,1.73c.74-.3,1.14-.62,1.14-.95,0-1.48-7.82-2.69-17.46-2.69S191,218.7,191,220.19C191,220.52,191.44,220.84,192.17,221.14Z" transform="translate(-111.71)"/>
    <path class="cls-2" d="M209.65,221.33a.72.72,0,0,1-.4-.12.78.78,0,0,1-.21-1.05c3-4.7,4.35-11.87.76-17.32-2.94-4.45-9.34-9.74-7.48-16.29a27.77,27.77,0,0,1,5.63-9.91.71.71,0,0,1,1-.1l0,0a.77.77,0,0,1,.07,1.07,26,26,0,0,0-5.32,9.34c-1.6,5.61,4.4,10.65,7.28,15,3.69,5.59,2.83,13.36-.75,19a.72.72,0,0,1-.61.34Z" transform="translate(-111.71)"/>
    <path class="cls-1" d="M213.28,192.77a11.46,11.46,0,0,0-3,9.09S213.71,200.13,213.28,192.77Z" transform="translate(-111.71)"/>
    <path class="cls-2" d="M216.59,191.61s-6,3.89-6.31,10.26C210.28,201.85,216.8,198.19,216.59,191.61Z" transform="translate(-111.71)"/>
    <path class="cls-1" d="M205.33,210.13a11.44,11.44,0,0,0,4.26,8.57S210.82,215.06,205.33,210.13Z" transform="translate(-111.71)"/>
    <path class="cls-2" d="M206.87,207.88s-1.52,7,2.73,11.73C209.59,219.61,211.65,212.42,206.87,207.88Z" transform="translate(-111.71)"/>
    <circle class="cls-6" cx="97.3" cy="112.35" r="69.27"/>
    <path class="cls-13" d="M232.73,47.24a69.29,69.29,0,0,1-60.29,124A69.29,69.29,0,0,0,245.56,53.48,70.1,70.1,0,0,0,232.73,47.24Z" transform="translate(-111.71)"/>
    <path class="cls-14" d="M142.62,92.53c2.9,5.66,11.81,11,15.15,11,3.72,0,7.21,5.63,7.21,5.63h1.46c1.47,0-.45,5.63-1.23,10s4.11,5.92,6.75,8.57.29,14.13,2.48,16.33,7.94,6.25,8.67,5.52-2.47-7.44-.33-10.81,3.6-7.1,6-11.26,7.66-3.61,8.23-9.35-7.32-6.76-11.94-6.76-5.07-4.06-9.12-5.63-8.57,2.14-9.65,2.14-3.53-5.41-5.67-6.53-5.86-.46-6.76-3.38,5.29-3.27,10.58-3.27,5.63-1.24,5.63-4.39,6-4.85,10.93-9.8-.46-10.25-3.5-9.35-10.69,2.48-9.34-.67,11.49-2.82,11.49-2.82l3-1.57c3-1.58-8.11-2.79-9-2.79s1.68-3.07.45-4.31-3,2.8-5.19,2.8a37.47,37.47,0,0,0-8,1.47,1.39,1.39,0,0,1-.73-.06A69.25,69.25,0,0,0,142.62,92.53Z" transform="translate(-111.71)"/>
    <path class="cls-14" d="M168.81,59.88c3.27-1.68.56-3.49.56-3.49l-1.16,0c-1.79,1.31-3.51,2.69-5.16,4.16A9.07,9.07,0,0,0,168.81,59.88Z" transform="translate(-111.71)"/>
    <path class="cls-14" d="M180,58s-4.84,3.49-3.6,3.49a11.85,11.85,0,0,1,7.2,3.05c2.31,2.31,2.37,2,1.69,4.5s10-1.18,8.45-2.7l-1.51-1.52a7.3,7.3,0,0,1-2.53-4.08C189.08,58.08,180,58,180,58Z" transform="translate(-111.71)"/>
    <path class="cls-14" d="M197.64,52.56s-9.23.46-9.23,2.6v2.13s4.58,0,5.44,2.48l.87,2.48a9.31,9.31,0,0,1,2.28,7.1c-.6,4.05-.48,6.08,2.9,6.08s6.75-8.34,11-9.46,5.19-3,5.86-8S197.64,52.56,197.64,52.56Z" transform="translate(-111.71)"/>
    <path class="cls-14" d="M250.44,92s-28.67,11.69-32,15-.57,6.75-.57,10.92,11.26,2.93,13.07,1.13,3.26,1.91,5,8.11-4.05,17.7-.45,18.36,16.78-11.38,19.82-20.05,3.6-17.23-1.91-21.51S250.44,92,250.44,92Z" transform="translate(-111.71)"/>
    <path class="cls-14" d="M257,62.39c-4.59.58-9.2,1.52-9.47,2.9-.56,2.79-.57,2.82-.57,2.82h-10.7c-3.83,0-6.75,3.49-6.75,5.63s6.25,2.19,4.73,3.71-7.61,1.3-9.13,2.82l-1.52,1.51s-3.66,6.14-6,7.49-3.16.56-2.37,1.34,7.1,1.8,9.69-.78c0,0,4.59-2.93,5.91-3.16s1.5.76,2.34,1,2.53.81,2.53,1.29-.37,1.35-.12,1.35,1.22-1.55,1.22-1.81S236,88,236,88l1.1.11v-.22a5.52,5.52,0,0,1-1.89-.62c-.37-.37-.5-.93-.84-1.27s.56-1.74.93-1.74,2.51,2.41,3.49,2.41h1A11.31,11.31,0,0,1,242.92,88l1.46.95s3.27,2.62,3.27,3.66,1.61,8.54,3.56,8.14,6.38-4,8.94-5.37,3.38-1.58,9-1c1.9.2,4.42.7,7.06,1.08A69.12,69.12,0,0,0,257,62.39Z" transform="translate(-111.71)"/>
    <path class="cls-12" d="M168.21,61.54a.15.15,0,0,1-.15-.15.12.12,0,0,1,.06-.12,4.67,4.67,0,0,1,4.76-.18.16.16,0,1,1-.11.29h0a4.3,4.3,0,0,0-4.45.14A.14.14,0,0,1,168.21,61.54Z" transform="translate(-111.71)"/>
    <path class="cls-15" d="M169.55,68.93a3.75,3.75,0,0,0-1.86.6,34.46,34.46,0,0,1-3.4-1.54s-9.28-4.56-9.77-4.83l-6.7-8.4-5.16,2.37s7.53,8.93,8,9.33,13.78,5,14.94,5.49c0,0,1.16,1.07,1.92,1.71a7.93,7.93,0,0,0,2,1,8.33,8.33,0,0,0,2.05.72c1,.21.16-.47.16-.47s-1.79-.76-1.7-.89,1,.36,2.14.62l.84.19c.69.14,1-.25.29-.52a6.32,6.32,0,0,0-1-.31,6,6,0,0,1-.88-.35,7,7,0,0,1-.9-.36s0-.14.26-.08a16.07,16.07,0,0,0,1.68.47c.31,0,1,.15,1,.15s1.15.11,1.16-.05c0-.35-.69-.55-1.13-.54a4.05,4.05,0,0,0-1-.24s-1.34-.53-1.25-.73a10.65,10.65,0,0,1,1.69.1c.91.06,1.57.06,1.61-.11s-.64-.39-.64-.39l-.84-.13c-.25-.06-1-.28-1-.28s-2.46-.9-2.37-1.08.49-.56.67-.56.49.16.66.16.55,0,.57-.25-.93-.67-.93-.67A3,3,0,0,0,169.55,68.93Z" transform="translate(-111.71)"/>
    <path class="cls-2" d="M152.48,60s-1.68,1.51-2.36,2-3.4,1.76-3.4,1.76-2.8-4.27-4-6.42c-1.48-2.6-2.52-6.47-2.16-6.57a5.1,5.1,0,0,1,3.59.1C148.46,52.83,152.48,60,152.48,60Z" transform="translate(-111.71)"/>
    <path class="cls-16" d="M167.93,71.17a1.61,1.61,0,0,0,1.83-.7C169.83,71.27,168.61,71.67,167.93,71.17Z" transform="translate(-111.71)"/>
    <path class="cls-17" d="M125.14,125.18s-.19,3.27-.19,3.28a18.06,18.06,0,0,0-.34,1.82c0,1.42,6.32-1.21,4.9-1.84-.12-.05-.8-.48-.84-1-.06-.74-.23-2.25-.23-2.25Z" transform="translate(-111.71)"/>
    <path class="cls-11" d="M129.5,128.43a22.1,22.1,0,0,1-2.24.54c-.76.11-1.76-.8-2.3-.56s-.57,2.72-.57,2.72,8,.7,10.19,0C135.46,130.82,132.53,129.44,129.5,128.43Z" transform="translate(-111.71)"/>
    <path class="cls-17" d="M115,125l-.18,3.28c-.07.42-.34,1.44-.34,1.82,0,1.42,6.32-1.21,4.9-1.83-.13-.06-1-.81-1-1.3-.06-.74,0-1.92,0-1.92Z" transform="translate(-111.71)"/>
    <path class="cls-11" d="M119.35,128.23a21.66,21.66,0,0,1-2.25.54c-.75.11-1.76-.8-2.29-.55s-.62,2.71-.62,2.71a98.28,98.28,0,0,0,10.24,0C125.35,130.77,122.38,129.24,119.35,128.23Z" transform="translate(-111.71)"/>
    <path class="cls-11" d="M116.42,73.34a39.81,39.81,0,0,0-.64,9.71c.44,4.19.47,19.06.47,19.06l-1.66,23.8,4,.1s4.68-23.8,4.59-23.18,1.57-16.75,1.57-16.75l-5.58-13.27Z" transform="translate(-111.71)"/>
    <path class="cls-18" d="M117.91,69.77s-4.85,5.09-3,10.66c.72,2.23,7.48,23.58,7.57,25.32s2.28,21,2.28,21l4.6-.14,1-21.44L129,76.32l-2.79-4.86Z" transform="translate(-111.71)"/>
    <path class="cls-1" d="M147.36,53.19a43,43,0,0,0-5-4.27,16.45,16.45,0,0,0-2.9-2.05c-1.24-.42-3.36-1.56-6.41,3.07-2.19,3.31-16,20.45-18.28,21L129.54,78c.41-3.37,7.73-9.75,8.78-10.94C140.67,64.43,148.86,54.87,147.36,53.19Z" transform="translate(-111.71)"/>
    <path class="cls-17" d="M146.66,46l-4.61,2.69s-.13,3.93,1.38,4.95c1.26.86,2.23-1.2,2.23-1.2a13.93,13.93,0,0,1,3-3.11C150,48.6,146.66,46,146.66,46Z" transform="translate(-111.71)"/>
    <path class="cls-10" d="M145.89,47.74a9.52,9.52,0,0,0,1.2,3,7,7,0,0,1,1.59-1.38c.6-.34.22-1.08-.37-1.77-.83-.86-1.65-1.56-1.65-1.56l-.88.52A4.14,4.14,0,0,0,145.89,47.74Z" transform="translate(-111.71)"/>
    <path class="cls-17" d="M149.07,39.26c-.08-.09-3.87,4.61-3.41,6.82s2.76,4.23,4.36,3.67c1.76-.61,5-6.15,3.86-8.85S149.07,39.26,149.07,39.26Z" transform="translate(-111.71)"/>
    <path class="cls-19" d="M153.22,37.78a7.18,7.18,0,0,0-6.36-.13c-2.48,1.29-3,4.55-2.27,6.53a3.19,3.19,0,0,1-.11,3.11l1.31-.76a6.28,6.28,0,0,0,.87-2.15c.1-1,1.5-.79,2.18-1.22.52-.33,1.19-1.41,2-2a6.88,6.88,0,0,1,3.19.32C155.84,42.51,155.59,39.09,153.22,37.78Z" transform="translate(-111.71)"/>
    <path class="cls-15" d="M160.55,75.87a8.74,8.74,0,0,0-2-.11,36.29,36.29,0,0,1-3.09-2.46s-8.36-7.07-8.79-7.47l-4.58-10.12-6.05.9s5.64,11.91,6,12.41,12.78,7.74,13.85,8.51c0,0,.94,1.36,1.56,2.2a17.67,17.67,0,0,0,3.7,2.86c1,.5.27-.41.27-.41s-1.64-1.24-1.53-1.34,1,.64,2,1.21l.8.42c.66.33,1.05,0,.41-.42a6,6,0,0,0-.9-.58,7.5,7.5,0,0,1-.81-.58,9.3,9.3,0,0,1-.81-.59s0-.17.26,0,1,.71,1.58.93c.31.12.94.42.94.42a5.16,5.16,0,0,0,1,.06c.19-.29-.36-.51-.8-.63a5.46,5.46,0,0,0-.92-.5s-1.23-.89-1.11-1.06.77.43,1.66.76,1.51.17,1.59,0-.48-.4-.48-.4a9.08,9.08,0,0,1-1.05-.31,18.82,18.82,0,0,1-2.83-2.33.93.93,0,0,1,.73-.1l.65.22c.18.06.48-.15.56-.35s-.58-.58-.58-.58A3.34,3.34,0,0,0,160.55,75.87Z" transform="translate(-111.71)"/>
    <path class="cls-4" d="M137,61.53s1.74-.55,2.85-1.06c.75-.34,4-2,4-2a70.69,70.69,0,0,0-2.35-8c-3.49-7.81-7.45-2.42-8-1.18C132.28,52.11,137,61.53,137,61.53Z" transform="translate(-111.71)"/>
    <path class="cls-11" d="M179.06,33.61c-1,5.41-4.27,16.79-9.57,16.62-.26-7.43-.62-13.81-1.13-15.82a8.66,8.66,0,0,0-.42-1.21c3.3.28,5.29-4.76,6.05-8.3-.68,2.25-2.22,5.86-4.23,7.06a2.54,2.54,0,0,1-2.3.25c-1.92-3.58-5.54-6-7.29-8.09-.69-.86-.82-3-.72-5.19h-.19a22.16,22.16,0,0,0,0,3.26c.27,2.88,1.76,3.06,5.17,6.94,2.73,3.05,3.68,4.7,3.78,16.41a4.79,4.79,0,0,1-.76.1c-2.79,0-5.37-2.66-6.79-5,1.13,2.17,3.12,4.61,5.46,5.35a5,5,0,0,0,1.33.23,4.84,4.84,0,0,0,.76,0c.06,1,.37,21.15.1,34.15.82,0,.67-.38,1.48-.32,0-3.52.15-16.68-.22-28.24C175.73,51.48,178.32,40,179.06,33.61Z" transform="translate(-111.71)"/>
    <path class="cls-3" d="M172.18,80h.63V55.08a.32.32,0,0,0-.31-.32h0a.32.32,0,0,0-.32.32h0Z" transform="translate(-111.71)"/>
    <path class="cls-20" d="M164.78,80.91s2.92-3.52,5.28-2.52,2.73-.81,4-.21a14.09,14.09,0,0,1,2.77,2.09Z" transform="translate(-111.71)"/>
    <path class="cls-7" d="M170.43,62.12a4.94,4.94,0,0,1-2.29-.59.16.16,0,0,1-.06-.22.15.15,0,0,1,.2-.06,4.05,4.05,0,0,0,4.44-.15.15.15,0,0,1,.21,0,.14.14,0,0,1,0,.21A4.27,4.27,0,0,1,170.43,62.12Z" transform="translate(-111.71)"/>
    <path class="cls-7" d="M168.31,61.56l-.27-.17c-.21-.12-2-1.21-2.08-2a.59.59,0,0,1,.23-.5.83.83,0,0,1,.87-.2c.87.34,1.18,2.38,1.21,2.61Zm-1.51-2.67a.71.71,0,0,0-.41.19.26.26,0,0,0-.12.24c0,.49,1,1.23,1.64,1.64-.14-.7-.46-1.84-1-2A.4.4,0,0,0,166.8,58.89Z" transform="translate(-111.71)"/>
    <path class="cls-7" d="M166.38,63.43a.46.46,0,0,1-.38-.24.55.55,0,0,1-.05-.5c.25-.67,1.69-1.18,1.86-1.23l.37-.13-.19.35c-.17.29-1,1.73-1.61,1.74Zm1.12-1.52c-.49.21-1.13.55-1.26.89a.29.29,0,0,0,0,.24c.05.08.1.08.12.08.26,0,.75-.63,1.12-1.21Z" transform="translate(-111.71)"/>
    <path class="cls-7" d="M168.45,61.33a.27.27,0,1,1-.26-.26.27.27,0,0,1,.26.26Z" transform="translate(-111.71)"/>
    <path class="cls-10" d="M111.71,249.65h2.48V117.81a1.24,1.24,0,0,0-1.24-1.24h0a1.24,1.24,0,0,0-1.24,1.24Z" transform="translate(-111.71)"/>
    <path class="cls-10" d="M128.48,249.65H131V115.58a1.23,1.23,0,0,0-1.24-1.24h0a1.24,1.24,0,0,0-1.24,1.24Z" transform="translate(-111.71)"/>
    <rect class="cls-10" x="1.76" y="130.86" width="17.09" height="1.49"/>
    <rect class="cls-10" x="1.76" y="150.8" width="17.09" height="1.49"/>
    <rect class="cls-10" x="1.76" y="170.73" width="17.09" height="1.49"/>
    <rect class="cls-10" x="1.76" y="190.67" width="17.09" height="1.49"/>
    <rect class="cls-10" x="1.01" y="213.65" width="17.09" height="1.49"/>
    <rect class="cls-10" x="1.01" y="231.8" width="17.09" height="1.49"/>
    <path class="cls-10" d="M187,10.52l-12.46,2.72a1.37,1.37,0,0,1-1.62-1.05h0l-1.71-7.82a1.37,1.37,0,0,1,1.05-1.63L184.73,0a1.37,1.37,0,0,1,1.63,1.05l1.7,7.82a1.38,1.38,0,0,1-1,1.63Z" transform="translate(-111.71)"/>
    <path class="cls-10" d="M172.54,8.13l-3.47,5.6,5.32-2.29Z" transform="translate(-111.71)"/>
    <path class="cls-21" d="M176.45,6.56l1.35-.33s1.41-1.66,1.37-2.12-.55-1.36-.31-1.54a.91.91,0,0,1,1.27.12c.35.37.5,2,.68,2.07a7.31,7.31,0,0,0,1.46-.25,1,1,0,0,1,1,.33h0a.57.57,0,0,1,0,.7l-.25.32.31.26a.55.55,0,0,1,.07.77l-.2.24.2.14a.56.56,0,0,1,.13.77l0,.05-.18.19,0,.06a.56.56,0,0,1,0,.74l-.18.19-3.6.87a2.38,2.38,0,0,1-1,0l-1.31.1a.28.28,0,0,1-.3-.22l-.72-3.16a.29.29,0,0,1,.22-.34Z" transform="translate(-111.71)"/>
    <path class="cls-1" d="M251.11,27.31l1.22,0,.55-1.12,1.37.14.23-1.37,1.55.09.36-1.23,1.51-.16.06.57-1.13.12-.38,1.3L255,25.6l-.23,1.4-1.51-.16-.54,1.09-1.13,0-.21.78-.55-.14Z" transform="translate(-111.71)"/>
    <path class="cls-13" d="M249.27,37.37c-.21,1.62,1.48,2.91,3,2.81a3.72,3.72,0,0,0,3.31-3.11,2.72,2.72,0,0,0-2.44-3.31,2,2,0,0,0-2.27,1.8,2,2,0,0,0,.11.93c.33,1,1.27,1.42,1.74,1.13a.47.47,0,0,0,.21-.63.49.49,0,0,0-.31-.25.46.46,0,0,0-.45.2,1.33,1.33,0,0,1-.51-1.63c.32-1,1.57-1,2.34-.58a2.31,2.31,0,0,1,.77,2.83,3,3,0,0,1-2.53,2,2.34,2.34,0,0,1-2.49-2.15.23.23,0,0,0-.24-.23.23.23,0,0,0-.23.23Z" transform="translate(-111.71)"/>
    <path class="cls-7" d="M177.56,139.6c-.21.06-3.65.81-3.65,1.75s1.82,3.49,1.82,4.52-.32,2.84.27,3.43,5.84-1.68,6.24-2.43-2.47-1.75-2.28-4S181,138.6,177.56,139.6Z" transform="translate(-111.71)"/>
    <path class="cls-17" d="M151,174.18s-.22-.54-.28-.72-.23-.88-.23-.88a10.2,10.2,0,0,1-.25-2.33c.18,0,.48.33.56.47s.19.28.26.42a.32.32,0,0,0,.43.1c.18-.08,0-.68-.12-.87a23,23,0,0,0-1.72-2.21c-.15-.19-.13-4.35-.24-5.78h0c-.11-2.34-.11-4.75-.12-5l2.53-9.72-3.32-2.29s-3,10.75-3,11.31c0,.27.65,5.67.65,5.67.5,2.64,1,5,1,5.41,0,0-.14,1.4-.29,2.29a7.21,7.21,0,0,0,.08,2,5.54,5.54,0,0,0,.29,1.94c.29.89.44-.09.44-.09a7.27,7.27,0,0,1-.1-1.74c.11,0,.19,1,.51,1.95l.23.73c.2.6.64.65.54,0a6.74,6.74,0,0,0-.2-.89,4.91,4.91,0,0,1-.14-.84,8.74,8.74,0,0,1-.14-.87s.09-.11.19.17.2,1.05.4,1.51c.12.26.34.81.34.81a5.67,5.67,0,0,0,.5.86c.31-.07.18-.78,0-1.11a3.71,3.71,0,0,0-.26-.86s-.2-1.28,0-1.31,1.27,2.94,1.57,2.85S151,174.18,151,174.18Z" transform="translate(-111.71)"/>
    <path class="cls-12" d="M151,153.17a21.5,21.5,0,0,1-2.78-.17c-1.32-.23-2.2-.48-2.2-.48a54.14,54.14,0,0,1,1.37-9.55c.43-1.53,1-2.33,2-2.67a5.33,5.33,0,0,1,2.83,4.16C152.34,145.22,151,153.17,151,153.17Z" transform="translate(-111.71)"/>
    <path class="cls-17" d="M163.12,215a36.65,36.65,0,0,1-.19-4.91h-4l.75,5.08-.1.91v2.67h8.76a39.51,39.51,0,0,1-4.46-2.47A1.82,1.82,0,0,1,163.12,215Z" transform="translate(-111.71)"/>
    <path class="cls-17" d="M146.05,214.33l1.16-3.33h-3.05c-.16,2.13-.21,3.58-.21,3.58l-.78,2.18-.79,2.6s2.6.67,4-.09l-.15-2.58Z" transform="translate(-111.71)"/>
    <path class="cls-10" d="M161.86,142c-1.06-1.44-5.42-5.61-5.9-5.61-1.41,0-6.05,0-7,.49l0,7.94c.15.67,3.35,11.06,3.16,13.33l0,0a6.43,6.43,0,0,0,9.09-.14c.09-.1.19-.2.28-.31h0a52.88,52.88,0,0,1,.36-6C162.55,147.24,164.48,145.62,161.86,142Z" transform="translate(-111.71)"/>
    <path class="cls-17" d="M154.53,132a22.68,22.68,0,0,1-.14,4c-.26,1.11-.61,1.19,1.65,1.53.89.13,1.75.34,1.75.34s-.23-1.64-.27-2.32c-.05-1.14.27-4.64.27-4.64Z" transform="translate(-111.71)"/>
    <path class="cls-10" d="M156.26,133.42a4.09,4.09,0,0,0,1.31.46c.07-1.38.22-3,.22-3l-3.1,1a4,4,0,0,0,1.57,1.5Z" transform="translate(-111.71)"/>
    <path class="cls-19" d="M146.18,216.68a4.33,4.33,0,0,1-3,0l-.17.46-.66,2.2s2.62.65,4-.1Z" transform="translate(-111.71)"/>
    <path class="cls-19" d="M159.48,219.41h9.1c.34,0,.42-.3.3-.47a10.72,10.72,0,0,0-2.49-1.16c-2.1.22-6.49-1.22-6.82-1.71A10.09,10.09,0,0,0,159.48,219.41Z" transform="translate(-111.71)"/>
    <path class="cls-15" d="M161.94,146l3,6.66c1.89-1.82,6.48-5.21,7.72-6.18a7.26,7.26,0,0,1,3.61-2.38c.33-.08,1.8-.34,1.8-.34a8.39,8.39,0,0,1,1.66.58c-.1.4-1.68-.07-1.68-.07s-.93.26-1.06.31c-.32.13-.13.17-.13.17.26-.08,1.42-.08,1.72-.11,0,0,2-.23,2,.17s-.4.19-1.09.25c-.42,0-1.05.19-1.42.24-.66.1-1.29.49-1.05.49s.7-.12,1.09-.17a9.72,9.72,0,0,1,2.2-.3c.27.3-2.85,1-3.24,1.43-.11.1,2-.71,2-.65,0,.3-2.93,1.7-2.93,1.7l-1.37.22-.07,0h0s-7.52,9.84-11.2,9.36c-3.13-.41-6.41-10.61-6.35-10.58Z" transform="translate(-111.71)"/>
    <path class="cls-12" d="M154,140.32c-.65,2.68,2.84,8.69,2.84,8.69s5-2.35,5.86-3.36c0,0-3.38-5.82-3.6-6.17a3.08,3.08,0,0,0-3.26-1.51C155.15,138.06,154,140.32,154,140.32Z" transform="translate(-111.71)"/>
    <path class="cls-11" d="M154,141.14c2.31-2,3.18-6.43,1.67-9.06,1-1.36,1.72-1.12,1.48-2.8-.46-3.33,4.19-5.33.72-6.22-3.51-.7-6.42,1.45-8,3.58a8.51,8.51,0,0,1-2.69,2.38,5.37,5.37,0,0,0-2.11,6.83c-1.69,1-3.18,3.69-2.05,6,.27.54.81,1.18.84,1.34,0-.19-1.58,4.88,4.19,6.61S155.08,145.89,154,141.14Z" transform="translate(-111.71)"/>
    <path class="cls-17" d="M157.35,129.15c0,.73-.27,1.33-.61,1.33s-.61-.6-.61-1.33.27-1.32.61-1.32S157.35,128.42,157.35,129.15Z" transform="translate(-111.71)"/>
    <path class="cls-11" d="M152.26,126.56c-.68,2.8,3,4.84,5.94,4.91,1.9.05,2.77-.14,3.08-2.14.51-3.24-.84-5.22-2.71-6C156.15,122.24,152.83,124.24,152.26,126.56Z" transform="translate(-111.71)"/>
    <path class="cls-17" d="M156.56,124.67a3.83,3.83,0,0,0-2,1.73c-.69,1.29-.34,5.43,2.51,6.8s4.16-1.74,4-4S160,123.88,156.56,124.67Z" transform="translate(-111.71)"/>
    <path class="cls-11" d="M153.57,129.53c-.42-2.14-.25-3.76,1.27-4.55s2.84-1.56,4.2-.15l.31.17s-2.58.71-2.72,2.07-1.51,3-1.3,3.66.45,2,.45,2l-.56-.46A3.82,3.82,0,0,1,153.57,129.53Z" transform="translate(-111.71)"/>
    <path class="cls-17" d="M156.23,128.71c.21.59.05,1.19-.36,1.33s-.92-.23-1.13-.82-.05-1.18.36-1.32S156,128.12,156.23,128.71Z" transform="translate(-111.71)"/>
    <path class="cls-18" d="M158.79,158.34l-5.34,37.85-4.86,17.46H143.3s1.23-14.06,3.87-19c0,0,1.14-13.35,2.29-21.51.17-1.23-.67-4.39-.45-5.21a73.89,73.89,0,0,1,3.2-9.7Z" transform="translate(-111.71)"/>
    <path class="cls-5" d="M155.49,174.71l1.23,14.54s-1.26,8.31-.39,13.82,2,10.58,2,10.58h4.86l1-27.45s1.87-14.93,1.22-19-3.79-9.46-3.79-9.46l-7.65.35s-2.07,7.4-1.72,9.89C152.49,169.85,155.49,174.71,155.49,174.71Z" transform="translate(-111.71)"/>
    <path class="cls-3" d="M178.81,140.21a.23.23,0,0,1-.24.23.23.23,0,0,1-.23-.23.23.23,0,0,1,.23-.24h0A.24.24,0,0,1,178.81,140.21Z" transform="translate(-111.71)"/>
    <path class="cls-3" d="M179.52,142.29c0,.17-.08.3-.19.3s-.2-.13-.2-.3.09-.3.2-.3S179.52,142.13,179.52,142.29Z" transform="translate(-111.71)"/>
    <path class="cls-3" d="M175.61,141.29a.21.21,0,0,1-.21.22.22.22,0,0,1-.22-.22.21.21,0,0,1,.22-.21h0A.21.21,0,0,1,175.61,141.29Z" transform="translate(-111.71)"/>
    <path class="cls-3" d="M177.11,140.76c0,.17-.1.32-.24.32s-.24-.15-.24-.32.11-.32.24-.32S177.11,140.58,177.11,140.76Z" transform="translate(-111.71)"/>
    <rect class="cls-3" x="25.31" y="219.41" width="41.41" height="2.14"/>
    <rect class="cls-3" x="26.06" y="231.82" width="27.07" height="1.87"/>
    <rect class="cls-3" x="60.91" y="220.48" width="1.75" height="29.17"/>
    <rect class="cls-3" x="36.21" y="220.48" width="1.75" height="29.17"/>
    <path class="cls-3" d="M160.2,249.65l9.4-28.92-1.54-.5-9.57,29.42Z" transform="translate(-111.71)"/>
    <path class="cls-3" d="M133.73,249.65l8-29-1.56-.44L132,249.65Z" transform="translate(-111.71)"/>
    <path class="cls-11" d="M264.9,168.3a13.69,13.69,0,0,1,1.24-6.58,5.55,5.55,0,0,1,4.95-2.83c6.19,0,7,8.21,10.92,11.38,1.2,1,2.55,1.75,3.69,2.8,4.21,3.86,2.31,11-1.55,14.37-2.69,2.35-6.88,3.68-10.2,1.85a10.43,10.43,0,0,1-4-4.29,56.76,56.76,0,0,1-3.12-8A29.51,29.51,0,0,1,264.9,168.3Z" transform="translate(-111.71)"/>
    <path class="cls-9" d="M278.17,169.23s4.55-8.15,5.66-9.88,4-8.62,4.09-8.89-2-3.53-1.51-3.64,1,1.72,1.47,1.5,1.95-4.62,2.24-4.4c.53.41-.79,2.73-.51,2.88s1.14-2.56,1.7-2.48-1.06,2.48-.9,2.69,1.82-2,2.12-1.57c.17.26-1.53,2-1.2,2.13s1.84-.94,2-.62-1.41.75-1.87,1.61-1.26,1.23-1.59,2.82-.82,7.34-2.52,10.2-5.41,9.22-5.41,9.22Z" transform="translate(-111.71)"/>
    <path class="cls-22" d="M254.11,199.22l7.07-5.39s.71-5,1.67-9.49c1.19.33,2.27,1.27,3.46,1.59l-1.8,10-9.26,4.78-2.62,3.36-.6-3.45Z" transform="translate(-111.71)"/>
    <path class="cls-18" d="M263.89,179.22c1.93-5.87,4.1-5.62,4.1-5.62l-1.68,12.33c-1.2-.32-2.75-1.05-3.94-1.39A52,52,0,0,1,263.89,179.22Z" transform="translate(-111.71)"/>
    <path class="cls-17" d="M284.25,240.87s.43,3,1.18,4a7,7,0,0,1,1,1.35,3.91,3.91,0,0,1-.14,3.05c-.17.39,0,.39-.39.52a2.5,2.5,0,0,1-3-1.41,7.13,7.13,0,0,1-.58-2.58,9.27,9.27,0,0,0-1-4.15Z" transform="translate(-111.71)"/>
    <path class="cls-17" d="M271.12,242.26a28.51,28.51,0,0,0-.05,4.53c.12.6.77,1.82.47,2.38a1.45,1.45,0,0,1-.64.7l-7.75.13c-.42,0-.14-.27.2-.52a15.72,15.72,0,0,1,2.78-1.54c.12-.06.55-.33.69-.42a5.2,5.2,0,0,0,1.11-1c.56-.62.61-3.63.61-3.63Z" transform="translate(-111.71)"/>
    <path class="cls-2" d="M265.07,196.82s-1,5.55-.34,9.19,3.71,37.37,3.71,37.37l3.42.19s.72-14.09.59-16a29.72,29.72,0,0,0-1.14-5.24l.34-11.37L267.33,196Z" transform="translate(-111.71)"/>
    <path class="cls-1" d="M275.11,195.64s2.69,4.06,3.33,7.42-.47,13.68.76,18.08c.67,2.39,3.19,6.07,3.58,9.15s1.89,11.14,1.89,11.14l-3.41.68L273.32,222l-6.23-18.2-1.59-9.38Z" transform="translate(-111.71)"/>
    <path class="cls-5" d="M272.93,172.55s3.56-.23,5,1.31-3.12,13.72-3.38,15.68,1.31,7.17,1.31,7.17-8.37,1.68-10.76.1c0,0-.26-14.09,0-15.49a41.19,41.19,0,0,1,2.9-7.65C268.48,173.11,272.93,172.55,272.93,172.55Z" transform="translate(-111.71)"/>
    <path class="cls-17" d="M271.74,167.78l.06.28a28.48,28.48,0,0,0,1.17,4.49c.5.95-1.71,4-3.83,3.6-.64-.11.53-2.77.47-3.06-.1-.54-.25-1.27-.4-2-.08-.42-.17-.86-.25-1.26-.22-1.16-.41-2.1-.41-2.1Z" transform="translate(-111.71)"/>
    <path class="cls-10" d="M271.8,168.06l-.06-.28-3.19-.08.42,2.1c.07.4.16.84.24,1.25a3,3,0,0,0,1.53-.76,4.12,4.12,0,0,0,1.15-1.72Q271.83,168.27,271.8,168.06Z" transform="translate(-111.71)"/>
    <path class="cls-17" d="M269.6,160.52a2.86,2.86,0,0,1,2.44,1c.94,1.21,2,5-.38,7.05s-4.65-.27-5-2.73S266.19,160.43,269.6,160.52Z" transform="translate(-111.71)"/>
    <path class="cls-17" d="M266,165.84c.28.54.75.84,1,.68s.32-.76,0-1.3-.75-.84-1.05-.67S265.7,165.3,266,165.84Z" transform="translate(-111.71)"/>
    <path class="cls-11" d="M269.43,160.12s2,3.59,3.44,3.75,1.63,2.07,1.63,2.07-.52-4.39-1.94-5.24A5.31,5.31,0,0,0,269.43,160.12Z" transform="translate(-111.71)"/>
    <path class="cls-12" d="M282.7,247.78a3.81,3.81,0,0,0,3.74-1.57,4.09,4.09,0,0,1,.36,3.07c-.31.67-1.2.65-1.91.67a1.84,1.84,0,0,1-1.69-1,6.7,6.7,0,0,1-.5-1.13Z" transform="translate(-111.71)"/>
    <path class="cls-12" d="M266.83,247.51a7.08,7.08,0,0,0,4.41-.16,3.57,3.57,0,0,1,.35,1.84c-.19.55-.45.68-.69.68-1.87,0-6.86.11-8.28.13a.23.23,0,0,1-.24-.23.25.25,0,0,1,.05-.15A39.23,39.23,0,0,1,266.83,247.51Z" transform="translate(-111.71)"/>
    <path class="cls-17" d="M272.5,164.77c-.12.64.11,1.22.52,1.31s.83-.37,1-1-.12-1.22-.53-1.31S272.61,164.14,272.5,164.77Z" transform="translate(-111.71)"/>
    <path class="cls-5" d="M279.43,166.59s-5,5.42-5.78,7.6.73,5.31,2.77,5.45S283,170,283,170Z" transform="translate(-111.71)"/>
    <path class="cls-3" d="M244.24,216.6l5.16-2.08a1.37,1.37,0,0,0,.76-1.78l-4.61-11.56a1.37,1.37,0,0,0-1.77-.77h0l-5.15,2.07a1.37,1.37,0,0,0-.76,1.79l4.61,11.56A1.36,1.36,0,0,0,244.24,216.6Z" transform="translate(-111.71)"/>
    <path class="cls-3" d="M228.61,201.2,239,204l2.16,7-12.61-9.24-3.06,1.06,1.66-4.31Z" transform="translate(-111.71)"/>
    <path class="cls-3" d="M248.89,214.47c1.72-2.48,5.47-8.77,3.31-13.49a3.85,3.85,0,0,0-3.22-2.34,9,9,0,0,0-4.54,1.43l-.61.32c-.94.49-1.88,1-2.79,1.57s-1.66,1-2.5,1.41l.43.94c.84-.45,1.7-.94,2.52-1.42s1.84-1.07,2.77-1.56l.61-.32a8.63,8.63,0,0,1,4.31-1.37,2.87,2.87,0,0,1,2.39,1.67c.82,1.79.68,4.15-.42,7a26.69,26.69,0,0,1-2.88,5.37Z" transform="translate(-111.71)"/>
    <path class="cls-22" d="M250.88,201a.78.78,0,0,1,1,.17,2.61,2.61,0,0,1,.52.86,2.18,2.18,0,0,1-.27,1.92c-.31.21-1.16-1.89-1.43-2.48a.34.34,0,0,1,.13-.46Z" transform="translate(-111.71)"/>
    <path class="cls-6" d="M225.46,199.73a6.42,6.42,0,0,0-1.3-.44,7.35,7.35,0,0,0-1.32-.18,7,7,0,0,0-1.3.06,7.29,7.29,0,0,0-1.23.27h0a.82.82,0,0,1-.47-1.57,1,1,0,0,1,.24,0,9.59,9.59,0,0,1,1.51.11,8.39,8.39,0,0,1,2.74,1A6.67,6.67,0,0,1,225.46,199.73Z" transform="translate(-111.71)"/>
    <path class="cls-6" d="M222,201.79a7.44,7.44,0,0,0-2-.06,5.34,5.34,0,0,0-1.84.49,3.46,3.46,0,0,0-.77.49,3.27,3.27,0,0,0-.6.63,4.41,4.41,0,0,0-.67,1.58.81.81,0,0,1-1.59-.35.75.75,0,0,1,.05-.16h0a5.52,5.52,0,0,1,1.32-1.89,4.42,4.42,0,0,1,.94-.66,4.75,4.75,0,0,1,1.05-.4,6,6,0,0,1,2.12-.13A8,8,0,0,1,222,201.79Z" transform="translate(-111.71)"/>
    <path class="cls-6" d="M220.51,207.61a4.43,4.43,0,0,0-.82.74,3.29,3.29,0,0,0-.55.87,1.74,1.74,0,0,0-.11.87,1.18,1.18,0,0,0,0,.2,1.46,1.46,0,0,0,.07.19,1.58,1.58,0,0,0,.2.36.83.83,0,0,1-.26,1.14.82.82,0,0,1-1.14-.25.72.72,0,0,1-.12-.27v-.05a3.18,3.18,0,0,1,0-1.44,2.87,2.87,0,0,1,.65-1.2,3.67,3.67,0,0,1,1-.74A4.57,4.57,0,0,1,220.51,207.61Z" transform="translate(-111.71)"/>
    <path class="cls-22" d="M148.79,110.65a2.54,2.54,0,0,1,1.58-1.39,1.91,1.91,0,0,1,2.38,1.26l0,.06c.35,1.16-.26,2.84-2.54,4.84-3-.4-4.44-1.47-4.79-2.63a1.91,1.91,0,0,1,1.21-2.41h.06A2.43,2.43,0,0,1,148.79,110.65Z" transform="translate(-111.71)"/>
    <path class="cls-22" d="M140,113.81a24.5,24.5,0,0,0,2.84-.53c.29-.07.8-.1.94-.39a.3.3,0,0,0-.1-.41c-.26-.19-.67,0-1,.08-.86.21-1.86.41-2.87.56a.36.36,0,0,0-.28.42A.37.37,0,0,0,140,113.81Z" transform="translate(-111.71)"/>
    <path class="cls-22" d="M155,112.48c.42-.09.84-.19,1.25-.3a3.8,3.8,0,0,0,1.23-.37.31.31,0,0,0,.12-.42.28.28,0,0,0-.25-.15,3.65,3.65,0,0,0-1.26.23l-1.24.32a.34.34,0,0,0-.25.43A.35.35,0,0,0,155,112.48Z" transform="translate(-111.71)"/>
    <path class="cls-22" d="M145.13,118.33a4.37,4.37,0,0,1,1.28-1.89.28.28,0,0,0,0-.4.29.29,0,0,0-.34-.06,3.28,3.28,0,0,0-1.63,2.14.34.34,0,0,0,.23.44.36.36,0,0,0,.44-.23Z" transform="translate(-111.71)"/>
    <path class="cls-22" d="M150.46,119.36a3,3,0,0,1-.1-1.3c0-.27.37-1.08-.15-1.08s-.56.8-.59,1.15a3.63,3.63,0,0,0,.14,1.39C149.89,120,150.58,119.8,150.46,119.36Z" transform="translate(-111.71)"/>
    <path class="cls-22" d="M153.35,115.88l.82.34c.27.11.55.3.84.17a.32.32,0,0,0,.13-.42c-.1-.27-.5-.35-.76-.45l-.82-.33a.36.36,0,0,0-.45.24.37.37,0,0,0,.24.45Z" transform="translate(-111.71)"/>
    <path class="cls-22" d="M145.31,108.8c-1.4-1.92-1.38-1.93-1.6-2.07a.32.32,0,0,0-.43.12.29.29,0,0,0,0,.22c.06.26.06.22,1.53,2.23a.38.38,0,0,0,.52,0,.37.37,0,0,0,0-.52Z" transform="translate(-111.71)"/>
    <path class="cls-22" d="M149.1,107.85a5,5,0,0,0,0-1.16c0-.36,0-.92-.41-1.09a.28.28,0,0,0-.27.07c-.25.27-.07.73-.05,1.06a5.78,5.78,0,0,1,0,1.1.36.36,0,0,0,.71,0Z" transform="translate(-111.71)"/>
    <path class="cls-22" d="M154.55,106.91a.32.32,0,0,0-.3-.32c-.31,0-.62.32-.83.52a7.89,7.89,0,0,0-.65.76.36.36,0,0,0,.12.49.37.37,0,0,0,.49-.11C154.17,107.26,154.49,107.34,154.55,106.91Z" transform="translate(-111.71)"/>
    <path class="cls-1" d="M162.14,22.75a3.29,3.29,0,0,0,2.05-3.26c-.18-2.44-6.06-4.37-7.68-5.28s-1.57-1.78-1.57-1.78S151.42,20,156,24.08C158.72,26.5,160.75,25.16,162.14,22.75Z" transform="translate(-111.71)"/>
    <path class="cls-2" d="M157.55,16a8.25,8.25,0,0,1,1,2.58q-1.7-2.27-3.17-4.68c.41.86,1,1.94,1.63,3.07-.66.37-1.8-.7-1.82-.71a.07.07,0,1,0-.1.11c.05.05,1.25,1.17,2,.74.3.5.62,1,.95,1.53-1.18.66-3-.65-3-.66a.08.08,0,0,0-.11,0h0a.11.11,0,0,0,0,.12c.09.06,2,1.39,3.23.67.35.53.71,1.05,1.08,1.54-1.34,1-3.86-.2-3.88-.21a.08.08,0,0,0-.11,0,.08.08,0,0,0,0,.1c.11.06,2.63,1.3,4.05.2a17.25,17.25,0,0,0,1.43,1.65c-1.2,1.26-3.65.71-3.68.71a.07.07,0,0,0-.09.05h0a.08.08,0,0,0,.06.1c.11,0,2.58.57,3.83-.74.2.19.41.38.61.54,2.3,1.79,1.2,3.44,1.16,3.68a.34.34,0,0,0,.11.42c.57.41,1-1.21.9-2.09-.19-1.48-1.09-2.08-2.15-3a4,4,0,0,0,.1-3.51v0a.08.08,0,0,0-.1,0,.07.07,0,0,0,0,.1h0a3.82,3.82,0,0,1-.09,3.33,12.59,12.59,0,0,1-1.17-1.14c.5-1.18-.64-3.21-.69-3.31h0a.08.08,0,0,0-.1,0,.08.08,0,0,0,0,.11h0s1.11,2,.71,3.09c-.47-.51-.93-1.06-1.37-1.64.12-.83-.94-2.75-1-2.83a.08.08,0,0,0-.11,0,.08.08,0,0,0,0,.1h0Z" transform="translate(-111.71)"/>
    <path class="cls-1" d="M178.62,37.34a3,3,0,0,1-1.11-3.12c.55-1.92,5.63-2.09,7.09-2.44s1.57-1.08,1.57-1.08,1.57,7-2.8,9.16C180.76,41.17,179.34,39.62,178.62,37.34Z" transform="translate(-111.71)"/>
    <path class="cls-2" d="M183.45,33a6.3,6.3,0,0,0-1.21,1.85,39.74,39.74,0,0,0,3.34-3c-.47.6-1.11,1.34-1.83,2.09.47.46,1.58-.13,1.59-.14s.08,0,.09,0a.08.08,0,0,1,0,.08s-1.21.64-1.75.12c-.32.33-.67.68-1,1,.84.81,2.56.19,2.58.18a.06.06,0,0,1,.08.05.07.07,0,0,1,0,.08c-.08,0-1.82.65-2.72-.22-.37.34-.75.68-1.14,1,.92,1.16,3.16.75,3.18.74a.07.07,0,0,1,.08.05.06.06,0,0,1,0,.08c-.1,0-2.35.43-3.31-.79a11.74,11.74,0,0,1-1.43,1c.76,1.3,2.84,1.44,2.86,1.44s.06,0,.06.07a.06.06,0,0,1-.06.06h0c-.09,0-2.18-.15-3-1.51a6.45,6.45,0,0,1-.59.29,2.18,2.18,0,0,0-1.55,2.71.25.25,0,0,1-.16.3c-.53.2-.61-1.21-.38-1.9.41-1.15,1.23-1.42,2.23-1.89a3.22,3.22,0,0,1,.51-2.85h0a.06.06,0,0,1,.08,0,.06.06,0,0,1,0,.09,3.09,3.09,0,0,0-.49,2.71,8.63,8.63,0,0,0,1.15-.64c-.21-1.08,1.05-2.44,1.11-2.51h0a.06.06,0,0,1,.08,0,.07.07,0,0,1,0,.1S180.54,35,180.68,36c.46-.31.92-.65,1.38-1,0-.69,1.21-2,1.26-2.06a.07.07,0,0,1,.09,0h0a.08.08,0,0,1,0,.09h0Z" transform="translate(-111.71)"/>
    <path class="cls-1" d="M170.38,27.39a3,3,0,0,1-2.8-1.77c-.76-1.86,3.13-5.12,4.06-6.31s.57-1.81.57-1.81,5.54,4.5,3.46,8.93C174.43,29.07,172.35,28.72,170.38,27.39Z" transform="translate(-111.71)"/>
    <path class="cls-2" d="M171.49,21a6.11,6.11,0,0,0,.19,2.21,42.17,42.17,0,0,0,.75-4.45c0,.76,0,1.74-.14,2.77.65.07,1.15-1.08,1.16-1.09a.07.07,0,0,1,.09,0,.05.05,0,0,1,0,.07c0,.05-.55,1.26-1.29,1.18-.05.47-.11.95-.18,1.42,1.16.12,2.13-1.43,2.14-1.44a.07.07,0,0,1,.09,0,.05.05,0,0,1,0,.08h0c0,.07-1,1.64-2.27,1.51-.08.5-.17,1-.28,1.48,1.44.34,2.94-1.36,3-1.38s.16,0,.1.08-1.58,1.79-3.09,1.43a11.8,11.8,0,0,1-.51,1.66c1.4.55,3.12-.62,3.14-.63a.06.06,0,0,1,.09,0,.07.07,0,0,1,0,.09h0c-.07.06-1.8,1.23-3.26.65a5.5,5.5,0,0,1-.28.6,2.16,2.16,0,0,0,.45,3.08.26.26,0,0,1,.07.34c-.3.48-1.23-.58-1.48-1.26-.39-1.15.09-1.87.59-2.87a3.23,3.23,0,0,1-1.36-2.56h0a.07.07,0,0,1,.13,0h0a3.06,3.06,0,0,0,1.29,2.43,8.55,8.55,0,0,0,.5-1.21c-.83-.72-.67-2.57-.67-2.66h0a.08.08,0,0,1,.09,0,.08.08,0,0,1,0,.06s-.14,1.81.59,2.51c.17-.52.33-1.07.46-1.64a5.59,5.59,0,0,1-.27-2.4.07.07,0,0,1,.07-.06h0A.06.06,0,0,1,171.49,21Z" transform="translate(-111.71)"/>
    <path class="cls-22" d="M251,195.38s-1.5-.37-1.5.08.75.5.75.5Z" transform="translate(-111.71)"/>
  </g>
</svg>
