<svg id="Layer_1" data-name="Layer 1" xmlns="http://www.w3.org/2000/svg" xmlns:xlink="http://www.w3.org/1999/xlink" viewBox="0 0 399.54 250">
  <defs>
    <style>
      .cls-1 {
        fill: none;
      }

      .cls-2 {
        opacity: 0.8;
      }

      .cls-3 {
        opacity: 0.5;
      }

      .cls-4 {
        fill: #f1c36b;
      }

      .cls-5 {
        fill: #ced3e6;
      }

      .cls-6 {
        fill: #585859;
      }

      .cls-7 {
        fill: #fff;
      }

      .cls-8 {
        fill: #39393b;
      }

      .cls-9 {
        fill: #df615c;
      }

      .cls-10 {
        fill: #5392f3;
      }

      .cls-11 {
        fill: #d2dcec;
      }

      .cls-12 {
        clip-path: url(#clip-path);
      }

      .cls-13 {
        fill: #ea9b7a;
      }

      .cls-14 {
        fill: #d96c63;
      }

      .cls-15 {
        fill: #faaf3a;
      }

      .cls-16 {
        fill: #c77e2e;
      }

      .cls-17 {
        fill: #5c9add;
      }

      .cls-18 {
        fill: #084fc7;
      }

      .cls-19 {
        fill: #21b573;
      }

      .cls-20 {
        fill: #217c58;
      }

      .cls-21 {
        fill: #0875f7;
      }

      .cls-22 {
        fill: #b11722;
      }
    </style>
    <clipPath id="clip-path" transform="translate(-26.6)">
      <path class="cls-1" d="M204.67,128.77c-.79,2.39-.79,2.8-.79,2.39l0-68.24c0-.42,0-.35,0-49.76H357.34l0,115.6Z"/>
    </clipPath>
  </defs>
  <g>
    <g>
      <g class="cls-2">
        <g class="cls-3">
          <path class="cls-4" d="M230,73a86.24,86.24,0,0,1-39.32-16.66C173.29,43.25,137,21,102.29,32.06c-47.81,15.32-48,59.64-35.57,83.72S167.48,210.38,282,199.15c102.45-10,122.42-125,67.78-145.75C302.36,35.37,286.19,81.32,230,73Z" transform="translate(-26.6)"/>
        </g>
        <g class="cls-3">
          <ellipse class="cls-4" cx="350.85" cy="56.01" rx="4.44" ry="4.78"/>
        </g>
        <path class="cls-4" d="M87.42,24.51a2.9,2.9,0,0,1,3.23,1.8c.82,2.22-1.33,4.71-4.21,3.6h0A2.93,2.93,0,0,1,87.42,24.51Z" transform="translate(-26.6)"/>
        <circle class="cls-4" cx="338.74" cy="13.28" r="5.79"/>
        <g class="cls-2">
          <path class="cls-4" d="M105,20a5.85,5.85,0,1,1-7.21-4h0A5.85,5.85,0,0,1,105,20Z" transform="translate(-26.6)"/>
        </g>
        <path class="cls-4" d="M336.27,194.12a2.88,2.88,0,0,1,3.5,1.17c1.21,2-.43,4.87-3.47,4.31h0A2.92,2.92,0,0,1,336.27,194.12Z" transform="translate(-26.6)"/>
        <path class="cls-4" d="M352.66,186.37a5.85,5.85,0,1,1-7.84-2.64,5.86,5.86,0,0,1,7.84,2.64Z" transform="translate(-26.6)"/>
        <circle class="cls-4" cx="327.83" cy="4.42" r="3.56"/>
      </g>
      <g class="cls-2">
        <path class="cls-4" d="M367.47,68.91C367.46,37.11,341,2.26,308,.16l-1.76-.1C259-2.14,255.42,55.49,212.68,62s-75.39-26.31-126.54-4.9C40.2,76.3,27.75,184.34,162.73,188.67,270.73,192.13,367.49,163.8,367.47,68.91Z" transform="translate(-26.6)"/>
      </g>
    </g>
    <g>
      <ellipse class="cls-5" cx="256.19" cy="221.83" rx="104.16" ry="5.37"/>
      <g>
        <path class="cls-5" d="M353.34,206.79H338.9v15h16.88V209.23a2.44,2.44,0,0,0-2.44-2.44Z" transform="translate(-26.6)"/>
        <rect class="cls-6" x="235.09" y="174.63" width="50.1" height="32.16"/>
        <path class="cls-6" d="M350.1,220.92H211.88v-5.57a9.44,9.44,0,0,1,9.44-9.44H340.66a9.44,9.44,0,0,1,9.43,9.44v5.57Z" transform="translate(-26.6)"/>
        <rect class="cls-1" x="228.95" y="174.63" width="50.1" height="32.16"/>
        <path class="cls-4" d="M255.55,184.5l50.1-4v-5.86h-50Z" transform="translate(-26.6)"/>
      </g>
      <g>
        <path class="cls-5" d="M394.58,41.81V168a6.7,6.7,0,0,1-6.7,6.69H174a6.7,6.7,0,0,1-6.69-6.69h0V41.81a6.7,6.7,0,0,1,6.69-6.7H387.88A6.71,6.71,0,0,1,394.58,41.81Z" transform="translate(-26.6)"/>
        <path class="cls-6" d="M394.58,41.81v116.8h-20.7V35.11h14A6.7,6.7,0,0,1,394.58,41.81Z" transform="translate(-26.6)"/>
        <path class="cls-7" d="M386.06,41.81V168a6.69,6.69,0,0,1-6.69,6.69H174a6.7,6.7,0,0,1-6.69-6.69h0V41.81a6.7,6.7,0,0,1,6.69-6.7H379.89l.16,0a2.3,2.3,0,0,1,.26,0l.17,0h.08l.17,0A6.7,6.7,0,0,1,386.06,41.81Z" transform="translate(-26.6)"/>
        <path class="cls-8" d="M380.72,35.25a.51.51,0,0,0-.17,0h-.08l-.17,0-.26,0h-.16l-.22,0H174a6.69,6.69,0,0,0-6.69,6.69h0V158.62h218.8V41.8A6.71,6.71,0,0,0,380.72,35.25Zm-3.33,111.69a1.81,1.81,0,0,1-1.82,1.82H177.77A1.81,1.81,0,0,1,176,147h0V45.61a1.82,1.82,0,0,1,1.81-1.82H375.57a1.82,1.82,0,0,1,1.82,1.81h0Z" transform="translate(-26.6)"/>
        <path class="cls-5" d="M377.39,45.61V147a1.83,1.83,0,0,1-1.82,1.82H177.77A1.81,1.81,0,0,1,176,147h0V45.61a1.82,1.82,0,0,1,1.81-1.82H375.57a1.82,1.82,0,0,1,1.82,1.81Z" transform="translate(-26.6)"/>
        <g>
          <path class="cls-7" d="M377.39,45.61v9.56H176V45.61a1.81,1.81,0,0,1,1.81-1.82H375.57a1.82,1.82,0,0,1,1.82,1.81Z" transform="translate(-26.6)"/>
          <g>
            <path class="cls-9" d="M361.78,49.33a1.55,1.55,0,1,1-1.54-1.55h0A1.54,1.54,0,0,1,361.78,49.33Z" transform="translate(-26.6)"/>
            <circle class="cls-10" cx="338.65" cy="49.33" r="1.55"/>
          </g>
          <path class="cls-11" d="M352.35,51H195a1.44,1.44,0,0,1-1.44-1.44v-.39A1.44,1.44,0,0,1,195,47.7H352.35a1.45,1.45,0,0,1,1.44,1.44v.39A1.45,1.45,0,0,1,352.35,51Z" transform="translate(-26.6)"/>
          <path d="M183.22,49.33v1.51a.27.27,0,0,1-.28.28.31.31,0,0,1-.13,0l-1.31-.76-1.31-.76a.27.27,0,0,1-.1-.38.24.24,0,0,1,.1-.1l1.31-.76,1.31-.76a.28.28,0,0,1,.38.1.35.35,0,0,1,0,.14Z" transform="translate(-26.6)"/>
          <path d="M185.53,49.33v1.51a.27.27,0,0,0,.27.28.32.32,0,0,0,.14,0l1.31-.76,1.31-.76a.28.28,0,0,0,.1-.38.24.24,0,0,0-.1-.1l-1.31-.76-1.31-.76a.28.28,0,0,0-.38.1.35.35,0,0,0,0,.14Z" transform="translate(-26.6)"/>
        </g>
      </g>
      <g>
        <path class="cls-8" d="M368.89,50.62l-.08-.08a.38.38,0,0,1,0-.54h0l2.08-2.07a.39.39,0,0,1,.55,0h0l.07.07a.39.39,0,0,1,0,.55h0l-2.07,2.08a.39.39,0,0,1-.55,0Z" transform="translate(-26.6)"/>
        <path class="cls-8" d="M371.44,50.62l.07-.08a.38.38,0,0,0,0-.54h0l-2.07-2.07a.39.39,0,0,0-.55,0h0l-.08.07a.39.39,0,0,0,0,.55h0l2.08,2.08a.39.39,0,0,0,.55,0Z" transform="translate(-26.6)"/>
      </g>
      <g>
        <g>
          <path class="cls-7" d="M350.27,144.69H202.52a3.81,3.81,0,0,1-3.8-3.81V61.29a3.81,3.81,0,0,1,3.8-3.81H350.27a3.81,3.81,0,0,1,3.8,3.81v79.59a3.8,3.8,0,0,1-3.79,3.81Z" transform="translate(-26.6)"/>
          <g>
            <path class="cls-5" d="M243.68,102.1H209.62a1,1,0,0,1-1-.95h0a1,1,0,0,1,1-1h34.06a1,1,0,0,1,.95,1h0a.94.94,0,0,1-.94.95Z" transform="translate(-26.6)"/>
            <path class="cls-5" d="M243.68,94.1H209.62a1,1,0,0,1-1-.95h0a1,1,0,0,1,1-1h34.06a.94.94,0,0,1,.95,1h0A1,1,0,0,1,243.68,94.1Z" transform="translate(-26.6)"/>
            <path class="cls-5" d="M243.68,110.11H209.62a1,1,0,0,1-1-1h0a1,1,0,0,1,1-1h34.06a1,1,0,0,1,.95,1h0A1,1,0,0,1,243.68,110.11Z" transform="translate(-26.6)"/>
          </g>
          <g>
            <path class="cls-5" d="M348.35,102.1H314.28a.94.94,0,0,1-.94-.95h0a1,1,0,0,1,.94-1h34.07a1,1,0,0,1,.94,1h0a.93.93,0,0,1-.94.95Z" transform="translate(-26.6)"/>
            <path class="cls-5" d="M348.35,94.1H314.28a1,1,0,0,1-.94-.95h0a1,1,0,0,1,.94-1h34.07a.94.94,0,0,1,.94,1h0a1,1,0,0,1-.94.95Z" transform="translate(-26.6)"/>
            <path class="cls-5" d="M348.35,110.11H314.28a.94.94,0,0,1-.94-1h0a1,1,0,0,1,.94-1h34.07a1,1,0,0,1,.94,1h0a1,1,0,0,1-.94,1Z" transform="translate(-26.6)"/>
          </g>
          <path class="cls-8" d="M198.72,131.15H354.08v12.74a.8.8,0,0,1-.81.8H199.52a.8.8,0,0,1-.8-.8Z" transform="translate(-26.6)"/>
          <g>
            <path class="cls-7" d="M338.82,136.17V135h1.43v-1H338.3a.51.51,0,0,0-.51.51h0v1.66Z" transform="translate(-26.6)"/>
            <path class="cls-7" d="M338.82,138.21h-1V140a.51.51,0,0,0,.51.51h1.95v-1h-1.43v-1.24Z" transform="translate(-26.6)"/>
            <path class="cls-7" d="M343.24,136.17h1v-1.66a.51.51,0,0,0-.51-.51h-1.87v1h1.36Z" transform="translate(-26.6)"/>
            <path class="cls-7" d="M343.24,138.21v1.23h-1.36v1h1.87a.51.51,0,0,0,.51-.51h0V138.2h-1Z" transform="translate(-26.6)"/>
          </g>
          <path class="cls-7" d="M207.77,137.45v-3.23l2.79,1.62,2.8,1.61-2.8,1.62-2.79,1.61Z" transform="translate(-26.6)"/>
          <g>
            <path class="cls-7" d="M223.26,140.42h-.74a.51.51,0,0,1-.5-.49v-4.88a.51.51,0,0,1,.5-.5h.74a.51.51,0,0,1,.5.5v4.88A.51.51,0,0,1,223.26,140.42Z" transform="translate(-26.6)"/>
            <path class="cls-7" d="M226.88,140.42h-.74a.51.51,0,0,1-.5-.49v-4.88a.51.51,0,0,1,.5-.5h.74a.51.51,0,0,1,.5.5v4.88A.51.51,0,0,1,226.88,140.42Z" transform="translate(-26.6)"/>
          </g>
          <g>
            <rect class="cls-5" x="172.11" y="128.6" width="155.36" height="2.55"/>
            <rect class="cls-9" x="172.11" y="128.6" width="79.72" height="2.55"/>
          </g>
          <g>
            <g>
              <path class="cls-8" d="M329.23,118.69H331v3.84h2.35v1.36h-4.11v-5.2Z" transform="translate(-26.6)"/>
              <path class="cls-8" d="M333.82,118.69h1.75v5.2h-1.75Z" transform="translate(-26.6)"/>
              <path class="cls-8" d="M342,118.69l-2.2,5.2H338l-2.2-5.2h1.89l1.24,3,1.27-3Z" transform="translate(-26.6)"/>
              <path class="cls-8" d="M346.46,122.57v1.32h-4.32v-5.2h4.22V120h-2.5v.61h2.2v1.27h-2.2v.68Z" transform="translate(-26.6)"/>
            </g>
            <path class="cls-9" d="M326.35,121.25a2.14,2.14,0,1,1-2.14-2.14h0a2.14,2.14,0,0,1,2.14,2.14Z" transform="translate(-26.6)"/>
          </g>
          <g>
            <g>
              <path class="cls-8" d="M217.69,122.69c0,1.19-1.12,2-2.74,2s-2.74-.77-2.74-2a1.59,1.59,0,0,1,.82-1.4,1.51,1.51,0,0,1-.6-1.21c0-1.11,1-1.82,2.52-1.82s2.52.71,2.52,1.82a1.48,1.48,0,0,1-.61,1.21A1.56,1.56,0,0,1,217.69,122.69Zm-2.07-.07a.67.67,0,0,0-1.34-.07.67.67,0,0,0,.63.71h0a.62.62,0,0,0,.67-.55v-.09Zm-1.15-2.45a.49.49,0,1,0,.48-.52.48.48,0,0,0-.49.46.2.2,0,0,0,0,.07Z" transform="translate(-26.6)"/>
              <path class="cls-8" d="M218.08,121.46c0-2,1.15-3.2,2.76-3.2s2.77,1.17,2.77,3.2-1.15,3.19-2.77,3.19S218.08,123.49,218.08,121.46Zm3.46,0c0-1.18-.3-1.55-.71-1.55s-.7.37-.7,1.55.3,1.54.7,1.54.71-.37.71-1.54Z" transform="translate(-26.6)"/>
            </g>
            <path class="cls-9" d="M208.63,119.74a1.88,1.88,0,1,1-1.88-1.88h0A1.88,1.88,0,0,1,208.63,119.74Z" transform="translate(-26.6)"/>
            <path class="cls-9" d="M210.26,124.49h-7a3.65,3.65,0,0,1,3.46-2.23h.11A3.63,3.63,0,0,1,210.26,124.49Z" transform="translate(-26.6)"/>
          </g>
        </g>
        <g>
          <g class="cls-12">
            <g>
              <g>
                <path class="cls-13" d="M228.33,77.35s-.94,5.72-5.16,6.75c-3.41.82-6.62-2.44-7.73-3.74-.26-.3-.4-.5-.4-.5s-.26,0-.64,0c-.89,0-2.46-.2-3.08-1.29C210.44,77,213.65,76,213.65,76s-1.65-1.47-1.24-2.54S215,72.17,215,72.17s-2.37-1.54-1.57-2.89c1.19-2,3.65.2,3.84.33-.15-.18-3.23-3.37-1.54-3.93,1.47-.5,3.88,1.15,5.47,2.79l.4.41.26-.19c.8-.53,3.24-2,4.79-.66C228.54,69.62,228.33,77.35,228.33,77.35Z" transform="translate(-26.6)"/>
                <path class="cls-14" d="M223.93,80.87a.32.32,0,0,1-.33,0,.32.32,0,0,1-.1-.45h0a3,3,0,0,0,.51-2.51c-.56-2.14-3.43-3.62-3.46-3.64a.35.35,0,0,1-.15-.45.34.34,0,0,1,.45-.15h0c.13.06,3.17,1.64,3.8,4.07a3.61,3.61,0,0,1-.6,3A.49.49,0,0,1,223.93,80.87Z" transform="translate(-26.6)"/>
                <path class="cls-14" d="M221,72.61a1,1,0,0,1-.48.91l-.21.12a2.55,2.55,0,0,1-.61.13,2.44,2.44,0,0,1,.43.35,1.31,1.31,0,0,1,.26.4.86.86,0,0,1-.15.84,4.27,4.27,0,0,1-2.78,1.12A3.58,3.58,0,0,1,219,78.07a1.09,1.09,0,0,1-.13,1,2,2,0,0,1-.73.53,10.7,10.7,0,0,1-2.71.75c-.27-.31-.41-.5-.41-.5a4.42,4.42,0,0,1-.63,0,.33.33,0,0,1,.17-.07c1.24-.14,3.36-.58,3.78-1.13a.41.41,0,0,0,0-.4,4,4,0,0,0-2.47-1.74.34.34,0,0,1,.09-.66c.83,0,3.11-.12,3.71-.94.09-.11.07-.18.05-.21a1.06,1.06,0,0,0-.5-.46,8.32,8.32,0,0,0-2-.75.29.29,0,0,1-.18-.11.31.31,0,0,1-.07-.29.33.33,0,0,1,.4-.25l.65.18a7.64,7.64,0,0,0,1.51.06,1.43,1.43,0,0,0,.57-.16.37.37,0,0,0,.17-.35,2.16,2.16,0,0,0-.36-1,.33.33,0,0,1,0-.38h0a.32.32,0,0,1,.46-.06.34.34,0,0,1,.08.09A2.89,2.89,0,0,1,221,72.61Z" transform="translate(-26.6)"/>
                <path class="cls-8" d="M218.54,66.35a9.33,9.33,0,0,1,1.58,1.14c.47.46.77.69,1.1,1h0l-6.44-27.3a.33.33,0,0,0-.65.13l4.41,25Z" transform="translate(-26.6)"/>
                <path class="cls-8" d="M224.14,81.51c-2.23,1.44-2.86.37-2.86.37l-1.13-6.41a1,1,0,0,0,.25-1,1.14,1.14,0,0,0-.27-.39l-.26-.23,0-.14a1.83,1.83,0,0,0,.46-.12l.22-.11a1,1,0,0,0,.41-.54,1.67,1.67,0,0,0,1,.45h.32Z" transform="translate(-26.6)"/>
                <path class="cls-14" d="M226.08,71.5a10.83,10.83,0,0,1-2.2,1.47,3.64,3.64,0,0,1-1.94.46,1.62,1.62,0,0,1-1.2-.68c-1.07-1.42-.16-3.28.48-4.26l.4.4.26-.18c-.54.81-1.46,2.49-.6,3.65a1,1,0,0,0,.74.42c1.18.12,3-1.24,3.62-1.78a.34.34,0,0,1,.47,0,.33.33,0,0,1,0,.47l0,0Z" transform="translate(-26.6)"/>
                <path class="cls-15" d="M260.53,64.87h0v0l0,.09,0,.19-.09.43-.09.46c0,.15-.07.31-.11.46-.14.63-.29,1.26-.47,1.89-.35,1.27-.71,2.55-1.14,3.8s-.88,2.5-1.38,3.72c-.26.6-.51,1.21-.79,1.8s-.55,1.19-.83,1.78c-.59,1.17-1.2,2.32-1.86,3.42-.16.29-.33.55-.51.83s-.33.55-.51.82c-.35.53-.71,1.07-1.08,1.59-.72,1-1.52,2-2.32,3s-1.67,1.89-2.56,2.76l-.67.66-.69.62-.35.32-.09.07.05,0,.06,0a1.51,1.51,0,0,1,.26-.18,4.13,4.13,0,0,1,1.24-.58,1.67,1.67,0,0,1,.3-.08l.15,0,.12,0a1.1,1.1,0,0,1,.25,0h.36l.13,0H248c.1,0-.09,0-.38-.13a9.12,9.12,0,0,1-1.12-.58c-.42-.25-.89-.56-1.37-.9-.95-.67-1.95-1.48-2.95-2.34s-2-1.78-3-2.74-2-2-3-3-2-2.05-3-3.1c-.49-.52-1-1-1.45-1.57l-1.4-1.53-10.8,8.1.36.55.35.5.68,1c.46.65.92,1.3,1.39,1.93.95,1.28,1.92,2.54,2.93,3.79s2.06,2.47,3.15,3.68c.56.6,1.11,1.21,1.69,1.8s1.17,1.19,1.78,1.78a50.3,50.3,0,0,0,4,3.47c.73.57,1.51,1.13,2.35,1.68a23.38,23.38,0,0,0,2.85,1.6,17.19,17.19,0,0,0,3.89,1.33l.29.06.32.05.64.09.69.05.35,0h.38l.76,0,.81-.08.41-.06.42-.08c.29-.06.57-.12.85-.2a11.78,11.78,0,0,0,3.29-1.54,8.58,8.58,0,0,0,.7-.53l.18-.13.15-.13.13-.11.5-.44,1-.88.95-.92a52.38,52.38,0,0,0,3.59-3.87c1.12-1.36,2.19-2.74,3.16-4.18s1.89-2.92,2.75-4.42l.61-1.14c.21-.38.39-.76.59-1.15s.39-.76.57-1.15l.54-1.16A64.08,64.08,0,0,0,273,76.51c.43-1.64.82-3.29,1.12-5,.14-.85.29-1.69.4-2.55,0-.22.05-.44.08-.66s.06-.44.08-.66.05-.46.06-.69l.07-.82Z" transform="translate(-26.6)"/>
                <path class="cls-16" d="M226.61,83.27a.93.93,0,1,0,.85-1h0a.93.93,0,0,0-.85,1Z" transform="translate(-26.6)"/>
                <g>
                  <path class="cls-16" d="M246,99.28a.4.4,0,0,0,.38-.3,29.68,29.68,0,0,0,.65-6.9.4.4,0,0,0-.44-.35.4.4,0,0,0-.35.37,30,30,0,0,1-.63,6.68.4.4,0,0,0,.29.48h0Z" transform="translate(-26.6)"/>
                  <path class="cls-16" d="M248.52,96.39a.39.39,0,0,0,.35-.57h0a30.76,30.76,0,0,0-1.94-3.45.4.4,0,0,0-.63.49,32.66,32.66,0,0,1,1.87,3.31A.36.36,0,0,0,248.52,96.39Z" transform="translate(-26.6)"/>
                </g>
                <g>
                  <path class="cls-16" d="M223.75,91a.36.36,0,0,0,.28-.12C227.36,87.44,234.89,82,235,82a.39.39,0,0,0,.07-.56.4.4,0,0,0-.54-.09c-.07.06-7.65,5.53-11,9a.41.41,0,0,0,0,.57A.39.39,0,0,0,223.75,91Z" transform="translate(-26.6)"/>
                  <path class="cls-16" d="M227,88.06a.38.38,0,0,0,.25-.09.41.41,0,0,0,.06-.56l-4-4.83a.42.42,0,0,0-.57,0,.41.41,0,0,0-.05.54l4,4.83A.4.4,0,0,0,227,88.06Z" transform="translate(-26.6)"/>
                </g>
              </g>
              <g>
                <g>
                  <path class="cls-8" d="M270.36,182l5.39-31.82.45-2.6-15.53-5.48-.88-.31-3.7-1.31s-.29,1.37-.75,3.7c-.05.29-.11.58-.18.89-1.45,7.53-4.18,23-4.93,36.93Z" transform="translate(-26.6)"/>
                  <path class="cls-6" d="M267.61,182c2.33-12.69,5.33-31.23,5.51-32.32a.43.43,0,0,0-.35-.48.42.42,0,0,0-.48.35c-.05.27-3.16,19.52-5.53,32.45Z" transform="translate(-26.6)"/>
                </g>
                <g>
                  <path class="cls-8" d="M301.77,130.29s1.16,11.09-1.36,17.26-35.16,3-43.48-2.56c-3.41-2.28,3.86-23.3,3.86-23.3Z" transform="translate(-26.6)"/>
                  <path class="cls-6" d="M255.17,145.05a10.17,10.17,0,0,0,1.44-.38,9.45,9.45,0,0,0,2.15-1,11.48,11.48,0,0,0,1.91-1.57c3.6-3.63,4.67-9.11,4.71-9.38a.43.43,0,0,0-.32-.51.42.42,0,0,0-.5.32v0c0,.07-1.11,5.78-4.77,9.23a9.89,9.89,0,0,1-1.48,1.17,9.2,9.2,0,0,1-2.05,1,7.32,7.32,0,0,1-.92.24C255.28,144.44,255.22,144.73,255.17,145.05Z" transform="translate(-26.6)"/>
                  <path class="cls-6" d="M275.3,148.14a.43.43,0,0,0,.4.43h0a.43.43,0,0,0,.44-.38h0c.07-1.51.16-3.06.26-4.61l0-.82c.34-5.07.75-10,1.07-13.55,0-.28,0-.56.07-.82.07-.77.14-1.46.19-2l-.83-.13c0,.58-.12,1.27-.19,2,0,.27,0,.54-.07.83-.32,3.48-.73,8.41-1.06,13.44l-.05.84C275.48,145,275.38,146.58,275.3,148.14Z" transform="translate(-26.6)"/>
                  <path class="cls-6" d="M274.11,142.8a9.67,9.67,0,0,0,1.47.56,5.93,5.93,0,0,0,.83.21,4.17,4.17,0,0,0,.79.1,2.8,2.8,0,0,0,1.4-.22,1.69,1.69,0,0,0,1-1.28c.3-1.56.94-8,1.37-12.58,0-.27.06-.55.08-.81.07-.73.13-1.4.19-2l-.84-.11c-.05.57-.11,1.24-.18,2,0,.27-.06.54-.08.82-.43,4.55-1.07,11-1.36,12.51a.89.89,0,0,1-.51.7,3,3,0,0,1-1.77,0,8.56,8.56,0,0,1-.83-.23,10.13,10.13,0,0,1-1.15-.45.42.42,0,0,0-.56.19.4.4,0,0,0,.17.53Z" transform="translate(-26.6)"/>
                </g>
                <g>
                  <path class="cls-8" d="M297.71,182c1.29-11.81,2.79-27.62,3.63-36.77,0-.28.05-.56.08-.83.37-4.05.59-6.59.59-6.59-2-.83-5.63-.26-9.5.84l-.84.24a115.7,115.7,0,0,0-14.14,5.53V182Z" transform="translate(-26.6)"/>
                  <path class="cls-6" d="M295.74,182c1.11-13.13,2.43-32.1,2.45-32.35a.42.42,0,1,0-.84-.06c0,.25-1.34,19.29-2.46,32.41Z" transform="translate(-26.6)"/>
                  <path class="cls-6" d="M289.36,132.68a21.7,21.7,0,0,0,2.31,6.17,13.46,13.46,0,0,0,4.31,4.78,9.84,9.84,0,0,0,5.35,1.57c0-.29.06-.57.08-.84a9,9,0,0,1-5-1.43,12.59,12.59,0,0,1-3.93-4.31,21.44,21.44,0,0,1-2.33-6.09.42.42,0,1,0-.82.14Z" transform="translate(-26.6)"/>
                </g>
              </g>
              <g>
                <g>
                  <path class="cls-15" d="M255.79,129.59c9,8.44,30.4,12.92,46.87,4.9,1.81-4.94,3.79-22.56,4.33-27.83.1-1,.19-2.1.26-3.14a137.65,137.65,0,0,0,0-15.47c0-.29,0-.58,0-.87-.22-4.38-.54-8.92-.84-13.75-.6-9.55-3.79-15.43-9.33-16.3A23,23,0,0,1,291,55.28l-.53-.27a16.9,16.9,0,0,1-2.8-1.73H275.27a9.39,9.39,0,0,1-3.84,3.22l-.48.21c-4.38,1.9-9.5,1.52-10.55,6.8-.66,3.32,1.88,10.15,1.61,24,0,1-.05,2.07-.1,3.16s-.12,2.08-.2,3.17-.16,2.07-.27,3.15-.2,1.91-.32,2.9-.26,2.06-.42,3.13C259.89,108.79,257.68,122.2,255.79,129.59Z" transform="translate(-26.6)"/>
                  <path class="cls-16" d="M298.11,132.48l-.1,0a.37.37,0,0,1-.27-.45h0c6.86-25.15,5.47-50.7,5.46-51a.38.38,0,0,1,.37-.38.38.38,0,0,1,.37.34c0,.26,1.41,25.93-5.48,51.2A.39.39,0,0,1,298.11,132.48Z" transform="translate(-26.6)"/>
                  <path class="cls-16" d="M260.9,99.82a.41.41,0,0,0,.4-.35c.81-7.27.83-21.74.83-21.88a.41.41,0,0,0-.44-.36.4.4,0,0,0-.36.36c0,.14,0,14.57-.82,21.79a.39.39,0,0,0,.34.44h0S260.89,99.83,260.9,99.82Z" transform="translate(-26.6)"/>
                  <path class="cls-16" d="M277.81,127.21a.93.93,0,1,0,.85-1h0a.93.93,0,0,0-.85,1Z" transform="translate(-26.6)"/>
                  <path class="cls-16" d="M277.66,131.71a.93.93,0,1,0,.85-1h0A.94.94,0,0,0,277.66,131.71Z" transform="translate(-26.6)"/>
                  <path class="cls-16" d="M266.79,82.17c-2.42-2.81-1.52-9.08-1.47-9.35a.38.38,0,0,1,.39-.33h8.22a.4.4,0,0,1,.39.33c0,.27.95,6.54-1.48,9.35a4.07,4.07,0,0,1-5.75.3,2.83,2.83,0,0,1-.3-.3Zm-.73-8.89c-.15,1.32-.55,6.18,1.34,8.37a3.26,3.26,0,0,0,4.62.22,2.28,2.28,0,0,0,.22-.22c1.9-2.19,1.49-7.05,1.34-8.37Z" transform="translate(-26.6)"/>
                </g>
                <g>
                  <path class="cls-8" d="M288.74,22.86c-2.3-1.49-9.55-2.24-9.55-2.24s-1.19-3.13-2.53-4c-3.06-2-3.43,2.08-3.43,2.08s-3-4.17-5.67-3,.75,5.08.75,5.08-4-.75-3.59,2.68,4.33,4.92,4.33,4.92a7.62,7.62,0,0,0-.6,5.08c.6,3.13,1.94,3.28,1.94,3.28l16.71,1.49s3.43,0,4.33-4.32-2.09-6.12-2.09-6.12S291.28,24.49,288.74,22.86Z" transform="translate(-26.6)"/>
                  <g>
                    <path class="cls-13" d="M275.1,51.2v3.14a10.34,10.34,0,0,0,1.1.77c5.45,3.28,11.33-.77,11.33-.77V43.45l-11,6.82Z" transform="translate(-26.6)"/>
                    <path class="cls-8" d="M275.1,51.11v3.23a9.15,9.15,0,0,0,1.1.78c4.65-1.84,8-6.7,8-6.7l-7.65,1.86Z" transform="translate(-26.6)"/>
                    <path class="cls-15" d="M287.51,51.15A6.25,6.25,0,0,1,292.19,56c-3.58,3.74-6.74,7-11.85,7.92V56.38A13.25,13.25,0,0,0,287.51,51.15Z" transform="translate(-26.6)"/>
                    <path class="cls-15" d="M275,52.24a6.74,6.74,0,0,0-4.54,4.89c3.3,4,5.07,5.53,9.9,6.76V56.38S277.64,56.33,275,52.24Z" transform="translate(-26.6)"/>
                    <g>
                      <g>
                        <path class="cls-8" d="M273.13,110.6l2.13,5.12h0l.95,2.3,2.7,6.51,1.3-2.51.46-.89,1-2,.46-.89,1.05-2,.45-.89,1.05-2h0l.46-.89,1-1.89,0-.21-.15-1.5-.35-3.41-.15-1.5-.35-3.4L285,99l-.35-3.4-.16-1.51-.34-3.4L284,89.18l-.34-3.4-.15-1.51-.35-3.4-.15-1.5L282.63,76l-.15-1.5-.34-3.41-.16-1.5L281.62,66l-2.6-.11-.07.59-.16,1.19-.35,2.71-.16,1.19-.36,2.7-.15,1.19-.36,2.7-.16,1.2-.35,2.7-.16,1.19-.35,2.7-.16,1.2-.35,2.7-.16,1.19-.35,2.7-.16,1.2-.35,2.7-.16,1.19-.35,2.7-.16,1.2-.36,2.7-.15,1.19-.35,2.7-.16,1.2Z" transform="translate(-26.6)"/>
                        <g>
                          <path class="cls-6" d="M278.79,67.7l3.35,3.35-.15-1.5-3-3Z" transform="translate(-26.6)"/>
                          <path class="cls-6" d="M278.28,71.6,282.64,76l-.15-1.51-4.05-4Z" transform="translate(-26.6)"/>
                          <path class="cls-6" d="M277.77,75.49l5.37,5.38L283,79.36l-5.07-5.06Z" transform="translate(-26.6)"/>
                          <path class="cls-6" d="M277.25,79.39l6.39,6.39-.15-1.51-6.08-6.08Z" transform="translate(-26.6)"/>
                          <path class="cls-6" d="M276.74,83.28l7.4,7.41L284,89.18l-7.09-7.09Z" transform="translate(-26.6)"/>
                          <path class="cls-6" d="M276.22,87.18l8.42,8.41-.15-1.5L276.38,86Z" transform="translate(-26.6)"/>
                          <path class="cls-6" d="M275.71,91.07l9.43,9.43L285,99l-9.12-9.11Z" transform="translate(-26.6)"/>
                          <path class="cls-6" d="M275.2,95l10.44,10.45-.15-1.51L275.36,93.77Z" transform="translate(-26.6)"/>
                          <path class="cls-6" d="M274.68,98.86l11.46,11.46-.15-1.5L274.84,97.67Z" transform="translate(-26.6)"/>
                          <path class="cls-6" d="M274.17,102.76l10.55,10.55.46-.89-10.85-10.86Z" transform="translate(-26.6)"/>
                          <path class="cls-6" d="M273.66,106.65l9.56,9.56.45-.89-9.86-9.86Z" transform="translate(-26.6)"/>
                          <path class="cls-6" d="M273.14,110.55l8.57,8.56.46-.88-8.87-8.88Z" transform="translate(-26.6)"/>
                          <path class="cls-6" d="M275.26,115.72l.95,2.3,4,4,.46-.89Z" transform="translate(-26.6)"/>
                        </g>
                        <path class="cls-6" d="M281.63,66,280.34,68l-1.31-2-.23,1.73,1.52,1.54,1.45-1.83Z" transform="translate(-26.6)"/>
                      </g>
                      <path class="cls-8" d="M283.81,62.79,280.34,68,277,62.79l3.33-4.31Z" transform="translate(-26.6)"/>
                      <path class="cls-16" d="M285.83,66.32a.36.36,0,0,0,.24-.09c3.44-2.74,6.37-9.82,6.49-10.12a.4.4,0,0,0-.74-.3c0,.07-2.79,6.74-5.93,9.53l-5.23-7.1a.39.39,0,0,0-.56-.08.3.3,0,0,0-.08.08l-4.88,6.93c-.75-1.35-2.71-4.92-4.35-8.23a.4.4,0,0,0-.71.36c2.08,4.18,4.65,8.76,4.67,8.81a.4.4,0,0,0,.67,0l4.93-7,5.15,7a.37.37,0,0,0,.26.16Z" transform="translate(-26.6)"/>
                      <path class="cls-16" d="M280.35,58.88a.4.4,0,0,0,.4-.4V56.7a.4.4,0,0,0-.8-.07v1.85a.39.39,0,0,0,.38.4Z" transform="translate(-26.6)"/>
                    </g>
                  </g>
                  <path class="cls-14" d="M271.17,37.29s-1.78-2.1-2.79,0-.23,6.37,2.48,5.68Z" transform="translate(-26.6)"/>
                  <path class="cls-13" d="M269.27,44.68s0,6.49,6.74,6.47,11.28-5.28,11.52-5.52h0l.07-1.36.38-7.08.21-3.78s.85-6.81-5.62-8.06c-4.73-.91-9.17-.12-11.41,2.35l-.21.24a5.86,5.86,0,0,0-1.27,3.17l-.21,6.8-.05,1.66Z" transform="translate(-26.6)"/>
                  <path class="cls-8" d="M277,33s2.84,2.11,4.52.77S279.3,31,278,31.09,276.18,32.54,277,33Z" transform="translate(-26.6)"/>
                  <path class="cls-8" d="M273.94,33s-2.83,2.11-4.52.77,2.24-2.81,3.54-2.7S274.78,32.54,273.94,33Z" transform="translate(-26.6)"/>
                  <path class="cls-14" d="M276.17,45.53a2.8,2.8,0,0,0,1.93-.62.29.29,0,0,0,0-.42.3.3,0,0,0-.42,0h0a2,2,0,0,1-2.07.32.29.29,0,0,0-.39.15.3.3,0,0,0,.15.4A2.82,2.82,0,0,0,276.17,45.53Z" transform="translate(-26.6)"/>
                  <path class="cls-7" d="M279.1,40.89a30.07,30.07,0,0,1-6.2.64,3.15,3.15,0,0,0,6.2-.64Z" transform="translate(-26.6)"/>
                  <path class="cls-8" d="M271,27.93c1.07-.38,1.83,0,3.48.7,2.38,1.05,5.05.11,7.41-1.1s3.77.47,3,1.57-.72,2,.17,3.39-1.68,2.06-.26,3.15a1.47,1.47,0,0,1,.32,1.81,1,1,0,0,0,.57,1.24.93.93,0,0,0,.52,0h0c.77-.19,1.85-1.55,1.85-1.55l.2-3.78s.86-6.81-5.62-8.06c-4.73-.91-9.16-.12-11.4,2.35A2.57,2.57,0,0,0,271,27.93Z" transform="translate(-26.6)"/>
                  <path class="cls-14" d="M278.28,38.73c0,.48,1,.86,2.18.86s2.18-.39,2.18-.86-1-.85-2.18-.85S278.28,38.26,278.28,38.73Z" transform="translate(-26.6)"/>
                  <path class="cls-14" d="M269.43,39.56a4.53,4.53,0,0,0,.52,0c1.2,0,2.17-.39,2.17-.86s-1-.85-2.17-.85l-.47,0Z" transform="translate(-26.6)"/>
                  <path class="cls-8" d="M277.34,36.13c0,.65.3,1.17.66,1.17s.66-.52.66-1.17S278.36,35,278,35,277.34,35.49,277.34,36.13Z" transform="translate(-26.6)"/>
                  <path class="cls-8" d="M270.82,36.13c0,.65.3,1.17.66,1.17s.66-.52.66-1.17-.3-1.17-.66-1.17S270.82,35.49,270.82,36.13Z" transform="translate(-26.6)"/>
                  <path class="cls-8" d="M285.42,43a5.87,5.87,0,0,0,2.11,2.63h0l.07-1.36A4.75,4.75,0,0,1,285.42,43Z" transform="translate(-26.6)"/>
                  <path class="cls-13" d="M286.6,38.48s2.6-3.48,4.5-.74c1.56,2.26-1.4,8.14-4.5,6.12Z" transform="translate(-26.6)"/>
                  <path class="cls-8" d="M287,42.81a.26.26,0,0,0,.26-.24A4.44,4.44,0,0,1,289.81,39a.26.26,0,0,0,.15-.35.26.26,0,0,0-.34-.15h0a5,5,0,0,0-2.93,4,.28.28,0,0,0,.23.3h0Z" transform="translate(-26.6)"/>
                  <path class="cls-8" d="M289.45,41.19a.23.23,0,0,0,.2-.1.26.26,0,0,0,0-.37h0a2.54,2.54,0,0,0-1.86-.64.27.27,0,0,0-.19.33.26.26,0,0,0,.32.19c.46-.12,1.16.34,1.4.53A.27.27,0,0,0,289.45,41.19Z" transform="translate(-26.6)"/>
                  <path class="cls-8" d="M275.24,39.4a.27.27,0,0,0,0-.54,1.86,1.86,0,0,1-1.6-.74c1.07-2.19,2.13-4.4,2.14-4.42a.27.27,0,0,0-.13-.36.26.26,0,0,0-.35.12s-1.11,2.32-2.2,4.56a.3.3,0,0,0,0,.23A2.3,2.3,0,0,0,275.24,39.4Z" transform="translate(-26.6)"/>
                </g>
              </g>
            </g>
          </g>
          <g class="cls-12">
            <g>
              <g>
                <path class="cls-13" d="M339.82,63.46s3.59,3.62,7.14,2.21c2.87-1.14,3.5-5.12,3.64-6.61a5.56,5.56,0,0,0,0-.57,5.45,5.45,0,0,0,.46-.31c.63-.46,1.67-1.4,1.56-2.49-.16-1.57-3-.7-3-.7s.44-1.89-.4-2.45-2.52.42-2.52.42.92-2.31-.34-2.87c-1.89-.84-2.52,2-2.6,2.19,0-.2.92-8.94-.58-8.49-1.31.4-2.51,7.69-2.82,9.68-.05.31-.07.49-.07.49H340c-.84,0-3.31.25-3.77,2C335.73,58,339.82,63.46,339.82,63.46Z" transform="translate(-26.6)"/>
                <path class="cls-14" d="M347.17,57.29a3.07,3.07,0,0,0-.31,1.93.93.93,0,0,0,.62.67,1.91,1.91,0,0,0,.79,0,9.79,9.79,0,0,0,2.34-.85c0-.35,0-.57,0-.57a4.63,4.63,0,0,0,.47-.31.29.29,0,0,0-.16,0c-1,.53-2.7,1.3-3.29,1.11a.34.34,0,0,1-.23-.26,3.64,3.64,0,0,1,.88-2.52.29.29,0,0,0,0-.39.28.28,0,0,0-.39,0c-.59.43-2.29,1.49-3.14,1.22-.12,0-.14-.1-.15-.13a1,1,0,0,1,.13-.59,7.05,7.05,0,0,1,1.05-1.55.29.29,0,0,0,.07-.16.3.3,0,0,0-.1-.25.28.28,0,0,0-.41,0h0a8,8,0,0,0-1.06,1.53,2.4,2.4,0,0,0-.25.74.81.81,0,0,0,0,.41.75.75,0,0,0,.53.53A3.69,3.69,0,0,0,347.17,57.29Z" transform="translate(-26.6)"/>
                <path class="cls-14" d="M342.67,54.81a.29.29,0,0,1,.21.25,2,2,0,0,0,.26.92.36.36,0,0,0,.31.17,1.15,1.15,0,0,0,.48-.17,9.09,9.09,0,0,0,1.58-1.31.33.33,0,0,1-.07.16,8.06,8.06,0,0,0-1.05,1.54l-.17.11a2.24,2.24,0,0,1-.53.23.94.94,0,0,1-1-.38,2.53,2.53,0,0,1-.38-1.22.29.29,0,0,1,.27-.31h.11Z" transform="translate(-26.6)"/>
                <path class="cls-14" d="M338.45,58.11a10.11,10.11,0,0,0,2.33-.06,3.31,3.31,0,0,0,1.62-.66,1.52,1.52,0,0,0,.52-1.11c0-1.57-1.56-2.44-2.52-2.82l-.08.5H340c.81.3,2.32,1,2.29,2.3a.9.9,0,0,1-.32.68c-.78.7-2.79.66-3.5.58a.3.3,0,0,0-.33.26.3.3,0,0,0,.27.33Z" transform="translate(-26.6)"/>
                <path class="cls-14" d="M344.77,63.74a.32.32,0,0,0,.23-.19.29.29,0,0,0-.17-.37h0a2.62,2.62,0,0,1-1.64-1.53c-.7-1.82.6-4.35.62-4.38a.29.29,0,0,0-.52-.27c-.06.11-1.44,2.79-.65,4.86a3.22,3.22,0,0,0,2,1.88A.38.38,0,0,0,344.77,63.74Z" transform="translate(-26.6)"/>
              </g>
              <path class="cls-15" d="M301,59.22l6.14,5.33c1,.92,2,1.83,3,2.74s2,1.8,2.95,2.69,2,1.78,3,2.64,2,1.72,2.95,2.53,1.95,1.6,2.87,2.28c.45.34.89.65,1.25.88l.24.15.09.06,0,0,.07.09s0,.07.07.1.13.06.3.05a5,5,0,0,0,1.73-.67A14.46,14.46,0,0,0,328,76.35a32.77,32.77,0,0,0,2.43-2.43A59.28,59.28,0,0,0,335,68c1.46-2.11,2.49-3.73,3.81-6a9.86,9.86,0,0,0,8.95,3.42,83,83,0,0,1-3.46,8,63.85,63.85,0,0,1-4.56,7.74A39.8,39.8,0,0,1,336.81,85,28.43,28.43,0,0,1,333,88.56a18.92,18.92,0,0,1-2.51,1.63,16.62,16.62,0,0,1-3.11,1.3,14,14,0,0,1-3.75.59,13.89,13.89,0,0,1-5.82-1.16l-.42-.19-.36-.18a2.71,2.71,0,0,1-.34-.18l-.33-.17c-.83-.45-1.54-.88-2.22-1.32-1.35-.86-2.57-1.71-3.76-2.58s-2.32-1.74-3.45-2.62-2.23-1.77-3.31-2.66-2.17-1.8-3.23-2.71-2.11-1.83-3.16-2.76-2.07-1.86-3.1-2.8l-1.53-1.42-.76-.73c-.26-.24-.51-.48-.77-.74Z" transform="translate(-26.6)"/>
              <g>
                <path class="cls-16" d="M306.9,84.43a.57.57,0,0,1-.22-.07c-4.05-2.84-11.26-8.82-11.34-8.88a.37.37,0,0,1,0-.52.37.37,0,0,1,.52,0c.07.06,7.26,6,11.29,8.85a.36.36,0,0,1,.09.51A.39.39,0,0,1,306.9,84.43Z" transform="translate(-26.6)"/>
                <path class="cls-16" d="M298.51,78h-.05l-2.86-.42a.37.37,0,0,1-.31-.42.36.36,0,0,1,.42-.31l2.85.41a.37.37,0,0,1,.32.42.36.36,0,0,1-.37.32Z" transform="translate(-26.6)"/>
              </g>
              <path class="cls-16" d="M345.79,70.08a.37.37,0,0,0,.16-.51.38.38,0,0,0-.41-.19c-5.38,1.17-8.06-4-8.09-4a.38.38,0,0,0-.51-.17h0a.36.36,0,0,0-.16.5h0c0,.05,3,5.7,8.92,4.4A.16.16,0,0,0,345.79,70.08Z" transform="translate(-26.6)"/>
              <path class="cls-16" d="M343,70.19a.41.41,0,0,0,.18-.19L345,65.87a.38.38,0,1,0-.69-.3l-1.77,4.13a.38.38,0,0,0,.19.5A.4.4,0,0,0,343,70.19Z" transform="translate(-26.6)"/>
              <path class="cls-16" d="M339.85,66.21a.65.65,0,0,0,.88.28.65.65,0,1,0-.6-1.16h0A.66.66,0,0,0,339.85,66.21Z" transform="translate(-26.6)"/>
              <g>
                <path class="cls-16" d="M322.78,83.39a.34.34,0,0,0,.19-.27,16.56,16.56,0,0,1,1.11-3.76.39.39,0,0,0-.17-.51h0a.38.38,0,0,0-.51.17,16.7,16.7,0,0,0-1.17,4,.37.37,0,0,0,.31.43A.41.41,0,0,0,322.78,83.39Z" transform="translate(-26.6)"/>
                <path class="cls-16" d="M325.23,82.55l.07,0a.38.38,0,0,0,.05-.53A6.76,6.76,0,0,1,324,79.45a.38.38,0,0,0-.46-.27.37.37,0,0,0-.28.42,7.6,7.6,0,0,0,1.47,2.85A.37.37,0,0,0,325.23,82.55Z" transform="translate(-26.6)"/>
              </g>
            </g>
          </g>
        </g>
      </g>
    </g>
    <g>
      <ellipse class="cls-5" cx="85.86" cy="244.78" rx="85.86" ry="5.22"/>
      <g>
        <path class="cls-13" d="M107.11,99.34l8.67,31.72-3.09-3.56a15.68,15.68,0,0,0,3.94,1.4,27.83,27.83,0,0,0,4.73.61c1.67.09,3.42.07,5.2,0s3.61-.21,5.45-.37h0a5,5,0,0,1,1.2,9.83c-1.91.31-3.85.6-5.83.83s-4,.4-6.14.45a40.09,40.09,0,0,1-6.57-.36,27,27,0,0,1-6.88-1.91,5.39,5.39,0,0,1-3-3.23l-.11-.33L94.3,103.23A6.69,6.69,0,1,1,107,99v0C107,99.1,107.08,99.23,107.11,99.34Z" transform="translate(-26.6)"/>
        <g>
          <g>
            <path class="cls-16" d="M110.45,214.31a1.34,1.34,0,0,1-.4-.07L64.62,197.86a1.14,1.14,0,0,1,.78-2.15h0l45.43,16.38a1.13,1.13,0,0,1,.7,1.45A1.15,1.15,0,0,1,110.45,214.31Z" transform="translate(-26.6)"/>
            <path class="cls-16" d="M63.12,214.31A1.15,1.15,0,0,1,62,213.16a1.13,1.13,0,0,1,.75-1.08l46-16.65a1.15,1.15,0,0,1,.79,2.16l-46,16.65A1.34,1.34,0,0,1,63.12,214.31Z" transform="translate(-26.6)"/>
            <path class="cls-15" d="M114.49,243.58a2,2,0,0,1-1.95-1.7l-8.2-61.28H70l-8.08,61.28a2,2,0,1,1-3.89-.51l8.31-63a2,2,0,0,1,1.94-1.71h37.78a2,2,0,0,1,1.94,1.7l8.44,63a2,2,0,0,1-1.69,2.21Z" transform="translate(-26.6)"/>
            <path class="cls-15" d="M95.12,178.65H70.58c-7.77,0-16.1-4.26-17.29-11.94a146.21,146.21,0,0,1-1.55-29.34,35.73,35.73,0,0,1,13.55-26.32h0s4.9,21.35-1.26,50.83C66.38,173.07,95.12,178.65,95.12,178.65Z" transform="translate(-26.6)"/>
          </g>
          <g>
            <path class="cls-8" d="M90,53.39s-2.92-7-10.64-5.71c-5.4.93-7.7,7.65-7.38,18,.46,15.11-4.65,24.21-4.65,24.21l6.78,1.54S91.39,65.56,90,53.39Z" transform="translate(-26.6)"/>
            <g>
              <path class="cls-8" d="M151.88,217.33h-11s-2.54-12.17-3.39-19-1.29-23-1.29-23-8.74,2.84-27,1.76C68.72,174.76,84.08,145,84.08,145c1.37,1.89,9.75.58,15.48,1.48,17.59,1.69,32.83,8.59,42,12.54a45.3,45.3,0,0,1,5.88,3c2.2,1.35,3.58,5.49,4.42,10.91C154.35,189.26,151.88,217.33,151.88,217.33Z" transform="translate(-26.6)"/>
              <path class="cls-6" d="M142.28,211.46a.4.4,0,0,1-.39-.31c-1.58-7.83-2.11-17.56-2.53-25.39-.36-6.49-.69-12.62-1.53-13.35-.67-.6-3.48-.13-7,.45-7.06,1.18-17.73,2.94-29.49.21-6.41-1.5-11.12-4.61-14-9.25-5-8-2.71-18-2.68-18.06a.39.39,0,0,1,.48-.28.39.39,0,0,1,.28.46c0,.1-2.21,9.73,2.59,17.47,2.77,4.46,7.32,7.45,13.51,8.9,11.61,2.7,22.19.94,29.19-.22,4.19-.69,6.72-1.11,7.68-.27s1.32,5.39,1.78,13.9c.43,7.8.95,17.5,2.53,25.27a.41.41,0,0,1-.31.47h-.09Z" transform="translate(-26.6)"/>
              <path class="cls-6" d="M152.08,211.67h0l-12.19-.26a.41.41,0,0,1-.39-.41.39.39,0,0,1,.41-.38l12.18.26a.39.39,0,0,1,.39.4h0A.4.4,0,0,1,152.08,211.67Z" transform="translate(-26.6)"/>
              <g>
                <path class="cls-13" d="M151.57,231.36h-7.73l-1.49-9.07-.82-5h9.61l.16,5Z" transform="translate(-26.6)"/>
                <g>
                  <path class="cls-15" d="M151.57,231.36h-7.73l-1.11-6.75-.38-2.32h9l.07,2.4Z" transform="translate(-26.6)"/>
                  <path class="cls-16" d="M151.37,224.69l-8.64-.08-.38-2.32h9Z" transform="translate(-26.6)"/>
                </g>
                <g>
                  <path class="cls-17" d="M170.66,243.58H141.41A4.14,4.14,0,0,1,141,242c-.18-2.48.61-6.43,1-8.92q.08-.43.12-.81a8.42,8.42,0,0,0,.09-1,1.49,1.49,0,0,1,1.24-1.71,1.45,1.45,0,0,1,.55,0c3,2.9,6.32-1.45,8.27,0l.27.19.76.63c.49.41,1.19,1,2.14,1.87,2.33,2.09,6.27,3.47,9.63,4.87q.64.27,1.2.54l.79.4c2.75,1.49,3.62,2.91,3.83,3.94A2.26,2.26,0,0,1,170.66,243.58Z" transform="translate(-26.6)"/>
                  <path class="cls-18" d="M167.08,238c-.75.6-2.43,1.8-3.78,1.8h-.17c-.95-.08-4.44-1.79-7.27-3.35-1.63-.9-3.12-1.78-4.18-2.48-1.75-1.16-2.06-1.6-2.13-1.9-.25-1.16,1.66-2,3-2.38l.75.62c-1.66.45-3,1.17-3,1.57s1.9,1.66,6,3.94a37.49,37.49,0,0,0,6.81,3.18,5.87,5.87,0,0,0,3.09-1.39C166.56,237.75,166.83,237.89,167.08,238Z" transform="translate(-26.6)"/>
                  <path class="cls-18" d="M170.66,243.58H141.41A4.15,4.15,0,0,1,141,242H170.9A2.25,2.25,0,0,1,170.66,243.58Z" transform="translate(-26.6)"/>
                  <path class="cls-18" d="M144.39,243.58h-.87a6.42,6.42,0,0,0,1.56-4.69A8.24,8.24,0,0,0,142,233c0-.29.08-.57.11-.81a9,9,0,0,1,3.66,6.63A7,7,0,0,1,144.39,243.58Z" transform="translate(-26.6)"/>
                  <path class="cls-7" d="M155,233.93a.49.49,0,0,1-.49-.49.47.47,0,0,1,.37-.46l1.83-.46a.47.47,0,0,1,.58.35.48.48,0,0,1-.35.59l-1.82.45Z" transform="translate(-26.6)"/>
                  <path class="cls-7" d="M153.14,232.41a.49.49,0,0,1-.48-.48.48.48,0,0,1,.37-.47l1.82-.46a.49.49,0,0,1,.59.35.48.48,0,0,1-.35.58h0l-1.83.46A.25.25,0,0,1,153.14,232.41Z" transform="translate(-26.6)"/>
                  <path class="cls-7" d="M156.78,235a.47.47,0,0,1-.46-.37.46.46,0,0,1,.34-.57h0l1.82-.45a.48.48,0,0,1,.59.35.47.47,0,0,1-.35.58h0l-1.82.46Z" transform="translate(-26.6)"/>
                  <path class="cls-7" d="M158.61,236a.48.48,0,0,1-.48-.49.49.49,0,0,1,.36-.47l1.83-.45a.47.47,0,0,1,.58.35.48.48,0,0,1-.34.58h0l-1.82.45Z" transform="translate(-26.6)"/>
                  <path class="cls-7" d="M160.61,237a.48.48,0,0,1-.13-1h0l1.83-.46a.48.48,0,0,1,.58.35.48.48,0,0,1-.35.59l-1.82.46Z" transform="translate(-26.6)"/>
                  <path class="cls-7" d="M162.76,237.76a.48.48,0,0,1-.48-.48.49.49,0,0,1,.37-.47l1.82-.46a.5.5,0,0,1,.59.36.47.47,0,0,1-.34.57h0l-1.83.45A.17.17,0,0,1,162.76,237.76Z" transform="translate(-26.6)"/>
                </g>
              </g>
            </g>
            <g>
              <path class="cls-18" d="M63.79,135.56s-.34,2.37,2.83,3l33,1.1a3.72,3.72,0,0,0,1.83-3.88S87.51,128,63.79,135.56Z" transform="translate(-26.6)"/>
              <g>
                <path class="cls-13" d="M100.07,146.47c-17.13,9.43-35.84,1.84-35.84,1.84a52.14,52.14,0,0,0,2.09-7.87c.57-3,.89-5.61,1-7,7.28-.4,25.15-1.17,32.15.49l0,2.81Z" transform="translate(-26.6)"/>
                <path class="cls-14" d="M87.42,142c-.13.88-.53,1.56-.89,1.51s-.56-.82-.44-1.7.53-1.56.89-1.51S87.54,141.07,87.42,142Z" transform="translate(-26.6)"/>
                <path class="cls-14" d="M99.55,136.75c-7.3-.44-21.64-.6-33.24,3.69.57-3,.89-5.62,1-7,7.28-.4,25.15-1.16,32.15.5Z" transform="translate(-26.6)"/>
              </g>
              <g>
                <path class="cls-17" d="M107.69,123.19a4.42,4.42,0,0,1-.24.6l-.11.2a16.31,16.31,0,0,1-3.53,4.23l-.7.59c-.44.35-.81.63-1.07.82l-.37.25a.07.07,0,0,1,0,.05l0,.41c0,.54-.08,1.18-.11,1.91s0,1.23,0,1.94c0,.51,0,1.05,0,1.61-9.68-4.33-29.62-1.59-37.65-.24.15-.7.28-1.38.4-2a62.54,62.54,0,0,0,1-8.29,86.44,86.44,0,0,0-.91-14.91l-.15-1.11c0-.24-.07-.48-.12-.72-.27-1.79-.59-3.59-1-5.33-1.58-7.6-.47-15.57,7.23-16.52L72,86.45c3.63-.38,6.62-.52,7.44-.55h.24l14.89,4.33,1.41.41c.82.26,1.57.52,2.27.76l.86.32c.72.27,1.37.53,2,.8a16.38,16.38,0,0,1,2.88,1.57c3.27,2.32,2.76,4.94,2.68,10.12v1c0,.67,0,1.34.07,2,.06,1,.15,2,.25,2.9,0,.38.08.76.13,1.14s.09.7.14,1.06C107.77,116.81,108.51,120.78,107.69,123.19Z" transform="translate(-26.6)"/>
                <path class="cls-18" d="M106.59,104.26v.93l-3.13,2a.44.44,0,0,1-.53-.7l.06,0,3.32-2.08A.55.55,0,0,1,106.59,104.26Z" transform="translate(-26.6)"/>
                <path class="cls-18" d="M86,121a.43.43,0,0,1-.32-.14.44.44,0,0,1,0-.62l2.91-2.62a.45.45,0,0,1,.62-.05.44.44,0,0,1,0,.62l-.07.08-2.92,2.62A.44.44,0,0,1,86,121Z" transform="translate(-26.6)"/>
                <path class="cls-18" d="M107.17,112.28l-2,1.79a.4.4,0,0,1-.29.12.41.41,0,0,1-.32-.15.43.43,0,0,1,0-.61l2.44-2.2C107.08,111.58,107.13,111.93,107.17,112.28Z" transform="translate(-26.6)"/>
                <path class="cls-18" d="M80.06,110.49a.48.48,0,0,1-.07-.35.45.45,0,0,1,.53-.33l3.81.9a.45.45,0,0,1,.29.56.44.44,0,0,1-.49.29l-3.81-.9A.39.39,0,0,1,80.06,110.49Z" transform="translate(-26.6)"/>
                <path class="cls-18" d="M66.46,118a.44.44,0,0,1-.3-.76l2.91-2.62a.44.44,0,0,1,.62,0,.45.45,0,0,1,0,.62l-.08.07-2.91,2.62A.46.46,0,0,1,66.46,118Z" transform="translate(-26.6)"/>
                <path class="cls-18" d="M100.34,117.35a.43.43,0,0,1,.24-.27.44.44,0,0,1,.57.23l1.56,3.59a.44.44,0,0,1-.76.44l0-.08-1.56-3.6A.47.47,0,0,1,100.34,117.35Z" transform="translate(-26.6)"/>
                <path class="cls-18" d="M107.7,123.19a5.22,5.22,0,0,1-.25.59,2,2,0,0,1-.11.21l-2.13-.67a.41.41,0,0,1-.24-.19.4.4,0,0,1,0-.35.43.43,0,0,1,.54-.29Z" transform="translate(-26.6)"/>
                <path class="cls-18" d="M95.67,123.51a.39.39,0,0,1,.34.11.43.43,0,0,1,0,.61l-2.63,2.91a.44.44,0,0,1-.72-.51l.07-.08,2.64-2.9A.42.42,0,0,1,95.67,123.51Z" transform="translate(-26.6)"/>
                <path class="cls-18" d="M94.13,116.82a.45.45,0,0,1-.36-.51A.47.47,0,0,1,94,116l3.32-2.08a.43.43,0,0,1,.61.08.44.44,0,0,1-.08.62l-.07,0-3.32,2.08A.4.4,0,0,1,94.13,116.82Z" transform="translate(-26.6)"/>
                <path class="cls-18" d="M96.24,104.2a.44.44,0,0,1,.11.34.44.44,0,0,1-.48.39h0L92,104.5a.43.43,0,0,1-.39-.47.45.45,0,0,1,.48-.4h0l3.89.42A.47.47,0,0,1,96.24,104.2Z" transform="translate(-26.6)"/>
                <path class="cls-18" d="M90.58,95.76a.44.44,0,0,1,.81-.11l1.86,3.45a.46.46,0,0,1-.12.62.45.45,0,0,1-.61-.12.3.3,0,0,1,0-.08l-1.86-3.45A.42.42,0,0,1,90.58,95.76Z" transform="translate(-26.6)"/>
                <path class="cls-18" d="M103.82,128.22l-.71.6-.51-1.31a.42.42,0,0,1,0-.31.44.44,0,0,1,.57-.25.4.4,0,0,1,.25.24Z" transform="translate(-26.6)"/>
                <path class="cls-18" d="M68,121.59a.45.45,0,0,1,0-.36.44.44,0,0,1,.56-.26l3.68,1.33a.43.43,0,0,1,.29.54.44.44,0,0,1-.55.29l0,0-3.69-1.32A.43.43,0,0,1,68,121.59Z" transform="translate(-26.6)"/>
                <path class="cls-18" d="M69.82,126.57a.44.44,0,0,1,.32.15.43.43,0,0,1,0,.61l-2.94,2.6a.44.44,0,0,1-.61-.11.45.45,0,0,1,0-.54l2.94-2.6A.44.44,0,0,1,69.82,126.57Z" transform="translate(-26.6)"/>
                <path class="cls-18" d="M75.13,130.69a.42.42,0,0,1,.09.34.45.45,0,0,1-.5.36l-3.86-.66a.44.44,0,0,1,.15-.86l3.85.66A.37.37,0,0,1,75.13,130.69Z" transform="translate(-26.6)"/>
                <path class="cls-18" d="M78.37,94a.39.39,0,0,1,0-.35.44.44,0,0,1,.6-.13l3.29,2.12a.44.44,0,0,1,.07.62.45.45,0,0,1-.54.12l-3.29-2.13A.36.36,0,0,1,78.37,94Z" transform="translate(-26.6)"/>
                <path class="cls-18" d="M100.82,96.52a.43.43,0,0,1,.35,0,.44.44,0,0,1,.26.56l-1.31,3.69a.44.44,0,0,1-.58.21.45.45,0,0,1-.24-.5l1.31-3.69A.45.45,0,0,1,100.82,96.52Z" transform="translate(-26.6)"/>
                <path class="cls-18" d="M99.06,91.71l-2,2.6a.42.42,0,0,1-.6.1.43.43,0,0,1-.1-.61l0,0,1.84-2.38Z" transform="translate(-26.6)"/>
                <path class="cls-18" d="M79.28,127.54a.34.34,0,0,0,.26.23.31.31,0,0,0,.19,0,20.51,20.51,0,0,1,13.06.69,22.19,22.19,0,0,0,8.83,1.89c0-.14,0-.27,0-.4v-.05l.38-.25a21.38,21.38,0,0,1-9-1.85,20.82,20.82,0,0,0-13.56-.7A.36.36,0,0,0,79.28,127.54Z" transform="translate(-26.6)"/>
                <path class="cls-18" d="M94.52,90.22c-.84,1.29-2.55,2.76-6,2.51-4.81-.35-8-4.94-9.08-6.82h.23Z" transform="translate(-26.6)"/>
                <path class="cls-7" d="M89.41,98.73a3,3,0,0,0,.42.06A3.72,3.72,0,0,0,93,97.65c2.32-2.53,1.37-8.29,1.32-8.53a.35.35,0,0,0-.41-.3.37.37,0,0,0-.29.42h0c0,.05.93,5.66-1.14,7.93a3,3,0,0,1-2.62.92C85.23,97.71,80,85.87,80,85.76a.36.36,0,0,0-.47-.19.36.36,0,0,0-.18.47C79.51,86.54,84.47,97.73,89.41,98.73Z" transform="translate(-26.6)"/>
                <path class="cls-13" d="M103.92,94.08a26,26,0,0,0,2.74,13.11c-.06-.87-.08-1.76-.07-2.63v-.09c0-.09,0-.18,0-.27C106.68,99,107.18,96.39,103.92,94.08Z" transform="translate(-26.6)"/>
                <path class="cls-13" d="M76.52,100.09c-1.7,6.59-8,11.88-12.22,10.23-.06-.37-.1-.74-.16-1.11s-.07-.48-.11-.72c-.27-1.79-.59-3.59-1-5.33-1.59-7.6-.47-15.57,7.23-16.51L72,86.46C75.81,88.1,78.5,92.5,76.52,100.09Z" transform="translate(-26.6)"/>
                <path class="cls-13" d="M77.4,95.06l10,36.6-3.57-4.11a18.43,18.43,0,0,0,4.55,1.62,32.37,32.37,0,0,0,5.46.7c1.94.11,3.94.09,6,0s4.16-.23,6.3-.42h0a5.72,5.72,0,0,1,1.38,11.35c-2.2.35-4.44.68-6.73.95s-4.65.46-7.09.52a45.58,45.58,0,0,1-7.57-.41,31.29,31.29,0,0,1-8-2.2,6.2,6.2,0,0,1-3.44-3.74l-.13-.38-12-36a7.72,7.72,0,0,1,14.64-4.89A3.1,3.1,0,0,1,77.4,95.06Z" transform="translate(-26.6)"/>
                <g>
                  <path class="cls-14" d="M81.88,130.49a.28.28,0,0,1-.29-.29.3.3,0,0,1,.15-.26,12.54,12.54,0,0,1,4.58-1.46.31.31,0,0,1,.32.27.3.3,0,0,1-.28.32A12.23,12.23,0,0,0,82,130.46.41.41,0,0,1,81.88,130.49Z" transform="translate(-26.6)"/>
                  <path class="cls-14" d="M85.53,129.17a.29.29,0,0,1-.16,0,7.89,7.89,0,0,0-3.07-1,.29.29,0,0,1-.27-.31h0a.29.29,0,0,1,.31-.27h0a8.22,8.22,0,0,1,3.34,1,.29.29,0,0,1,.1.4h0A.3.3,0,0,1,85.53,129.17Z" transform="translate(-26.6)"/>
                </g>
                <path class="cls-18" d="M94.45,109.88c4.42.9,6.36-3.68,6.38-3.73a.35.35,0,0,0-.2-.46.36.36,0,0,0-.46.2c-.07.18-1.74,4.08-5.58,3.3-4-.82-11.57-8.75-11.64-8.84a.36.36,0,0,0-.5,0,.35.35,0,0,0,0,.51h0C82.74,101.17,90.2,109,94.45,109.88Z" transform="translate(-26.6)"/>
              </g>
              <g>
                <path class="cls-8" d="M87.49,81.06s-7.11-1.34-9.11-8.52c-1.91-6.82-.44-10.37,1.54-14.06,1.5-2.78,6.24-6.53,12.88-5.19s11.73,4.81,12.48,10.33C106.66,74,98.33,86.55,87.49,81.06Z" transform="translate(-26.6)"/>
                <path class="cls-15" d="M78.71,73.65a.33.33,0,0,1-.32-.19,16.12,16.12,0,0,1-.64-12.68,11.64,11.64,0,0,1,6.9-7.28,12.52,12.52,0,0,1,4.65-.85.36.36,0,0,1,.35.38h0a.36.36,0,0,1-.38.35h0a12,12,0,0,0-4.38.82A10.76,10.76,0,0,0,78.46,61,15.66,15.66,0,0,0,79,73.1a.37.37,0,0,1-.14.5h0A.32.32,0,0,1,78.71,73.65Z" transform="translate(-26.6)"/>
                <g>
                  <path class="cls-14" d="M101.27,73.77s2.31-1.83,2.92.59-1.11,6.72-3.8,5.41Z" transform="translate(-26.6)"/>
                  <path class="cls-15" d="M99,78.21a3.71,3.71,0,0,0-2.42,2.66A3.49,3.49,0,1,0,102,78.7a3.3,3.3,0,0,0-1.28-.54h0a.58.58,0,0,0,.09.58,3.08,3.08,0,0,1,1,.5A2.94,2.94,0,1,1,97.11,81a2.88,2.88,0,0,1,2.17-2.24Z" transform="translate(-26.6)"/>
                  <g>
                    <path class="cls-13" d="M94.26,84.13l-1,6.06s-4.54,4.63-12.82-3.67c2.22-1.66,3.07-5.5,2.81-8A12.42,12.42,0,0,1,85,79.85a6.54,6.54,0,0,0,.69.48C87.83,81.82,91.19,83.75,94.26,84.13Z" transform="translate(-26.6)"/>
                    <path class="cls-8" d="M94.26,84.13,93.81,87c-2.49-1.1-6.88-3.47-8.86-7.16.21.16.45.32.69.49C87.83,81.82,91.19,83.76,94.26,84.13Z" transform="translate(-26.6)"/>
                  </g>
                  <path class="cls-13" d="M103.51,72.31c-.13.64-.25,1.25-.37,1.83s-.26,1.22-.38,1.78c-.92,4.19-1.67,6.44-2.9,7.28-6.18,4.25-16.24-4.36-16.56-4.64h0q0-.75,0-1.47A37.85,37.85,0,0,1,85.16,66a8.55,8.55,0,0,1,7.12-7.23c3.82-.57,6.71,1.65,8.51,2.63C103.51,62.85,104.58,67,103.51,72.31Z" transform="translate(-26.6)"/>
                  <path class="cls-8" d="M85.38,62.16s4.32-8.32,13-6,9.09,6.33,9.25,8.34S103.11,63,103.11,63s-.16,4-1.7,2.77a25.12,25.12,0,0,1-4-4.78s-5.14,5-10,3.69C84.6,63.86,85.38,62.16,85.38,62.16Z" transform="translate(-26.6)"/>
                  <path class="cls-14" d="M96,80.47a2.85,2.85,0,0,1-1.93-.82.3.3,0,0,1,0-.43h0a.31.31,0,0,1,.42,0h0a2.14,2.14,0,0,0,2.1.52A.31.31,0,0,1,97,80a.3.3,0,0,1-.18.36A2.24,2.24,0,0,1,96,80.47Z" transform="translate(-26.6)"/>
                  <path class="cls-7" d="M93.4,75.43a31,31,0,0,0,6.32,1.23,3.21,3.21,0,0,1-4.16,2A3.17,3.17,0,0,1,93.4,75.43Z" transform="translate(-26.6)"/>
                  <path class="cls-8" d="M101.12,66.77s-1.08-.12-.91.93,2.52.41,3.69,2.51C103.9,70.21,105,68,101.12,66.77Z" transform="translate(-26.6)"/>
                  <path class="cls-8" d="M96.31,65.79A.78.78,0,0,1,96.78,67c-.57.89-2.48-.61-4.36.88C92.42,67.89,92.25,65.43,96.31,65.79Z" transform="translate(-26.6)"/>
                  <path class="cls-14" d="M94.44,73.3c-.1.5-1.2.69-2.46.44s-2.2-.86-2.1-1.36,1.2-.69,2.47-.43S94.54,72.81,94.44,73.3Z" transform="translate(-26.6)"/>
                  <g>
                    <path class="cls-7" d="M106.72,73.63l-3.36-.58c0,.15,0,.29-.08.43a.64.64,0,0,0,0,.07l3.38.57a.25.25,0,0,0,.29-.21.25.25,0,0,0-.2-.28Z" transform="translate(-26.6)"/>
                    <path class="cls-7" d="M97.75,70.76a4.36,4.36,0,0,0,0-.51,4.24,4.24,0,0,0-3.3-3.63h0A4.25,4.25,0,0,0,89.67,69a3.8,3.8,0,0,0-.18.47c0,.14-.08.29-.12.44A4.19,4.19,0,0,0,89.92,73a3.81,3.81,0,0,0,.67.83,4.14,4.14,0,0,0,2.07,1.1,4.24,4.24,0,0,0,5-3.29h0A4,4,0,0,0,97.75,70.76Zm-5,3.65h-.05A3.74,3.74,0,0,1,89.87,70a3.47,3.47,0,0,1,.16-.55s0,0,0,0A3.73,3.73,0,0,1,93.3,67a3.63,3.63,0,0,1,1,.07,3.73,3.73,0,0,1-1.52,7.31Z" transform="translate(-26.6)"/>
                    <path class="cls-7" d="M105.28,69l-.35-.17-.44-.15-.32-.08a3.81,3.81,0,0,0-.59-.07,3.37,3.37,0,0,0-.71,0,4.27,4.27,0,0,0-1.79.63,4.14,4.14,0,0,0-1.44,1.5c-.09.16-.17.32-.25.49,0,0,0,0,0,0a4.44,4.44,0,0,0-.21.71,4.24,4.24,0,0,0,1.56,4.21,4.14,4.14,0,0,0,1.37.7l.24.06.12,0a4.11,4.11,0,0,0,1.21.07l.19,0a3,3,0,0,0,.52-.1,4.38,4.38,0,0,0,.91-.35,4.24,4.24,0,0,0,0-7.5ZM107,73.54l-.06.23a3.19,3.19,0,0,1-.11.33A3.71,3.71,0,0,1,105.27,76a3.91,3.91,0,0,1-.8.38,4.9,4.9,0,0,1-.55.13l-.16,0a3.79,3.79,0,0,1-1.21,0l-.11,0-.07,0a3.62,3.62,0,0,1-1.56-.85l-.19-.17a3.78,3.78,0,0,1-1-3.35,4,4,0,0,1,.27-.8,3.73,3.73,0,0,1,1.81-1.82,3.5,3.5,0,0,1,1.58-.35h.28a3.93,3.93,0,0,1,.48.06c.11,0,.23,0,.34.09a4.22,4.22,0,0,1,.45.18l.34.17A3.75,3.75,0,0,1,107,73.54Z" transform="translate(-26.6)"/>
                    <path class="cls-7" d="M84.31,69.75a.11.11,0,0,1-.08,0,.26.26,0,0,1-.08-.35c1.68-2.63,5.73-.26,5.77-.24a.25.25,0,0,1,.09.34.26.26,0,0,1-.35.09h0s-3.67-2.14-5.09.09A.26.26,0,0,1,84.31,69.75Z" transform="translate(-26.6)"/>
                  </g>
                  <path class="cls-7" d="M99.57,71.34a.31.31,0,0,1-.16-.11c-.54-.83-1.69-.46-1.7-.46a.25.25,0,0,1-.32-.16.25.25,0,0,1,.16-.31,2,2,0,0,1,2.28.66.23.23,0,0,1-.06.33h0A.27.27,0,0,1,99.57,71.34Z" transform="translate(-26.6)"/>
                  <g class="cls-2">
                    <path class="cls-14" d="M103.14,74.14c-.13.63-.26,1.22-.38,1.78-1.15-.28-2-.84-1.88-1.31S102,74,103.14,74.14Z" transform="translate(-26.6)"/>
                  </g>
                  <g>
                    <path class="cls-8" d="M95.32,70.82c-.13.68-.55,1.17-.93,1.09s-.58-.69-.44-1.37.55-1.17.93-1.09S95.46,70.14,95.32,70.82Z" transform="translate(-26.6)"/>
                    <path class="cls-8" d="M102.05,72.18c-.14.69-.56,1.17-.94,1.09s-.58-.68-.44-1.36.56-1.17.94-1.1S102.18,71.51,102.05,72.18Z" transform="translate(-26.6)"/>
                    <path class="cls-8" d="M98.57,74a2.28,2.28,0,0,0,.58,0,.3.3,0,0,0,.21-.1.29.29,0,0,0,.06-.22L99,70.57a.29.29,0,0,0-.32-.24.27.27,0,0,0-.24.32l.38,2.83a2.37,2.37,0,0,1-1.1-.48.28.28,0,0,0-.4,0,.29.29,0,0,0,0,.41A2.86,2.86,0,0,0,98.57,74Z" transform="translate(-26.6)"/>
                  </g>
                  <path class="cls-8" d="M86.07,76.25c0,.07-1.36,2-2.77,2.31h0c0-.49,0-1,0-1.46A5.35,5.35,0,0,0,86.07,76.25Z" transform="translate(-26.6)"/>
                  <path class="cls-13" d="M85.78,71.28s-2-4.19-4.55-1.73c-2.11,2-.26,8.81,3.41,7.36Z" transform="translate(-26.6)"/>
                  <path class="cls-15" d="M80.91,74.9a3.71,3.71,0,0,0-2.42,2.67,3.49,3.49,0,1,0,5.38-2.18,3.3,3.3,0,0,0-1.28-.54h0a.56.56,0,0,0,.09.57,3.08,3.08,0,0,1,1,.5A2.94,2.94,0,1,1,79,77.68a2.87,2.87,0,0,1,2.17-2.24Z" transform="translate(-26.6)"/>
                  <path class="cls-8" d="M84.49,75.74h0a.3.3,0,0,0,.31-.26h0a5.33,5.33,0,0,0-2.21-4.84.29.29,0,0,0-.4.08.3.3,0,0,0,.09.4h0a4.77,4.77,0,0,1,2,4.32A.29.29,0,0,0,84.49,75.74Z" transform="translate(-26.6)"/>
                  <path class="cls-8" d="M82.22,73.52a.3.3,0,0,0,.19,0A2.24,2.24,0,0,1,84,73.22a.28.28,0,1,0,.25-.51h0a2.78,2.78,0,0,0-2.09.27.29.29,0,0,0-.12.39.3.3,0,0,0,.19.14Z" transform="translate(-26.6)"/>
                </g>
                <path class="cls-8" d="M88.33,64.16s-2.66,7.23-2.8,8.69c-.2,2-2.83-4.82-.19-10.63Z" transform="translate(-26.6)"/>
              </g>
            </g>
            <g>
              <path class="cls-8" d="M132.8,217.36h-11s-2.54-12.16-3.39-19-1.29-23-1.29-23-8.73,2.84-27,1.77C49.64,174.79,65,145,65,145c1.37,1.9,11.64,4.5,17.37,5.41,17.58,1.68,30.95,4.67,40.1,8.62a44.61,44.61,0,0,1,5.88,3c2.21,1.36,3.59,5.49,4.43,10.92C135.27,189.3,132.8,217.36,132.8,217.36Z" transform="translate(-26.6)"/>
              <path class="cls-6" d="M123.2,211.5a.4.4,0,0,1-.39-.31c-1.58-7.83-2.11-17.56-2.53-25.39-.36-6.49-.69-12.62-1.53-13.35-.67-.6-3.48-.13-7,.45-7.06,1.18-17.73,2.94-29.49.21-6.41-1.49-11.13-4.61-14-9.25-5-8-2.7-18-2.68-18.06a.41.41,0,0,1,.49-.28.41.41,0,0,1,.28.47c0,.09-2.21,9.72,2.59,17.46,2.77,4.46,7.31,7.46,13.51,8.9,11.61,2.7,22.19,1,29.19-.22,4.19-.69,6.72-1.11,7.67-.27s1.32,5.39,1.79,13.9c.43,7.8,1,17.5,2.52,25.28a.39.39,0,0,1-.3.46h-.09Z" transform="translate(-26.6)"/>
              <path class="cls-6" d="M133,211.71h0l-12.19-.27a.38.38,0,0,1-.38-.4.39.39,0,0,1,.4-.39l12.19.26a.39.39,0,0,1,.38.4h0A.4.4,0,0,1,133,211.71Z" transform="translate(-26.6)"/>
            </g>
            <g>
              <path class="cls-13" d="M132.5,231.4h-7.74l-1.49-9.07-.81-5h9.61l.15,5Z" transform="translate(-26.6)"/>
              <g>
                <path class="cls-15" d="M132.5,231.4h-7.74l-1.11-6.75-.38-2.32h9l.07,2.4Z" transform="translate(-26.6)"/>
                <path class="cls-16" d="M132.29,224.73l-8.64-.08-.38-2.32h9Z" transform="translate(-26.6)"/>
              </g>
              <g>
                <path class="cls-17" d="M151.58,243.62H122.32a4,4,0,0,1-.38-1.62c-.18-2.48.6-6.42,1-8.92,0-.29.09-.56.12-.8a8.78,8.78,0,0,0,.09-1,1.48,1.48,0,0,1,1.24-1.7,1.45,1.45,0,0,1,.55,0c3,2.91,6.32-1.44,8.27,0l.26.2c.17.13.42.33.76.62.5.41,1.2,1,2.15,1.87,2.32,2.09,6.27,3.47,9.63,4.87.43.18.83.35,1.2.54l.79.41c2.75,1.48,3.62,2.9,3.82,3.93A2.26,2.26,0,0,1,151.58,243.62Z" transform="translate(-26.6)"/>
                <path class="cls-18" d="M148,238.06c-.75.6-2.43,1.8-3.78,1.8h-.17c-1-.08-4.44-1.79-7.28-3.35-1.62-.9-3.11-1.77-4.18-2.48-1.75-1.15-2.05-1.59-2.12-1.9-.25-1.16,1.65-2,3-2.38.17.13.42.33.76.63-1.66.45-3,1.16-3,1.56s1.89,1.66,6,3.93a37.45,37.45,0,0,0,6.82,3.18c.9.08,2.22-.74,3.09-1.39C147.49,237.79,147.75,237.93,148,238.06Z" transform="translate(-26.6)"/>
                <path class="cls-18" d="M151.58,243.62H122.32a4,4,0,0,1-.38-1.62h29.88A2.29,2.29,0,0,1,151.58,243.62Z" transform="translate(-26.6)"/>
                <path class="cls-18" d="M125.31,243.62h-.87a6.41,6.41,0,0,0,1.57-4.68,8.24,8.24,0,0,0-3.08-5.86c0-.29.09-.56.12-.8a8.94,8.94,0,0,1,3.66,6.62A7.07,7.07,0,0,1,125.31,243.62Z" transform="translate(-26.6)"/>
                <path class="cls-7" d="M135.88,234a.48.48,0,0,1-.12-.95l1.83-.46a.48.48,0,0,1,.23.94L136,234A.25.25,0,0,1,135.88,234Z" transform="translate(-26.6)"/>
                <path class="cls-7" d="M134.06,232.45a.48.48,0,0,1-.48-.49.49.49,0,0,1,.36-.47l1.83-.45a.48.48,0,0,1,.59.35.48.48,0,0,1-.35.58l-1.83.46Z" transform="translate(-26.6)"/>
                <path class="cls-7" d="M137.71,235a.48.48,0,0,1-.47-.36.47.47,0,0,1,.34-.58h0l1.83-.45a.48.48,0,1,1,.23.93l-1.82.46Z" transform="translate(-26.6)"/>
                <path class="cls-7" d="M139.53,236.05a.47.47,0,0,1-.46-.37.46.46,0,0,1,.34-.57h0l1.82-.45a.48.48,0,0,1,.59.35.47.47,0,0,1-.35.58l-1.83.46Z" transform="translate(-26.6)"/>
                <path class="cls-7" d="M141.52,237a.48.48,0,0,1-.12-.94h0l1.82-.46a.49.49,0,1,1,.24.94l-1.82.45A.28.28,0,0,1,141.52,237Z" transform="translate(-26.6)"/>
                <path class="cls-7" d="M143.69,237.8a.49.49,0,0,1-.49-.48.49.49,0,0,1,.37-.47l1.83-.46a.47.47,0,0,1,.58.35.48.48,0,0,1-.35.59l-1.82.45Z" transform="translate(-26.6)"/>
              </g>
            </g>
          </g>
        </g>
        <g>
          <path class="cls-19" d="M173.17,144.6V147c0,1.4-.84,2.53-1.89,2.53H40c-1,0-1.89-1.13-1.89-2.53V144.6c0-1.4.85-2.53,1.89-2.53H171.28C172.32,142.07,173.17,143.2,173.17,144.6Z" transform="translate(-26.6)"/>
          <rect class="cls-20" x="11.51" y="145.37" width="135.05" height="1.11"/>
          <path class="cls-20" d="M169.22,155.8H45.82a1,1,0,0,1-1-1v-5.28h125.4v5.28A1,1,0,0,1,169.22,155.8Z" transform="translate(-26.6)"/>
          <rect class="cls-20" x="26.72" y="186.77" width="110.36" height="4.3"/>
          <path class="cls-19" d="M45.36,244.39l21.37-88.58h-7.5L37.86,244.39Z" transform="translate(-26.6)"/>
          <path class="cls-19" d="M171.49,244.39,150.12,155.8h7.51L179,244.38Z" transform="translate(-26.6)"/>
        </g>
        <g>
          <g>
            <g>
              <rect class="cls-15" x="49.1" y="121.78" width="2.34" height="17.66" transform="translate(-45.76 9.09) rotate(-8.69)"/>
              <path class="cls-13" d="M50.1,121.7l-2.31.35.51-1.77.26-.91.53.79Z" transform="translate(-26.6)"/>
              <rect class="cls-8" x="50.34" y="138.07" width="2.34" height="1.29" transform="matrix(0.99, -0.15, 0.15, 0.99, -46.97, 9.37)"/>
              <path class="cls-9" d="M52.78,140.2l-2,.31a.17.17,0,0,1-.18-.13l-.13-.86,2.32-.35.13.86A.16.16,0,0,1,52.78,140.2Z" transform="translate(-26.6)"/>
              <path class="cls-8" d="M49.09,120.16l-.79.13.26-.92Z" transform="translate(-26.6)"/>
              <rect class="cls-16" x="50.19" y="137.16" width="2.34" height="0.92" transform="matrix(0.99, -0.15, 0.15, 0.99, -46.81, 9.34)"/>
              <path class="cls-16" d="M48.49,122.83l2,12.93a.18.18,0,0,0,.2.15h0a.18.18,0,0,0,.14-.2h0l-2-12.93a.17.17,0,0,0-.2-.15h0A.18.18,0,0,0,48.49,122.83Z" transform="translate(-26.6)"/>
              <path class="cls-16" d="M49.4,122.69l2,12.93a.18.18,0,0,0,.2.15h0a.18.18,0,0,0,.15-.2h0l-2-12.93a.17.17,0,0,0-.2-.15h0a.17.17,0,0,0-.15.2Z" transform="translate(-26.6)"/>
            </g>
            <g>
              <rect class="cls-19" x="51.98" y="121.78" width="2.34" height="17.67" transform="translate(-27.03 0.18) rotate(-0.19)"/>
              <path class="cls-13" d="M54.29,121.78H52l.76-1.67.4-.87.4.87Z" transform="translate(-26.6)"/>
              <rect class="cls-8" x="52" y="138.17" width="2.34" height="1.29" transform="translate(-27.06 0.18) rotate(-0.19)"/>
              <path class="cls-9" d="M54.2,140.47h-2a.15.15,0,0,1-.15-.15h0v-.86h2.34v.87a.15.15,0,0,1-.15.15Z" transform="translate(-26.6)"/>
              <path class="cls-8" d="M53.51,120.11h-.8l.4-.87Z" transform="translate(-26.6)"/>
              <rect class="cls-20" x="52" y="137.25" width="2.34" height="0.92" transform="translate(-27.06 0.18) rotate(-0.19)"/>
              <path class="cls-20" d="M52.53,122.66l0,13.08a.18.18,0,0,0,.18.18h0a.17.17,0,0,0,.17-.18h0l0-13.08a.18.18,0,0,0-.17-.18h0a.18.18,0,0,0-.18.18Z" transform="translate(-26.6)"/>
              <path class="cls-20" d="M53.45,122.65l0,13.09a.18.18,0,0,0,.18.17h0a.18.18,0,0,0,.17-.17h0l0-13.09a.18.18,0,0,0-.17-.17h0a.18.18,0,0,0-.18.17Z" transform="translate(-26.6)"/>
            </g>
            <g>
              <rect class="cls-21" x="47.1" y="129.43" width="17.67" height="2.34" transform="translate(-107.84 167.62) rotate(-81.92)"/>
              <path class="cls-13" d="M58.33,122,56,121.7l1-1.55.52-.8.28.91Z" transform="translate(-26.6)"/>
              <rect class="cls-8" x="54.15" y="137.56" width="1.29" height="2.34" transform="translate(-116.87 173.47) rotate(-81.92)"/>
              <path class="cls-9" d="M55.55,140.51l-2-.28a.15.15,0,0,1-.13-.18l.12-.86,2.32.34-.13.86A.15.15,0,0,1,55.55,140.51Z" transform="translate(-26.6)"/>
              <path class="cls-8" d="M57.81,120.26l-.79-.11.52-.8Z" transform="translate(-26.6)"/>
              <rect class="cls-18" x="54.48" y="136.46" width="0.92" height="2.34" transform="translate(-115.65 172.66) rotate(-81.91)"/>
              <path class="cls-18" d="M56.47,122.64l-1.84,13a.17.17,0,0,0,.15.2h0a.17.17,0,0,0,.2-.14h0l1.83-12.95a.17.17,0,0,0-.14-.2h0A.17.17,0,0,0,56.47,122.64Z" transform="translate(-26.6)"/>
              <path class="cls-18" d="M57.38,122.77l-1.84,13a.17.17,0,0,0,.15.2h0a.18.18,0,0,0,.2-.14h0l1.83-13a.17.17,0,0,0-.14-.2h0a.17.17,0,0,0-.2.14Z" transform="translate(-26.6)"/>
            </g>
          </g>
          <g>
            <path class="cls-9" d="M59.1,128.77l-.13.95-.11.86-.16,1.3-.11.86-.17,1.32-.11.84-.18,1.33-.11.83-.17,1.34-.11.81-.17,1.35-.11.81-.09.7h-9.2l-.09-.7-.11-.81-.17-1.35-.11-.81-.17-1.34-.11-.83-.18-1.33-.1-.84L47,132.74l-.11-.86-.17-1.3-.11-.86-.12-.95Z" transform="translate(-26.6)"/>
            <g>
              <path class="cls-22" d="M59,129.72l-.11.86H46.69l-.12-.86Z" transform="translate(-26.6)"/>
              <path class="cls-22" d="M58.7,131.88l-.12.86H47l-.1-.86Z" transform="translate(-26.6)"/>
              <path class="cls-22" d="M58.42,134.05l-.12.84H47.24l-.1-.84Z" transform="translate(-26.6)"/>
              <path class="cls-22" d="M58.13,136.22l-.1.83H47.52l-.1-.83Z" transform="translate(-26.6)"/>
              <path class="cls-22" d="M57.85,138.39l-.1.82h-10l-.11-.82Z" transform="translate(-26.6)"/>
              <path class="cls-22" d="M57.58,140.56l-.11.81H48.08l-.11-.81Z" transform="translate(-26.6)"/>
            </g>
          </g>
        </g>
        <g>
          <g>
            <path class="cls-8" d="M172.4,95.09l-7.85,33.22-.21.87-.53,2.24a2.14,2.14,0,0,1-2.08,1.65H108.81a2.16,2.16,0,0,1-2.15-2.14,2.07,2.07,0,0,1,.06-.5l8.59-36.33a2.15,2.15,0,0,1,2.09-1.65h52.91a2.15,2.15,0,0,1,2.15,2.15A2,2,0,0,1,172.4,95.09Z" transform="translate(-26.6)"/>
            <path class="cls-6" d="M164.54,128.3l-.2.88H109.4v-.88Z" transform="translate(-26.6)"/>
            <g>
              <path class="cls-15" d="M130.13,100.67a5.37,5.37,0,0,1-5,4.26,3.44,3.44,0,0,1-3.57-3.31,3.38,3.38,0,0,1,.1-1,5.37,5.37,0,0,1,5-4.26,3.43,3.43,0,0,1,3.57,3.3A3.49,3.49,0,0,1,130.13,100.67Z" transform="translate(-26.6)"/>
              <g>
                <path class="cls-8" d="M125.32,99.86c-.09.46-.33.85-.53.85s-.3-.38-.21-.85.32-.86.52-.86S125.41,99.38,125.32,99.86Z" transform="translate(-26.6)"/>
                <path class="cls-8" d="M127.54,99.86c-.09.46-.33.85-.53.85s-.3-.38-.21-.85.33-.86.53-.86S127.63,99.38,127.54,99.86Z" transform="translate(-26.6)"/>
              </g>
              <path class="cls-8" d="M125.52,102.75a1.89,1.89,0,0,1-1.91-1.85.22.22,0,0,1,.19-.22.14.14,0,0,1,.18.1.08.08,0,0,1,0,0,1.57,1.57,0,0,0,1.58,1.56h0a2.53,2.53,0,0,0,2.18-1.56.27.27,0,0,1,.25-.14.15.15,0,0,1,.12.19l0,0A3.09,3.09,0,0,1,125.52,102.75Z" transform="translate(-26.6)"/>
            </g>
            <path class="cls-9" d="M154.6,120.57c0,2.21,3.78,5,3.78,5s4.34-2.76,4.87-5c.56-2.39-2.16-3.12-4.18-1.32C157.43,117.45,154.54,118.18,154.6,120.57Z" transform="translate(-26.6)"/>
            <path class="cls-6" d="M146.69,114.18a4.74,4.74,0,0,1-4.6,4.13,3.63,3.63,0,0,1-3.71-3.55,3.69,3.69,0,0,1,0-.58A4.75,4.75,0,0,1,143,110a3.64,3.64,0,0,1,3.71,3.55A3.89,3.89,0,0,1,146.69,114.18Z" transform="translate(-26.6)"/>
            <path class="cls-6" d="M119.5,92.45l-9.15,40.62h-1.54a2.16,2.16,0,0,1-2.15-2.14,2.07,2.07,0,0,1,.06-.5l8.59-36.33a2.15,2.15,0,0,1,2.09-1.65Z" transform="translate(-26.6)"/>
            <path class="cls-7" d="M134.82,133.07l-1.61,9h5.31l1.6-9Z" transform="translate(-26.6)"/>
            <path class="cls-7" d="M125.28,140.54l1.09-1.52a2,2,0,0,1,1.68-.87h14.54a2.08,2.08,0,0,1,1.83,1.11l.73,1.4a1,1,0,0,1-.42,1.33,1,1,0,0,1-.46.11H126.08a1,1,0,0,1-1-1A1.07,1.07,0,0,1,125.28,140.54Z" transform="translate(-26.6)"/>
          </g>
          <path class="cls-7" d="M95,142.09h43.66l.48-1.65a1.62,1.62,0,0,0-1.11-2,1.41,1.41,0,0,0-.45-.07H97.28a1.61,1.61,0,0,0-1.55,1.18Z" transform="translate(-26.6)"/>
        </g>
        <g>
          <path class="cls-9" d="M152.25,81.6H132.94a1.36,1.36,0,0,1-1.36-1.36V68.37A1.37,1.37,0,0,1,132.94,67h19.31a1.36,1.36,0,0,1,1.36,1.36V80.25a1.36,1.36,0,0,1-1.35,1.35Z" transform="translate(-26.6)"/>
          <path class="cls-9" d="M151.1,79.41l-1.76,6.66-3.08-6.26Z" transform="translate(-26.6)"/>
          <path class="cls-7" d="M147.48,73.23c-.39,2.49-5,5.61-5,5.61s-4.47-3.12-4.73-5.62c-.28-2.7,2.92-3.53,4.93-1.49C144.75,69.7,147.9,70.53,147.48,73.23Z" transform="translate(-26.6)"/>
        </g>
      </g>
    </g>
    <g>
      <g>
        <ellipse class="cls-5" cx="366.65" cy="245.02" rx="32.89" ry="3.25"/>
        <path class="cls-8" d="M413.39,221.52H371.87a1.43,1.43,0,0,1-1.43-1.43v-.65a1.43,1.43,0,0,1,1.43-1.43h41.52a1.43,1.43,0,0,1,1.43,1.43v.65A1.43,1.43,0,0,1,413.39,221.52Z" transform="translate(-26.6)"/>
        <path class="cls-6" d="M372.39,179.07H413a1.22,1.22,0,0,1,1.22,1.22h0v5A1.22,1.22,0,0,1,413,186.5H372.39a1.22,1.22,0,0,1-1.22-1.22h0v-5a1.22,1.22,0,0,1,1.22-1.22Z" transform="translate(-26.6)"/>
        <g>
          <path class="cls-19" d="M382,147.47s-17.1-3.38-21.87-15.31,12.68-20.88,21.87-14.47C391.81,124.54,382,147.47,382,147.47Z" transform="translate(-26.6)"/>
          <path class="cls-8" d="M392.15,178.82a.3.3,0,0,1-.31-.26c-1.64-11.08-8.25-27-13.49-38.45-5.7-12.39-11.07-22.28-11.12-22.38a.31.31,0,0,1,.53-.31h0c.06.1,5.44,10,11.15,22.42,5.27,11.46,11.89,27.47,13.54,38.62a.3.3,0,0,1-.25.35h-.06Z" transform="translate(-26.6)"/>
          <path class="cls-8" d="M381.33,146.32a.32.32,0,0,1-.27-.16c-7.44-13.86-19.52-23.91-19.64-24a.3.3,0,0,1,0-.43.31.31,0,0,1,.43,0c.13.11,12.3,10.23,19.8,24.2a.32.32,0,0,1-.13.42Z" transform="translate(-26.6)"/>
          <path class="cls-8" d="M381.67,147.31a.35.35,0,0,1-.24-.1,59.16,59.16,0,0,0-14.69-12.57,37.83,37.83,0,0,0-6.81-3.29.3.3,0,0,1-.19-.39.32.32,0,0,1,.38-.2,37.16,37.16,0,0,1,6.93,3.34,60,60,0,0,1,14.86,12.7.32.32,0,0,1,0,.44h0A.31.31,0,0,1,381.67,147.31Z" transform="translate(-26.6)"/>
          <path class="cls-8" d="M380.17,143.68a.3.3,0,0,1-.29-.21c-4.18-12.24-2.64-27.11-2.62-27.26a.3.3,0,0,1,.34-.27.32.32,0,0,1,.27.33c0,.15-1.54,14.9,2.59,27a.31.31,0,0,1-.19.39h0Z" transform="translate(-26.6)"/>
          <path class="cls-8" d="M381.22,146.1a.3.3,0,0,1-.31-.26,43,43,0,0,1,.76-18,28.34,28.34,0,0,1,2.62-6.78.3.3,0,0,1,.42-.13.31.31,0,0,1,.13.42l0,0a28.24,28.24,0,0,0-2.56,6.65,42.49,42.49,0,0,0-.74,17.71.32.32,0,0,1-.25.36Z" transform="translate(-26.6)"/>
        </g>
        <g>
          <path class="cls-19" d="M400,150.59s17.28-2.36,22.75-14-11.43-21.59-21-15.74C391.55,127.12,400,150.59,400,150.59Z" transform="translate(-26.6)"/>
          <path class="cls-8" d="M393.46,177.81h0a.3.3,0,0,1-.31-.3h0a64.11,64.11,0,0,1,3.7-19.33,127,127,0,0,1,7.84-18.09A165.22,165.22,0,0,1,416,121.43a.31.31,0,0,1,.5.36,167.89,167.89,0,0,0-11.26,18.58c-5.14,9.88-11.31,24.34-11.45,37.13A.33.33,0,0,1,393.46,177.81Z" transform="translate(-26.6)"/>
          <path class="cls-8" d="M400.74,149.48a.3.3,0,0,1-.16,0,.31.31,0,0,1-.1-.42h0c8.31-13.49,21.06-22.88,21.19-23a.31.31,0,0,1,.43.08.3.3,0,0,1-.06.42c-.13.09-12.78,9.41-21,22.8A.33.33,0,0,1,400.74,149.48Z" transform="translate(-26.6)"/>
          <path class="cls-8" d="M400.34,150.45a.34.34,0,0,1-.21-.08.31.31,0,0,1,0-.44h0a60.15,60.15,0,0,1,15.59-11.81,37,37,0,0,1,7.11-2.92.31.31,0,0,1,.38.21.32.32,0,0,1-.21.39h0a37,37,0,0,0-7,2.88,59.76,59.76,0,0,0-15.41,11.67A.29.29,0,0,1,400.34,150.45Z" transform="translate(-26.6)"/>
          <path class="cls-8" d="M402.06,146.91l-.11,0a.33.33,0,0,1-.18-.41c4.84-11.84,4.19-26.64,4.18-26.79a.33.33,0,0,1,.3-.33.32.32,0,0,1,.33.3c0,.15.66,15.09-4.23,27.06A.3.3,0,0,1,402.06,146.91Z" transform="translate(-26.6)"/>
          <path class="cls-8" d="M400.87,149.27h-.07a.3.3,0,0,1-.24-.36h0a42.55,42.55,0,0,0,.32-17.73,29.51,29.51,0,0,0-2.16-6.79.32.32,0,0,1,.15-.41.31.31,0,0,1,.39.13,28,28,0,0,1,2.21,6.93,43,43,0,0,1-.31,18A.31.31,0,0,1,400.87,149.27Z" transform="translate(-26.6)"/>
        </g>
        <g>
          <path class="cls-19" d="M393.36,128.09s-14.63-9.47-14.65-22.33,19.51-14.69,25.68-5.34C411,110.43,393.36,128.09,393.36,128.09Z" transform="translate(-26.6)"/>
          <path class="cls-8" d="M391.32,161h-.07a.33.33,0,0,1-.24-.38c2.59-10.9,2.36-28.16,1.71-40.71-.7-13.62-2-24.8-2-24.91a.3.3,0,0,1,.27-.34h0a.3.3,0,0,1,.34.27c0,.11,1.35,11.31,2,25,.66,12.59.88,29.91-1.71,40.89A.32.32,0,0,1,391.32,161Z" transform="translate(-26.6)"/>
          <path class="cls-8" d="M393.31,126.81a.32.32,0,0,1-.31-.28c-1.78-15.62-9.28-29.44-9.36-29.57a.33.33,0,0,1,.14-.42.32.32,0,0,1,.41.12c.08.14,7.63,14.06,9.42,29.81a.3.3,0,0,1-.26.34h0S393.32,126.8,393.31,126.81Z" transform="translate(-26.6)"/>
          <path class="cls-8" d="M393.25,127.85a.31.31,0,0,1-.29-.22,59.51,59.51,0,0,0-9-17.11,36,36,0,0,0-5.11-5.57.32.32,0,0,1,0-.44.3.3,0,0,1,.43,0,36.14,36.14,0,0,1,5.19,5.66,60,60,0,0,1,9.11,17.31.32.32,0,0,1-.2.39h0Z" transform="translate(-26.6)"/>
          <path class="cls-8" d="M393.2,123.92h0a.32.32,0,0,1-.29-.32h0c.66-12.91,7.6-26.16,7.66-26.3a.31.31,0,1,1,.55.29c-.07.13-6.94,13.26-7.58,26A.33.33,0,0,1,393.2,123.92Z" transform="translate(-26.6)"/>
          <path class="cls-8" d="M393.28,126.55h-.07a.31.31,0,0,1-.23-.37,43.46,43.46,0,0,1,7.39-16.53,29.26,29.26,0,0,1,5-5.41.31.31,0,0,1,.43.05.33.33,0,0,1-.05.44,29.16,29.16,0,0,0-4.86,5.31,42.92,42.92,0,0,0-7.27,16.27A.29.29,0,0,1,393.28,126.55Z" transform="translate(-26.6)"/>
        </g>
        <path class="cls-17" d="M411.25,159.33l-.51,1.35-.32.86-.93,2.46-.32.86-.95,2.52-.32.86-4.08,10.82H381.54l-4.08-10.82-.32-.86-.94-2.52-.33-.86-.93-2.45-.32-.86-.51-1.35a1.42,1.42,0,0,1,1.33-1.92h34.48a1.42,1.42,0,0,1,1.42,1.42A1.33,1.33,0,0,1,411.25,159.33Z" transform="translate(-26.6)"/>
        <g>
          <path class="cls-18" d="M410.74,160.69l-.32.86H374.94l-.32-.86Z" transform="translate(-26.6)"/>
          <path class="cls-18" d="M409.49,164l-.32.86h-33l-.32-.86Z" transform="translate(-26.6)"/>
          <path class="cls-18" d="M408.21,167.38l-.32.86H377.46l-.32-.86Z" transform="translate(-26.6)"/>
        </g>
        <path class="cls-8" d="M386.71,186.49l-1.23,4-17.2,55.43h-3.36l10.9-54.29,1-5.12Z" transform="translate(-26.6)"/>
        <path class="cls-8" d="M420.53,245.9h-3.36l-17.7-57.07-.73-2.34h9.86l.25,1.25h0Z" transform="translate(-26.6)"/>
        <path class="cls-6" d="M413.39,213.88H371.87a1.43,1.43,0,0,1-1.43-1.43v-.65a1.43,1.43,0,0,1,1.43-1.43h41.51a1.43,1.43,0,0,1,1.43,1.43v.65a1.41,1.41,0,0,1-1.41,1.43Z" transform="translate(-26.6)"/>
      </g>
      <ellipse class="cls-5" cx="116.07" cy="28.19" rx="16.08" ry="15.88"/>
      <ellipse cx="116.07" cy="26.12" rx="16.08" ry="15.88"/>
      <ellipse class="cls-7" cx="116.07" cy="26.12" rx="13.06" ry="12.9"/>
      <path class="cls-5" d="M155.74,26.12c0,.35,0,.69,0,1a13.09,13.09,0,0,0-26.06,0c0-.33,0-.67,0-1a13.07,13.07,0,0,1,26.14,0Z" transform="translate(-26.6)"/>
      <path class="cls-8" d="M142.68,27.46a.29.29,0,0,1-.27-.13L136,18.81a.33.33,0,0,1,.07-.45.31.31,0,0,1,.45.07l6.26,8.31,7.11-3.08a.34.34,0,0,1,.43.17.32.32,0,0,1-.16.42h0l-7.34,3.18A.2.2,0,0,1,142.68,27.46Z" transform="translate(-26.6)"/>
    </g>
  </g>
</svg>
