<svg id="Layer_1" data-name="Layer 1" xmlns="http://www.w3.org/2000/svg" xmlns:xlink="http://www.w3.org/1999/xlink" viewBox="0 0 250.43 250">
  <defs>
    <style>
      .cls-1 {
        fill: none;
      }

      .cls-2, .cls-25 {
        opacity: 0.3;
      }

      .cls-11, .cls-19, .cls-2, .cls-25 {
        isolation: isolate;
      }

      .cls-2 {
        fill: url(#linear-gradient);
      }

      .cls-3 {
        fill: url(#linear-gradient-2);
      }

      .cls-4 {
        fill: url(#linear-gradient-3);
      }

      .cls-5 {
        fill: url(#linear-gradient-4);
      }

      .cls-6 {
        fill: url(#linear-gradient-5);
      }

      .cls-7 {
        fill: url(#linear-gradient-6);
      }

      .cls-8 {
        fill: url(#linear-gradient-7);
      }

      .cls-9 {
        fill: url(#linear-gradient-8);
      }

      .cls-10 {
        fill: url(#linear-gradient-9);
      }

      .cls-11, .cls-13 {
        fill: #fff;
      }

      .cls-11 {
        opacity: 0.17;
      }

      .cls-12 {
        opacity: 0.68;
      }

      .cls-14 {
        fill: url(#linear-gradient-10);
      }

      .cls-15 {
        fill: url(#linear-gradient-11);
      }

      .cls-16 {
        clip-path: url(#clip-path);
      }

      .cls-17 {
        fill: url(#linear-gradient-12);
      }

      .cls-18 {
        fill: url(#linear-gradient-13);
      }

      .cls-19 {
        opacity: 0.6;
        fill: url(#linear-gradient-14);
      }

      .cls-20 {
        fill: url(#linear-gradient-15);
      }

      .cls-21 {
        fill: url(#linear-gradient-16);
      }

      .cls-22 {
        fill: url(#linear-gradient-17);
      }

      .cls-23 {
        fill: url(#linear-gradient-18);
      }

      .cls-24 {
        fill: url(#linear-gradient-19);
      }

      .cls-25 {
        fill: url(#linear-gradient-20);
      }

      .cls-26 {
        fill: url(#linear-gradient-21);
      }

      .cls-27 {
        fill: url(#linear-gradient-22);
      }

      .cls-28 {
        fill: url(#linear-gradient-23);
      }

      .cls-29 {
        fill: url(#linear-gradient-24);
      }

      .cls-30 {
        fill: url(#linear-gradient-25);
      }

      .cls-31 {
        fill: url(#linear-gradient-26);
      }

      .cls-32 {
        fill: url(#linear-gradient-27);
      }

      .cls-33 {
        fill: url(#linear-gradient-28);
      }

      .cls-34 {
        fill: url(#linear-gradient-29);
      }

      .cls-35 {
        fill: url(#linear-gradient-30);
      }

      .cls-36 {
        fill: url(#linear-gradient-31);
      }

      .cls-37 {
        fill: url(#linear-gradient-32);
      }

      .cls-38 {
        fill: url(#linear-gradient-33);
      }

      .cls-39 {
        fill: url(#linear-gradient-34);
      }

      .cls-40 {
        fill: url(#linear-gradient-35);
      }

      .cls-41 {
        fill: url(#linear-gradient-36);
      }

      .cls-42 {
        fill: url(#linear-gradient-37);
      }

      .cls-43 {
        fill: url(#linear-gradient-38);
      }

      .cls-44 {
        fill: url(#linear-gradient-39);
      }

      .cls-45 {
        fill: url(#linear-gradient-40);
      }

      .cls-46 {
        fill: url(#linear-gradient-41);
      }

      .cls-47 {
        fill: url(#linear-gradient-42);
      }

      .cls-48 {
        fill: url(#linear-gradient-43);
      }

      .cls-49 {
        fill: url(#linear-gradient-44);
      }

      .cls-50 {
        fill: url(#linear-gradient-45);
      }

      .cls-51 {
        fill: url(#linear-gradient-46);
      }

      .cls-52 {
        fill: url(#linear-gradient-47);
      }

      .cls-53 {
        fill: url(#linear-gradient-48);
      }

      .cls-54 {
        fill: url(#linear-gradient-49);
      }

      .cls-55 {
        fill: url(#linear-gradient-50);
      }

      .cls-56 {
        fill: url(#linear-gradient-51);
      }

      .cls-57 {
        fill: url(#linear-gradient-52);
      }

      .cls-58 {
        fill: url(#linear-gradient-53);
      }

      .cls-59 {
        fill: url(#linear-gradient-54);
      }

      .cls-60 {
        fill: url(#linear-gradient-55);
      }

      .cls-61 {
        fill: url(#linear-gradient-56);
      }

      .cls-62 {
        fill: url(#linear-gradient-57);
      }

      .cls-63 {
        fill: url(#linear-gradient-58);
      }

      .cls-64 {
        fill: url(#linear-gradient-59);
      }

      .cls-65 {
        fill: url(#linear-gradient-60);
      }

      .cls-66 {
        fill: url(#linear-gradient-61);
      }

      .cls-67 {
        fill: url(#linear-gradient-62);
      }

      .cls-68 {
        fill: url(#linear-gradient-63);
      }

      .cls-69 {
        fill: url(#linear-gradient-64);
      }

      .cls-70 {
        fill: url(#linear-gradient-65);
      }

      .cls-71 {
        fill: url(#linear-gradient-66);
      }

      .cls-72 {
        fill: url(#linear-gradient-67);
      }

      .cls-73 {
        fill: url(#linear-gradient-68);
      }

      .cls-74 {
        fill: url(#linear-gradient-69);
      }

      .cls-75 {
        fill: url(#linear-gradient-70);
      }

      .cls-76 {
        fill: url(#linear-gradient-71);
      }

      .cls-77 {
        fill: url(#linear-gradient-72);
      }

      .cls-78 {
        fill: url(#linear-gradient-73);
      }

      .cls-79 {
        fill: url(#linear-gradient-74);
      }

      .cls-80 {
        fill: url(#linear-gradient-75);
      }

      .cls-81 {
        fill: url(#linear-gradient-76);
      }

      .cls-82 {
        fill: url(#linear-gradient-77);
      }

      .cls-83 {
        fill: url(#linear-gradient-78);
      }

      .cls-84 {
        fill: url(#linear-gradient-79);
      }

      .cls-85 {
        fill: url(#linear-gradient-80);
      }

      .cls-86 {
        fill: url(#linear-gradient-81);
      }

      .cls-87 {
        fill: url(#linear-gradient-82);
      }

      .cls-88 {
        fill: url(#linear-gradient-83);
      }

      .cls-89 {
        fill: url(#linear-gradient-84);
      }

      .cls-90 {
        fill: url(#linear-gradient-85);
      }

      .cls-91 {
        fill: url(#linear-gradient-86);
      }

      .cls-92 {
        fill: url(#linear-gradient-87);
      }
    </style>
    <linearGradient id="linear-gradient" x1="-450.08" y1="976.5" x2="-450.49" y2="976.87" gradientTransform="matrix(450.32, 0, 0, -448.94, 203093.8, 438643.73)" gradientUnits="userSpaceOnUse">
      <stop offset="0" stop-color="#b37cff"/>
      <stop offset="1" stop-color="#f895e7"/>
    </linearGradient>
    <linearGradient id="linear-gradient-2" x1="-442.65" y1="979.58" x2="-443.32" y2="979.2" gradientTransform="matrix(112.41, 0, 0, -219.92, 50389.62, 214990.88)" gradientUnits="userSpaceOnUse">
      <stop offset="0" stop-color="#a737d5"/>
      <stop offset="1" stop-color="#ef497a"/>
    </linearGradient>
    <linearGradient id="linear-gradient-3" x1="-437.55" y1="979.42" x2="-440.71" y2="978.51" gradientTransform="matrix(75.29, 0, 0, -186.59, 33632.46, 182459.84)" gradientUnits="userSpaceOnUse">
      <stop offset="0" stop-color="#cb236d"/>
      <stop offset="1" stop-color="#4c246d"/>
    </linearGradient>
    <linearGradient id="linear-gradient-4" x1="-445.44" y1="979.68" x2="-445.83" y2="979.32" gradientTransform="matrix(146.51, 0, 0, -197.78, 65769.29, 193467.92)" xlink:href="#linear-gradient-2"/>
    <linearGradient id="linear-gradient-5" x1="-440.01" y1="982.67" x2="-441.81" y2="981.37" gradientTransform="matrix(80.58, 0, 0, -86.68, 35995.82, 84984.14)" xlink:href="#linear-gradient-3"/>
    <linearGradient id="linear-gradient-6" x1="-450.59" y1="974.74" x2="-450.58" y2="975.47" gradientTransform="matrix(378.47, 0, 0, -408.52, 170809.7, 398403.6)" gradientUnits="userSpaceOnUse">
      <stop offset="0" stop-color="#53d8ff"/>
      <stop offset="1" stop-color="#3840f7"/>
    </linearGradient>
    <linearGradient id="linear-gradient-7" x1="-448.87" y1="976.87" x2="-449.18" y2="977.35" gradientTransform="matrix(211.38, 0, 0, -336.4, 95155.21, 328824.13)" xlink:href="#linear-gradient-6"/>
    <linearGradient id="linear-gradient-8" x1="-446.47" y1="978.35" x2="-447.05" y2="981.86" gradientTransform="matrix(110.2, 0, 0, -45.93, 49534.07, 45118.21)" xlink:href="#linear-gradient-6"/>
    <linearGradient id="linear-gradient-9" x1="-446.78" y1="977.07" x2="-445.81" y2="978.07" gradientTransform="matrix(82.61, 0, 0, -218.72, 37227.48, 213937.06)" xlink:href="#linear-gradient-6"/>
    <linearGradient id="linear-gradient-10" x1="-448.14" y1="975.7" x2="-448.36" y2="974.88" gradientTransform="matrix(108.87, -108.87, -108.87, -108.87, 155172.54, 57432.01)" gradientUnits="userSpaceOnUse">
      <stop offset="0" stop-color="#233894"/>
      <stop offset="1" stop-color="#dd397a"/>
    </linearGradient>
    <linearGradient id="linear-gradient-11" x1="-447.98" y1="974.53" x2="-447.46" y2="975.49" gradientTransform="matrix(92.14, -92.14, -92.14, -92.14, 131293.36, 48659.68)" xlink:href="#linear-gradient-2"/>
    <clipPath id="clip-path" transform="translate(-144.34)">
      <path class="cls-1" d="M363.33,35.27C349.45,21,326.05,19.62,311,32.9,295.56,46.6,295.56,70,311,84.25c15,13.86,38.41,13.38,52.29-.34C376.81,70.58,376.81,49.12,363.33,35.27Z"/>
    </clipPath>
    <linearGradient id="linear-gradient-12" x1="-445.34" y1="981.75" x2="-445.26" y2="979.65" gradientTransform="matrix(71.12, 0, 0, -59.09, 32007.68, 58010.95)" gradientUnits="userSpaceOnUse">
      <stop offset="0" stop-color="#f9b776"/>
      <stop offset="1" stop-color="#f47960"/>
    </linearGradient>
    <linearGradient id="linear-gradient-13" x1="-441.91" y1="985.23" x2="-441.85" y2="983.44" gradientTransform="matrix(45.85, 0, 0, -35.23, 20598.68, 34761.73)" xlink:href="#linear-gradient-12"/>
    <linearGradient id="linear-gradient-14" x1="-442.28" y1="988.53" x2="-442.95" y2="986.9" gradientTransform="matrix(69.7, 0, 0, -50.89, 31369.12, 49997.74)" xlink:href="#linear-gradient-12"/>
    <linearGradient id="linear-gradient-15" x1="-404.47" y1="983.61" x2="-404.14" y2="983.61" gradientTransform="matrix(29.16, 0, 0, -35.29, 13093.93, 34772.63)" xlink:href="#linear-gradient-12"/>
    <linearGradient id="linear-gradient-16" x1="-408.68" y1="982.62" x2="-408.37" y2="982.62" gradientTransform="matrix(32.58, 0, 0, -39.86, 14623.18, 39212.44)" xlink:href="#linear-gradient-12"/>
    <linearGradient id="linear-gradient-17" x1="-408.63" y1="982.42" x2="-408.32" y2="982.42" gradientTransform="matrix(33.1, 0, 0, -40.26, 14843.21, 39596.13)" xlink:href="#linear-gradient-12"/>
    <linearGradient id="linear-gradient-18" x1="-401.9" y1="983.4" x2="-401.57" y2="983.4" gradientTransform="matrix(29.1, 0, 0, -34.37, 13025.73, 33836.18)" xlink:href="#linear-gradient-12"/>
    <linearGradient id="linear-gradient-19" x1="-442.19" y1="981.38" x2="-442.07" y2="979.57" gradientTransform="matrix(48.18, 0, 0, -68.94, 21624.51, 67613.07)" xlink:href="#linear-gradient-12"/>
    <linearGradient id="linear-gradient-20" x1="-435.94" y1="982.26" x2="-436.12" y2="983.9" gradientTransform="matrix(29.06, 0, 0, -37.32, 12998.43, 36754.1)" xlink:href="#linear-gradient-12"/>
    <linearGradient id="linear-gradient-21" x1="-415.24" y1="1009.62" x2="-414.69" y2="1009.62" gradientTransform="matrix(16.81, 0, 0, -12.46, 7337.08, 12825.31)" gradientUnits="userSpaceOnUse">
      <stop offset="0" stop-color="#2b3582"/>
      <stop offset="1" stop-color="#150e42"/>
    </linearGradient>
    <linearGradient id="linear-gradient-22" x1="-423.12" y1="1130.61" x2="-422.17" y2="1156.89" gradientTransform="matrix(16.72, 0, 0, -2.01, 7297.94, 2635.11)" xlink:href="#linear-gradient-21"/>
    <linearGradient id="linear-gradient-23" x1="-371.71" y1="1042.09" x2="-371.99" y2="1040.3" gradientTransform="matrix(6.63, 0, 0, -9.06, 2740.13, 9497.76)" xlink:href="#linear-gradient-12"/>
    <linearGradient id="linear-gradient-24" x1="-436.68" y1="892.92" x2="-436.02" y2="918.99" gradientTransform="matrix(23.77, 0, 0, -2.04, 10435.37, 2655.83)" xlink:href="#linear-gradient-21"/>
    <linearGradient id="linear-gradient-25" x1="-391.68" y1="1012.6" x2="-391.12" y2="1012.6" gradientTransform="matrix(23.66, 0, 0, -11.45, 10383.23, 11837.09)" xlink:href="#linear-gradient-21"/>
    <linearGradient id="linear-gradient-26" x1="-360.66" y1="1044.39" x2="-360.95" y2="1042.85" gradientTransform="matrix(6.1, 0, 0, -9.92, 2464.2, 10336.28)" xlink:href="#linear-gradient-12"/>
    <linearGradient id="linear-gradient-27" x1="-439.88" y1="980.64" x2="-439.84" y2="981.25" gradientTransform="matrix(44.79, 0, 0, -108.8, 19948.69, 106798.69)" xlink:href="#linear-gradient-21"/>
    <linearGradient id="linear-gradient-28" x1="-442.48" y1="980.53" x2="-442.33" y2="978.86" gradientTransform="matrix(57.02, 0, 0, -82.41, 25478.41, 80949.93)" xlink:href="#linear-gradient-3"/>
    <linearGradient id="linear-gradient-29" x1="-371.37" y1="990.15" x2="-370.82" y2="990.15" gradientTransform="matrix(15.05, 0, 0, -23.19, 6529.35, 23093.43)" xlink:href="#linear-gradient-12"/>
    <linearGradient id="linear-gradient-30" x1="-344.83" y1="1003.35" x2="-344.04" y2="1003.5" gradientTransform="matrix(18.42, 0, 0, -24.68, 8046.24, 24530.37)" xlink:href="#linear-gradient-12"/>
    <linearGradient id="linear-gradient-31" x1="-406.51" y1="990" x2="-405.88" y2="990" gradientTransform="matrix(23.81, 0, 0, -22.7, 10484.19, 22593.89)" xlink:href="#linear-gradient-21"/>
    <linearGradient id="linear-gradient-32" x1="-142.52" y1="1065.41" x2="-140.21" y2="1065.88" gradientTransform="matrix(6.31, 0, 0, -7.52, 2587.49, 7786)" xlink:href="#linear-gradient-12"/>
    <linearGradient id="linear-gradient-33" x1="-440.25" y1="980.54" x2="-440.06" y2="978.57" gradientTransform="matrix(47.09, 0, 0, -72, 20958.9, 70742.13)" xlink:href="#linear-gradient-3"/>
    <linearGradient id="linear-gradient-34" x1="-440.71" y1="980.68" x2="-440.53" y2="978.72" gradientTransform="matrix(46.13, 0, 0, -69.87, 20596.31, 68657.79)" xlink:href="#linear-gradient-3"/>
    <linearGradient id="linear-gradient-35" x1="-405.16" y1="1006.73" x2="-406.82" y2="1003.81" gradientTransform="matrix(11.41, 0, 0, -12.3, 4927.76, 12431.48)" xlink:href="#linear-gradient-12"/>
    <linearGradient id="linear-gradient-36" x1="-401.84" y1="1002.92" x2="-403.5" y2="1000.58" gradientTransform="matrix(11.44, 0, 0, -13.85, 4853.33, 13943.82)" xlink:href="#linear-gradient-12"/>
    <linearGradient id="linear-gradient-37" x1="-438.91" y1="972.55" x2="-439.25" y2="972.9" gradientTransform="matrix(89.75, 0, 0, -123.38, 40124.02, 120912.66)" xlink:href="#linear-gradient-21"/>
    <linearGradient id="linear-gradient-38" x1="-438.19" y1="975.65" x2="-437.89" y2="975.05" gradientTransform="matrix(52.95, 0, 0, -61.73, 23561.81, 60703.95)" gradientUnits="userSpaceOnUse">
      <stop offset="0" stop-color="#c4421b"/>
      <stop offset="1" stop-color="#5c0e16"/>
    </linearGradient>
    <linearGradient id="linear-gradient-39" x1="-350.46" y1="1013.32" x2="-349.91" y2="1013.32" gradientTransform="matrix(13.41, 0, 0, -11.23, 5615.38, 11626.37)" xlink:href="#linear-gradient-21"/>
    <linearGradient id="linear-gradient-40" x1="-416.83" y1="992.76" x2="-416.26" y2="994.3" gradientTransform="matrix(18.65, 0, 0, -80.86, 8038.98, 79550.62)" xlink:href="#linear-gradient-38"/>
    <linearGradient id="linear-gradient-41" x1="-393.29" y1="1001.38" x2="-392.74" y2="1001.38" gradientTransform="matrix(21.67, 0, 0, -16.49, 9404.46, 16752.85)" xlink:href="#linear-gradient-21"/>
    <linearGradient id="linear-gradient-42" x1="-437.15" y1="983.38" x2="-436.89" y2="984.98" gradientTransform="matrix(41.66, 0, 0, -78.04, 18384.7, 76799.64)" xlink:href="#linear-gradient-38"/>
    <linearGradient id="linear-gradient-43" x1="-437.6" y1="979.82" x2="-437.47" y2="978.94" gradientTransform="matrix(41.52, 0, 0, -56.26, 18368.38, 55405.75)" gradientUnits="userSpaceOnUse">
      <stop offset="0" stop-color="#fdf53f"/>
      <stop offset="1" stop-color="#d93c65"/>
    </linearGradient>
    <linearGradient id="linear-gradient-44" x1="-439.93" y1="981.18" x2="-439.82" y2="980.51" gradientTransform="matrix(48.97, 0, 0, -76.06, 21721.15, 74793.74)" xlink:href="#linear-gradient-3"/>
    <linearGradient id="linear-gradient-45" x1="-412.85" y1="987.8" x2="-411.36" y2="989.77" gradientTransform="matrix(14.25, 0, 0, -25.27, 6054.07, 25129.4)" xlink:href="#linear-gradient-38"/>
    <linearGradient id="linear-gradient-46" x1="-415.9" y1="1001.12" x2="-415.05" y2="1002.37" gradientTransform="matrix(20.63, 0, 0, -24.98, 8940.8, 24823.61)" xlink:href="#linear-gradient-38"/>
    <linearGradient id="linear-gradient-47" x1="-379.11" y1="925.32" x2="-380.32" y2="926.82" gradientTransform="matrix(25.06, 0, 0, -28.29, 10936.9, 28045.68)" xlink:href="#linear-gradient-21"/>
    <linearGradient id="linear-gradient-48" x1="-305.74" y1="1068.94" x2="-302.54" y2="1072.9" gradientTransform="matrix(5.46, 0, 0, -7.88, 2084.77, 8136.66)" xlink:href="#linear-gradient-38"/>
    <linearGradient id="linear-gradient-49" x1="-398.22" y1="972.5" x2="-397.38" y2="970.91" gradientTransform="matrix(13.09, 0, 0, -15.72, 5593.06, 15764.19)" xlink:href="#linear-gradient-38"/>
    <linearGradient id="linear-gradient-50" x1="-398.5" y1="1004.91" x2="-397.94" y2="1004.91" gradientTransform="matrix(7.59, 0, 0, -10.77, 3110.99, 10934.67)" xlink:href="#linear-gradient-38"/>
    <linearGradient id="linear-gradient-51" x1="-442.59" y1="980.8" x2="-441.79" y2="981.85" gradientTransform="matrix(64.38, 0, 0, -71.78, 28648.94, 70581.02)" xlink:href="#linear-gradient-38"/>
    <linearGradient id="linear-gradient-52" x1="-204.04" y1="913.97" x2="-202.33" y2="912.89" gradientTransform="matrix(5.12, 0, 0, -11.26, 1992.33, 11410.42)" xlink:href="#linear-gradient-38"/>
    <linearGradient id="linear-gradient-53" x1="-427.53" y1="1007.22" x2="-427.49" y2="1008.55" gradientTransform="matrix(17.03, 0, 0, -12.62, 7658.42, 12982.46)" gradientUnits="userSpaceOnUse">
      <stop offset="0" stop-color="#7c27dd"/>
      <stop offset="1" stop-color="#2b41d9"/>
    </linearGradient>
    <linearGradient id="linear-gradient-54" x1="-425.74" y1="1192.68" x2="-427.79" y2="1179.35" gradientTransform="matrix(16.94, 0, 0, -2.04, 7616.36, 2666.05)" xlink:href="#linear-gradient-6"/>
    <linearGradient id="linear-gradient-55" x1="-389.22" y1="1029.97" x2="-389.5" y2="1028.17" gradientTransform="matrix(6.73, 0, 0, -9.18, 3003.24, 9614.54)" xlink:href="#linear-gradient-38"/>
    <linearGradient id="linear-gradient-56" x1="-433.12" y1="1185.2" x2="-434.51" y2="1172.41" gradientTransform="matrix(24.08, 0, 0, -2.06, 10796.68, 2682.48)" xlink:href="#linear-gradient-6"/>
    <linearGradient id="linear-gradient-57" x1="-433.64" y1="1008.79" x2="-433.61" y2="1010.24" gradientTransform="matrix(23.97, 0, 0, -11.6, 10744.82, 11987.09)" xlink:href="#linear-gradient-53"/>
    <linearGradient id="linear-gradient-58" x1="-380.52" y1="1029.04" x2="-380.8" y2="1027.51" gradientTransform="matrix(6.19, 0, 0, -10.05, 2723.86, 10462.58)" xlink:href="#linear-gradient-38"/>
    <linearGradient id="linear-gradient-59" x1="-437.08" y1="982.97" x2="-438.81" y2="981.84" gradientTransform="matrix(45.39, 0, 0, -110.24, 20440.9, 108205.63)" xlink:href="#linear-gradient-6"/>
    <linearGradient id="linear-gradient-60" x1="-411.4" y1="989.93" x2="-410.85" y2="989.93" gradientTransform="matrix(15.25, 0, 0, -23.49, 6839.88, 23382.74)" xlink:href="#linear-gradient-38"/>
    <linearGradient id="linear-gradient-61" x1="-444.38" y1="980.59" x2="-443.99" y2="979.58" gradientTransform="matrix(57.78, 0, 0, -83.5, 26041.55, 82006.52)" xlink:href="#linear-gradient-43"/>
    <linearGradient id="linear-gradient-62" x1="-443.51" y1="981.09" x2="-443.1" y2="979.79" gradientTransform="matrix(54.12, 0, 0, -64.77, 24349.85, 63689.48)" xlink:href="#linear-gradient-43"/>
    <linearGradient id="linear-gradient-63" x1="-410.83" y1="1006.23" x2="-411.25" y2="1005.11" gradientTransform="matrix(11.72, 0, 0, -14.19, 5183.76, 14278.42)" xlink:href="#linear-gradient-38"/>
    <linearGradient id="linear-gradient-64" x1="-438.05" y1="981.16" x2="-437.28" y2="980.04" gradientTransform="matrix(29.03, 0, 0, -74.19, 13093.09, 72923.11)" xlink:href="#linear-gradient-43"/>
    <linearGradient id="linear-gradient-65" x1="-423.23" y1="1032.78" x2="-424.12" y2="1028.85" gradientTransform="matrix(15.51, 0, 0, -7.39, 6967.28, 7754.4)" xlink:href="#linear-gradient-38"/>
    <linearGradient id="linear-gradient-66" x1="-385.42" y1="1021.08" x2="-386.04" y2="1020.66" gradientTransform="matrix(21.05, 0, 0, -23.68, 9457.65, 23551.91)" xlink:href="#linear-gradient-38"/>
    <linearGradient id="linear-gradient-67" x1="-419.29" y1="963.73" x2="-418.89" y2="963.2" gradientTransform="matrix(29.07, 0, 0, -28.7, 13078.28, 28445.26)" xlink:href="#linear-gradient-21"/>
    <linearGradient id="linear-gradient-68" x1="-157.78" y1="1135.88" x2="-160.3" y2="1134.52" gradientTransform="matrix(5.14, 0, 0, -7.26, 2281.66, 7525.11)" xlink:href="#linear-gradient-38"/>
    <linearGradient id="linear-gradient-69" x1="-395.98" y1="998.69" x2="-397.93" y2="997.51" gradientTransform="matrix(8.31, 0, 0, -11.08, 3440.39, 11234.89)" xlink:href="#linear-gradient-38"/>
    <linearGradient id="linear-gradient-70" x1="-441.91" y1="979.34" x2="-441.61" y2="978.74" gradientTransform="matrix(55.54, 0, 0, -64.75, 24884.73, 63663.62)" xlink:href="#linear-gradient-12"/>
    <linearGradient id="linear-gradient-71" x1="-411.1" y1="986.56" x2="-410.26" y2="984.97" gradientTransform="matrix(13.73, 0, 0, -16.49, 5980.31, 16523.82)" xlink:href="#linear-gradient-12"/>
    <linearGradient id="linear-gradient-72" x1="-375.03" y1="1003.92" x2="-374.47" y2="1003.92" gradientTransform="matrix(7.97, 0, 0, -11.29, 3378.08, 11451.68)" xlink:href="#linear-gradient-12"/>
    <linearGradient id="linear-gradient-73" x1="-272.35" y1="947.48" x2="-270.63" y2="946.4" gradientTransform="matrix(5.37, 0, 0, -11.81, 2209.1, 11954.75)" xlink:href="#linear-gradient-12"/>
    <linearGradient id="linear-gradient-74" x1="-440.43" y1="979.2" x2="-440.73" y2="979.62" gradientTransform="matrix(41.9, 0, 0, -100.2, 18777.3, 98291.56)" xlink:href="#linear-gradient-21"/>
    <linearGradient id="linear-gradient-75" x1="-417.43" y1="1017.57" x2="-417.41" y2="1013.23" gradientTransform="matrix(12.92, 0, 0, -10.82, 5729.54, 11231.77)" xlink:href="#linear-gradient-6"/>
    <linearGradient id="linear-gradient-76" x1="-426.11" y1="979.83" x2="-425.53" y2="981.38" gradientTransform="matrix(17.95, 0, 0, -77.87, 7949.11, 76635.2)" xlink:href="#linear-gradient-12"/>
    <linearGradient id="linear-gradient-77" x1="-429.29" y1="1003.66" x2="-429.28" y2="1001.24" gradientTransform="matrix(20.94, 0, 0, -15.88, 9294.66, 16167.94)" xlink:href="#linear-gradient-6"/>
    <linearGradient id="linear-gradient-78" x1="-440.48" y1="980.6" x2="-440.22" y2="982.2" gradientTransform="matrix(40.1, 0, 0, -75.15, 17989.09, 73978.86)" xlink:href="#linear-gradient-12"/>
    <linearGradient id="linear-gradient-79" x1="-440.09" y1="982.59" x2="-439.11" y2="982.09" gradientTransform="matrix(40.44, 0, 0, -53.74, 18097.59, 52952.78)" xlink:href="#linear-gradient-2"/>
    <linearGradient id="linear-gradient-80" x1="-441.77" y1="980.6" x2="-441.64" y2="981.99" gradientTransform="matrix(47.16, 0, 0, -73.24, 21145.41, 72051.8)" xlink:href="#linear-gradient-53"/>
    <linearGradient id="linear-gradient-81" x1="-417.86" y1="988.2" x2="-417.72" y2="988.78" gradientTransform="matrix(13.72, 0, 0, -24.35, 6033.36, 24233.34)" xlink:href="#linear-gradient-12"/>
    <linearGradient id="linear-gradient-82" x1="-429.88" y1="988.73" x2="-429.07" y2="990.04" gradientTransform="matrix(20.85, 0, 0, -22.96, 9247.08, 22862.3)" xlink:href="#linear-gradient-12"/>
    <linearGradient id="linear-gradient-83" x1="-429.4" y1="985.62" x2="-429.97" y2="987.08" gradientTransform="matrix(21.72, 0, 0, -28.76, 9646.61, 28515.34)" xlink:href="#linear-gradient-21"/>
    <linearGradient id="linear-gradient-84" x1="-374.03" y1="1016.47" x2="-371.09" y2="1020.68" gradientTransform="matrix(5.73, 0, 0, -7.13, 2430.92, 7410.85)" xlink:href="#linear-gradient-12"/>
    <linearGradient id="linear-gradient-85" x1="-441.42" y1="981.74" x2="-443.11" y2="978.78" gradientTransform="matrix(47.16, 0, 0, -67.43, 21165.23, 66285.14)" xlink:href="#linear-gradient-12"/>
    <linearGradient id="linear-gradient-86" x1="-407.47" y1="1010.83" x2="-407.88" y2="1009.74" gradientTransform="matrix(11.34, 0, 0, -14.25, 5009.33, 14340.71)" xlink:href="#linear-gradient-12"/>
    <linearGradient id="linear-gradient-87" x1="-399.21" y1="1005.13" x2="-400.9" y2="1003.93" gradientTransform="matrix(9.54, 0, 0, -10.82, 4084.57, 10990.03)" xlink:href="#linear-gradient-12"/>
  </defs>
  <g>
    <path class="cls-2" d="M383.38,168c-24.2,56.29-88.68,87.82-144.6,79.32-9.1-1.39-34.05-5.51-56.13-25C140.13,185,131,110.8,165.34,58.55,190.3,20.51,235-1,277.56,0c9.16.23,44.26,1.66,75.1,26.78a114.81,114.81,0,0,1,23.53,26.37C397.34,85.85,399.16,131.35,383.38,168Z" transform="translate(-144.34)"/>
    <path class="cls-3" d="M211.18,122s.63-26.43-11.54-33.5S164.32,77,163.45,39C162.94,16.82,162.39,7.1,162,2.87A2.52,2.52,0,0,1,164.29.15a2.67,2.67,0,0,1,.69,0c11.53,2.17,49,11.11,56.84,36.68C231.13,67.17,211.18,122,211.18,122Z" transform="translate(-144.34)"/>
    <path class="cls-4" d="M173.9,10.75C186.56,22,201.19,42,209,62a93.85,93.85,0,0,1,5.2,22.73,104.94,104.94,0,0,1-.8,28.6.85.85,0,0,1-1.67-.3A115.84,115.84,0,0,0,209,71.26c-4.61-17.1-14.88-33.67-25.5-47.73l-1.1-1.39c-8.23-10.57-10-10.65-9.19-11.38A.47.47,0,0,1,173.9,10.75Z" transform="translate(-144.34)"/>
    <path class="cls-5" d="M225.78,167.35c1.76.87-16.7-22.34-22.47-58.79-2.73-17.18-2.76-38.7-12.55-47-8.14-6.9-35.85-2.54-44.92-.89a1.36,1.36,0,0,0-1.09,1.58,1.42,1.42,0,0,0,.46.8c4.35,3.65,13.65,12.26,16.07,20.94,3.2,11.44,14.08,18.72,23.81,20.69s15.16,3.88,19.9,19.45S220.77,164.9,225.78,167.35Z" transform="translate(-144.34)"/>
    <path class="cls-6" d="M158.6,65.52c11.56.48,24,5.76,30.28,15.65l.6,1a223.08,223.08,0,0,1,13.48,31,.31.31,0,0,1-.59.2c-3-7.37-7.34-16.72-10.78-23.71-3.7-7.62-6.28-12.79-14.71-17.74A46.94,46.94,0,0,0,158.56,66a.25.25,0,0,1-.23-.27.26.26,0,0,1,.27-.23Z" transform="translate(-144.34)"/>
    <ellipse class="cls-7" cx="275.27" cy="129.33" rx="104.85" ry="113.17" transform="translate(-10.33 398.68) rotate(-87.49)"/>
    <path class="cls-8" d="M189.91,59.89c-2.49,4-4.4,8.48-4,13.16.41,5.43,3.16,10.51,3.3,15.94.24,9.23-6.88,17-9.1,25.9-2.48,10,6.87,21.41,10.61,27s2.12-4.53,4.38-8.49,7.14,16.61,14.76,21.12c4.08,2.42,8.88,4,11.82,7.76,4.28,5.44,3.1,13.18,2.45,20.08s.32,15.3,6.53,18.37c3.66,1.8,8.31,1.19,11.61,3.59,5.8,4.21,3,13.38,5.32,20.17,2.5,7.37,7.45,7.47,15.12,9s-1-15.26,2.62-21.15c1.89-3.09,4.77-5.55,6.25-8.85,2.06-4.58,1.48-10.7,5.49-13.74,3-2.27,7.17-1.66,10.94-1.69s8.34-1.67,8.77-5.41c.38-3.32-2.95-6-6.2-6.74s-6.71-.4-9.91-1.38c-9.13-2.82-13.39-15.6-22.93-16.2-8.15-.51-15,8.64-23,7-4.46-.9-7.52-4.85-10.84-8-4.26-4-9.54-7-12.92-11.79s-3.95-12.41.86-15.74c3.57-2.47,8.65-1.46,12.18,1.07s5.93,6.3,8.52,9.78a6.52,6.52,0,0,0,3,2.6c3.45,1.08,6-3.77,5.14-7.29s-3.31-6.61-3.43-10.22c-.2-6.36,6.65-10.4,12.66-12.49s13.1-4.6,14.86-10.72c.63-2.16.46-4.53,1.42-6.57C269.3,89.32,286,86,282,82s-16.62-4.77-19.08-12.65c-.88-2.82-1.79-6.55-4.74-6.83-4.79-.44-7.53,5.49-11.55,6.51-1.91.49-2.09,3.73-2,7.72a5.24,5.24,0,1,1-10.48.2h0a8,8,0,0,1,.61-3.25,14.54,14.54,0,0,1,3.73-4.83C244.63,63,263.09,56.51,259.22,54S236.81,44.55,234,48.37s1.81.59,2.93,5.13-13.73,3.93-20.59,5.9a4.9,4.9,0,0,1-3.45.13c-1.18-.58-1.68-2-2.33-3.1-3.44-6.16-14.91-2.17-14.91-2.17A18.82,18.82,0,0,0,189.91,59.89Z" transform="translate(-144.34)"/>
    <path class="cls-9" d="M241.75,32c-1.67,3.1,3.29,3.05,3.78,6.54,4.47.49,6.29-6.54,10.7-7.37,2.49-.46,4.91,1.33,6.26,3.46s2,4.66,3.12,6.92a17.07,17.07,0,0,0,13.53,9.08,4.7,4.7,0,0,0,3.51-.8c2.69-2.37-1.16-6.82-.15-10.26,1.14-3.93,6.81-3.33,10.64-4.78,1.06-.39,9.18-2.56,9.32-3.68.23-2-3.54-3.26-7.76-4.34C287.55,24.88,275,25,268.82,25.51c-8.17.74-21.8.14-27.08,6.44Z" transform="translate(-144.34)"/>
    <path class="cls-10" d="M378.14,165.51a103,103,0,0,0-.45-35.07c-.57-3.08-1.92-6.75-5-7.19-3.59-.52-8,3.61-10.23.76-1-1.26-.6-3.08,0-4.58a30.36,30.36,0,0,1,6.75-10.59c1.84-1.87,3.95-3.53,5.36-5.74,3-4.72.9-11.61-3.38-15.23s-9.81,2.87-14.32.29-4.64-8.82-5.49-13.93c-.63-3.8-3.42-14.07-6.51-9.07S348.94,90.08,357,99.63c1,1.15,2.06,2.44,2,4-.2,3.6-5.45,3.44-9,4.18-4.37.91-11.07-1.43-7.37,6.19,1.95,4,11.27,9.51,8.76,12.2s-10.19,10.47-13.8,16.77-5.36,14.14-2.64,20.87,10.91,11.37,17.59,8.54c3.12-1.33,6.54-4.09,9.44-2.33,2.63,1.59,2.24,5.41,2.11,8.49s1.65,7.15,4.64,6.43a5,5,0,0,0,2.42-1.75C375.4,178.34,377.13,171.85,378.14,165.51Z" transform="translate(-144.34)"/>
    <ellipse class="cls-11" cx="124.81" cy="121.78" rx="88.8" ry="83.89"/>
    <g class="cls-12">
      <path class="cls-13" d="M306.88,131.15a317.48,317.48,0,0,1-4.54,55.23c-.82,4.56-1.77,9.09-2.91,13.58a131.23,131.23,0,0,1-4.07,13.28,62.84,62.84,0,0,1-6.07,12.51,25.08,25.08,0,0,1-4.55,5.31,13.13,13.13,0,0,1-3,1.92,9,9,0,0,1-3.47.82,8.57,8.57,0,0,1-3.5-.65,12.05,12.05,0,0,1-3.05-1.81,23.83,23.83,0,0,1-4.64-5.23,47.12,47.12,0,0,1-3.44-6.07c-1-2.08-1.9-4.23-2.72-6.4a127.84,127.84,0,0,1-4.11-13.26c-1.14-4.49-2.11-9-2.94-13.57-1.65-9.1-2.77-18.29-3.53-27.51s-1.13-18.46-1.17-27.71c0-4.63.1-9.25.26-13.87s.42-9.24.75-13.85c.68-9.22,1.69-18.42,3.2-27.55.76-4.56,1.65-9.11,2.71-13.61A129.15,129.15,0,0,1,260,49.38c.77-2.18,1.62-4.34,2.59-6.45a47.41,47.41,0,0,1,3.31-6.11,22.47,22.47,0,0,1,4.55-5.27,11.51,11.51,0,0,1,3-1.8,8.34,8.34,0,0,1,3.45-.62,9.2,9.2,0,0,1,3.42.8,13.47,13.47,0,0,1,3,1.86A25.48,25.48,0,0,1,287.92,37a50.58,50.58,0,0,1,3.53,6c1.05,2.06,2,4.19,2.84,6.34a123.86,123.86,0,0,1,4.37,13.17c1.24,4.46,2.27,9,3.17,13.51A291.6,291.6,0,0,1,306.88,131.15Zm-1.14,0c0-9.22-.34-18.44-1.11-27.62A268.53,268.53,0,0,0,301,76.13c-.85-4.53-1.85-9-3-13.48a125.81,125.81,0,0,0-4.23-13.15c-.83-2.14-1.74-4.26-2.77-6.31a50.48,50.48,0,0,0-3.44-6A25.14,25.14,0,0,0,283,32.09a12.93,12.93,0,0,0-2.87-1.83,8.69,8.69,0,0,0-3.28-.8,8.11,8.11,0,0,0-3.3.62,11.11,11.11,0,0,0-2.89,1.77,22.56,22.56,0,0,0-4.42,5.22A45.84,45.84,0,0,0,263,43.15c-.94,2.1-1.76,4.25-2.51,6.43a129.7,129.7,0,0,0-3.71,13.3c-1,4.49-1.85,9-2.57,13.58-1.42,9.1-2.35,18.29-2.93,27.49s-.82,18.42-.8,27.64.31,18.42,1,27.62,1.76,18.36,3.35,27.44c.8,4.53,1.73,9,2.84,13.51a127.1,127.1,0,0,0,4,13.21q1.19,3.24,2.65,6.36a47.47,47.47,0,0,0,3.35,6,23,23,0,0,0,4.48,5.12,11.83,11.83,0,0,0,2.87,1.74,7.91,7.91,0,0,0,3.26.61,8.37,8.37,0,0,0,3.22-.78,12.54,12.54,0,0,0,2.81-1.85,24.28,24.28,0,0,0,4.39-5.2,62.42,62.42,0,0,0,5.91-12.4,123.93,123.93,0,0,0,3.95-13.22c1.11-4.47,2-9,2.81-13.52,1.58-9.08,2.63-18.25,3.33-27.44s1-18.41,1-27.63Z" transform="translate(-144.34)"/>
      <path class="cls-13" d="M353.51,131.15a134.66,134.66,0,0,1-4.77,35.27A113.59,113.59,0,0,1,334,198.78a93.93,93.93,0,0,1-11.26,13.81,78.93,78.93,0,0,1-13.87,11.18,66.53,66.53,0,0,1-16.18,7.4,60.4,60.4,0,0,1-35.2,0,67.22,67.22,0,0,1-16.2-7.4,78.49,78.49,0,0,1-13.88-11.17,93.43,93.43,0,0,1-11.28-13.81,113.67,113.67,0,0,1-14.76-32.36,133.23,133.23,0,0,1-4.78-35.3,141.3,141.3,0,0,1,1.21-17.8,128.55,128.55,0,0,1,3.59-17.49,113.76,113.76,0,0,1,14.78-32.34,93.35,93.35,0,0,1,11.28-13.8,78.83,78.83,0,0,1,13.88-11.15,66.92,66.92,0,0,1,16.19-7.38,60.06,60.06,0,0,1,35.15,0,67,67,0,0,1,16.17,7.38,78.38,78.38,0,0,1,13.86,11.16A92.59,92.59,0,0,1,334,63.55a113.38,113.38,0,0,1,14.76,32.33A135.09,135.09,0,0,1,353.51,131.15Zm-1.31,0a133.14,133.14,0,0,0-4.61-35A113.19,113.19,0,0,0,333.25,64,92,92,0,0,0,322.2,50.25a76.78,76.78,0,0,0-13.66-11.18,66.13,66.13,0,0,0-16-7.4,58.86,58.86,0,0,0-34.86,0,66.1,66.1,0,0,0-16,7.41A77.13,77.13,0,0,0,228,50.28a92.06,92.06,0,0,0-11,13.78,113.06,113.06,0,0,0-14.31,32.16,129.27,129.27,0,0,0-3.44,17.31,134.54,134.54,0,0,0,0,35.24,129.3,129.3,0,0,0,3.45,17.31A113,113,0,0,0,217,198.22a92.49,92.49,0,0,0,11,13.77,77,77,0,0,0,13.64,11.17,66.11,66.11,0,0,0,16,7.38,58.41,58.41,0,0,0,34.82,0,66.15,66.15,0,0,0,16-7.37A77,77,0,0,0,322.16,212a91.4,91.4,0,0,0,11-13.76,113,113,0,0,0,14.36-32.15,133.16,133.16,0,0,0,4.63-35Z" transform="translate(-144.34)"/>
      <path class="cls-13" d="M183.45,90.52,207,90.36l23.59-.09,47.18-.07,47.17.08,23.59.1,23.58.17a.06.06,0,0,1,.06.06.06.06,0,0,1-.06,0h0l-23.58.18L325,90.93,277.8,91l-47.18-.07L207,90.85l-23.58-.16a.08.08,0,0,1-.06-.11s0,0,.06-.06Z" transform="translate(-144.34)"/>
      <path class="cls-13" d="M210.81,51l16.75-.16,16.75-.09c5.58,0,11.16,0,16.74-.05l16.75,0,33.49.08,16.74.1c5.59,0,11.17.08,16.75.17a.06.06,0,0,1,.06.05.06.06,0,0,1-.06.06c-5.58.08-11.16.11-16.75.17l-16.74.1-33.49.08-16.75,0c-5.58,0-11.16,0-16.74,0l-16.75-.09-16.75-.16a.09.09,0,0,1-.08-.08.08.08,0,0,1,.08-.09Z" transform="translate(-144.34)"/>
      <path class="cls-13" d="M175.25,130l25.64-.16,25.63-.09,51.27-.07,51.28.08,25.63.1,25.64.17a.06.06,0,1,1,0,.12h0l-25.64.16-25.63.1-51.28.08-51.27-.07-25.63-.09-25.64-.16a.08.08,0,0,1-.06-.11s0-.05.06-.06Z" transform="translate(-144.34)"/>
      <path class="cls-13" d="M183.45,169.53l23.58-.15,23.59-.09,47.17-.07,47.18.07,23.59.1,23.58.17s.06,0,.06.06a.06.06,0,0,1-.06.06h0l-23.58.17L325,170l-47.18.08L230.62,170,207,169.87l-23.58-.16a.09.09,0,0,1-.07-.11.11.11,0,0,1,.07-.06Z" transform="translate(-144.34)"/>
      <path class="cls-13" d="M348.15,209.43h-134a.3.3,0,0,1-.32-.28.3.3,0,0,1,.28-.32h134a.3.3,0,0,1,0,.6Z" transform="translate(-144.34)"/>
    </g>
    <circle class="cls-13" cx="192.86" cy="55.85" r="44.12"/>
    <circle class="cls-14" cx="192.86" cy="55.85" r="42.65"/>
    <circle class="cls-15" cx="191.93" cy="56.78" r="36.1"/>
    <path class="cls-13" d="M372.37,38.58a.43.43,0,0,0,.45-.44.41.41,0,0,0-.05-.21A39.87,39.87,0,0,0,330,16.68a.44.44,0,0,0-.36.52.45.45,0,0,0,.53.36,39.41,39.41,0,0,1,7-.63A38.77,38.77,0,0,1,372,38.34.44.44,0,0,0,372.37,38.58Z" transform="translate(-144.34)"/>
    <g class="cls-16">
      <g>
        <path class="cls-17" d="M317.79,45.41V61.73a16.71,16.71,0,0,0,3.68,10.45l.36.4,0,0A15.59,15.59,0,0,0,334,78.15l7.39-.12c8.78-.14,15.82-7.67,15.82-16.74V48.93Z" transform="translate(-144.34)"/>
        <path class="cls-18" d="M324.47,90.73a39,39,0,0,0,14.3,1.9,39.4,39.4,0,0,0,11.1-2.39V73.16l-25.4.39Z" transform="translate(-144.34)"/>
        <path class="cls-19" d="M357.41,55.59S337.27,65.82,336,72c-7.37.16-10.59-6.73-10.59-6.73l-6.62-15.54.46-5.93,38.13,6.43Z" transform="translate(-144.34)"/>
        <path class="cls-20" d="M359.91,47.8l.52.44c1.86,1.55,2.4,4.07,1.27,5.68L354,64.86c-1.2,1.7-3.72,1.8-5.68.17l-.19-.15c-2-1.63-2.64-4.37-1.44-6.08l7.71-10.94C355.58,46.25,358.05,46.24,359.91,47.8Z" transform="translate(-144.34)"/>
        <path class="cls-21" d="M353.84,40.08l.35.29a4.79,4.79,0,0,1,1.11,6.32l-9,12.69c-1.4,2-4.22,2.19-6.3.47a5.09,5.09,0,0,1-1.23-6.7l9-12.7C349.15,38.57,351.87,38.43,353.84,40.08Z" transform="translate(-144.34)"/>
        <path class="cls-22" d="M346.14,33.65l.56.46a4.8,4.8,0,0,1,1.12,6.33l-9,12.71a4.24,4.24,0,0,1-6.29.5l-.21-.17c-2.09-1.73-2.69-4.78-1.28-6.76L340.09,34C341.43,32.13,344.17,32,346.14,33.65Z" transform="translate(-144.34)"/>
        <path class="cls-23" d="M337.32,30.88c1.84,1.54,2.41,4.06,1.28,5.65L330.9,47.3c-1.19,1.68-3.7,1.77-5.65.16l-.19-.16c-1.95-1.61-2.6-4.32-1.4-6L331.07,31C332.39,29.14,335.19,29.1,337.32,30.88Z" transform="translate(-144.34)"/>
        <path class="cls-24" d="M335.69,78.13h-.93a16.48,16.48,0,0,1-12.89-6s0,0,0,0l-.35-.44L313,61.16A16.3,16.3,0,0,1,309.4,50a9.22,9.22,0,0,1,8.17-8.79h.08L330.75,40a4.77,4.77,0,0,1,5.1,4.36,7.38,7.38,0,0,1-.23,2.84A7,7,0,0,1,331,52l-4.27,1.3s7.78.55,9.16,13.93A52.66,52.66,0,0,1,335.69,78.13Z" transform="translate(-144.34)"/>
        <path class="cls-25" d="M335.86,67.22c-2.32-12.12-18.52-13.8-15.79-13.76,3,0,3-6.91,3-6.91s2.76,3.48,3.5,4.35,8.72-3.83,8.72-3.83a1,1,0,0,1,.3.08A7,7,0,0,1,331,52l-4.28,1.31S334.48,53.85,335.86,67.22Z" transform="translate(-144.34)"/>
      </g>
    </g>
    <path class="cls-26" d="M259.29,248.59a1.49,1.49,0,0,0,0-.21c-1.06-4.2-5.4-6.36-5.4-6.36l-2.09.17c-1.2,3.7-2,5.51-1.78,6.52l0,.09A49.43,49.43,0,0,0,259.29,248.59Z" transform="translate(-144.34)"/>
    <path class="cls-27" d="M250,248.79a.91.91,0,0,0,.67.67,28.55,28.55,0,0,0,8-.11.75.75,0,0,0,.63-.75A49.51,49.51,0,0,1,250,248.79Z" transform="translate(-144.34)"/>
    <path class="cls-28" d="M255.59,238.77l-.92,4.4a.71.71,0,0,1-.61.59,6.13,6.13,0,0,1-1.42,0,.9.9,0,0,1-.71-1.05h0l.64-3.91Z" transform="translate(-144.34)"/>
    <path class="cls-29" d="M232.3,248.76a12,12,0,0,0,4-.57c0,.22,0,.45,0,.68a.44.44,0,0,1-.42.45l-12.23-.08a.56.56,0,0,1-.51-.6.9.9,0,0,1,.06-.22A91.22,91.22,0,0,0,232.3,248.76Z" transform="translate(-144.34)"/>
    <path class="cls-30" d="M223.17,248.43a.19.19,0,0,1,.05-.09,15.56,15.56,0,0,1,9.27-5.82l2.6-.08a12.42,12.42,0,0,1,1.19,5.75,11.82,11.82,0,0,1-4,.57C228.86,248.85,224.77,248.56,223.17,248.43Z" transform="translate(-144.34)"/>
    <path class="cls-31" d="M235.58,238.48c0,.19-.39,3.15-.53,4.29a.57.57,0,0,1-.48.52,6,6,0,0,1-1.79,0,.78.78,0,0,1-.58-.78v-4.63Z" transform="translate(-144.34)"/>
    <path class="cls-32" d="M253.84,181s4.18,37.1,1.86,60.28a18.05,18.05,0,0,1-4.17-.46s-4.34-36.27-5.74-46.65a.36.36,0,0,0-.4-.3.35.35,0,0,0-.29.28c-1.73,8.73-8.53,43-9.34,46.2a5.76,5.76,0,0,1-4.17,0s3.71-49.61,6.49-58.42Z" transform="translate(-144.34)"/>
    <path class="cls-33" d="M262.19,137.92s-17.62-2.78-31.53.93l.93,14.37s3.71,19.94,6.49,28.75c0,0,10.66,1.86,15.76-.92,0,0,4.18-25.05,6.5-28.75C260.34,152.29,262.65,142.56,262.19,137.92Z" transform="translate(-144.34)"/>
    <path class="cls-34" d="M250,125.25l1.75,11.87s-4.9,2.25-8.33-.09l.74-8.38Z" transform="translate(-144.34)"/>
    <path class="cls-35" d="M242.39,117.52c0,.1-1.11,6.09-1.76,9.79a2.59,2.59,0,0,0,2.11,3l.3,0,1.42.08a5,5,0,0,0,5.3-4.28l1-6.71S243.73,115.08,242.39,117.52Z" transform="translate(-144.34)"/>
    <path class="cls-36" d="M252.32,119.45a2,2,0,0,0,0-2.82l-.12-.1a2.82,2.82,0,0,0-3.35-.49.93.93,0,0,1-1.1-.22.6.6,0,0,0-.56-.2.87.87,0,0,1-1-.75h0a2.29,2.29,0,0,0-2-2.12c-2.73-.53-4.09,2.2-4.05,4.12s3,2.32,4.74,2c1.25-.24,2.32.86,2.81,1.46a.89.89,0,0,1,.18.77L247.4,123a8.2,8.2,0,0,0,1,1.65,1.8,1.8,0,0,0,1,.64c.51-1,1.93-1.11,2.59-1.13a.9.9,0,0,0,.66-.31,2,2,0,0,0-.21-3.11A.9.9,0,0,1,252.32,119.45Z" transform="translate(-144.34)"/>
    <path class="cls-37" d="M248.9,127.23s.06-3.35,1.42-3.66,2.82.67,1.66,2.67C250.53,128.73,248.9,127.23,248.9,127.23Z" transform="translate(-144.34)"/>
    <path class="cls-38" d="M239.9,155.28s-40.41-12-20.64-39.9l1.65,2.19s-5.68,19.76,14.05,21.56C235,139.13,240.07,152.31,239.9,155.28Z" transform="translate(-144.34)"/>
    <path class="cls-39" d="M254.26,153.93s39.81-10.84,20-38.71L273,117.11s6,18.88-13.77,20.68C259.19,137.79,254.08,151,254.26,153.93Z" transform="translate(-144.34)"/>
    <path class="cls-40" d="M274.44,115.37s.31-4.51-2.38-5-3.45,1.37-3.9,2.71,4,4,4.93,4S274.44,115.37,274.44,115.37Z" transform="translate(-144.34)"/>
    <path class="cls-41" d="M219.41,116.11s-.44-5.38,2.25-5.83,3.58,2.24,4,3.59-4,4-4.93,4S219.41,116.11,219.41,116.11Z" transform="translate(-144.34)"/>
    <path class="cls-42" d="M182,114.13a49.09,49.09,0,0,1-2.92,4.61c-3.43,4.34-7.34,8.88-12,11.94-5.29,3.46-14.55,3.72-16.56,10.73a14.42,14.42,0,0,0,4.93,15.08c2.26,1.88,5.24,2.69,7.43,4.65,3.1,2.78,2.1,6.05,2.16,9.79.09,5.49,2.77,9.17,8,11,10.66,3.82,36-14.41,23.08-36.78s-5.17-28.49-5.17-28.49Z" transform="translate(-144.34)"/>
    <path class="cls-43" d="M217.44,112.13s-13,20.63-28.55,24.61c0,0,3,8.61,5.36,9.59,0,0,19.08-15.91,24-31.27Z" transform="translate(-144.34)"/>
    <path class="cls-44" d="M155.06,244.06l-.42,3.47a1.44,1.44,0,0,1-1.26,1.26,22.58,22.58,0,0,1-4.65.07,1.23,1.23,0,0,1-1.08-1.36,1,1,0,0,1,0-.24,12.52,12.52,0,0,1,2.33-4.54h3.85a1.19,1.19,0,0,1,1.19,1.19.61.61,0,0,1,0,.14Z" transform="translate(-144.34)"/>
    <path class="cls-45" d="M185.24,203.36l.65,3.82s-2.17,22.07-2.56,30.9a6.92,6.92,0,0,0,1,3.92l3.79,6.15-9.63-5.67-.19-1.18,1.58-2.16-2.07-24.72a7.56,7.56,0,0,1,.87-4.2l2-3.74Z" transform="translate(-144.34)"/>
    <path class="cls-46" d="M188.77,249.05H185.7a1.88,1.88,0,0,1-1.47-.72c-.95-1.25-2.94-3.67-3.89-3.74-1.27-.09-1.11,4.46-1.11,4.46h-.72l-.9-5.65a3.34,3.34,0,0,1,1.75-3.49h0a4.72,4.72,0,0,0,1.88,3.12c1.58.95,6.44,4.37,6.44,4.37a4.78,4.78,0,0,1,1.25,0,.81.81,0,0,1,.63,1A.83.83,0,0,1,188.77,249.05Z" transform="translate(-144.34)"/>
    <path class="cls-47" d="M172.06,205.17s-12.76,24.21-14.8,29.74a53.59,53.59,0,0,0-2.77,10.57c0,.68-.89,1.34-3.23,1.34a2.23,2.23,0,0,1-2.08-.95,1.35,1.35,0,0,1-.06-1.32c.74-1.5,3.09-6.27,3.95-8.44,1-2.59,3.27-14.3,4.49-18.37s2.6-8.5,7.92-12.57C165.49,205.17,169.14,201.59,172.06,205.17Z" transform="translate(-144.34)"/>
    <path class="cls-48" d="M180.12,165.51c3.29-13.95-5.05-21.84-5.05-21.84,5.26-5,14.85-7.35,14.85-7.35s9.15,6.69,8.06,11.92c-.63,3.07-6.42,18.38-6.42,18.38A12.76,12.76,0,0,1,180.12,165.51Z" transform="translate(-144.34)"/>
    <path class="cls-49" d="M172.82,172.41c1.34-4,7.3-6.9,7.3-6.9a12.71,12.71,0,0,0,11.43,1.11,22.83,22.83,0,0,1,.38,8.86c-.83,4.27-6,31.7-6,31.7-8.2,1.66-20.81-1.66-20.81-1.66C170.31,196.24,171.48,176.45,172.82,172.41Z" transform="translate(-144.34)"/>
    <path class="cls-50" d="M183.94,127.1l-2.68,12c-.25,1.06.71.89,1.78.69,1.75-.34,4-1,4.77-2.38A1.39,1.39,0,0,0,188,137l1.15-8.34a1.5,1.5,0,0,0-.88-1.57l-2.21-1a1.5,1.5,0,0,0-2,.75,1.34,1.34,0,0,0-.09.26Z" transform="translate(-144.34)"/>
    <path class="cls-51" d="M189.07,116.14s2.84,1.93,4.07,6.84-.77,6.67-2.81,6.57a9.46,9.46,0,0,1-7.56-4.27C180.21,121.76,185.33,113.78,189.07,116.14Z" transform="translate(-144.34)"/>
    <path class="cls-52" d="M185.36,123.3s-1-7,4.8-6l1.18,1.23s2.86-3.22-.3-5.66-7.56-1.81-10,2.63-3.31,7.54-1.28,10.3,3.58.39,3.58.39-.94-2.38-.16-3.4,1.77.59,1.77.59Z" transform="translate(-144.34)"/>
    <path class="cls-53" d="M185,124.41s-.51-3.62-2.36-2.59.66,3.38,1.67,4.18Z" transform="translate(-144.34)"/>
    <path class="cls-54" d="M217.24,116.38c0,.43-1.46.72-1.94-1.09.13-.79.36-4.24.93-4.78,3.05-2.85,5.58-2.5,5.58-2.5a12.24,12.24,0,0,1,.74,3,3.51,3.51,0,0,1-.8,2.34q-.92,1.11-1.92,2.13A3,3,0,0,1,217.24,116.38Z" transform="translate(-144.34)"/>
    <path class="cls-55" d="M218.75,115l-.49-.21a23,23,0,0,1,2-4.19,1,1,0,0,0,.33-.64.43.43,0,0,0-.1-.24l-2.15,1.22-1,1.59-.45-.3,1-1.72,2.6-1.47.14.12a1.1,1.1,0,0,1,.43.77,1.5,1.5,0,0,1-.48,1.06A24.28,24.28,0,0,0,218.75,115Z" transform="translate(-144.34)"/>
    <path class="cls-56" d="M175.07,143.67s-14.82,30.42-20.18,33.08a60.4,60.4,0,0,0-8.78,1.58.86.86,0,0,0-.57,1.09.89.89,0,0,0,.61.58,13.23,13.23,0,0,0,9.69-.75s-1.89,2.84-.79,3.95c0,0,2.53-3,3.47-3.95s16-17.38,22.39-27.35c.51-.81.16-3.2-.2-4.09C179.88,145.77,178.05,142.51,175.07,143.67Z" transform="translate(-144.34)"/>
    <path class="cls-57" d="M216.48,110.35s1.7-3,2.27-2.36.74.75.38,1.8.31,3.34-.65,4.06S216.77,114.09,216.48,110.35Z" transform="translate(-144.34)"/>
    <path class="cls-13" d="M158.13,155.25a.13.13,0,0,0,.13-.13.13.13,0,0,0,0-.11,22.1,22.1,0,0,1-5.29-6.37,7.27,7.27,0,0,1-.39-5.73,11.47,11.47,0,0,1,1.9-3,.13.13,0,1,0-.2-.17,11.4,11.4,0,0,0-1.94,3,7.35,7.35,0,0,0,.4,5.95,22.38,22.38,0,0,0,5.36,6.46A.11.11,0,0,0,158.13,155.25Z" transform="translate(-144.34)"/>
    <path class="cls-13" d="M160.55,135.47h0c.89-.39,1.81-.75,2.69-1.11a50.91,50.91,0,0,0,4.73-2.07,23.77,23.77,0,0,0,10.21-9.59.13.13,0,0,0,0-.18.13.13,0,0,0-.18.06h0a23.67,23.67,0,0,1-10.1,9.48c-1.52.79-3.14,1.43-4.7,2.06-.9.35-1.81.72-2.7,1.11a.12.12,0,0,0-.07.17.13.13,0,0,0,.12.08Z" transform="translate(-144.34)"/>
    <path class="cls-13" d="M191.14,117.28a.12.12,0,0,0,.12-.1,4.19,4.19,0,0,0-.48-3.15,3,3,0,0,0-2.41-1.1.14.14,0,0,0-.14.12h0a.15.15,0,0,0,.13.14h0a2.77,2.77,0,0,1,2.21,1,4,4,0,0,1,.44,2.93.11.11,0,0,0,.09.15h0Z" transform="translate(-144.34)"/>
    <path class="cls-58" d="M381.72,248.83a1.64,1.64,0,0,0,0-.22c-1.07-4.26-5.47-6.44-5.47-6.44l-2.11.17c-1.22,3.75-2,5.58-1.81,6.61a.24.24,0,0,1,0,.08A49.94,49.94,0,0,0,381.72,248.83Z" transform="translate(-144.34)"/>
    <path class="cls-59" d="M372.33,249a.91.91,0,0,0,.68.67,28.5,28.5,0,0,0,8.07-.11.78.78,0,0,0,.64-.77A50.8,50.8,0,0,1,372.33,249Z" transform="translate(-144.34)"/>
    <path class="cls-60" d="M378,238.88l-.93,4.46a.73.73,0,0,1-.62.6,6.21,6.21,0,0,1-1.43,0,.91.91,0,0,1-.73-1.07h0l.64-4Z" transform="translate(-144.34)"/>
    <path class="cls-61" d="M354.38,249a12,12,0,0,0,4-.58c0,.22,0,.46,0,.69a.47.47,0,0,1-.43.46l-12.39-.08a.55.55,0,0,1-.45-.83C346.75,248.79,350.89,249.09,354.38,249Z" transform="translate(-144.34)"/>
    <path class="cls-62" d="M345.12,248.66l.05-.09a15.8,15.8,0,0,1,9.39-5.9l2.65-.08a12.76,12.76,0,0,1,1.2,5.83,12.07,12.07,0,0,1-4,.58C350.89,249.09,346.75,248.79,345.12,248.66Z" transform="translate(-144.34)"/>
    <path class="cls-63" d="M357.7,238.58c0,.2-.4,3.19-.54,4.35a.56.56,0,0,1-.48.52,6.16,6.16,0,0,1-1.82,0,.77.77,0,0,1-.59-.78v-4.7Z" transform="translate(-144.34)"/>
    <path class="cls-64" d="M376.2,180.39s4.23,37.59,1.88,61.08a18.18,18.18,0,0,1-4.23-.47s-4.39-36.75-5.81-47.27a.35.35,0,0,0-.42-.28.33.33,0,0,0-.28.26c-1.75,8.84-8.64,43.54-9.46,46.81a5.8,5.8,0,0,1-4.23,0s3.76-50.26,6.57-59.19Z" transform="translate(-144.34)"/>
    <path class="cls-65" d="M372.26,123.85l1.78,12s-5,2.28-8.45-.1l.75-8.49Z" transform="translate(-144.34)"/>
    <path class="cls-66" d="M383.27,136.5c-4.46-.57-18.81-2-30.56,1.13l1,14.56s3.76,20.21,6.57,29.13c0,0,10.81,1.88,16-.94,0,0,4.23-25.37,6.58-29.13,0,0,1.92-8.08,1.94-13.1A1.66,1.66,0,0,0,383.27,136.5Z" transform="translate(-144.34)"/>
    <path class="cls-67" d="M362.4,153.58s-42-4.49-26.57-35.89l1.66,1.7s-2,19.12,18.29,17.73C355.77,137.12,362.1,150.55,362.4,153.58Z" transform="translate(-144.34)"/>
    <path class="cls-68" d="M332.86,119s-.46-5.52,2.3-6,3.67,2.3,4.13,3.68-4.13,4.13-5.05,4.13S332.86,119,332.86,119Z" transform="translate(-144.34)"/>
    <path class="cls-69" d="M384.59,137.16c3.66,4.33,24.06,30.37-5.9,40.94v-2.36s12.24-10.35,2.82-24.49c0,0,1.29-10.69,2.24-13.91a.49.49,0,0,1,.61-.33.46.46,0,0,1,.23.16Z" transform="translate(-144.34)"/>
    <path class="cls-70" d="M378.45,176s-4.23-2.83-6.12-1.88a2.91,2.91,0,0,0-1.88,2.35s.94,1.88,2.35,1.41,4.71.47,6.13,0C378.92,177.86,379.39,176,378.45,176Z" transform="translate(-144.34)"/>
    <path class="cls-71" d="M364.67,115.86s-2.27,5.22-2.42,8-.74,4.51,2.42,5.06a6.72,6.72,0,0,0,7.27-3.75s2.26-4.19,1.76-5.92S364.67,115.86,364.67,115.86Z" transform="translate(-144.34)"/>
    <path class="cls-72" d="M370.86,123.17h-.4s1.65-3.38.2-4-7.18-1.76-8.42-3.8a3.78,3.78,0,0,1,1.39-5.16l.07,0a.21.21,0,0,1,.27.1l.13.25a.23.23,0,0,0,.29.09.23.23,0,0,0,.11-.13h0a.21.21,0,0,1,.26-.15.2.2,0,0,1,.13.09c.38.61,1.4,1.6,4.15,2.1,3.91.72,6.49,2.31,6.55,5a.22.22,0,0,0,.22.22.15.15,0,0,0,.11,0c.29-.18.75-.25,1.37.26,1.07.9.63,3.24-1.72,5.17a.21.21,0,0,0,0,.29l.05,0c.43.28,1.06.94-.58,1.82a4.36,4.36,0,0,1-3.06.7.21.21,0,0,1-.16-.22l.15-2.39a.23.23,0,0,0-.2-.23h-.87Z" transform="translate(-144.34)"/>
    <path class="cls-73" d="M370.76,123.67s.87-3.33,2.36-2.4-.78,3.73-2,3.85Z" transform="translate(-144.34)"/>
    <path class="cls-74" d="M223.48,108.07c1.22,2,1.63,4,.71,5.69a3.64,3.64,0,0,1-4.1-1.85C220.15,108.8,220.93,106.93,223.48,108.07Z" transform="translate(-144.34)"/>
    <path class="cls-75" d="M275.06,116.83s13.68,21.64,29.95,25.82c0,0-3.17,9-5.62,10.06,0,0-20-16.7-25.15-32.8Z" transform="translate(-144.34)"/>
    <path class="cls-76" d="M275.27,121.29c0,.44,1.54.75,2-1.15-.14-.83-.39-4.44-1-5-3.19-3-5.84-2.64-5.84-2.64a12.67,12.67,0,0,0-.78,3.14,3.66,3.66,0,0,0,.84,2.46c.63.78,1.31,1.52,2,2.23A3.16,3.16,0,0,0,275.27,121.29Z" transform="translate(-144.34)"/>
    <path class="cls-77" d="M273.68,119.83l.53-.22a26.12,26.12,0,0,0-2.09-4.4,1,1,0,0,1-.35-.66.47.47,0,0,1,.11-.25l2.26,1.27,1,1.67.48-.32-1.09-1.8-2.73-1.54-.15.12a1.14,1.14,0,0,0-.44.81,1.54,1.54,0,0,0,.5,1.12A25,25,0,0,1,273.68,119.83Z" transform="translate(-144.34)"/>
    <path class="cls-78" d="M276.07,115s-1.79-3.19-2.38-2.47-.78.79-.41,1.89-.32,3.5.69,4.25S275.77,118.88,276.07,115Z" transform="translate(-144.34)"/>
    <path class="cls-79" d="M309.18,118.69s2,.87,4.15,4.79a28.52,28.52,0,0,1,2.85,10.11c.16,2,1.12,3.64,2.41,3.95,3.22.77,8.17,3.38,9,12.09.6,6.64-1.57,9.16-3.84,10-1.67.64-2.79,3.18-2.45,5.81a8.2,8.2,0,0,1-3,7.77C312,178.43,305.73,161,305.73,161l-1.3-30.48Z" transform="translate(-144.34)"/>
    <path class="cls-80" d="M334.79,245.19l.41,3.35a1.39,1.39,0,0,0,1.21,1.21,21.65,21.65,0,0,0,4.48.07,1.18,1.18,0,0,0,1-1.31,1,1,0,0,0-.05-.23,12.21,12.21,0,0,0-2.24-4.37h-3.71a1.14,1.14,0,0,0-1.15,1.14s0,.09,0,.14Z" transform="translate(-144.34)"/>
    <path class="cls-81" d="M305.72,206l-.62,3.68s2.09,21.25,2.47,29.75a6.75,6.75,0,0,1-1,3.79l-3.65,5.92,9.26-5.47.19-1.13-1.52-2.09,2-23.8a7.36,7.36,0,0,0-.83-4l-1.92-3.6Z" transform="translate(-144.34)"/>
    <path class="cls-82" d="M302.32,250h3a1.81,1.81,0,0,0,1.41-.69c.93-1.2,2.84-3.54,3.75-3.6,1.23-.08,1.07,4.28,1.07,4.28h.69l.88-5.43a3.21,3.21,0,0,0-1.69-3.36h0a4.54,4.54,0,0,1-1.81,3c-1.52.92-6.2,4.21-6.2,4.21a4.09,4.09,0,0,0-1.21,0,.79.79,0,0,0,.15,1.56Z" transform="translate(-144.34)"/>
    <path class="cls-83" d="M318.42,207.75s12.29,23.31,14.24,28.63a50.52,50.52,0,0,1,2.66,10.18c.05.66.86,1.29,3.12,1.29a2.15,2.15,0,0,0,2-.92,1.33,1.33,0,0,0,.05-1.27c-.72-1.44-3-6-3.81-8.12-1-2.5-3.14-13.78-4.32-17.7s-2.51-8.18-7.63-12.1C324.74,207.75,321.22,204.3,318.42,207.75Z" transform="translate(-144.34)"/>
    <path class="cls-84" d="M310.65,169.55c-3.17-13.43,5.12-20,5.12-20-.35-4.28-9.48-6.91-13.1-7.79a3,3,0,0,0-2.64.61c-2.37,2-7.38,6.67-6.58,10.54.62,3,6.2,17.7,6.2,17.7A12.21,12.21,0,0,0,310.65,169.55Z" transform="translate(-144.34)"/>
    <path class="cls-85" d="M317.68,176.2c-1.29-3.88-7-6.65-7-6.65a12.26,12.26,0,0,1-11,1.08,22,22,0,0,0-.36,8.53c.81,4.11,5.81,30.53,5.81,30.53,7.9,1.6,20-1.61,20-1.61C320.1,199.15,319,180.09,317.68,176.2Z" transform="translate(-144.34)"/>
    <path class="cls-86" d="M307,132.57l2.57,11.58c.25,1-.68.85-1.71.66-1.69-.32-3.87-1-4.59-2.29a1.41,1.41,0,0,1-.14-.44l-1.1-8a1.43,1.43,0,0,1,.84-1.51l2.14-.95a1.43,1.43,0,0,1,1.9.73,1.83,1.83,0,0,1,.08.25Z" transform="translate(-144.34)"/>
    <path class="cls-87" d="M304,121.55s-3.05,1.28-5.13,5.7-.52,6.44,1.42,6.72a9.11,9.11,0,0,0,7.94-2.61C311.26,128.51,307.92,120,304,121.55Z" transform="translate(-144.34)"/>
    <path class="cls-88" d="M306.11,129s2.31-6.45-3.42-6.53l-1.34,1s-2.1-3.58,1.34-5.29,7.48-.3,8.95,4.34,1.72,7.75-.73,10-3.44-.3-3.44-.3,1.33-2.08.79-3.19-1.79.23-1.79.23Z" transform="translate(-144.34)"/>
    <path class="cls-89" d="M305.77,130.26s1.16-3.33,2.72-2-1.26,3.07-2.36,3.63Z" transform="translate(-144.34)"/>
    <path class="cls-90" d="M311.06,156.09s37.53-4.29,22.62-37.36l-2.4,2s4.29,23.3-16.59,26.59C314.69,147.37,310.88,153.12,311.06,156.09Z" transform="translate(-144.34)"/>
    <path class="cls-91" d="M334,120.33s2.87-4.59.68-6.22-4.22.35-5.24,1.34,1.74,5.44,2.54,5.85S334,120.33,334,120.33Z" transform="translate(-144.34)"/>
    <path class="cls-92" d="M267.92,114.18a6.18,6.18,0,0,1,2.76-4.2,1.25,1.25,0,0,1,1.43.21,3.63,3.63,0,0,1,.93,3.69C270.79,116,268.9,116.79,267.92,114.18Z" transform="translate(-144.34)"/>
  </g>
</svg>
