<svg id="Layer_1" data-name="Layer 1" xmlns="http://www.w3.org/2000/svg" viewBox="0 0 427.86 250">
  <defs>
    <style>
      .cls-1 {
        fill: #bf6849;
      }

      .cls-2 {
        opacity: 0.61;
      }

      .cls-3 {
        opacity: 0.68;
      }

      .cls-22, .cls-4 {
        opacity: 0.47;
      }

      .cls-5 {
        fill: #f1c36b;
      }

      .cls-6 {
        opacity: 0.41;
      }

      .cls-15, .cls-7 {
        opacity: 0.43;
      }

      .cls-8 {
        fill: #390028;
      }

      .cls-9 {
        fill: #a74f30;
      }

      .cls-10, .cls-11 {
        fill: #852b0f;
      }

      .cls-10, .cls-33 {
        opacity: 0.32;
      }

      .cls-10, .cls-15, .cls-19, .cls-22, .cls-30, .cls-33, .cls-34 {
        isolation: isolate;
      }

      .cls-12, .cls-15, .cls-22, .cls-34 {
        fill: #fff;
      }

      .cls-13, .cls-33 {
        fill: #eff7fe;
      }

      .cls-14 {
        fill: #dff5ff;
      }

      .cls-16 {
        fill: #9f9fdd;
      }

      .cls-17 {
        fill: #c5e4ef;
      }

      .cls-18 {
        fill: #ffa97c;
      }

      .cls-19, .cls-20 {
        fill: #74caf3;
      }

      .cls-19 {
        opacity: 0.54;
      }

      .cls-21 {
        opacity: 0.52;
      }

      .cls-23 {
        fill: #aeade7;
      }

      .cls-24 {
        fill: #a7b0be;
      }

      .cls-25 {
        fill: #525f72;
      }

      .cls-26 {
        fill: #3a4451;
      }

      .cls-27 {
        fill: #fdbea6;
      }

      .cls-28 {
        fill: #1c191a;
      }

      .cls-29, .cls-30 {
        fill: #ff8e77;
      }

      .cls-30 {
        opacity: 0.46;
      }

      .cls-31 {
        fill: #8f8fcc;
      }

      .cls-32 {
        fill: #ff8970;
      }

      .cls-34 {
        opacity: 0.18;
      }
    </style>
  </defs>
  <g>
    <path class="cls-1" d="M96.06,250V242H459V250Z" transform="translate(-66.24)"/>
    <g>
      <g class="cls-2">
        <g>
          <g class="cls-3">
            <g class="cls-4">
              <path class="cls-5" d="M474.46,112.22a77.62,77.62,0,0,0-27.63-51.37c-25.37-21.09-63.74-26.4-97.37-21.53-14.09,2-28.06,5.66-42.48,4.52-21-1.66-39.57-13-58.72-21.39C222.19,11.1,192.3,5,164.58,9.92c-31.42,5.61-57.19,26.77-60.26,54.86-1.4,12.73,12.76,35.15,8.29,47.2-4.53,12.23-37.62,49.7-36.8,78.2S84.24,227.4,95,241.83H446.63c6.7-14.62,12-26.31,4.1-45.51-6.27-15.34,10.77-28,17.36-42.25C474,141.36,475.89,126.07,474.46,112.22Z" transform="translate(-66.24)"/>
            </g>
          </g>
          <g class="cls-6">
            <path class="cls-5" d="M75,117.89a12,12,0,0,1,5.1-16.18l.34-.16c6.14-3.06,17.92-2.81,21,3.17s-6.31,11.08-10.17,16.64C86,129.11,78.16,123.86,75,117.89Z" transform="translate(-66.24)"/>
          </g>
          <g class="cls-6">
            <path class="cls-5" d="M471.56,178.77a7.2,7.2,0,0,1,1.7,10,1.77,1.77,0,0,0-.16.22c-2.49,3.24-8.93,6.16-12.27,3.75s.39-7.64.95-11.65C462.57,175.54,468.23,176.35,471.56,178.77Z" transform="translate(-66.24)"/>
          </g>
          <g class="cls-6">
            <path class="cls-5" d="M301.53,17.74a10.69,10.69,0,0,1,14.56-3.11c4.8,3.08,9.41,11.62,6.17,16.42s-10.94.23-16.71-.15C297.5,30.38,298.29,22.54,301.53,17.74Z" transform="translate(-66.24)"/>
          </g>
          <g class="cls-7">
            <path class="cls-5" d="M435.67,225.11c3.43-16.58-2.06-30.73-3.43-47-1.3-15.4,4.31-28.34,7.43-43,2.77-13,1.85-27.82-1.63-40.65-4.75-17.51-15.7-33.72-31.47-43.6-24.57-15.4-57.34-13.58-84.48-3-11.37,4.44-22.38,10.35-34.56,11.84-17.76,2.18-35-5.28-52.34-9.74-23.55-6.09-49.4-6.54-71.62,3.06-25.19,10.89-43.1,35.47-41,62.55,1,12.26,5.8,24.37,4.08,36.56-1.74,12.36-9.28,22.7-13.27,34.34-5.45,15.89-6,39.23,2.81,55.36H429.76A65.36,65.36,0,0,0,435.67,225.11Z" transform="translate(-66.24)"/>
          </g>
          <g class="cls-4">
            <path class="cls-5" d="M377.36,173.15a41.52,41.52,0,0,0-14.16-27.22c-13-11.18-32.65-14-49.89-11.41-7.21,1.08-14.37,3-21.76,2.4-10.77-.89-20.27-6.91-30.08-11.34-13.36-6-28.67-9.25-42.87-6.63-16.1,3-29.3,14.18-30.88,29.06-.71,6.74,6.55,18.62,4.26,25s-19.28,26.34-18.85,41.44,4.31,19.72,9.83,27.37H363.1c3.44-7.75,6.13-14,2.1-24.12-3.21-8.13,5.52-14.82,8.9-22.39A44.87,44.87,0,0,0,377.36,173.15Z" transform="translate(-66.24)"/>
          </g>
        </g>
      </g>
      <g>
        <g>
          <g>
            <path class="cls-8" d="M272.77,97.07A16.29,16.29,0,0,0,266.49,89c-.36-.25-.75-.48-1.13-.7a16.26,16.26,0,0,0-3.68-1.53c-1.71-.48-3.32-.5-4.38-2.19a7.59,7.59,0,0,1-.83-3.13c-.69-5.39-2.71-10.24-6.93-13.82-6.06-5.13-16.31-8.19-26.21-9.19-8-.8-19.74,1-27.35,11.29a6.16,6.16,0,0,0-1.09,5.4l0,.11c.17.58.4,1.23.68,1.93l-3.89,3.21a11.17,11.17,0,0,0-3.08,13.23l1.67,3.66c-.16.16-.3.32-.44.48-.61.71-1.28,1.51-2,2.39a19.19,19.19,0,0,0-5.23,12.11c-.33,6.76,3.09,13,8.68,17.17A142,142,0,0,1,210.47,146a27.64,27.64,0,0,0,20.37,8.45c10.25,0,19.32-5.36,23.11-13.12,5.79-3.07,10.05-8.1,11.35-14.05a17.35,17.35,0,0,0,.39-4.87c-.1-1.43-.7-2.88-.36-4.32.43-1.78,2.05-3,3.36-4.22A16.46,16.46,0,0,0,272.77,97.07Z" transform="translate(-66.24)"/>
            <g>
              <path class="cls-9" d="M233.11,98.52C210.72,99.3,201.52,83,199.4,76a17.59,17.59,0,0,0-2.24,6.45L193,111a17.79,17.79,0,0,0,2.51,12h0a18,18,0,0,0,13.87,10.45l1.13.16,0,5.81a11.29,11.29,0,0,0,11.21,11.33l3.56,0a11.32,11.32,0,0,0,11.34-11.21l.13-25.41a10.81,10.81,0,0,0-.07-1.27l2.34.34a7.45,7.45,0,0,0,2.12-14.74l-2.62-.38,0-.29A25.61,25.61,0,0,1,233.11,98.52Z" transform="translate(-66.24)"/>
              <path class="cls-10" d="M234,116.91a17.88,17.88,0,0,1-20.25,15.14h0l-5.6-.81A17.83,17.83,0,0,1,195.53,123a18,18,0,0,0,13.88,10.45l1.23.18a4.44,4.44,0,0,0,0,.62c0,2.66,2.84,4.81,6.36,4.81s6.36-2.15,6.36-4.81a3.08,3.08,0,0,0-.07-.68,18,18,0,0,0,12.27-14.59l.88-6.14-1.73-.25Z" transform="translate(-66.24)"/>
            </g>
            <g>
              <path class="cls-11" d="M242.31,108.13a.41.41,0,0,1-.19,0l-2.71-1.93a.36.36,0,0,1-.13-.24.3.3,0,0,1,.09-.25l3.11-3.19a.32.32,0,1,1,.46.45l-2.85,2.92,2.41,1.71a.32.32,0,0,1-.19.58Z" transform="translate(-66.24)"/>
              <path class="cls-11" d="M206.78,126.19a.35.35,0,0,1-.22-.08,3.2,3.2,0,0,0-3.6-.39.32.32,0,0,1-.31-.57h0a4,4,0,0,1,4.35.47.33.33,0,0,1,0,.46h0A.32.32,0,0,1,206.78,126.19Z" transform="translate(-66.24)"/>
              <g>
                <path class="cls-8" d="M196.37,91.61a3.72,3.72,0,0,0,1.49.44c.54.09,1.09.19,1.56.29s1,.25,1.55.4a3.63,3.63,0,0,0,1.53.22c.45-.08.72-.53.37-1.25a4.3,4.3,0,0,0-2.93-1.94,4.14,4.14,0,0,0-3.42.54C195.92,90.81,196,91.35,196.37,91.61Z" transform="translate(-66.24)"/>
                <path class="cls-8" d="M208.78,95.07a5.26,5.26,0,0,1,2.19.22c.76.18,1.53.34,2.2.46s1.46.22,2.23.31a5.29,5.29,0,0,1,2.14.54c.53.34.65,1.08-.19,1.82a6.06,6.06,0,0,1-4.87,1,5.86,5.86,0,0,1-4.2-2.54C207.77,95.87,208.14,95.21,208.78,95.07Z" transform="translate(-66.24)"/>
              </g>
              <path class="cls-12" d="M196,109.13a7.29,7.29,0,0,1-7.27-7.28,7.46,7.46,0,0,1,.15-1.49,7.27,7.27,0,1,1,7.12,8.77Zm0-13.91a6.62,6.62,0,1,0,6.49,8h0a6.62,6.62,0,0,0-5.12-7.84A7.86,7.86,0,0,0,196,95.22Z" transform="translate(-66.24)"/>
              <g>
                <path class="cls-9" d="M205.76,98.05l-.52,3.6a2.51,2.51,0,0,1-2.85,2.12h0a1.25,1.25,0,0,0-1.42,1v0l-.26,1.78a2.26,2.26,0,0,0,1.91,2.56l3.24.47" transform="translate(-66.24)"/>
                <path class="cls-11" d="M205.86,110h-.05l-3.24-.47a2.59,2.59,0,0,1-2.18-2.93l.26-1.78a1.52,1.52,0,0,1,.62-1,1.57,1.57,0,0,1,1.17-.3,2.19,2.19,0,0,0,2.48-1.85h0l.52-3.6a.32.32,0,0,1,.36-.28h0a.32.32,0,0,1,.27.36h0l-.53,3.6a2.83,2.83,0,0,1-3.21,2.4.92.92,0,0,0-.7.17.94.94,0,0,0-.36.62l-.26,1.78a2,2,0,0,0,1.64,2.2l3.24.47a.32.32,0,0,1,.27.36h0A.31.31,0,0,1,205.86,110Z" transform="translate(-66.24)"/>
              </g>
              <path class="cls-12" d="M213.3,110.54a7.37,7.37,0,0,1-1.48-.16,7.27,7.27,0,1,1,8.61-5.62h0A7.32,7.32,0,0,1,213.3,110.54Zm0-13.9a6.63,6.63,0,1,0,6.48,8h0a6.65,6.65,0,0,0-5.13-7.85A6.8,6.8,0,0,0,213.3,96.64Z" transform="translate(-66.24)"/>
              <path class="cls-12" d="M220.45,101.87a.32.32,0,0,1-.07-.64l19.1-3.79a.32.32,0,0,1,.38.25h0a.31.31,0,0,1-.25.38l-19.1,3.79Z" transform="translate(-66.24)"/>
              <path class="cls-12" d="M206.5,102.07h0l-3.66-.52a.32.32,0,0,1,.1-.64l3.65.52a.32.32,0,0,1,.27.37h0A.32.32,0,0,1,206.5,102.07Z" transform="translate(-66.24)"/>
              <path class="cls-12" d="M213.2,111.83a27.46,27.46,0,0,1-7.33,1.93c-3.68.34-1.1,6.57,4.49,6.35S216.21,111.35,213.2,111.83Z" transform="translate(-66.24)"/>
              <path class="cls-8" d="M198.81,101.76a1.26,1.26,0,1,1-1-1.49h0A1.26,1.26,0,0,1,198.81,101.76Z" transform="translate(-66.24)"/>
              <path class="cls-8" d="M212.07,102.66a1.27,1.27,0,1,1-1-1.5h0A1.28,1.28,0,0,1,212.07,102.66Z" transform="translate(-66.24)"/>
              <path class="cls-11" d="M199.08,103.61a.31.31,0,0,1-.19-.06,3,3,0,0,0-2.85-.11.32.32,0,0,1-.42-.17.31.31,0,0,1,.16-.42,3.59,3.59,0,0,1,3.49.18.32.32,0,0,1,.06.45.31.31,0,0,1-.25.13Z" transform="translate(-66.24)"/>
              <path class="cls-11" d="M212,104.6a.27.27,0,0,1-.22-.08,2.36,2.36,0,0,0-2.71-.1.33.33,0,0,1-.45-.1.32.32,0,0,1,.1-.44.05.05,0,0,1,0,0,3,3,0,0,1,3.46.18.32.32,0,0,1,0,.46h0A.35.35,0,0,1,212,104.6Z" transform="translate(-66.24)"/>
            </g>
          </g>
          <g>
            <g>
              <path class="cls-12" d="M265.24,151.21a18.73,18.73,0,0,0-15.85-9.49l-11-.08-15.41,8-10-8.23a53,53,0,0,0-6.66.33l-47-9.15,9.43-22.44a2.32,2.32,0,0,0-1.23-3,2.55,2.55,0,0,0-.52-.15l-21.33-3.6a2.49,2.49,0,0,0-2.65,1.38l-13,27.46a17.37,17.37,0,0,0,8.69,26.11l43.56,19.19.24.93-5,13.61a20.77,20.77,0,0,0,1.84,18l4.52,7.15,1.77,27.18,106.24,0,2.41-57Z" transform="translate(-66.24)"/>
              <path class="cls-13" d="M188.21,156.3l-10.8,19.06,5,3.09,4.76-13A40.66,40.66,0,0,1,188.21,156.3Z" transform="translate(-66.24)"/>
            </g>
            <g>
              <path class="cls-9" d="M146.94,103.65l-.12-3.05c-2-4.35-.73-10.91.67-15.51h0l3.23,1s13.54-8.34,20.7-4.58c2.76,1.44-.94,20.6-4.82,25.74Z" transform="translate(-66.24)"/>
              <path class="cls-10" d="M158.61,82.45l-.19.18c-1.64,1.6-12.92,13.14-1.78,16.87,12,4,13-6.67,13-6.67" transform="translate(-66.24)"/>
              <g>
                <path class="cls-14" d="M160.89,110.81h0a5.36,5.36,0,0,1-4.79-5.87l3.6-35.61,10.67,1.08L166.76,106A5.35,5.35,0,0,1,160.89,110.81Z" transform="translate(-66.24)"/>
                <path class="cls-15" d="M161.16,108.22h0c-2.41-.24-4.15-2.68-3.87-5.43l3.38-33.36,8.75.88L166,103.67C165.76,106.43,163.58,108.47,161.16,108.22Z" transform="translate(-66.24)"/>
                <path class="cls-16" d="M161.35,106.32h0a4,4,0,0,1-3.6-4.4l2.7-26.68,8,.8-2.7,26.68A4,4,0,0,1,161.35,106.32Z" transform="translate(-66.24)"/>
                <path class="cls-17" d="M169.89,71l-9.77-1a2.15,2.15,0,0,1-1.92-2.35h0a2.15,2.15,0,0,1,2.35-1.92l9.77,1a2.14,2.14,0,0,1,1.92,2.35h0A2.14,2.14,0,0,1,169.89,71Z" transform="translate(-66.24)"/>
                <path class="cls-15" d="M164.94,84.21a.48.48,0,0,1-.53.44.49.49,0,1,1,.09-1h0A.48.48,0,0,1,164.94,84.21Z" transform="translate(-66.24)"/>
                <path class="cls-15" d="M161.75,90.22a.48.48,0,0,1-.53.44.5.5,0,0,1-.44-.54.49.49,0,0,1,.54-.43h0a.47.47,0,0,1,.43.52Z" transform="translate(-66.24)"/>
                <path class="cls-15" d="M165.43,93.41a.49.49,0,1,1-.44-.54h0a.5.5,0,0,1,.44.53Z" transform="translate(-66.24)"/>
              </g>
              <g>
                <path class="cls-10" d="M148,83.49l-.53.46a2.54,2.54,0,0,0-.25,3.58l3.6,4.11a2.52,2.52,0,0,0,3.57.24l.54-.46a2.53,2.53,0,0,0,.24-3.57l-3.59-4.12A2.54,2.54,0,0,0,148,83.49Z" transform="translate(-66.24)"/>
                <path class="cls-9" d="M149.48,76.49h0a2.78,2.78,0,0,0-.27,3.91l6.18,7.07a2.77,2.77,0,0,0,3.91.26h0a2.77,2.77,0,0,0,.26-3.91l-6.17-7.07A2.77,2.77,0,0,0,149.48,76.49Z" transform="translate(-66.24)"/>
                <path class="cls-9" d="M153.65,72.84h0a2.78,2.78,0,0,0-.26,3.91l6.18,7.07a2.78,2.78,0,0,0,3.91.27h0a2.79,2.79,0,0,0,.26-3.91l-6.18-7.07A2.78,2.78,0,0,0,153.65,72.84Z" transform="translate(-66.24)"/>
                <path class="cls-9" d="M147.05,82h0a2.78,2.78,0,0,0-.27,3.91l3.72,4.25a2.78,2.78,0,0,0,3.91.27h0a2.77,2.77,0,0,0,.26-3.91L151,82.28A2.78,2.78,0,0,0,147.05,82Z" transform="translate(-66.24)"/>
              </g>
              <path class="cls-9" d="M172.07,87.36c-3.26-1.37-8-2.67-11.66-.75,0,0-2.75,1.9.2,3.77s7.72,3.61,9,5.59c1.11,1.76,3-.63,4.37-3.1a3.88,3.88,0,0,0-1.44-5.3A4.25,4.25,0,0,0,172.07,87.36Z" transform="translate(-66.24)"/>
            </g>
            <g>
              <path class="cls-18" d="M237.71,134.29h0a14.63,14.63,0,0,0-14.6,13.63,14.63,14.63,0,0,0-14.6-13.63,23.32,23.32,0,0,0-.83,7.2h0l-.15,4.47,9.79,46.15a1.13,1.13,0,0,0,2.17.2l18.17-45.51a4,4,0,0,0,.28-1.4A22,22,0,0,0,237.71,134.29Z" transform="translate(-66.24)"/>
              <g>
                <path class="cls-19" d="M213.74,192.45a.32.32,0,0,1-.28-.16l-16.59-28.24a1.48,1.48,0,0,1-.15-1.09,1.4,1.4,0,0,1,.68-.86l5.81-3.25-8.67-5.28a1.2,1.2,0,0,1-.56-.92,1.16,1.16,0,0,1,.42-1l8.47-7.18a.33.33,0,0,1,.42.5h0l-8.48,7.17a.54.54,0,0,0-.18.46.53.53,0,0,0,.26.42l9.61,5.85-6.78,3.78a.79.79,0,0,0-.37.47.81.81,0,0,0,.08.59L214,192a.31.31,0,0,1-.12.43A.23.23,0,0,1,213.74,192.45Z" transform="translate(-66.24)"/>
                <path class="cls-19" d="M225,194.17a.34.34,0,0,1-.19-.07.33.33,0,0,1-.07-.45L246,164.75a.76.76,0,0,0,.1-.57.79.79,0,0,0-.35-.49l-6.59-4.1,9.87-5.4a.53.53,0,0,0,.28-.4.59.59,0,0,0-.17-.47L241,145.77a.33.33,0,0,1,.44-.48h0l8.13,7.56a1.15,1.15,0,0,1,.36,1,1.19,1.19,0,0,1-.6.9l-8.91,4.86,5.66,3.52a1.41,1.41,0,0,1,.46,2l0,0L225.25,194A.35.35,0,0,1,225,194.17Z" transform="translate(-66.24)"/>
                <path class="cls-20" d="M257.9,200.34H237.19a.76.76,0,0,1-.76-.76v-3.29a.76.76,0,0,1,.76-.76H257.9a.76.76,0,0,1,.76.76v3.29A.77.77,0,0,1,257.9,200.34Zm-20.72-4.16a.11.11,0,0,0-.11.12h0v3.28a.11.11,0,0,0,.11.12h20.71a.11.11,0,0,0,.12-.11h0V196.3a.12.12,0,0,0-.12-.12H237.18Z" transform="translate(-66.24)"/>
              </g>
              <path class="cls-12" d="M222.92,159.35h0a.32.32,0,0,1-.33-.32h0l.23-12.66a.32.32,0,0,1,.33-.31h0a.31.31,0,0,1,.31.31v0L223.24,159A.33.33,0,0,1,222.92,159.35Z" transform="translate(-66.24)"/>
            </g>
          </g>
        </g>
        <g class="cls-21">
          <g>
            <path class="cls-12" d="M271.7,58.42a5.8,5.8,0,1,1,.72-.05A5.77,5.77,0,0,1,271.7,58.42Zm0-10.2a5.25,5.25,0,0,0-.56,0,4.45,4.45,0,1,0,5,3.87h0a4.45,4.45,0,0,0-4.41-3.9Z" transform="translate(-66.24)"/>
            <rect class="cls-12" x="262.51" y="40.73" width="1.29" height="11.17" transform="translate(-5.25 221.03) rotate(-50.82)"/>
            <path class="cls-12" d="M257.86,44.25a2.45,2.45,0,1,1,.3,0Zm0-3.59h-.14a1.14,1.14,0,1,0,1.29,1,1.15,1.15,0,0,0-.43-.75A1.32,1.32,0,0,0,257.86,40.66Z" transform="translate(-66.24)"/>
            <rect class="cls-12" x="279.03" y="53.48" width="1.29" height="8.44" transform="translate(26.31 273.41) rotate(-60.72)"/>
            <path class="cls-12" d="M284.23,62.06a1.93,1.93,0,0,1-1-.3,1.89,1.89,0,0,1-.58-2.62,1.92,1.92,0,0,1,1.19-.83h0a1.89,1.89,0,0,1,2.26,1.43h0A1.91,1.91,0,0,1,284.64,62Zm0-2.52-.13,0h0a.6.6,0,0,0-.39.27.62.62,0,0,0-.08.46.6.6,0,0,0,.27.39.62.62,0,0,0,.85-.18.7.7,0,0,0,.08-.47.56.56,0,0,0-.27-.38A.57.57,0,0,0,284.23,59.54Z" transform="translate(-66.24)"/>
            <rect class="cls-12" x="262.37" y="58.13" width="6.82" height="1.29" transform="translate(-36.39 194.53) rotate(-42.39)"/>
            <path class="cls-12" d="M262.54,63.86l-.21,0a2,2,0,1,1,2.19-1.73A2,2,0,0,1,262.54,63.86Zm0-2.77a.75.75,0,0,0-.74.66.75.75,0,0,0,.66.82.8.8,0,0,0,.54-.16.78.78,0,0,0,.27-.5h0a.73.73,0,0,0-.66-.81Z" transform="translate(-66.24)"/>
            <rect class="cls-12" x="270.73" y="43.1" width="9.06" height="1.29" transform="translate(73.26 287.16) rotate(-69.88)"/>
            <path class="cls-12" d="M277.22,40.5a1.88,1.88,0,0,1-.62-.11,1.8,1.8,0,0,1-1.05-2.3A1.78,1.78,0,1,1,278,40.34,1.94,1.94,0,0,1,277.22,40.5Zm0-2.28a.52.52,0,0,0-.21,0,.55.55,0,0,0-.26.28.5.5,0,0,0,0,.38.49.49,0,0,0,.27.26.5.5,0,0,0,.38,0h0a.49.49,0,0,0-.2-.94Z" transform="translate(-66.24)"/>
            <rect class="cls-12" x="276.13" y="48.19" width="9.06" height="1.29" transform="translate(-56.58 136.66) rotate(-27.83)"/>
            <path class="cls-12" d="M285.49,48.2a2,2,0,0,1-.54-.08h0a1.81,1.81,0,1,1,1.36-.13A1.67,1.67,0,0,1,285.49,48.2Zm-.15-1.32a.49.49,0,0,0,.61-.35.5.5,0,0,0-.31-.6.51.51,0,0,0-.63.33A.51.51,0,0,0,285.34,46.88Z" transform="translate(-66.24)"/>
          </g>
          <g>
            <path class="cls-12" d="M106.19,133.9a5.74,5.74,0,1,1,5.71-6.45h0a5.71,5.71,0,0,1-5.71,6.45Zm0-10.2a5.28,5.28,0,0,0-.55,0,4.45,4.45,0,1,0,5,3.87h0a4.47,4.47,0,0,0-4.42-3.91Z" transform="translate(-66.24)"/>
            <rect class="cls-12" x="97" y="116.2" width="1.29" height="11.17" transform="translate(-124.68 120.55) rotate(-50.82)"/>
            <path class="cls-12" d="M92.35,119.72A2.43,2.43,0,1,1,94.77,117h0a2.45,2.45,0,0,1-2.12,2.72Zm0-3.58h-.14a1.15,1.15,0,0,0,.26,2.28h0a1.2,1.2,0,0,0,.77-.43,1.13,1.13,0,0,0,.23-.85h0a1.16,1.16,0,0,0-.43-.76,1.14,1.14,0,0,0-.71-.25Z" transform="translate(-66.24)"/>
            <rect class="cls-12" x="113.52" y="128.94" width="1.29" height="8.44" transform="translate(-124.06 167.61) rotate(-60.72)"/>
            <path class="cls-12" d="M118.72,137.53a1.9,1.9,0,0,1-1.85-1.49,1.9,1.9,0,0,1,1.44-2.26h0a1.9,1.9,0,0,1,1,3.67l-.13,0A1.92,1.92,0,0,1,118.72,137.53Zm-.13-2.49a.61.61,0,0,0-.47.72h0a.65.65,0,0,0,.28.39.66.66,0,0,0,.46.08.56.56,0,0,0,.38-.27.65.65,0,0,0,.08-.47.58.58,0,0,0-.27-.38.63.63,0,0,0-.46-.08Z" transform="translate(-66.24)"/>
            <rect class="cls-12" x="96.88" y="133.6" width="6.82" height="1.29" transform="translate(-130.52 102.64) rotate(-42.37)"/>
            <path class="cls-12" d="M97,139.34l-.21,0a2,2,0,0,1-1.76-2.21,2,2,0,1,1,2,2.23Zm0-2.77a.76.76,0,1,0,.74.78.78.78,0,0,0-.66-.78Z" transform="translate(-66.24)"/>
            <rect class="cls-12" x="105.22" y="118.58" width="9.06" height="1.29" transform="translate(-106.19 181.26) rotate(-69.88)"/>
            <path class="cls-12" d="M111.71,116a1.78,1.78,0,0,1-1.79-1.77,1.8,1.8,0,0,1,1-1.63,1.77,1.77,0,0,1,2.36.88h0a1.78,1.78,0,0,1-.88,2.36h0A1.73,1.73,0,0,1,111.71,116Zm0-2.27a.52.52,0,0,0-.21,0,.5.5,0,0,0-.24.66.49.49,0,0,0,.66.24.48.48,0,0,0,.24-.65h0a.45.45,0,0,0-.28-.26.47.47,0,0,0-.17,0Z" transform="translate(-66.24)"/>
            <rect class="cls-12" x="110.62" y="123.66" width="9.06" height="1.29" transform="translate(-110.96 68.17) rotate(-27.84)"/>
            <path class="cls-12" d="M120,123.67a1.59,1.59,0,0,1-.53-.08,1.79,1.79,0,1,1,2.24-1.17A1.8,1.8,0,0,1,120,123.67Zm0-2.28a.48.48,0,0,0-.47.35.5.5,0,0,0,0,.38.49.49,0,0,0,.29.24h0a.49.49,0,0,0,.62-.32h0a.5.5,0,0,0-.33-.62Z" transform="translate(-66.24)"/>
          </g>
          <g>
            <path class="cls-12" d="M461.57,92.38a5.66,5.66,0,1,1,.72,0A5.79,5.79,0,0,1,461.57,92.38Zm0-10.2a5.07,5.07,0,0,0-.55,0,4.45,4.45,0,1,0,1.08,8.84h0a4.44,4.44,0,0,0,3.87-5h0a4.45,4.45,0,0,0-4.41-3.91Z" transform="translate(-66.24)"/>
            <rect class="cls-12" x="452.37" y="74.69" width="1.29" height="11.17" transform="translate(38.33 380.69) rotate(-50.82)"/>
            <path class="cls-12" d="M447.72,78.2a2.46,2.46,0,1,1,.3,0Zm0-3.58h-.15a1.14,1.14,0,1,0,1.27,1h0a1.12,1.12,0,0,0-.43-.76A1.15,1.15,0,0,0,447.73,74.62Z" transform="translate(-66.24)"/>
            <rect class="cls-12" x="468.89" y="87.45" width="1.29" height="8.44" transform="translate(93.68 456.37) rotate(-60.72)"/>
            <path class="cls-12" d="M474.09,96a1.9,1.9,0,0,1-.41-3.75h0A1.92,1.92,0,0,1,476,93.71,1.89,1.89,0,0,1,474.51,96h0A1.84,1.84,0,0,1,474.09,96Zm0-2.51H474a.59.59,0,0,0-.38.27.61.61,0,0,0,.18.85.57.57,0,0,0,.46.08.56.56,0,0,0,.38-.27.58.58,0,0,0,.08-.46.56.56,0,0,0-.27-.38.5.5,0,0,0-.31-.1Z" transform="translate(-66.24)"/>
            <rect class="cls-12" x="452.23" y="92.09" width="6.82" height="1.29" transform="translate(-9.66 331.4) rotate(-42.39)"/>
            <path class="cls-12" d="M452.4,97.82l-.2,0A2,2,0,1,1,454.42,96h0A2,2,0,0,1,452.4,97.82Zm0-2.77a.76.76,0,1,0,.74.78.76.76,0,0,0-.66-.78Z" transform="translate(-66.24)"/>
            <rect class="cls-12" x="460.6" y="77.07" width="9.06" height="1.29" transform="translate(165.92 487.72) rotate(-69.88)"/>
            <path class="cls-12" d="M467.08,74.45a1.77,1.77,0,1,1,.75-.16h0A1.7,1.7,0,0,1,467.08,74.45Zm0-2.27a.45.45,0,0,0-.2,0,.51.51,0,0,0-.25.66.49.49,0,0,0,.66.24h0a.49.49,0,0,0,.26-.27.5.5,0,0,0,0-.38A.48.48,0,0,0,467.08,72.18Z" transform="translate(-66.24)"/>
            <rect class="cls-12" x="465.98" y="82.16" width="9.06" height="1.29" transform="translate(-50.48 229.22) rotate(-27.83)"/>
            <path class="cls-12" d="M475.35,82.15a1.89,1.89,0,0,1-.53-.08h0a1.78,1.78,0,1,1,2.23-1.17,1.79,1.79,0,0,1-.88,1A1.77,1.77,0,0,1,475.35,82.15Zm0-2.28a.5.5,0,0,0-.15,1h0a.48.48,0,0,0,.37,0,.49.49,0,0,0,.24-.29.49.49,0,0,0-.32-.62h0A.32.32,0,0,0,475.35,79.87Z" transform="translate(-66.24)"/>
          </g>
          <g>
            <path class="cls-12" d="M281.75,115.74l-.34,0a3.11,3.11,0,1,1,.57-6.19l.12,0a2.88,2.88,0,0,1,1.17.38,3.11,3.11,0,0,1-1.52,5.81Zm0-4.92a1.82,1.82,0,1,0,1.81,2h0a1.82,1.82,0,0,0-.92-1.79,1.8,1.8,0,0,0-.68-.21l-.21,0Z" transform="translate(-66.24)"/>
            <path class="cls-12" d="M294,95.85l-.35,0a3.1,3.1,0,0,1,.58-6.18h.11a2.83,2.83,0,0,1,1.17.38,3.07,3.07,0,0,1,1.56,3h0A3.09,3.09,0,0,1,294,95.85Zm0-4.91a1.81,1.81,0,1,0,1.81,2h0a1.82,1.82,0,0,0-1.6-2l-.21,0Z" transform="translate(-66.24)"/>
            <path class="cls-12" d="M301.55,117.35l-.34,0a3.1,3.1,0,1,1,.64-6.17h0a3.16,3.16,0,0,1,1.17.38,3.11,3.11,0,0,1-1.51,5.81Zm0-4.92a1.82,1.82,0,1,0,1.8,2h0a1.81,1.81,0,0,0-.91-1.79,2.06,2.06,0,0,0-.69-.22Z" transform="translate(-66.24)"/>
            <path class="cls-12" d="M315.26,85.64a2.06,2.06,0,0,1-.35,0,3.1,3.1,0,0,1,.69-6.17,3.22,3.22,0,0,1,1.17.38,3.1,3.1,0,0,1,1.56,3.06h0a3.09,3.09,0,0,1-3.07,2.75Zm0-4.91a1.81,1.81,0,1,0,1.8,2h0a1.8,1.8,0,0,0-.91-1.79,1.85,1.85,0,0,0-.69-.21Z" transform="translate(-66.24)"/>
            <path class="cls-12" d="M301.42,111.64a1.19,1.19,0,0,1-1.08-.69l-6.86-14.46-9.9,15-1.08-.71,10-15.1a1.18,1.18,0,0,1,1.08-.53,1.21,1.21,0,0,1,1,.68l6.84,14.45,12.21-26.08,1.17.55L302.5,111a1.19,1.19,0,0,1-1.08.68Z" transform="translate(-66.24)"/>
          </g>
          <g>
            <path class="cls-12" d="M424.2,81.65a4.33,4.33,0,0,1-1.42-.25c-3.71-1.25-8.74-7.3-12.51-15.06-4.36-9-6.45-19.46-2.42-21.5a3.54,3.54,0,0,1,2.8-.07c3.72,1.25,8.75,7.3,12.51,15.06,4.36,9,6.45,19.46,2.43,21.5A2.93,2.93,0,0,1,424.2,81.65Zm-15-35.84a1.88,1.88,0,0,0-.81.18c-2.5,1.27-1.89,9.72,3,19.79,3.57,7.35,8.41,13.27,11.77,14.4a2.37,2.37,0,0,0,1.81,0c2.51-1.27,1.9-9.72-3-19.79-3.57-7.34-8.4-13.27-11.77-14.4a3.39,3.39,0,0,0-1-.18Z" transform="translate(-66.24)"/>
            <path class="cls-12" d="M405.13,74.23a10.07,10.07,0,0,1-3.18-.45,4,4,0,0,1-2.46-2c-1.85-3.81,4.27-10.63,13.91-15.53,7.19-3.65,14.29-5.17,18.09-3.89a4,4,0,0,1,2.46,2C435.8,58.17,429.69,65,420,69.89h0C414.54,72.68,409.09,74.23,405.13,74.23Zm23.19-21c-3.72,0-9.05,1.53-14.33,4.2-9.62,4.89-14.67,11.09-13.34,13.82a2.75,2.75,0,0,0,1.71,1.31c3.44,1.15,10.31-.38,17.09-3.82h0c9.63-4.87,14.67-11.08,13.34-13.81a2.71,2.71,0,0,0-1.71-1.32,8.85,8.85,0,0,0-2.76-.38Z" transform="translate(-66.24)"/>
            <path class="cls-12" d="M427.91,73a40.88,40.88,0,0,1-13.42-2.76c-10.33-3.77-17.45-9.85-16.22-13.82a3.71,3.71,0,0,1,2.05-2.2c3.53-1.76,10.84-1.05,18.63,1.8,10.33,3.78,17.45,9.85,16.22,13.82A3.75,3.75,0,0,1,433.12,72,11.92,11.92,0,0,1,427.91,73ZM405.5,54.5a10.71,10.71,0,0,0-4.61.82,2.48,2.48,0,0,0-1.39,1.43c-.89,2.86,5.11,8.46,15.43,12.24,7.36,2.69,14.44,3.44,17.62,1.86a2.45,2.45,0,0,0,1.39-1.43c.89-2.86-5.1-8.46-15.43-12.24a40,40,0,0,0-13-2.68Z" transform="translate(-66.24)"/>
            <path class="cls-12" d="M416.92,65.8a3.07,3.07,0,1,1,3-3.57h0a3.07,3.07,0,0,1-2.54,3.53A2.74,2.74,0,0,1,416.92,65.8Zm0-4.86a1.36,1.36,0,0,0-.29,0,1.78,1.78,0,1,0,2.05,1.47h0a1.8,1.8,0,0,0-1.76-1.5Z" transform="translate(-66.24)"/>
          </g>
          <g>
            <path class="cls-12" d="M204.19,53.94a5.48,5.48,0,0,1-1.7-.3c-4.57-1.54-10.75-9-15.39-18.56C181,22.5,179.64,10.91,184,8.69a4.2,4.2,0,0,1,3.35-.08c4.57,1.54,10.75,9,15.39,18.55h0c6.11,12.58,7.46,24.17,3.07,26.4A3.77,3.77,0,0,1,204.19,53.94ZM185.68,9.59a2.21,2.21,0,0,0-1.07.24c-3.24,1.64-2.55,12,3.64,24.69C192.68,43.64,198.7,51,202.9,52.41a3,3,0,0,0,2.35,0c3.24-1.65,2.55-11.95-3.64-24.69-4.43-9.13-10.45-16.49-14.65-17.9a4,4,0,0,0-1.28-.24Z" transform="translate(-66.24)"/>
            <path class="cls-12" d="M180.6,44.75a12.21,12.21,0,0,1-3.89-.55,4.73,4.73,0,0,1-3-2.35c-2.25-4.64,5.28-13,17.15-19,8.85-4.49,17.6-6.38,22.26-4.81a4.79,4.79,0,0,1,3,2.36c2.25,4.64-5.29,13-17.15,19h0C192.18,42.84,185.46,44.75,180.6,44.75Zm28.7-26c-4.64,0-11.26,1.89-17.81,5.21-12,6.08-18.25,13.85-16.58,17.3a3.52,3.52,0,0,0,2.2,1.7c4.29,1.45,12.84-.45,21.27-4.73h0c12-6.08,18.25-13.85,16.58-17.3a3.55,3.55,0,0,0-2.2-1.7,11,11,0,0,0-3.46-.48Z" transform="translate(-66.24)"/>
            <path class="cls-12" d="M208.78,43.17a50.48,50.48,0,0,1-16.56-3.4c-12.7-4.64-21.47-12.08-20-16.92a4.48,4.48,0,0,1,2.46-2.64c4.34-2.15,13.34-1.27,22.94,2.25,12.7,4.64,21.47,12.07,20,16.92A4.46,4.46,0,0,1,215.16,42,14.73,14.73,0,0,1,208.78,43.17ZM181.05,20.35a13.47,13.47,0,0,0-5.78,1,3.2,3.2,0,0,0-1.79,1.87c-1.12,3.6,6.33,10.62,19.19,15.33,9.14,3.34,18,4.26,21.92,2.29A3.25,3.25,0,0,0,216.4,39c1.11-3.61-6.34-10.63-19.19-15.33A49.82,49.82,0,0,0,181.05,20.35Z" transform="translate(-66.24)"/>
            <path class="cls-12" d="M195.18,34.32a3.61,3.61,0,0,1-2.11-.68,3.65,3.65,0,1,1,2.71.63A4,4,0,0,1,195.18,34.32Zm0-6a2.56,2.56,0,0,0-.39,0,2.35,2.35,0,1,0,1.76.41,2.4,2.4,0,0,0-1.37-.44Z" transform="translate(-66.24)"/>
          </g>
          <path class="cls-16" d="M70,82.3a1.9,1.9,0,1,1-1.9-1.9A1.9,1.9,0,0,1,70,82.3Z" transform="translate(-66.24)"/>
          <path class="cls-16" d="M225.61,50.48a1.89,1.89,0,1,1-1.89-1.9A1.89,1.89,0,0,1,225.61,50.48Z" transform="translate(-66.24)"/>
          <path class="cls-16" d="M396.27,89.12a1.9,1.9,0,1,1-1.89-1.89A1.89,1.89,0,0,1,396.27,89.12Z" transform="translate(-66.24)"/>
          <path class="cls-16" d="M147.3,21.67a1.9,1.9,0,1,1-1.9-1.89A1.89,1.89,0,0,1,147.3,21.67Z" transform="translate(-66.24)"/>
          <path class="cls-16" d="M421.35,1.89A1.89,1.89,0,1,1,419.46,0,1.89,1.89,0,0,1,421.35,1.89Z" transform="translate(-66.24)"/>
          <circle class="cls-16" cx="64.67" cy="84.42" r="0.95"/>
          <path class="cls-16" d="M342.84,25a1.9,1.9,0,1,1-1.9-1.9A1.9,1.9,0,0,1,342.84,25Z" transform="translate(-66.24)"/>
          <path class="cls-16" d="M80.15,151a1.9,1.9,0,1,1-1.89-1.89A1.9,1.9,0,0,1,80.15,151Z" transform="translate(-66.24)"/>
          <path class="cls-16" d="M494.1,150.5a1.89,1.89,0,1,1-1.89-1.89A1.88,1.88,0,0,1,494.1,150.5Z" transform="translate(-66.24)"/>
          <path class="cls-16" d="M450.68,53.43a1.9,1.9,0,1,1-1.89-1.9A1.89,1.89,0,0,1,450.68,53.43Z" transform="translate(-66.24)"/>
          <path class="cls-16" d="M448.78,160.92a.95.95,0,1,1-.94-.94A.94.94,0,0,1,448.78,160.92Z" transform="translate(-66.24)"/>
          <circle class="cls-16" cx="231.36" cy="68.92" r="0.95"/>
          <circle class="cls-16" cx="2.23" cy="217.45" r="0.95"/>
          <circle class="cls-22" cx="138.8" cy="21.81" r="0.95"/>
          <path class="cls-12" d="M241.31,17.85A1.9,1.9,0,1,1,239.42,16h0A1.89,1.89,0,0,1,241.31,17.85Z" transform="translate(-66.24)"/>
          <path class="cls-12" d="M467.8,25.26a1.47,1.47,0,1,1-1.46-1.47,1.46,1.46,0,0,1,1.46,1.47Z" transform="translate(-66.24)"/>
          <path class="cls-12" d="M318.16,52a1.9,1.9,0,1,1-1.9-1.9A1.9,1.9,0,0,1,318.16,52Z" transform="translate(-66.24)"/>
          <path class="cls-12" d="M417.41,107.84a1.17,1.17,0,1,1-1.16-1.17h0A1.16,1.16,0,0,1,417.41,107.84Z" transform="translate(-66.24)"/>
          <circle class="cls-12" cx="367.06" cy="160.13" r="1.17"/>
          <path class="cls-12" d="M152,175.81a1.9,1.9,0,1,1-1.89-1.89A1.89,1.89,0,0,1,152,175.81Z" transform="translate(-66.24)"/>
          <path class="cls-12" d="M274.86,144.14a1.9,1.9,0,1,1-1.89-1.9A1.89,1.89,0,0,1,274.86,144.14Z" transform="translate(-66.24)"/>
          <path class="cls-12" d="M73.92,12.5A1.9,1.9,0,1,1,72,10.61h0A1.89,1.89,0,0,1,73.92,12.5Z" transform="translate(-66.24)"/>
          <circle class="cls-12" cx="97.37" cy="52.21" r="1.62"/>
        </g>
        <g>
          <g>
            <path class="cls-14" d="M171.54,235.43h0a5.5,5.5,0,0,0,5.57-5.42V193.85H166V230A5.5,5.5,0,0,0,171.54,235.43Z" transform="translate(-66.24)"/>
            <path class="cls-15" d="M171.53,232.8h0a4.85,4.85,0,0,0,4.58-5.07V193.85H167v33.88A4.84,4.84,0,0,0,171.53,232.8Z" transform="translate(-66.24)"/>
            <path class="cls-20" d="M171.54,230.87h0a4.12,4.12,0,0,0,4.18-4.06V199.72h-8.36v27.09A4.11,4.11,0,0,0,171.54,230.87Z" transform="translate(-66.24)"/>
            <path class="cls-17" d="M166.39,194.51h10.22a2.23,2.23,0,0,0,2.23-2.23h0a2.22,2.22,0,0,0-2.23-2.22H166.39a2.22,2.22,0,0,0-2.23,2.22h0a2.22,2.22,0,0,0,2.22,2.23Z" transform="translate(-66.24)"/>
            <path class="cls-15" d="M170.13,208.71a.51.51,0,1,0,.51-.51h0a.51.51,0,0,0-.51.51Z" transform="translate(-66.24)"/>
            <path class="cls-15" d="M172.8,215.27a.51.51,0,0,0,1,0,.51.51,0,0,0-.51-.51h0a.5.5,0,0,0-.51.5Z" transform="translate(-66.24)"/>
            <circle class="cls-15" cx="102.93" cy="218.19" r="0.51"/>
          </g>
          <g>
            <path class="cls-14" d="M148.39,238.16h0a5.67,5.67,0,0,0,5.58-5.77V193.85H142.81v38.54a5.68,5.68,0,0,0,5.58,5.77Z" transform="translate(-66.24)"/>
            <path class="cls-15" d="M148.38,235.36h0c2.53,0,4.58-2.42,4.58-5.41V193.86h-9.15V230C143.81,232.94,145.85,235.36,148.38,235.36Z" transform="translate(-66.24)"/>
            <path class="cls-23" d="M148.39,233.3h0a4.27,4.27,0,0,0,4.19-4.32V200.1h-8.37V229a4.26,4.26,0,0,0,4.18,4.33Z" transform="translate(-66.24)"/>
            <path class="cls-17" d="M143.24,194.51h10.22a2.23,2.23,0,0,0,2.23-2.23h0a2.22,2.22,0,0,0-2.23-2.22H143.24a2.22,2.22,0,0,0-2.23,2.22h0A2.23,2.23,0,0,0,143.24,194.51Z" transform="translate(-66.24)"/>
            <path class="cls-15" d="M147,208.71a.51.51,0,1,0,.51-.51h0A.51.51,0,0,0,147,208.71Z" transform="translate(-66.24)"/>
            <path class="cls-15" d="M149.65,215.27a.51.51,0,0,0,1,0,.51.51,0,0,0-.51-.51h0a.51.51,0,0,0-.51.5Z" transform="translate(-66.24)"/>
            <path class="cls-15" d="M145.51,218.19a.51.51,0,0,0,1,0,.51.51,0,0,0-.51-.51h0a.5.5,0,0,0-.51.5Z" transform="translate(-66.24)"/>
          </g>
          <g>
            <path class="cls-14" d="M124.41,240.77h0c3.08,0,5.58-2.76,5.58-6.16V193.49H118.83v41.12C118.83,238,121.33,240.77,124.41,240.77Z" transform="translate(-66.24)"/>
            <path class="cls-15" d="M124.4,237.78h0c2.53,0,4.58-2.58,4.58-5.77V193.49h-9.15V232C119.82,235.2,121.88,237.78,124.4,237.78Z" transform="translate(-66.24)"/>
            <path class="cls-18" d="M124.41,235.58h0a4.4,4.4,0,0,0,4.18-4.61V200.16h-8.36V231A4.41,4.41,0,0,0,124.41,235.58Z" transform="translate(-66.24)"/>
            <path class="cls-17" d="M119.26,194.51h10.22a2.23,2.23,0,0,0,2.23-2.23h0a2.22,2.22,0,0,0-2.23-2.22H119.26a2.23,2.23,0,0,0-2.23,2.22h0a2.23,2.23,0,0,0,2.23,2.23Z" transform="translate(-66.24)"/>
            <path class="cls-15" d="M123,208.71a.51.51,0,1,0,.5-.51h0a.5.5,0,0,0-.5.51Z" transform="translate(-66.24)"/>
            <path class="cls-15" d="M125.67,215.27a.51.51,0,0,0,1,0,.51.51,0,0,0-.51-.51h0a.5.5,0,0,0-.51.5Z" transform="translate(-66.24)"/>
            <path class="cls-15" d="M121.54,218.19a.5.5,0,0,0,.51.5.5.5,0,0,0,.5-.5.5.5,0,0,0-.5-.51h0a.5.5,0,0,0-.51.5Z" transform="translate(-66.24)"/>
          </g>
          <rect class="cls-24" x="117.82" y="204.45" width="3.25" height="38.6"/>
          <rect class="cls-24" x="41.08" y="204.45" width="3.25" height="38.6"/>
          <path class="cls-25" d="M107.21,207.89h81.06a2.16,2.16,0,0,0,2.15-2.16h0v-.89a2.16,2.16,0,0,0-2.15-2.16H107.21a2.16,2.16,0,0,0-2.15,2.16h0v.89A2.16,2.16,0,0,0,107.21,207.89Z" transform="translate(-66.24)"/>
          <path class="cls-26" d="M106.55,220.47h81.2a1,1,0,0,0,1-1h0a1,1,0,0,0-1-1h-81.2a1,1,0,0,0-1,1h0a1,1,0,0,0,1,1Z" transform="translate(-66.24)"/>
          <path class="cls-25" d="M111.89,246.23h-6.14A1.73,1.73,0,0,1,104,244.5h0a1.74,1.74,0,0,1,1.73-1.74h6.14a1.75,1.75,0,0,1,1.73,1.74h0a1.73,1.73,0,0,1-1.73,1.73Z" transform="translate(-66.24)"/>
          <path class="cls-25" d="M189,246.23H182.9a1.72,1.72,0,0,1-1.73-1.73h0a1.72,1.72,0,0,1,1.73-1.73H189a1.73,1.73,0,0,1,1.73,1.73h0A1.72,1.72,0,0,1,189,246.23Z" transform="translate(-66.24)"/>
          <g>
            <path class="cls-14" d="M239.61,238.91l-13.22-22.66L226.31,200l-11.95.06.07,15.61-13.37,23.42a5,5,0,0,0,1.86,6.85,5.18,5.18,0,0,0,2.52.66l29.85-.14a5,5,0,0,0,4.32-7.55Z" transform="translate(-66.24)"/>
            <path class="cls-15" d="M237.37,238,224.49,216.4l-.08-15.82-8,0,.07,15.6-12.8,21.91a4.29,4.29,0,0,0,3.83,6.42l26.1-.12a4.3,4.3,0,0,0,3.79-6.46Z" transform="translate(-66.24)"/>
            <path class="cls-23" d="M224.25,226.67a3.3,3.3,0,0,1,4,1.31l1.46,2.35,3.07,5.37a4.36,4.36,0,0,1-1.62,6,4.4,4.4,0,0,1-2.19.58l-17.38-.08a4.36,4.36,0,0,1-3.75-6.57l3.71-6.4c1.49-2.55,5.05-2.87,7.8-1.82C220.73,227.88,222.43,227.39,224.25,226.67Z" transform="translate(-66.24)"/>
            <path class="cls-23" d="M221.91,226.64a1.13,1.13,0,1,1-1.13-1.13h0A1.13,1.13,0,0,1,221.91,226.64Z" transform="translate(-66.24)"/>
            <path class="cls-23" d="M218,224.43a.85.85,0,1,1-.85-.85.85.85,0,0,1,.85.85Z" transform="translate(-66.24)"/>
            <circle class="cls-23" cx="155.47" cy="222.23" r="0.85"/>
            <path class="cls-17" d="M225.5,200.57l-10.17,0a2.08,2.08,0,0,1-2.24-1.91h0a2.09,2.09,0,0,1,2.22-1.93l10.17-.05a2.1,2.1,0,0,1,2.24,1.92h0A2.09,2.09,0,0,1,225.5,200.57Z" transform="translate(-66.24)"/>
            <circle class="cls-15" cx="149.39" cy="233.59" r="1.28"/>
            <path class="cls-15" d="M224.53,230.75a.71.71,0,1,1-.71-.71.7.7,0,0,1,.71.7Z" transform="translate(-66.24)"/>
            <path class="cls-15" d="M224.47,236.43a.71.71,0,1,1-.71-.71.7.7,0,0,1,.71.7Z" transform="translate(-66.24)"/>
          </g>
        </g>
        <g>
          <path class="cls-13" d="M280.49,170.26l-17.41,52.66a16.34,16.34,0,0,0,15.66,21.72l23.4-.32-16.31-69.09Z" transform="translate(-66.24)"/>
          <g>
            <g>
              <path class="cls-8" d="M388.61,50.86a11.21,11.21,0,0,0-13.78-7.61,7.11,7.11,0,0,0-8.52-3.56,7.23,7.23,0,0,0-4.15,3.58c-.57-.06-1.14-.11-1.71-.12l-16.34-.35c-10.22-.23-18.68,7.61-18.91,17.49L325,68.05a6.36,6.36,0,0,0-2.71,5.1,6.28,6.28,0,0,0,6,6.49,6.1,6.1,0,0,0,5.07-2.54l1.07,0c.21,0,.43,0,.64,0,5.32-4.13,9.1-12.86,9.1-12.86.7,2.67,4.4,4.16,9.23,4.92a7.93,7.93,0,0,0,10.05,1.12c.19-.12.37-.26.55-.39h1.18a10,10,0,0,0,19.58-3,10.42,10.42,0,0,0-.4-3.14A11.72,11.72,0,0,0,388.61,50.86Z" transform="translate(-66.24)"/>
              <g>
                <path class="cls-27" d="M343.41,60.81s-.08,8.13-5.22,12.27l-.62,0L334.15,73l-2.32,0-3-.07-.63,0a7.05,7.05,0,0,0-6.59,6.87l0,2.14a7,7,0,0,0,6.89,7.21h0l3,.06-.9,39.7a12.39,12.39,0,0,0,12.1,12.65h0l7.2.16a12.38,12.38,0,0,0,12.66-12.09h0l.24-10.82a20.44,20.44,0,0,0,14.22-19l.06-2.48h0l.47-21,.24-10.9C367.8,66.2,345.06,67.35,343.41,60.81Z" transform="translate(-66.24)"/>
                <g>
                  <path class="cls-28" d="M358.75,86.84a1.33,1.33,0,1,1-1.28-1.38,1.33,1.33,0,0,1,1.28,1.38Z" transform="translate(-66.24)"/>
                  <path class="cls-28" d="M374.7,88.73a1.33,1.33,0,1,1-1.28-1.38,1.34,1.34,0,0,1,1.28,1.38Z" transform="translate(-66.24)"/>
                  <path class="cls-29" d="M362.48,108.19a.43.43,0,0,1-.22-.09.32.32,0,0,1,0-.46h0a4,4,0,0,1,4.36-.79.32.32,0,1,1-.28.58,3.32,3.32,0,0,0-3.62.66A.43.43,0,0,1,362.48,108.19Z" transform="translate(-66.24)"/>
                  <path class="cls-8" d="M361,76.69a5.66,5.66,0,0,1-2.26.69c-.83.14-1.66.3-2.38.46s-1.54.38-2.35.61a5.64,5.64,0,0,1-2.34.36c-.67-.13-1.09-.82-.57-1.9a6.54,6.54,0,0,1,4.44-3,6.27,6.27,0,0,1,5.22.78C361.71,75.48,361.61,76.29,361,76.69Z" transform="translate(-66.24)"/>
                  <path class="cls-29" d="M327,83.66a.3.3,0,0,1-.29-.19.33.33,0,0,1,.16-.43l2.45-1-1.81-4.07a.32.32,0,0,1,.58-.29v0l2.06,4.65-3,1.31A.21.21,0,0,1,327,83.66Z" transform="translate(-66.24)"/>
                  <path class="cls-29" d="M364,93.83a4.7,4.7,0,0,1-.53,0,12.77,12.77,0,0,1-2.53-.52.32.32,0,1,1,.18-.62,12.57,12.57,0,0,0,2.41.49,3.81,3.81,0,0,0,3.27-1.1,2.22,2.22,0,0,0,.51-2l-2.15-9a.32.32,0,0,1,.27-.37.32.32,0,0,1,.36.22l2.14,9a2.83,2.83,0,0,1-.65,2.58A4.31,4.31,0,0,1,364,93.83Z" transform="translate(-66.24)"/>
                  <path class="cls-29" d="M359.27,99.33a6.46,6.46,0,0,1-2.38-.42,7.43,7.43,0,0,1-4-3.75.32.32,0,0,1,.17-.42.31.31,0,0,1,.42.16h0a6.89,6.89,0,0,0,3.61,3.4c1.83.69,4,.44,6.36-.71a.32.32,0,1,1,.28.58A10.32,10.32,0,0,1,359.27,99.33Z" transform="translate(-66.24)"/>
                  <path class="cls-29" d="M358.83,89.18a.29.29,0,0,1-.22-.09,1.91,1.91,0,0,0-2.61-.4.33.33,0,0,1-.45,0,.32.32,0,0,1,0-.45s1.59-1.35,3.46.42a.32.32,0,0,1,0,.45h0A.34.34,0,0,1,358.83,89.18Z" transform="translate(-66.24)"/>
                  <path class="cls-29" d="M375,91a.31.31,0,0,1-.22-.09c-1.43-1.36-2.55-.44-2.6-.4a.32.32,0,1,1-.42-.48,2.53,2.53,0,0,1,3.47.41.33.33,0,0,1,0,.46h0A.37.37,0,0,1,375,91Z" transform="translate(-66.24)"/>
                  <path class="cls-12" d="M357.38,92.17h0a7.29,7.29,0,0,1-7.27-7.28h0a7.27,7.27,0,0,1,7.27-7.27h0a7.28,7.28,0,1,1,0,14.55Zm0-13.9a6.63,6.63,0,1,0,0,13.25h0a6.63,6.63,0,1,0,0-13.25Z" transform="translate(-66.24)"/>
                  <path class="cls-12" d="M375.23,94.44h0a7.27,7.27,0,0,1,0-14.54h0a7.27,7.27,0,0,1,0,14.54Zm0-13.89a6.63,6.63,0,0,0,0,13.25h0a6.63,6.63,0,1,0,0-13.25Z" transform="translate(-66.24)"/>
                  <path class="cls-8" d="M379,78.61a5,5,0,0,0-2.08-.18c-.75,0-1.5,0-2.15,0s-1.4,0-2.14-.1a4.92,4.92,0,0,0-2.09.13c-.56.23-.8.91-.15,1.75A5.77,5.77,0,0,0,374.79,82a5.6,5.6,0,0,0,4.38-1.65C379.82,79.53,379.58,78.86,379,78.61Z" transform="translate(-66.24)"/>
                  <rect class="cls-12" x="366.08" y="82.88" width="0.64" height="4.06" transform="translate(179.78 441.24) rotate(-84.38)"/>
                  <path class="cls-12" d="M351.59,81.48a.28.28,0,0,1-.15,0l-16.6-8.78a.32.32,0,0,1-.13-.44.32.32,0,0,1,.44-.13h0l16.6,8.78a.33.33,0,0,1-.16.61Z" transform="translate(-66.24)"/>
                </g>
                <path class="cls-30" d="M356.8,116.54l-3.88-.1a19.75,19.75,0,0,1-19.3-20.18h0l.16-7.07-2.32,0-.21,9.54a20.46,20.46,0,0,0,13.95,19.86v.13c0,3.47,3.88,6.29,8.67,6.29s8.59-2.76,8.67-6.18a20.45,20.45,0,0,0,14.4-19.07l.06-2.47A19.78,19.78,0,0,1,356.8,116.54Z" transform="translate(-66.24)"/>
              </g>
            </g>
            <path class="cls-12" d="M362.82,121.67,353.06,135l-21.82-13.34h-16.3c-11.5,0-21.06,6.92-23,16l-15.4,51.82h.06l-9,30.34c-2.32,10.16,4.75,20.47,15.8,23h0a18.91,18.91,0,0,0,7.82.17v1.46l104.67-.23,1.89-92C397.81,135.38,383.21,121.67,362.82,121.67Z" transform="translate(-66.24)"/>
            <g>
              <path class="cls-19" d="M341.67,200.84a.34.34,0,0,1-.29-.17l-28.21-54.56A1.41,1.41,0,0,1,313,145a1.48,1.48,0,0,1,.68-.87l5.81-3.25-8.67-5.28a1.19,1.19,0,0,1-.4-1.63,1.16,1.16,0,0,1,.25-.29l8.47-7.17a.32.32,0,1,1,.41.49l-8.47,7.18a.52.52,0,0,0-.18.46.53.53,0,0,0,.25.41l9.62,5.85-6.77,3.8a.76.76,0,0,0-.37.47.81.81,0,0,0,.08.59L342,200.36a.32.32,0,0,1-.13.43h0A.33.33,0,0,1,341.67,200.84Z" transform="translate(-66.24)"/>
              <path class="cls-19" d="M359,201.72a.28.28,0,0,1-.13,0,.32.32,0,0,1-.16-.42l24.83-56.18a.77.77,0,0,0,.05-.61.72.72,0,0,0-.4-.45l-7-3.38,9.24-6.42a.54.54,0,0,0,.13-.75.49.49,0,0,0-.12-.13l-8.89-6.64a.32.32,0,0,1-.06-.45.33.33,0,0,1,.45-.07h0l8.89,6.64a1.18,1.18,0,0,1,.24,1.65,1.38,1.38,0,0,1-.27.27l-8.33,5.79,6,2.89a1.43,1.43,0,0,1,.66,1.9v0l-24.83,56.17A.37.37,0,0,1,359,201.72Z" transform="translate(-66.24)"/>
              <path class="cls-20" d="M393.75,178.77H376a.76.76,0,0,1-.76-.76v-3.28A.76.76,0,0,1,376,174h17.76a.76.76,0,0,1,.76.76V178A.76.76,0,0,1,393.75,178.77ZM376,174.62a.11.11,0,0,0-.11.11h0V178a.11.11,0,0,0,.11.11h17.76a.11.11,0,0,0,.12-.11v-3.29a.11.11,0,0,0-.12-.11Z" transform="translate(-66.24)"/>
              <g>
                <path class="cls-20" d="M331.24,121.67H320.18l32.06,96.81,21.95-95.92-11.45-1L353.08,135Z" transform="translate(-66.24)"/>
                <g>
                  <g>
                    <path class="cls-16" d="M344.89,146,340,181.88l12.28,38,8.33-38-5.15-35.55Z" transform="translate(-66.24)"/>
                    <path class="cls-31" d="M344.51,133.72l-2.41,10.43a2,2,0,0,0,.47,1.85l6.63,7.35a2.07,2.07,0,0,0,2.92.15,2.43,2.43,0,0,0,.26-.29l5.93-7.82a2.09,2.09,0,0,0,.38-1.64L356.8,134a2.07,2.07,0,0,0-2-1.67l-8.25-.16A2,2,0,0,0,344.51,133.72Z" transform="translate(-66.24)"/>
                    <path class="cls-16" d="M344.51,131.67,342.1,142.1a2,2,0,0,0,.47,1.85l6.63,7.35a2.07,2.07,0,0,0,2.92.15,3.45,3.45,0,0,0,.26-.28l5.93-7.83a2.09,2.09,0,0,0,.38-1.64l-1.89-9.79a2.07,2.07,0,0,0-2-1.67l-8.25-.16A2.06,2.06,0,0,0,344.51,131.67Z" transform="translate(-66.24)"/>
                  </g>
                  <path class="cls-12" d="M336.65,145.11a.62.62,0,0,1-.19,0,.88.88,0,0,1-.58-.41l-11.05-18.57a.31.31,0,0,1,.11-.44.32.32,0,0,1,.44.11l11.05,18.56a.26.26,0,0,0,.17.12.28.28,0,0,0,.2,0l4.94-3.5a.32.32,0,1,1,.38.52L337.17,145A.87.87,0,0,1,336.65,145.11Z" transform="translate(-66.24)"/>
                  <path class="cls-12" d="M363.63,143.49a.87.87,0,0,1-.57-.22L358.31,139a.33.33,0,0,1,0-.45.32.32,0,0,1,.46,0l4.75,4.24a.21.21,0,0,0,.2.05.24.24,0,0,0,.15-.13l5.86-16.53a.33.33,0,0,1,.42-.19.32.32,0,0,1,.19.41l-5.87,16.52a.86.86,0,0,1-.59.55Z" transform="translate(-66.24)"/>
                </g>
              </g>
            </g>
            <g>
              <path class="cls-13" d="M426.62,197.56l-23.14-80.27L383.16,121l4.35,67.33c1.28,8.34,12.3,17.06,20.55,15.29l10.88-2.33" transform="translate(-66.24)"/>
              <path class="cls-12" d="M428.21,196.88l-23.14-80.27-21.29,3.71,8.3,70.52a14.68,14.68,0,0,0,16.74,12.28q.42-.06.84-.15l10.87-2.34" transform="translate(-66.24)"/>
              <path class="cls-30" d="M380,96.26a19.51,19.51,0,0,0-12.78,3,3,3,0,0,0-.69.53c-1.24,1.9.36,5.14,2.62,5,.65-.05,6.1-3.27,6.1-3.27a11.56,11.56,0,0,0-5.36,3.81,5.37,5.37,0,0,0,.26,6.21l.51.67.16-.29a8.68,8.68,0,0,1,4.52-3.9l2.21-.84s-7.6,2.87-6.78,6.79,2.47,3.3,2.47,3.3,2.68-3.86,6.59-3.67c0,0-10.45,3.18-7.15,8.63,2.64,4.34,10.19,3.48,13.14,3a1.35,1.35,0,0,0,1.11-1.43h0a2.14,2.14,0,0,0-1.2-1.79L382,120.14l10.69,2.29a8.92,8.92,0,0,0,9.35-3.84l1.87-2.87-2.83-7.12a18.74,18.74,0,0,0-15.37-11.69Z" transform="translate(-66.24)"/>
              <path class="cls-27" d="M381.14,97.17a19.53,19.53,0,0,0-12.78,3,3.47,3.47,0,0,0-.69.52c-1.24,1.9.37,5.15,2.63,5,.64,0,6.09-3.28,6.09-3.28a11.61,11.61,0,0,0-5.36,3.82,5.37,5.37,0,0,0,.27,6.21l.5.67.17-.29a8.7,8.7,0,0,1,4.52-3.91l2.2-.83s-7.59,2.87-6.78,6.79,2.48,3.3,2.48,3.3,2.67-3.86,6.59-3.67c0,0-10.46,3.17-7.15,8.62,2.63,4.35,10.18,3.49,13.13,3a1.35,1.35,0,0,0,1.12-1.43h0a2.2,2.2,0,0,0-1.21-1.8l-3.7-1.81,10.68,2.29a8.93,8.93,0,0,0,9.35-3.84l1.88-2.87-2.84-7.12a18.72,18.72,0,0,0-15.37-11.69Z" transform="translate(-66.24)"/>
              <path class="cls-32" d="M383.1,114.79a7.5,7.5,0,0,0-2.41,0,9,9,0,0,0-2.33.73,10.13,10.13,0,0,0-1.07.6c-.17.12-.35.22-.51.35l-.48.38c-.17.13-.32.26-.47.4l-.44.43c-.29.3-.55.62-.83.92l0,0a.38.38,0,0,1-.56-.51h0c.3-.32.58-.65.88-1l.49-.45a6.4,6.4,0,0,1,.49-.42l.52-.4c.18-.13.37-.24.55-.36a10.82,10.82,0,0,1,1.15-.64,9.72,9.72,0,0,1,2.52-.74,7.61,7.61,0,0,1,2.65,0,.3.3,0,0,1,.22.35.28.28,0,0,1-.33.22h0Z" transform="translate(-66.24)"/>
              <path class="cls-32" d="M379.64,108.14a7.41,7.41,0,0,0-2.37.57,9,9,0,0,0-2.11,1.27,10.06,10.06,0,0,0-.89.84c-.14.16-.29.3-.42.46l-.38.49c-.12.16-.24.32-.35.5l-.33.52c-.21.35-.39.72-.59,1.09l0,0a.39.39,0,0,1-.51.16.38.38,0,0,1-.15-.51h0c.22-.38.42-.76.65-1.13l.38-.54a5.17,5.17,0,0,1,.39-.53l.42-.5c.14-.16.3-.31.46-.47a8.8,8.8,0,0,1,3.25-2.14,7.57,7.57,0,0,1,2.57-.54.22.22,0,0,1,.23.22.23.23,0,0,1-.21.23Z" transform="translate(-66.24)"/>
              <path class="cls-32" d="M378.42,102.42a7,7,0,0,0-2.41.39,9.18,9.18,0,0,0-2.19,1.1,9.07,9.07,0,0,0-1,.78c-.15.14-.31.27-.45.42l-.42.46a4.54,4.54,0,0,0-.39.48l-.37.49c-.23.34-.45.69-.67,1l0,0a.36.36,0,0,1-.51.12.37.37,0,0,1-.12-.52h0l.73-1.08.42-.51a4.87,4.87,0,0,1,.43-.49l.45-.47.49-.43c.34-.29.69-.55,1.05-.8a9.65,9.65,0,0,1,2.37-1.1,7.63,7.63,0,0,1,2.6-.34.22.22,0,1,1,0,.44h0Z" transform="translate(-66.24)"/>
            </g>
            <g>
              <g>
                <path class="cls-27" d="M347,217.14l11.4-2a6.13,6.13,0,0,1,5.52,1.8l8.41,8.77a4.29,4.29,0,0,1-.13,6.06l-.16.15-1.93,1.67-3.58-7.2,5.11,10.27a1.88,1.88,0,0,1-.84,2.52,1.69,1.69,0,0,1-.58.17h0a3.27,3.27,0,0,1-3-1.15L359.51,229l7.3,11.58a1.12,1.12,0,0,1-.34,1.54,1.13,1.13,0,0,1-.82.15h0a16.29,16.29,0,0,1-9.34-5.6l-2.07-2.5a18.36,18.36,0,0,1-16.55,5.38S326,225.4,347,217.14Z" transform="translate(-66.24)"/>
                <g>
                  <path class="cls-29" d="M370.66,233.09a.49.49,0,0,0,0-.52l-4-7.32a.5.5,0,1,0-.87.48l4,7.32a.48.48,0,0,0,.67.19h0A.57.57,0,0,0,370.66,233.09Z" transform="translate(-66.24)"/>
                  <path class="cls-29" d="M361.51,229.14a.51.51,0,0,0,0-.59.49.49,0,0,0-.69-.1h0l-1.7,1.31a.5.5,0,0,0,.61.78h0c.89-.69,1.69-1.29,1.69-1.29A.57.57,0,0,0,361.51,229.14Z" transform="translate(-66.24)"/>
                  <path class="cls-29" d="M367.16,224.93a.5.5,0,0,0-.7-.69h0l-1.7,1.3a.5.5,0,0,0-.08.7h0a.5.5,0,0,0,.69.09h0l1.68-1.29A.47.47,0,0,0,367.16,224.93Z" transform="translate(-66.24)"/>
                  <path class="cls-29" d="M355.21,234.62a.51.51,0,0,0,0-.61,7.37,7.37,0,0,1-.92-1.55.5.5,0,0,0-.66-.26.49.49,0,0,0-.26.65,8,8,0,0,0,1.08,1.8.49.49,0,0,0,.7,0A.3.3,0,0,0,355.21,234.62Z" transform="translate(-66.24)"/>
                </g>
              </g>
              <path class="cls-33" d="M311,205.1l-15.45,4.84,13.79,1.22" transform="translate(-66.24)"/>
              <path class="cls-13" d="M320.11,171.87l-4.4,35,36.45,9.32-43-5.15Z" transform="translate(-66.24)"/>
            </g>
          </g>
          <g>
            <path class="cls-26" d="M465.27,176H396.49a5.47,5.47,0,0,0-5.27,4L375.37,237H329.29a1,1,0,0,0-1.05,1,1,1,0,0,0,.17.58l3.64,5.42H452l18.54-61a5.5,5.5,0,0,0-5.28-7.06Z" transform="translate(-66.24)"/>
            <path class="cls-25" d="M457.92,244.2h-78.6l17.81-64.11a5.46,5.46,0,0,1,5.27-4h68.79a5.49,5.49,0,0,1,5.5,5.47,5.37,5.37,0,0,1-.23,1.59Z" transform="translate(-66.24)"/>
            <path class="cls-12" d="M429.13,206.93a5.68,5.68,0,0,1,5.69,5.65v1.09a5.69,5.69,0,0,1-5.69,5.65H428a5.67,5.67,0,0,1-5.68-5.65v-1.09a5.66,5.66,0,0,1,5.68-5.65h1.1m0-1.44H428a7.12,7.12,0,0,0-7.13,7.08v1.09a7.12,7.12,0,0,0,7.13,7.08h1.1a7.12,7.12,0,0,0,7.13-7.08v-1.09A7.12,7.12,0,0,0,429.13,205.49Z" transform="translate(-66.24)"/>
            <path class="cls-34" d="M429,210.51a2.55,2.55,0,0,1,2.55,2.54v.49a2.54,2.54,0,0,1-2.55,2.53h-.49a2.53,2.53,0,0,1-2.55-2.53v-.49a2.54,2.54,0,0,1,2.55-2.54H429m0-.65h-.49A3.21,3.21,0,0,0,425.3,213v.49a3.2,3.2,0,0,0,3.21,3.18H429a3.21,3.21,0,0,0,3.21-3.18V213A3.21,3.21,0,0,0,429,209.86Z" transform="translate(-66.24)"/>
          </g>
        </g>
        <g>
          <path class="cls-12" d="M160.13,72a4,4,0,1,1,4-4h0A4,4,0,0,1,160.13,72Zm0-7.28a3.32,3.32,0,1,0,3.32,3.32,3.32,3.32,0,0,0-3.32-3.32Z" transform="translate(-66.24)"/>
          <path class="cls-12" d="M160.13,68.37a.29.29,0,0,1-.23-.1l-25.59-25.6H87.38a.32.32,0,0,1,0-.64h47.2l25.78,25.79a.34.34,0,0,1,0,.46h0A.35.35,0,0,1,160.13,68.37Z" transform="translate(-66.24)"/>
          <g>
            <path class="cls-12" d="M107.91,49.43H88.23a.33.33,0,0,1,0-.65h19.68a.33.33,0,0,1,0,.65Z" transform="translate(-66.24)"/>
            <path class="cls-12" d="M133.91,49.43H114.23a.33.33,0,0,1,0-.65h19.68a.33.33,0,0,1,0,.65Z" transform="translate(-66.24)"/>
            <g>
              <path class="cls-12" d="M107.91,63.57H88.23a.32.32,0,1,1,0-.64h19.68a.32.32,0,0,1,0,.64Z" transform="translate(-66.24)"/>
              <path class="cls-12" d="M133.91,63.57H114.23a.32.32,0,1,1,0-.64h19.68a.32.32,0,1,1,0,.64Z" transform="translate(-66.24)"/>
            </g>
            <g>
              <path class="cls-12" d="M119.45,56.8H88.23a.32.32,0,1,1,0-.64h31.22a.32.32,0,0,1,.32.32A.32.32,0,0,1,119.45,56.8Z" transform="translate(-66.24)"/>
              <path class="cls-12" d="M133.91,56.8H123a.32.32,0,1,1,0-.64h10.87a.32.32,0,1,1,0,.64Z" transform="translate(-66.24)"/>
              <path class="cls-12" d="M99.29,71H88.42a.33.33,0,1,1,0-.65H99.29a.33.33,0,0,1,0,.65Z" transform="translate(-66.24)"/>
            </g>
          </g>
        </g>
        <g>
          <path class="cls-12" d="M144.47,191.67a3.25,3.25,0,1,1,3.25-3.25A3.26,3.26,0,0,1,144.47,191.67Zm0-5.84a2.6,2.6,0,1,0,2.6,2.6A2.59,2.59,0,0,0,144.47,185.83Z" transform="translate(-66.24)"/>
          <path class="cls-12" d="M144.47,188.74a.32.32,0,0,1-.24-.11l-20.55-23.94H86a.32.32,0,0,1-.32-.32.32.32,0,0,1,.32-.32h38l.1.11,20.64,24.05a.31.31,0,0,1,0,.45h0A.34.34,0,0,1,144.47,188.74Z" transform="translate(-66.24)"/>
          <g>
            <path class="cls-12" d="M102.51,170.12H86.7a.33.33,0,0,1,0-.65h15.82a.33.33,0,0,1,0,.65Z" transform="translate(-66.24)"/>
            <path class="cls-12" d="M123.4,170.12H107.59a.33.33,0,0,1,0-.65H123.4a.33.33,0,0,1,0,.65Z" transform="translate(-66.24)"/>
            <g>
              <path class="cls-12" d="M102.51,181.48H86.7a.33.33,0,0,1,0-.65h15.82a.33.33,0,0,1,0,.65Z" transform="translate(-66.24)"/>
              <path class="cls-12" d="M123.4,181.48H107.59a.33.33,0,0,1,0-.65H123.4a.32.32,0,0,1,.32.32.32.32,0,0,1-.32.33Z" transform="translate(-66.24)"/>
            </g>
            <g>
              <path class="cls-12" d="M111.78,176H86.7a.32.32,0,1,1,0-.64h25.1a.32.32,0,0,1,.32.32A.33.33,0,0,1,111.78,176Z" transform="translate(-66.24)"/>
              <path class="cls-12" d="M123.4,176h-8.73a.32.32,0,0,1-.33-.32.32.32,0,0,1,.32-.32h8.74a.32.32,0,0,1,0,.64Z" transform="translate(-66.24)"/>
              <path class="cls-12" d="M95.59,187.41H86.85a.32.32,0,0,1,0-.64h8.74a.32.32,0,0,1,.32.32A.33.33,0,0,1,95.59,187.41Z" transform="translate(-66.24)"/>
            </g>
          </g>
        </g>
        <g>
          <g>
            <path class="cls-13" d="M412,185.77a4,4,0,1,1,4-4h0A4,4,0,0,1,412,185.77Zm0-7.27a3.32,3.32,0,1,0,3.32,3.32h0A3.33,3.33,0,0,0,412,178.5Z" transform="translate(-66.24)"/>
            <path class="cls-13" d="M411.73,182.13h-.06a.32.32,0,0,1-.25-.38l13.68-76.18,59.64-.4h0a.32.32,0,0,1,.32.32h0a.32.32,0,0,1-.32.32h0l-59.1.4-13.59,75.66A.32.32,0,0,1,411.73,182.13Z" transform="translate(-66.24)"/>
          </g>
          <g>
            <g>
              <path class="cls-13" d="M478.74,113.67H459.06a.32.32,0,1,1,0-.64h19.67a.32.32,0,1,1,0,.64Z" transform="translate(-66.24)"/>
              <path class="cls-13" d="M452.74,113.67H433.06a.32.32,0,1,1,0-.64h19.68a.32.32,0,0,1,.32.32h0a.32.32,0,0,1-.32.32Z" transform="translate(-66.24)"/>
            </g>
            <g>
              <path class="cls-13" d="M478.74,126.32H459.06a.33.33,0,1,1,0-.65h19.67a.33.33,0,0,1,.33.33h0A.33.33,0,0,1,478.74,126.32Z" transform="translate(-66.24)"/>
              <path class="cls-13" d="M452.74,126.32H433.06a.33.33,0,0,1,0-.65h19.68a.32.32,0,0,1,.32.33h0A.33.33,0,0,1,452.74,126.32Z" transform="translate(-66.24)"/>
            </g>
            <g>
              <path class="cls-13" d="M478.74,120.26H447.52a.32.32,0,1,1,0-.64h31.22a.32.32,0,1,1,0,.64Z" transform="translate(-66.24)"/>
              <path class="cls-13" d="M443.93,120.26H433.06a.32.32,0,1,1,0-.64h10.87a.32.32,0,1,1,0,.64Z" transform="translate(-66.24)"/>
            </g>
          </g>
          <g>
            <g>
              <path class="cls-13" d="M478.74,132.37H459.06a.33.33,0,0,1,0-.65h19.67a.33.33,0,0,1,.33.33h0A.33.33,0,0,1,478.74,132.37Z" transform="translate(-66.24)"/>
              <path class="cls-13" d="M452.74,132.37H433.06a.33.33,0,0,1,0-.65h19.68a.32.32,0,0,1,.32.33h0A.34.34,0,0,1,452.74,132.37Z" transform="translate(-66.24)"/>
            </g>
            <g>
              <path class="cls-13" d="M478.74,145H459.06a.33.33,0,0,1-.32-.33.32.32,0,0,1,.32-.32h19.67a.32.32,0,0,1,.33.32.33.33,0,0,1-.32.33h0Z" transform="translate(-66.24)"/>
              <path class="cls-13" d="M452.74,145H433.06a.33.33,0,0,1-.32-.33.32.32,0,0,1,.32-.32h19.68a.32.32,0,0,1,.32.32h0a.32.32,0,0,1-.32.33Z" transform="translate(-66.24)"/>
            </g>
            <g>
              <path class="cls-13" d="M478.74,139H447.52a.33.33,0,0,1,0-.65h31.22a.33.33,0,0,1,.32.32.32.32,0,0,1-.32.33Z" transform="translate(-66.24)"/>
              <path class="cls-13" d="M443.93,139H433.06a.33.33,0,0,1,0-.65h10.87a.33.33,0,0,1,.32.33A.34.34,0,0,1,443.93,139Z" transform="translate(-66.24)"/>
              <path class="cls-13" d="M478.55,151.6H467.68a.33.33,0,0,1,0-.65h10.87a.33.33,0,0,1,.32.33A.34.34,0,0,1,478.55,151.6Z" transform="translate(-66.24)"/>
            </g>
          </g>
        </g>
      </g>
    </g>
  </g>
</svg>
