<svg id="Layer_1" data-name="Layer 1" xmlns="http://www.w3.org/2000/svg" viewBox="0 0 432.2 250">
  <defs>
    <style>
      .cls-1 {
        fill: #f1c36b;
      }

      .cls-2 {
        fill: #f9ddbf;
      }

      .cls-3 {
        fill: #edc5a2;
      }

      .cls-4 {
        fill: #f77d48;
      }

      .cls-5 {
        fill: #739af0;
      }

      .cls-6 {
        fill: #603e26;
      }

      .cls-7 {
        fill: #ce9a74;
      }

      .cls-8 {
        fill: #dda783;
      }

      .cls-9 {
        fill: #c18b67;
      }

      .cls-10 {
        fill: #af7954;
      }

      .cls-11 {
        fill: #845636;
      }

      .cls-12 {
        fill: #2c3a64;
      }

      .cls-13 {
        fill: #ed7d2b;
      }

      .cls-14 {
        fill: #f99746;
      }

      .cls-15 {
        fill: #2b478b;
      }

      .cls-16 {
        fill: #ffb27d;
      }

      .cls-17 {
        fill: #152949;
      }

      .cls-18 {
        fill: #ed985f;
      }

      .cls-19 {
        fill: #fff;
      }

      .cls-20 {
        fill: #afcdfb;
      }

      .cls-21 {
        fill: #9db0f4;
      }

      .cls-22 {
        fill: #1e4d7c;
      }

      .cls-23 {
        fill: #fca56b;
      }

      .cls-24 {
        fill: #163560;
      }

      .cls-25 {
        opacity: 0.2;
      }

      .cls-26 {
        fill: #b3cff9;
      }

      .cls-27 {
        fill: #1f4d84;
      }

      .cls-28 {
        fill: #ffc49c;
      }

      .cls-29 {
        fill: #233862;
      }

      .cls-30 {
        fill: #ed975d;
      }

      .cls-31 {
        fill: #aec3ff;
      }

      .cls-32 {
        fill: #ef8035;
      }

      .cls-33 {
        fill: #92adea;
      }

      .cls-34 {
        fill: #e8b56b;
      }

      .cls-35 {
        fill: #182442;
      }

      .cls-36 {
        fill: #2a3f72;
      }

      .cls-37 {
        fill: #e5b691;
      }

      .cls-38 {
        fill: #f2caaa;
      }

      .cls-39 {
        fill: #d8a987;
      }
    </style>
  </defs>
  <g>
    <path class="cls-1" d="M474.4,237.07c-1.1,2-2.21,3.82-3.25,5.37a70.69,70.69,0,0,1-5.62,7.29H398.22c-28.66,0-63.76,0-100.24,0H259.66c-96.58,0-190.56-.18-190.67-.48l0-.08a.36.36,0,0,1,0-.11c-.14-.29-57.14-84.11,31.47-142.45,34.68-22.83-2.17-37.9,25.41-63.32,31.68-29.2,66.26,3.11,101.5-10.14A56.93,56.93,0,0,0,246,21.25a68.46,68.46,0,0,1,11.51-8.53l1.92-1.11a81.06,81.06,0,0,1,7.68-3.72q2.65-1.12,5.42-2.07,4.38-1.52,9-2.62A114.86,114.86,0,0,1,294.94.85q3-.34,6-.55c39.37-2.64,83.68,12.24,106.54,34,4.61,4.38,25.54,27,9,58.18-10.42,19.65,33.22,38.43,48.73,60.89C491.55,191.37,483.08,221.19,474.4,237.07Z" transform="translate(-50.75)"/>
    <path class="cls-2" d="M150.11,249s12.16-12,13.33-12.84,14.1-1.46,15-2.18,6.52-10.58,9.58-11.08,79.77,1.6,84,2.63c10.49,2.58.41,13.42.5,15.75.16,4.31,13,3.36,13.31,8Z" transform="translate(-50.75)"/>
    <path class="cls-3" d="M445.21,249.58H424l-4.2-16,6.8-36,8.61.23,6.14,10.48s.27,15.87,0,20h0a3.91,3.91,0,0,1-.13.9c-.46,1.08,3.1,12.51,3.46,13.76C444.85,243.47,445,246.31,445.21,249.58Z" transform="translate(-50.75)"/>
    <path class="cls-2" d="M423.86,244.15a26.15,26.15,0,0,0,.71,5.43H372.46l6.15-22.67c.87-3.22,8.12-23,9.66-23.31s38.36-6,38.36-6c-.06,3.79,4.63,31,4,33.06S424.22,242,423.86,244.15Z" transform="translate(-50.75)"/>
    <path class="cls-3" d="M419.42,249.58H396.6c2.65-2.81,6.66-6.6,9.3-7,4.25-.67,9.61,2.68,11,2.68C417.78,245.25,418.85,247.93,419.42,249.58Z" transform="translate(-50.75)"/>
    <path class="cls-3" d="M471.66,244.65l.1-9.37a4.59,4.59,0,0,0-1.85-3.74c-2.54-1.89-6.88-5.06-7.7-5.34s-7.89-1.06-13.13-1.64a4.6,4.6,0,0,0-5.06,4.07,5,5,0,0,0,0,1l.83,8.48a4.57,4.57,0,0,0,.56,1.79l4.16,7.42a4.57,4.57,0,0,0,4.14,2.35l13.5-.43A4.59,4.59,0,0,0,471.66,244.65Z" transform="translate(-50.75)"/>
    <path class="cls-2" d="M463.75,242.2l0,2.72a4.59,4.59,0,0,1-4.12,4.5h0a3,3,0,0,1-.31,0l-14.06.49,0-.37H433.45a4.56,4.56,0,0,1-2.14-3.32c-.43-3.49-.91-8-.59-8.78s6-5.68,10.65-9.16h0c2.83-2.11,5.29-3.72,6-3.61a39.92,39.92,0,0,1,10,4.13c1.19.87,3.57,5.8,5.07,9.44A20.73,20.73,0,0,1,463.75,242.2Z" transform="translate(-50.75)"/>
    <path class="cls-4" d="M148.48,81.39h27.1c0-.13,0-.27,0-.41s0-.23,0-.34H148.42Z" transform="translate(-50.75)"/>
    <path class="cls-4" d="M173.94,85.76c-.16.26-.34.5-.52.75H150.65c-.18-.25-.36-.5-.52-.75Z" transform="translate(-50.75)"/>
    <path class="cls-4" d="M174.56,76.15H149.51a7.17,7.17,0,0,1,.46-.75H174.1C174.26,75.64,174.42,75.89,174.56,76.15Z" transform="translate(-50.75)"/>
    <path class="cls-4" d="M157.11,92.38H167l1-.75H156.08Z" transform="translate(-50.75)"/>
    <path class="cls-4" d="M170.17,71.53H153.91c.34-.26.7-.5,1.07-.75H169.1Z" transform="translate(-50.75)"/>
    <rect class="cls-5" x="97.6" y="50.61" width="27.38" height="0.75"/>
    <rect class="cls-5" x="97.6" y="55.73" width="27.38" height="0.75"/>
    <path class="cls-5" d="M175.52,46.11h-27c.13-.25.25-.5.4-.74h26.18A7.39,7.39,0,0,1,175.52,46.11Z" transform="translate(-50.75)"/>
    <path class="cls-5" d="M173.89,61.6c-.24.26-.5.51-.76.75H150.94c-.27-.25-.52-.5-.76-.75Z" transform="translate(-50.75)"/>
    <path class="cls-5" d="M171.91,41.5h-19.7c.3-.26.62-.51.95-.75H171A12.07,12.07,0,0,1,171.91,41.5Z" transform="translate(-50.75)"/>
    <path class="cls-4" d="M152.23,76.15a6.46,6.46,0,0,0-1.52,4.49,1,1,0,0,0,0,.17c0,.19,0,.39.07.59A9.31,9.31,0,0,0,153,85.77c.21.25.43.5.67.75A39.42,39.42,0,0,0,160,91.63l1.1.75.85.58L162,93l2,1.37a50.47,50.47,0,0,1,6.66,5.28l.74.74a19.73,19.73,0,0,1,2.92,3.88c.14.25.27.5.4.75a13.56,13.56,0,0,1,1.42,5.37l-2.28.11a1.94,1.94,0,0,0,0-.24,6.36,6.36,0,0,0-.08-.75,11.9,11.9,0,0,0-1.63-4.5,8.48,8.48,0,0,0-.48-.74,21.81,21.81,0,0,0-3.49-3.88l-.87-.75c-1.64-1.37-3.46-2.66-5.3-3.92l-1.41-1L160,94.4c-1-.67-2-1.34-2.91-2l-1-.75a26.37,26.37,0,0,1-5.43-5.12,9,9,0,0,1-.52-.74,10.35,10.35,0,0,1-1.65-4.37c0-.14,0-.27,0-.41s0-.23,0-.34A8.72,8.72,0,0,1,150,75.41a16.23,16.23,0,0,1,3.93-3.87L155,70.8c1.45-1,3-1.88,4.67-2.77L162,66.74h0a67.77,67.77,0,0,0,7.51-4.38c.34-.24.67-.49,1-.74,1.92-1.54,3.31-3.21,3.7-5.12l.06-.3.06-.45a19.39,19.39,0,0,0,.16-4.37c0-.26,0-.51-.07-.75a11.46,11.46,0,0,0-1.53-4.5,7.38,7.38,0,0,0-.5-.74A14.48,14.48,0,0,0,168,41.52c-.43-.25-.88-.5-1.34-.74a41.37,41.37,0,0,0-4.63-2l-1.63-.6c-.51-.18-1-.37-1.46-.58h0A16.63,16.63,0,0,1,152.2,32q-.27-.37-.51-.75a21.51,21.51,0,0,1-2.33-5.12c-.08-.26-.15-.51-.22-.75a20.65,20.65,0,0,1-.72-4.13l2.28-.11a19.14,19.14,0,0,0,.81,4.24c.07.25.16.5.24.75a17.89,17.89,0,0,0,2.72,5.12c.2.25.4.5.62.75A14.35,14.35,0,0,0,161.16,36l.86.31c1.11.41,2.13.8,3.09,1.22A28.68,28.68,0,0,1,171,40.79c.33.24.64.5.94.75a14.9,14.9,0,0,1,1.7,1.67,12.91,12.91,0,0,1,1.53,2.2c.14.24.27.49.39.74,1.34,2.83,1.66,6.21,1,10.41a9.47,9.47,0,0,1-2.66,5.08c-.24.25-.5.51-.76.75a42.3,42.3,0,0,1-8.7,5.66l-1.31.69-1.08.58c-.94.5-1.85,1-2.75,1.5l-1.29.74a23.6,23.6,0,0,0-5.13,3.87A6.3,6.3,0,0,0,152.23,76.15Z" transform="translate(-50.75)"/>
    <path class="cls-5" d="M175.65,80.64l0,.34a3,3,0,0,1,0,.41,10.46,10.46,0,0,1-1.64,4.38c-.16.25-.34.5-.52.74A26.37,26.37,0,0,1,168,91.63c-.33.25-.67.5-1,.75-.94.67-1.93,1.35-2.92,2l-.6.41-1.41,1c-1.84,1.26-3.66,2.55-5.31,3.92l-.86.75a21.8,21.8,0,0,0-3.5,3.87c-.17.25-.32.5-.48.75a12,12,0,0,0-1.63,4.5c0,.24-.06.49-.08.74,0,.09,0,.16,0,.25l-2.28-.12a13.56,13.56,0,0,1,1.42-5.37c.12-.26.25-.5.39-.75a20.16,20.16,0,0,1,2.92-3.87l.75-.75A51.31,51.31,0,0,1,160,94.4c.67-.47,1.34-.92,2-1.37l.11-.08.86-.58,1.09-.75a40.5,40.5,0,0,0,6.35-5.11q.34-.37.66-.75a9.31,9.31,0,0,0,2.17-4.37c0-.2.06-.4.07-.6v-.16a6.5,6.5,0,0,0-1.51-4.49c-.21-.26-.42-.51-.65-.75a23.18,23.18,0,0,0-5.12-3.86l-1.3-.75c-.89-.5-1.81-1-2.74-1.49l-1.09-.58L159.62,68a42.18,42.18,0,0,1-8.7-5.67c-.27-.24-.52-.49-.76-.74a9.57,9.57,0,0,1-2.66-5.08c-.65-4.31-.25-7.68,1.05-10.41q.18-.37.39-.75a14,14,0,0,1,3.25-3.86c.31-.26.62-.5.95-.75a29.76,29.76,0,0,1,5.79-3.21h0c1-.42,2-.83,3.08-1.22l.86-.31a14.22,14.22,0,0,0,6-4.06c.22-.25.42-.5.62-.75a18.17,18.17,0,0,0,2.73-5.12q.13-.39.24-.75a19,19,0,0,0,.84-4.23l2.28.1a20.65,20.65,0,0,1-.72,4.13c-.07.25-.14.5-.22.75a21,21,0,0,1-2.33,5.12c-.16.25-.32.5-.5.75a16.51,16.51,0,0,1-6.74,5.59c-.46.21-.95.41-1.46.59s-1.1.39-1.62.59a43.92,43.92,0,0,0-4.54,2c-.47.25-.91.5-1.33.75a15.85,15.85,0,0,0-4.53,3.86c-.19.25-.36.5-.53.75a10.61,10.61,0,0,0-1.55,4.5c0,.24-.06.49-.07.74a21.28,21.28,0,0,0,.22,4.37c0,.16.05.31.07.46a2.5,2.5,0,0,0,.05.29c.4,1.92,1.79,3.59,3.7,5.13.32.25.66.5,1,.74a67.64,67.64,0,0,0,7.5,4.38h0c.81.43,1.6.85,2.39,1.29,1.63.88,3.22,1.8,4.67,2.77l1.07.75a16.19,16.19,0,0,1,3.93,3.86c.16.24.33.5.47.75a8.2,8.2,0,0,1,1.11,4.49Z" transform="translate(-50.75)"/>
    <rect class="cls-5" x="97.6" y="109.55" width="27.38" height="0.75"/>
    <path class="cls-5" d="M174.76,105.06H149.31c.12-.26.26-.5.4-.75h24.65C174.5,104.56,174.64,104.81,174.76,105.06Z" transform="translate(-50.75)"/>
    <path class="cls-5" d="M171.44,100.44H152.62l.75-.75H170.7C171,99.93,171.2,100.18,171.44,100.44Z" transform="translate(-50.75)"/>
    <path class="cls-5" d="M174.91,25.32c-.07.24-.14.5-.22.75H149.38c-.09-.26-.15-.51-.22-.75Z" transform="translate(-50.75)"/>
    <path class="cls-5" d="M172.36,31.19a9,9,0,0,1-.51.75H152.22q-.27-.37-.51-.75Z" transform="translate(-50.75)"/>
    <path class="cls-6" d="M197.51,173.33l-9.69,13,1,5.34,8.48,15.87,69.08.2,4.54-29s2.48-16.51,22.18-20.41c11.54-2.29-45.85-10.58-45.85-10.58Z" transform="translate(-50.75)"/>
    <path class="cls-7" d="M319.58,164.07c-6.76,2.86-10.82-4-26.49-5.71-5.49-.58-14.59-.27-26.31,7.84h0c-10.56,7.28-31.73-34.7-42.33-57.73-3.88-8.44-6.34-14.33-6.34-14.33h0a10.34,10.34,0,0,0,1.45-.5c2.44-1,8.05-3.74,18-11.08,7-5.15,16.35-12.11,28.31-14.91a46.45,46.45,0,0,1,13.19-1.17c9.25.49,19.7,3.8,31.41,11.72a55.54,55.54,0,0,1,12.82,12C343.73,116.49,337.39,156.55,319.58,164.07Z" transform="translate(-50.75)"/>
    <path class="cls-8" d="M313.09,144.84c-3.31,6.55-10.82-1.23-17.64,3.74-5.1,3.7-18.72,9.13-28.67,17.62h0a37,37,0,0,0-8.39,9.79c-4.06,7.21,1,14.57-1.79,17.32-9.68,9.47-35.61-6.53-68.77-6.94-3.54-.05-.12-11.83,10.3-22.58,7.39-7.62,6.7-8.34,5.05-11.41-5.42-10.11-11.37-16.18-4-24.83s7.67-15.78,6.23-22.32a4.18,4.18,0,0,1,.37-2.76c1.58-3.32,6.94-6.35,12.36-8.32q.74-.27,1.47-.51a35.3,35.3,0,0,1,8.11-1.77c7.6-.53,21.14,1.66,30,2.35s12.54,15,20.83,23.46h0c8.28,8.49-.35,15.08,3.72,20.24s18-1.74,24.06-3.51S316.4,138.28,313.09,144.84Z" transform="translate(-50.75)"/>
    <path class="cls-6" d="M225.32,134.78c-2.33.45-1.87,11.6-5.68,16.9-6.17,8.61-4.32,12.69-.73,11.13,4.37-1.89,5.52,3.76,8.85,3.22C237.54,164.42,235.68,132.79,225.32,134.78Z" transform="translate(-50.75)"/>
    <path class="cls-9" d="M267,171.74s-3.54,21.64-6,29-66.89-2.94-72.16-2.59c-.9.05,1.91,7.49-.23,14.63-2.69,9,2.08,13.68,8.53,14.62,11.43,1.66,40.62,8,51.94,4.07s23.41-1.15,26.54-5.38,10-39.76,19.9-49.62,10.11-12.68,5.68-14.09-6.27-1.85-8.53,1.89-6.13,6.47-6.44,3.23-4.47-2.77-7.61-2.65C268.1,165.28,267,171.74,267,171.74Z" transform="translate(-50.75)"/>
    <path class="cls-10" d="M186.73,189.36s.78,11.06,4.39,11.34,3.44-5.59,2.8-7.64-.4-2.34-2.48-2.76S186.63,188.26,186.73,189.36Z" transform="translate(-50.75)"/>
    <path class="cls-10" d="M194.37,191.52s-.49,8.35,1.42,9.55,4.15,1,4.47-.17,1.91-7.87.89-8.37S195,190.48,194.37,191.52Z" transform="translate(-50.75)"/>
    <path class="cls-10" d="M202.05,193.05s-.48,8.35,1.42,9.56,4.15,1,4.47-.18,1.91-7.86.89-8.37S202.64,192,202.05,193.05Z" transform="translate(-50.75)"/>
    <path class="cls-10" d="M221.91,196.86s-.47,8.17,1.43,9.35,4.15,1,4.48-.16,1.89-7.69.87-8.18S222.5,195.85,221.91,196.86Z" transform="translate(-50.75)"/>
    <path class="cls-10" d="M230.62,198.28s-.41,7.55,1.5,8.66,4.15.95,4.47-.13,1.84-7.1.83-7.57S231.22,197.35,230.62,198.28Z" transform="translate(-50.75)"/>
    <path class="cls-10" d="M238.74,200.68s1,7.5,4.35,8.15,7,0,7.31-1.15,1.47-7.39-.31-7.61S239.5,199.63,238.74,200.68Z" transform="translate(-50.75)"/>
    <path class="cls-10" d="M210.45,196.86s-.58,10.39,1.9,11.91,5.4,1.29,5.82-.2,2.45-9.78,1.13-10.41S211.23,195.57,210.45,196.86Z" transform="translate(-50.75)"/>
    <path class="cls-7" d="M196.32,192.23s2.42-9.5,6.55-10.3,4.67,3.57,3.66,7.9-.31,5.33-3.11,4.88S196,193.3,196.32,192.23Z" transform="translate(-50.75)"/>
    <path class="cls-7" d="M188.66,188.74s3.25-7.39,6.71-7.48,3.3,3.54,1.9,6.92-1,4.28-3.18,3.54S188.26,189.57,188.66,188.74Z" transform="translate(-50.75)"/>
    <path class="cls-7" d="M184.11,186.79s3-7,5.31-7.46,1.79,2.78.47,6-1.14,3.94-2.53,3.53S183.75,187.58,184.11,186.79Z" transform="translate(-50.75)"/>
    <path class="cls-7" d="M206,194.55s1.74-9.65,5.81-10.74,4.9,3.24,4.2,7.63.08,5.33-2.75,5.08S205.73,195.64,206,194.55Z" transform="translate(-50.75)"/>
    <path class="cls-7" d="M232.9,190.58s-6.17-1.57-7.35,1.28-2,5.41-.52,6.54,6.58,2.14,7.21.57S234.2,190.83,232.9,190.58Z" transform="translate(-50.75)"/>
    <path class="cls-7" d="M238,193.11s-3.56-.67-4.26,1-1.91,4.89-.89,6,4.8,2.41,5.68.8.74-5.57.51-6.42S238.92,193.22,238,193.11Z" transform="translate(-50.75)"/>
    <path class="cls-7" d="M244,193.37s-3.62-.15-4.08,1.56-1.19,5.12,0,6,5.09,1.7,5.74,0-.07-5.61-.43-6.43S245,193.35,244,193.37Z" transform="translate(-50.75)"/>
    <path class="cls-7" d="M250,193.35s-3.6.4-3.79,2.17-.38,5.24.91,5.94,5.29.9,5.66-.9-.93-5.53-1.41-6.27S250.93,193.19,250,193.35Z" transform="translate(-50.75)"/>
    <path class="cls-8" d="M323.29,90.19h0c-16-8.12-33.49,3.86-42.13,10.18s-2.7,17.11-2.6,17.31h0l-54.11-9.21-19.07-3.24.38-2.76c1.58-3.32,6.93-6.35,12.35-8.32h0c.48-.18,1-.35,1.44-.51,2.44-1,8.05-3.74,18-11.07,7-5.15,16.35-12.11,28.32-14.91l13.18-1.18c9.25.5,19.7,3.81,31.41,11.73A55.5,55.5,0,0,1,323.29,90.19Z" transform="translate(-50.75)"/>
    <path class="cls-6" d="M258.86,140.49c-.28,0-.56,0-.83,0-6.35-.11-9.82-4.83-11.86-13a13.57,13.57,0,0,1,4-13.53c1.61-1.74,6.8-1.08,11.09.51a13.5,13.5,0,0,1,5.81,3.55c1.45,1.64,2.49,3.91,3.95,7.51C273.83,132.42,265.74,140.18,258.86,140.49Z" transform="translate(-50.75)"/>
    <path class="cls-11" d="M223.52,130.85a7.32,7.32,0,0,1-5.31,2c-4,0-8.26-2.24-9.42-5.12-1.76-4.34,0-10.36,3.32-15.61s8.75-4.57,11.41-2.68c1.53,1.09,2.5,3.41,3,5.16a17.8,17.8,0,0,1,.57,2.26A14.4,14.4,0,0,1,223.52,130.85Z" transform="translate(-50.75)"/>
    <rect class="cls-12" x="365.41" y="181.85" width="87.49" height="2.58" transform="translate(145.49 577.61) rotate(-85.76)"/>
    <path class="cls-13" d="M417.48,223.71,416,243.2c-.19,2.6-2.16,4.86-4.53,6.52H398.23c-2.66-2.12-5-5.1-4.76-8.19L394.92,222l6.15.45A6.35,6.35,0,0,0,404,225a5,5,0,0,0,.77.27,6.38,6.38,0,0,0,6.6-2Z" transform="translate(-50.75)"/>
    <path class="cls-14" d="M408.1,225.27,405,239.06,404,225A6.4,6.4,0,0,0,408.1,225.27Z" transform="translate(-50.75)"/>
    <path class="cls-12" d="M417.57,141l-10.27-.76a3.7,3.7,0,0,1-3.42-4h0l.33-4.48,1.85.14-.33,4.48a1.84,1.84,0,0,0,1.71,2l10.27.77a1.85,1.85,0,0,0,2-1.71l.34-4.49,1.84.14-.33,4.48a3.7,3.7,0,0,1-4,3.42Z" transform="translate(-50.75)"/>
    <path class="cls-13" d="M421,133.59l-16.28-1.2a1.41,1.41,0,0,1-1.3-1.51h0a1.4,1.4,0,0,1,1.51-1.3l16.28,1.2a1.42,1.42,0,0,1,1.3,1.51h0A1.41,1.41,0,0,1,421,133.59Z" transform="translate(-50.75)"/>
    <path class="cls-2" d="M321.56,107.23a6.59,6.59,0,0,1-2.32-6.6,1.83,1.83,0,0,1-.28-.14c-3.44-1.69-4.81-6.49-4.06-14.25a66.38,66.38,0,0,1,2-10.84l1.51.43c-1.59,5.52-4.47,20.46,1.21,23.26l.12.06a5.5,5.5,0,0,1,4-3.28,1.89,1.89,0,0,1,2,1,3,3,0,0,1-.86,3.23,4.35,4.35,0,0,1-4.16,1,5,5,0,0,0,1.86,4.92Zm-.29-7.59A2.75,2.75,0,0,0,323.8,99a1.52,1.52,0,0,0,.53-1.45c0-.06-.08-.18-.41-.14a3.88,3.88,0,0,0-2.65,2.21Z" transform="translate(-50.75)"/>
    <path class="cls-15" d="M358.44,249.3l-.1,0a.83.83,0,0,1-.71-.71l-3.43-14.54-.31-1.28L348.76,211l-.3-1.29-4.3-18.25-.31-1.29L339.57,172l-.31-1.29-5.5-23.35-.3-1.29-4.54-19.27-.3-1.28-2.25-9.57a.76.76,0,0,1,.42-1c.35-.07.71.24.82.7l2.32,9.83.3,1.29L334.77,146l.3,1.29,5.51,23.35.3,1.29,4.29,18.2.31,1.29,4.29,18.26.3,1.29,5.14,21.78.3,1.29,3.36,14.27a.73.73,0,0,1-.43,1Z" transform="translate(-50.75)"/>
    <path class="cls-15" d="M389.14,249.16H389a.83.83,0,0,1-.71-.71l-3.39-14.39-.3-1.28L379.5,211l-.3-1.29-4.3-18.25-.31-1.29L370.3,172l-.3-1.29-5.5-23.36-.31-1.28-4.53-19.27-.31-1.28-2.29-9.71a.76.76,0,0,1,.43-1c.34-.08.71.24.81.69l2.36,10,.3,1.29L365.5,146l.3,1.29,5.5,23.35.31,1.29,4.29,18.2.3,1.29,4.3,18.26.31,1.29,5.13,21.79.3,1.28,3.33,14.12A.77.77,0,0,1,389.14,249.16Z" transform="translate(-50.75)"/>
    <path class="cls-15" d="M359.19,120.88H328l-.3-1.29H358.9Z" transform="translate(-50.75)"/>
    <path class="cls-15" d="M364.72,144h-31l-.29-1.29h31Z" transform="translate(-50.75)"/>
    <path class="cls-15" d="M371.61,172h-32l-.31-1.29h32Z" transform="translate(-50.75)"/>
    <path class="cls-15" d="M376.2,191.45h-32l-.31-1.29h32Z" transform="translate(-50.75)"/>
    <path class="cls-15" d="M380.8,211h-32l-.3-1.29h32Z" transform="translate(-50.75)"/>
    <path class="cls-15" d="M386.24,234.08h-32l-.3-1.3h32Z" transform="translate(-50.75)"/>
    <path class="cls-16" d="M346.25,82.29s-14.41-.34-15.88-1.1c-5.85-3-13.17-7.77-13.17-7.77L315.79,75s6.52,9.38,11.56,11.49c3.85,1.61,15.75,3.18,17.39,2S345.84,85.17,346.25,82.29Z" transform="translate(-50.75)"/>
    <path class="cls-17" d="M370.18,162.37s1.78,1.62,1.44,2.78-2,1.93-2.18,3.34-1.09,2.18-1.87,2.18h-3.73s-.58-1,.81-1.29,1.92-2,1.83-3.5a26.87,26.87,0,0,1,.13-3.59l3-.69Z" transform="translate(-50.75)"/>
    <path class="cls-17" d="M355.1,163.22s.64,7.06-.15,7.45H345a1.68,1.68,0,0,1,1.59-1.61c1.6-.27,4.43-1.2,4.91-3.3S355.1,163.22,355.1,163.22Z" transform="translate(-50.75)"/>
    <path class="cls-13" d="M346.92,106.52s-1.86,6.48-2,9.54,4.49,46,4.72,47.37,1.86,2.17,1.86,2.17a2.52,2.52,0,0,0,1.85.14,4.43,4.43,0,0,0,2-.93s2.25-28.81.86-39.1a162,162,0,0,1-1.41-19.19Z" transform="translate(-50.75)"/>
    <path class="cls-14" d="M359.15,106.25s4.41,5.91,4.81,9.9.64,18,1.52,21.92,4.09,11.38,4.09,23.53a2.42,2.42,0,0,1-1.37,1.06,9.66,9.66,0,0,1-1.2.33,1.88,1.88,0,0,1-2.11-1c-2.17-4.37-9.09-18.48-9.45-21.41-.24-2.07-2.43-15.78-7.2-23.83-1.14-1.93.7-9.62.7-9.62Z" transform="translate(-50.75)"/>
    <path class="cls-12" d="M356.26,69.62a7.84,7.84,0,0,0-1-4.07c.26.17-1.15-1.6-1.25-1.34-2.78-3.3-9.24,1.55-9.24,1.55l6,10.7s.84-1.48,1.65-.88C353.64,76.5,356.21,73.78,356.26,69.62Z" transform="translate(-50.75)"/>
    <path class="cls-16" d="M342,88.69c5.69,2.62,10-6.63,9.6-6.72-.57-.67-1.16-3-.74-6.43l-.29,0-4.95.38s-.07,1.59-.24,3.06a9.4,9.4,0,0,1-.47,2.3c-.06.12-1.19.08-1.19.08S340.45,88,342,88.69Z" transform="translate(-50.75)"/>
    <path class="cls-18" d="M345.58,75.94s-.07,1.59-.25,3.06c2.72.26,4.45-2.09,5.2-3.43Z" transform="translate(-50.75)"/>
    <path class="cls-16" d="M344.51,77.23s6.39.91,6.88-3.19S353,67.28,349,66.53s-5,.71-5.53,2S342.87,76.88,344.51,77.23Z" transform="translate(-50.75)"/>
    <path class="cls-12" d="M343.92,66.3c1.13-1.11,1.85-.75,2.22-.32a4.42,4.42,0,0,1,5.63,1.67,8.06,8.06,0,0,0,1.94,4.95s-1.25.59-3.86-.46a4.67,4.67,0,0,1-2-1.82A15.4,15.4,0,0,0,350,73.87c-3-1.93-3.77-6.7-3.84-7.2a5.19,5.19,0,0,0-1.62,1.74c-.45,1-.84,3.14-1.45,3C343.15,71.4,342.22,68,343.92,66.3Z" transform="translate(-50.75)"/>
    <path class="cls-19" d="M346.52,75.07a1.89,1.89,0,0,1-1.32.36.78.78,0,0,1-.72-.72,2.9,2.9,0,0,1,.93,0A7.19,7.19,0,0,1,346.52,75.07Z" transform="translate(-50.75)"/>
    <path class="cls-16" d="M317.2,73.42s-.6-1.21-1-2.2c-.16-.43-2.7-2.21-3.42-2.1s-.85,2.69.46,3.61c.66.47,2.53,2.25,2.53,2.25Z" transform="translate(-50.75)"/>
    <path class="cls-16" d="M317.2,73.42s-.2-.82,0-1.11-.33-1.49-.45-2c0,0-.38-.12-.43.45,0,.35,0,1.26,0,1.26Z" transform="translate(-50.75)"/>
    <path class="cls-12" d="M354,64.21a6.63,6.63,0,0,1,6.32-1.15c3.88,1.16,2.32,7.19,5.44,8.21s1.77,2.17,2.15,3.4,2.58,4.28-3.07,5.1-9.74-1.34-8.07-5.48.95-9.92-1.52-8.73S354,64.21,354,64.21Z" transform="translate(-50.75)"/>
    <path class="cls-16" d="M349.42,86.62S362.2,94.87,363,96.31a96.15,96.15,0,0,1,5.87,13.26l2.1-.08s-.39-11.51-3.45-16C365.19,90,356.09,82.17,354.1,82.24S351.35,84.43,349.42,86.62Z" transform="translate(-50.75)"/>
    <path class="cls-16" d="M368.88,109.58s-.45,1.27-.88,2.24c-.2.42.3,3.47.88,3.91s2.51-1.28,2.26-2.85c-.13-.8-.16-3.38-.16-3.38Z" transform="translate(-50.75)"/>
    <path class="cls-16" d="M368.88,109.58s-.45.71-.78.79-.84,1.28-1.14,1.74c0,0,.18.36.62,0a12.63,12.63,0,0,0,.9-.89Z" transform="translate(-50.75)"/>
    <path class="cls-20" d="M358.26,92.81A11.62,11.62,0,0,0,362,86.69,28.29,28.29,0,0,0,355.89,82h0A18.28,18.28,0,0,0,351,80.75a5.71,5.71,0,0,1-3.75,3.32c-1.48.38-3.2.08-2.79-1.4l.38-1.38a24.53,24.53,0,0,0-3,0h0l-.29,0-1,.06-6.16.41s-.33,5.71,3.44,7.78h0c0,.75.33,2.85.81,5.6.16,1,.35,2,.55,3.16,1.54,8.72,3.86,20.6,3.86,20.6,10,3.83,20.76-3.72,20.76-3.72C364.21,112.25,360.19,99.19,358.26,92.81Z" transform="translate(-50.75)"/>
    <path class="cls-16" d="M159.37,146.8s.46-1,.76-1.53,1.57-1.93,1.79-1.61,1.09,2.52.62,3.13,0,1.68-2.26,2.33Z" transform="translate(-50.75)"/>
    <path class="cls-21" d="M133.86,140.25s11.75,9.8,16.33,8.9a92.18,92.18,0,0,0,9.08-2.6l1.1,2.81s-4.93,6.69-10.07,6.74a29.27,29.27,0,0,1-14-3.49Z" transform="translate(-50.75)"/>
    <path class="cls-22" d="M113.25,243.72s.34,5.5,1.4,5.58h5.4l6.71,0a2.18,2.18,0,0,0-2-2c-2-.34-5.25-1.72-6.44-4.31S113.25,243.72,113.25,243.72Z" transform="translate(-50.75)"/>
    <path class="cls-14" d="M112.86,244.1a13.62,13.62,0,0,0,3.63.68,12.91,12.91,0,0,0,3.39-.48,94.57,94.57,0,0,1,2.5-11.9c1.11-4.29,2.69-9.81,5-16.66,6.22-19,8.12-30,8.29-31.08a.62.62,0,0,0,0-.09h0l-19.15-8.4s2.37,26.11-.64,36.13a41.67,41.67,0,0,0-1.1,4.8C112.81,228,112.86,244.1,112.86,244.1Z" transform="translate(-50.75)"/>
    <path class="cls-13" d="M122.38,232.4c1.11-4.29,2.69-9.8,4.94-16.66,6.23-19,8.13-30,8.3-31.08v-.09l-19.14-8.41s2.36,26.12-.65,36.14C115.39,213.69,122.38,232.4,122.38,232.4Z" transform="translate(-50.75)"/>
    <path class="cls-22" d="M128.2,243.72s.34,5.5,1.41,5.58H135l6.71,0a2.18,2.18,0,0,0-2-2c-2-.34-5.24-1.72-6.43-4.31S128.2,243.72,128.2,243.72Z" transform="translate(-50.75)"/>
    <path class="cls-14" d="M139.05,176.77a273.22,273.22,0,0,1-2.68,37.7c-2.93,20.78-1.93,29.59-1.93,29.59a19.76,19.76,0,0,1-2.82.72,12.9,12.9,0,0,1-4.19-.48s-4.18-20.78-3-31.18-5.74-35.69-5.74-35.69Z" transform="translate(-50.75)"/>
    <path class="cls-16" d="M133.21,134.51a14.92,14.92,0,0,1-1,5.11h-3l-3.73-2.45a12.84,12.84,0,0,0,1-6.59c0-.23-.16-1.75-.16-1.78l1.88.83,5,2.23S133.31,133,133.21,134.51Z" transform="translate(-50.75)"/>
    <path class="cls-20" d="M140.17,177.51c-.08,8.93-.67,29.83-1.11,30.25-4.65,4.49-25.11-1.23-26.2-6.18s4.12-63.43,12.07-65.76c1.65-.48,10.47,2.36,10.47,2.36a57,57,0,0,1,2.29,8.23c.33,1.71,1.43,13.89,2.07,22,.16,2.17.31,4.05.39,5.37C140.17,174.35,140.18,175.68,140.17,177.51Z" transform="translate(-50.75)"/>
    <path class="cls-23" d="M133.21,134.51c-1.94-.72-5.32-2.19-6.31-3.87-.46-.77.22-1,1.34-1l5,2.23S133.31,133,133.21,134.51Z" transform="translate(-50.75)"/>
    <path class="cls-16" d="M135.18,131.56s-8.12,2.53-9.62-2.55-3.56-8.18,1.56-10,6.71-.19,7.62,1.38S137.25,130.77,135.18,131.56Z" transform="translate(-50.75)"/>
    <path class="cls-24" d="M134.42,119.89s-.78,6.46-1.74,5.66c-1.81-1.51-2.94-1.51-2.29,1,.45,1.74-2.32,4.74-3.82,5-3.71.72-7.13-9.9-6.09-11.74C123.47,114.48,138.74,113.41,134.42,119.89Z" transform="translate(-50.75)"/>
    <path class="cls-21" d="M133.23,135.94c-.11,0-6-2.71-6.74-2.48s-1.56,2.35-1.56,2.35l10.46,2.37A5.25,5.25,0,0,0,133.23,135.94Z" transform="translate(-50.75)"/>
    <g class="cls-25">
      <path class="cls-26" d="M205.59,162.25a24.68,24.68,0,1,1,6.77-17.74A24.68,24.68,0,0,1,205.59,162.25Z" transform="translate(-50.75)"/>
    </g>
    <path class="cls-27" d="M168.84,164l-30.1,32c-.59.63-1.31.91-1.61.64l-.94-.89c-.29-.28-.05-1,.54-1.65l30.1-32c.59-.63,1.31-.92,1.61-.64l.94.88C169.67,162.64,169.43,163.38,168.84,164Z" transform="translate(-50.75)"/>
    <path class="cls-14" d="M152.54,181.34,138.78,196c-.62.66-1.36,1-1.66.69l-.94-.89c-.3-.28,0-1,.58-1.69l13.76-14.62Z" transform="translate(-50.75)"/>
    <path class="cls-24" d="M205.84,126.65c-.13-.14-.27-.27-.41-.4a26.32,26.32,0,1,0,.41.4Zm-.32,35.53a24.59,24.59,0,1,1,6.73-17.67A24.6,24.6,0,0,1,205.52,162.18Z" transform="translate(-50.75)"/>
    <path class="cls-21" d="M140.16,177.51c-19.41-13.14-17.83-31.22-17.83-31.22,7.58,4.27,15.08,14.38,17.42,22.15.16,2.17.31,4.05.39,5.37C140.17,174.35,140.18,175.68,140.16,177.51Z" transform="translate(-50.75)"/>
    <path class="cls-16" d="M157.28,170.85a5.07,5.07,0,0,0,2.34-1.45s.55,0-.09,1.22l-.26.53a.09.09,0,0,0,0,.1.11.11,0,0,0,.09.06,12,12,0,0,1,2.94.06c.2,0,.26.52.25.72a1.82,1.82,0,0,1-.39,1.25,6.16,6.16,0,0,1-2.32,1.22,7.1,7.1,0,0,1-3.59-.45l-1.18-.55.37-2.18.29.06C156.21,171.54,156.79,171,157.28,170.85Z" transform="translate(-50.75)"/>
    <path class="cls-20" d="M128,138.18s-16.49,3.14,4.85,27c3.41,3.81,21.86,8.79,21.86,8.79s1.87-1.59.93-2.88c0,0-12.7-9.22-15.5-10.69-1.25-.66-4.88-14.71-6.92-18.1A9.2,9.2,0,0,0,128,138.18Z" transform="translate(-50.75)"/>
    <path class="cls-16" d="M159.82,147.09a8.92,8.92,0,0,0,.64-1.57,8.86,8.86,0,0,1,1.06-2.42c.12-.11.49,0,.53.51a2.72,2.72,0,0,1-.27,1,12.08,12.08,0,0,0-.34,2.07C161.18,147.56,159.82,147.09,159.82,147.09Z" transform="translate(-50.75)"/>
    <path class="cls-2" d="M253.91,108.12A56.75,56.75,0,0,1,229,102.7a38.6,38.6,0,0,1-11.46-8,.79.79,0,0,1,1.16-1.06l0,0h0a37.86,37.86,0,0,0,11,7.7c6.76,3.27,18.11,6.72,33.76,4.55,10.47-1.45,19.64-4.24,27.3-8.32a52.19,52.19,0,0,0,15.34-12.12c6.92-8.14,8.28-15.61,8.29-15.7A.78.78,0,0,1,316,70c0,.32-1.42,7.91-8.58,16.37A53.46,53.46,0,0,1,291.59,98.9c-7.83,4.19-17.22,7.06-27.89,8.53A69.63,69.63,0,0,1,253.91,108.12Z" transform="translate(-50.75)"/>
    <path class="cls-28" d="M277.83,92.52a1,1,0,0,1,.16,1h0a6.4,6.4,0,0,1-2,2.18l-.32.27-.08.06-.05,0c-.88.81-.55,1-2.12,2.63-1.79,1.87-3,1.9-3.38,1.73s.31-1.13,1-2.24l.1-.17.27-.44c.78-1.34.58-2,.4-4-.16-1.62-2.52-9-2.52-9L272.7,84s1,5.91,2.18,6.82c.61.48,1.29.49,1.88.85l.12.08A4.3,4.3,0,0,1,277.83,92.52Z" transform="translate(-50.75)"/>
    <path class="cls-29" d="M277.83,92.52a1,1,0,0,1,.16,1h0a7.27,7.27,0,0,1-2,2.17l-.32.28-.07.06-.06,0c-.87.81-.54,1-2.11,2.63-1.8,1.87-3,1.9-3.38,1.73s.3-1.13,1-2.25a7.64,7.64,0,0,0,3.2-2.35c1.08-1.38,1.8-3.15,2.53-4.18l.12.08A4.47,4.47,0,0,1,277.83,92.52Z" transform="translate(-50.75)"/>
    <path class="cls-28" d="M250.12,90.38c-.21,1.06-1.73.88-3.42.47s-1.29.08-3.69-.19-3.13-1.16-3.21-1.52,1.13-.43,2.4-.57l.49-.06c1.43-.18,2.49-1.11,3.8-1.87S249.57,83,249.57,83l3.3.26s-1.73,2.63-2.4,3.77a3.91,3.91,0,0,0-.32,2.26,4.2,4.2,0,0,1,0,1.12Z" transform="translate(-50.75)"/>
    <path class="cls-29" d="M246.7,90.85c-1.69-.42-1.29.08-3.69-.19s-3.13-1.16-3.21-1.52,1.13-.43,2.4-.58v0a6.8,6.8,0,0,0,3.45,1.07c1.63,0,3.35-.43,4.48-.41a4.2,4.2,0,0,1,0,1.12C249.9,91.44,248.39,91.26,246.7,90.85Z" transform="translate(-50.75)"/>
    <path class="cls-29" d="M262.75,69.29l3.08,8.3,4,10.83a6.44,6.44,0,0,0,2.14-.2,9,9,0,0,0,2.07-1S273,75.59,270.86,68.91A11.72,11.72,0,0,0,269.07,65C265.84,61.21,262.75,69.29,262.75,69.29Z" transform="translate(-50.75)"/>
    <path class="cls-15" d="M265.89,56.12c1.92-.62,7.24.11,12.74,1.16a1.21,1.21,0,0,0,1.26-.56l.77-1.27,12.5-1s3.22,7.32,1.85,13.42a5.35,5.35,0,0,1-4.95,3.6c-7.83.49-13.11-2.23-21.24-5.08-1.41-.5-2.05,2.64-3.52,5.72S251.49,85.8,251.49,85.8a11,11,0,0,1-2.68-.28,2.64,2.64,0,0,1-1.15-.73S261.33,57.59,265.89,56.12Z" transform="translate(-50.75)"/>
    <path class="cls-29" d="M280.74,38.23c4.45,2.45,13.48,7.53,13.52,7.5s3.32,1.25,5.2,0c3.14-2.09,4.82-7.69-.92-12.52-2.86-2.41-4.89-3-5.2-6.84-.16-2.09-3-9-7.76-8.32a13,13,0,0,0-4.43,1C277.08,21.2,274.07,37.28,280.74,38.23Z" transform="translate(-50.75)"/>
    <path class="cls-16" d="M284.46,36.15a6,6,0,0,0,3.67.11c1.39-.61,2.45-2.9,2.42-2.9-.63,0-1.32-.58-1.86-4.21l-.27.1-4.52,1.62s.32,1.45.54,2.84C284.62,34.87,284.71,36,284.46,36.15Z" transform="translate(-50.75)"/>
    <path class="cls-30" d="M283.9,30.87s.13.5.38,1.91a4.89,4.89,0,0,0,4.14-3.53Z" transform="translate(-50.75)"/>
    <path class="cls-16" d="M283.22,32.32s6.2-.83,5.62-4.68-.16-6.55-4.15-6.18-4.52,1.95-4.64,3.28S281.6,32.44,283.22,32.32Z" transform="translate(-50.75)"/>
    <path class="cls-29" d="M280.28,22.63s4,3.42,6.66,3.69,3.71-.59,3.71-.59a10.55,10.55,0,0,1-2.54-3.45,1.9,1.9,0,0,0-1.56-1.12C284.62,21,281,20.92,280.28,22.63Z" transform="translate(-50.75)"/>
    <path class="cls-29" d="M282.76,22.32A10,10,0,0,0,281,24.56a7.58,7.58,0,0,0-.2,4s-2.06-4-.89-6S282.76,22.32,282.76,22.32Z" transform="translate(-50.75)"/>
    <path class="cls-15" d="M265.83,77.59l4,10.83a6.44,6.44,0,0,0,2.14-.2,9,9,0,0,0,2.07-1S273,75.59,270.86,68.91Z" transform="translate(-50.75)"/>
    <path class="cls-31" d="M284.5,33.52s-4.87,1.5-5.5,3.82-2.9,15.31-2.9,15.31.71.74,2-.53,4.41-11.73,4.41-11.73Z" transform="translate(-50.75)"/>
    <path class="cls-31" d="M295.3,47.53a14.18,14.18,0,0,0,.57-2.9c0-1.12-.34-2.42-1.54-4.71-2-3.76-4.05-6.81-4.23-6.7-5.24,3.11-5.66.5-5.66.5s-5.44,6.1-5.7,12.21c-.4,9.42.58,9.82,1.43,10.23l.4,1.58s2.76,10.57,13.31,13.65c0,0,1.56-1.58,2.13-7.37A72.86,72.86,0,0,0,295.3,47.53Z" transform="translate(-50.75)"/>
    <path class="cls-21" d="M296,64a11.65,11.65,0,0,0-5.45-4.55c-2.1-.74-3.69-1-4.48-2a4.38,4.38,0,0,1-.48-3c.31-2,4.44-3.27,6.4-4.53.91-.59,1.37-1.28.58-2.26-1.73-2.15-.28-3.62-.28-3.62h3.06l.51.57a14.22,14.22,0,0,1-.57,2.89A72.89,72.89,0,0,1,296,64Z" transform="translate(-50.75)"/>
    <path class="cls-16" d="M287.56,54.47s-3.8-.85-4.41-.51a8.72,8.72,0,0,0-2.29,2c-.19.42,1.36-.32,1.86-.46a4.65,4.65,0,0,1,1.61.35,5.38,5.38,0,0,0,2.89.29Z" transform="translate(-50.75)"/>
    <path class="cls-31" d="M290.1,33.21s5.09.32,6.85,2.77c2.48,3.46,6.75,18,3.93,20-3.17,2.22-13.8.75-13.8.75a4.6,4.6,0,0,1,.14-2.61c.53-.84,7.74-2.55,8.13-2.94s-3.62-7.31-3.62-8.48S290.1,33.21,290.1,33.21Z" transform="translate(-50.75)"/>
    <path class="cls-16" d="M283,55a7.1,7.1,0,0,1-1.05,1.14.72.72,0,0,1-.43.1l.54-1Z" transform="translate(-50.75)"/>
    <path class="cls-16" d="M283.16,54l-2.31,1.12a.39.39,0,0,0,.38.15,5.68,5.68,0,0,0,1-.27Z" transform="translate(-50.75)"/>
    <path class="cls-32" d="M281.92,57.73H263.64l-5.49-13.67h18.24Z" transform="translate(-50.75)"/>
    <path class="cls-32" d="M263.43,57.2h24.13v.53H263.64Z" transform="translate(-50.75)"/>
    <path class="cls-19" d="M268.26,50.9a.63.63,0,0,1,.35-.83.61.61,0,0,1,.27,0,1.22,1.22,0,0,1,1.12.87.62.62,0,0,1-.34.82.66.66,0,0,1-.28.05,1.25,1.25,0,0,1-1.12-.87Z" transform="translate(-50.75)"/>
    <path class="cls-33" d="M285.94,34.74a21.13,21.13,0,0,0,3.55-2.33s1.28,0,1.37.91A6.31,6.31,0,0,1,285.94,34.74Z" transform="translate(-50.75)"/>
    <path class="cls-33" d="M285.93,34.74s-1.25-1.3-1.6-1.69c0,0-.69.44-.74.8A2.52,2.52,0,0,0,285.93,34.74Z" transform="translate(-50.75)"/>
    <path class="cls-3" d="M163.45,236.17s14.12,6.53,18.82,7,19.73,0,19.73,0-16-4.42-17-5.21-6.58-4-6.58-4S167.34,235,163.45,236.17Z" transform="translate(-50.75)"/>
    <path class="cls-30" d="M281.37,230.25c.36.56.66.61,1.13.33s2.54-.24,4-2.47-1.2-2-1.2-2-2.22-.15-3.06.69A4,4,0,0,0,281.37,230.25Z" transform="translate(-50.75)"/>
    <path class="cls-30" d="M285.21,227.27a1.83,1.83,0,0,0,1.25.84s1.64-.77,3.86-1.92c3.65-1.9,8.86-4.83,10.86-7.13,1.45-1.66,6.1-11,8.39-15.76a5.68,5.68,0,0,0-.91-6.34,5.61,5.61,0,0,0-5.89-1.88c-3,.84-3.88,6.28-3.88,6.28s-2.71,13.49-3.46,14.38c-.43.51-3.63,3.76-6.32,6.49l-3.85,3.87S284.44,226.23,285.21,227.27Z" transform="translate(-50.75)"/>
    <path class="cls-30" d="M308,248.57c.48.56,1.81.92,3.66,1.14h0a46.22,46.22,0,0,0,4.85.27h0c.83,0,1.7,0,2.59,0l2,0c2.39-.07,4.48-.15,6.29-.24h.1l3.42-.2c2.3-.16,3.76-.29,4.38-.36l.32,0s1.05-.58-.45-3.76h-.36a27.72,27.72,0,0,1-5.59-.6,42.15,42.15,0,0,1-4.29-1.1c-.82-.27-1.69-.57-2.58-.92l-.51-.19a9.79,9.79,0,0,0-4.09-.79c-.07,0,.16-.38.65-.93a6.59,6.59,0,0,1,.45-.51c2.9-3.23,10.38-11.24,9.44-18a7.69,7.69,0,0,0-1.74-3.91,6.15,6.15,0,0,0-.93-.91,7.5,7.5,0,0,0-5.66-1.28,15.11,15.11,0,0,0-1.78.34,16.85,16.85,0,0,0-3.16,1.16l-.17.08s-.83,2.36-1.94,5.79c-1.36,4.21-3.13,10-4.27,15C307.52,243.43,307,247.44,308,248.57Z" transform="translate(-50.75)"/>
    <path class="cls-34" d="M323.39,249.32l7.51.18c3.1-.2,4.69-.39,4.69-.39s1.05-.58-.44-3.75a31.08,31.08,0,0,1-10.24-1.7C324.26,246.11,323.39,249.32,323.39,249.32Z" transform="translate(-50.75)"/>
    <path class="cls-29" d="M327.71,213.57s3.4,2.39,1.14,11.32c-1.29,5.1-7.15,13.73-7.15,13.73s-5.91,2.88-13.57-2l7-22.48Z" transform="translate(-50.75)"/>
    <path class="cls-35" d="M335.2,249.32s7.77-.38,9.81-.38a2.74,2.74,0,0,0,2.54-2.09s-1.4-1.4-5.31-1.89a18.92,18.92,0,0,1-4.1-1.65,1.39,1.39,0,0,0-1.42.11c-.79.56-2,1.51-2,2.14C334.76,246.52,335.77,248.05,335.2,249.32Z" transform="translate(-50.75)"/>
    <path class="cls-16" d="M315.65,249.44a1.14,1.14,0,0,0,.31.27,2.73,2.73,0,0,0,.54.27h0c.83,0,1.7,0,2.6,0l2,0q3.57-.1,6.29-.24h16a1.45,1.45,0,0,1-.11.29.65.65,0,0,0,.23-.29,1.66,1.66,0,0,0,.13-.73,6.75,6.75,0,0,0-.81-2.74,28.44,28.44,0,0,1-7.94-1,43.34,43.34,0,0,1-4.88-1.57l-.51-.19a9.79,9.79,0,0,0-4.09-.79c-.07,0,.17-.39.65-.94,2.94-3.35,14.36-14.87,8.15-22.38l-.08-.1a6.41,6.41,0,0,0-4.74-2.17,12.67,12.67,0,0,0-3.77.48,16.72,16.72,0,0,0-3.11,1.18s-.83,2.37-1.94,5.81c-1.36,4.21-3.13,10-4.27,15-.08.34-.16.67-.22,1C315.11,244.86,314.73,248.4,315.65,249.44Z" transform="translate(-50.75)"/>
    <path class="cls-15" d="M335.36,214.45s3.4,2.6,1.14,12.33c-1.29,5.56-8.81,16.13-8.81,16.13s-7.43.75-13-2.64l5.48-25.05Z" transform="translate(-50.75)"/>
    <path class="cls-16" d="M302.32,192.37s-.41,8.76-3.74,11.57a16,16,0,0,0-.88-4.39c-.6-.25-1.14-.5-1.61-.72a24.85,24.85,0,0,1-2.4-1.25l-.47-4.1-.32-2.78a13.34,13.34,0,0,0,2.35,1.27A10.37,10.37,0,0,0,302.32,192.37Z" transform="translate(-50.75)"/>
    <path class="cls-30" d="M295.26,192a8.62,8.62,0,0,1,.05,6.49,14.83,14.83,0,0,1-2.24-1.24l.16-3.74A7.89,7.89,0,0,1,295.26,192Z" transform="translate(-50.75)"/>
    <path class="cls-16" d="M292.93,198.6s4.63-5.19,1.36-8-4.88-5.42-8-2.22-2.42,4.92-1.55,6.13S291.64,199.88,292.93,198.6Z" transform="translate(-50.75)"/>
    <path class="cls-20" d="M303,210a35.88,35.88,0,0,0,4.65,3.78l1,.68c1.95,1.41,2,3.07,2.6,4.75.72,1.9.27,3.27.61,3.61,5.85,5.71,24.51-2.67,25.08-6.76.28-2-4.71-7.66-7.76-10.93-2.33-2.48-4.42-4.42-4.42-4.42-13.28-11.26-25.05-8.33-26-8.07h0s1.71,6.53-.8,9.71v0C298.31,204.61,300.27,207.4,303,210Z" transform="translate(-50.75)"/>
    <path class="cls-15" d="M291.74,183.52c0-.1.08-.25.32-.49a1.34,1.34,0,0,0-.59.28,1.69,1.69,0,0,0-1.84-.42,1,1,0,0,1,.85.24c-1.34-.13-3.31.65-7.21,4.58-5.13,5.2-.22,7.22.86,7s1.87-2.91,3.29-4,3.36.7,4,.58.1-.45.47-1.25,1.31.17,1.71,1,2,1,2,1l-.05-.63c1.33-3-2.44-7.3-3.54-7.81Z" transform="translate(-50.75)"/>
    <path class="cls-14" d="M297.86,202.34c1.59,7.24,11,13.64,17.72,15.59,10.23-4.89,12.87-10.64,13.52-12.82-2.32-2.49-4.41-4.42-4.41-4.42-13.28-11.26-25.06-8.33-26-8.08l-.06,0A65.37,65.37,0,0,1,297.86,202.34Z" transform="translate(-50.75)"/>
    <path class="cls-13" d="M297.86,202.34s-1.2-9.4-.84-9.89,2.46,0,2.46,0S301.09,199.82,297.86,202.34Z" transform="translate(-50.75)"/>
    <path class="cls-36" d="M343.35,249.7a1.42,1.42,0,0,1-.1.29s3.75-.18,6.73-.29c1.3,0,2.46-.09,3.08-.09a2.6,2.6,0,0,0,2.42-1.74.48.48,0,0,0-.16-.57,10.84,10.84,0,0,0-5-1.66,17.23,17.23,0,0,1-4.31-2.13.81.81,0,0,0-1,.07,15.9,15.9,0,0,0-1.61,1.57,2.11,2.11,0,0,0-.58,1.09c0,.71.56,1.74.61,2.74A2,2,0,0,1,343.35,249.7Z" transform="translate(-50.75)"/>
    <path class="cls-20" d="M343.35,249.7a1.42,1.42,0,0,1-.1.29.66.66,0,0,0,.23-.29,1.66,1.66,0,0,0,.13-.73,7,7,0,0,0-.81-2.74,22.9,22.9,0,0,1-7.68-1.42,35.54,35.54,0,0,0-5.65-1.38c-.07.4-.16.84-.27,1.33a21.37,21.37,0,0,1-1.59,4.66l-.14.28Z" transform="translate(-50.75)"/>
    <path class="cls-37" d="M294.22,185.68s-1.82-6.42-6.49-5.33-6.32,3.84-6.07,7.52Z" transform="translate(-50.75)"/>
    <path class="cls-38" d="M276.7,191.52c.3,1.56,2.26,2.9,6,2.9A7.34,7.34,0,0,1,281.5,193a2,2,0,0,1-.38-1.58,2.4,2.4,0,0,1,.93-1.64,13.2,13.2,0,0,1,5.07-2.12h0l.76-.16a19.36,19.36,0,0,1,2.29-.29h0a8.84,8.84,0,0,1,4.71.65h0l.05,0,.11.08.11.08.14.15a1.08,1.08,0,0,1,.18.24l0,0a4.57,4.57,0,0,1,.09,3c2.57-1.23,4.07-2.85,3.83-4.15s-2.4-2.22-5.47-2.41l-.51,0h0a28.31,28.31,0,0,0-6.09.51c-.71.13-1.4.28-2.06.45a27,27,0,0,0-2.78.85l-.83.33C278.43,188.33,276.43,190,276.7,191.52Z" transform="translate(-50.75)"/>
    <path class="cls-16" d="M291.33,238.56a3.5,3.5,0,0,0,.8.83,2,2,0,0,0,1.61.6h0c.13-.11,1-.85,2.25-2l.89-.8c3.54-3.22,9-8.5,10.68-11.91,1.15-2.33,3.72-14.52,5-20.64a6.91,6.91,0,0,0-2.76-7.08,6.22,6.22,0,0,0-7.07-.47c-3.11,1.83-2.57,8.37-2.57,8.37s.72,16.38.13,17.63c-.38.82-4,6.88-6.44,11l-1,1.65c-.78,1.3-1.39,2.28-1.39,2.28h0a1.14,1.14,0,0,0-.15.23,0,0,0,0,1,0,0A.36.36,0,0,0,291.33,238.56Z" transform="translate(-50.75)"/>
    <path class="cls-16" d="M286.87,244.74c.32.45,2.54-1.33,3-2s2.39-.36,2.94-1.34a12.17,12.17,0,0,1,1-1.41c.43-.56.81-1,.81-1l-1.66-1.39s-.5.2-1.18.5l-.43.2c-.54.25-1.14.54-1.68.84a6,6,0,0,0-1.54,1.11C287.17,241.32,286.55,244.3,286.87,244.74Z" transform="translate(-50.75)"/>
    <path class="cls-16" d="M289.61,239.15a2,2,0,0,0,1.21-.26c.18-.1.35-.21.51-.32s.38-.37.39-.46a.13.13,0,0,0-.07-.14l-.2.07a10,10,0,0,1-2.35.53C288.37,238.62,288.84,239.08,289.61,239.15Z" transform="translate(-50.75)"/>
    <path class="cls-20" d="M286.87,244.75c.32.44,2.54-1.34,3-2s2.39-.36,2.94-1.34a12.17,12.17,0,0,1,1-1.41h0c.13-.12,1-.86,2.25-2,.28-.24.58-.51.89-.8a7.13,7.13,0,0,1-3.06-3.11l-1,1.65c-.78,1.3-1.39,2.28-1.39,2.28h0a10.55,10.55,0,0,1-2.35.54c-.73,0-.26.51.51.58a5.78,5.78,0,0,0-1.54,1.1C287.17,241.32,286.55,244.3,286.87,244.75Z" transform="translate(-50.75)"/>
    <path class="cls-20" d="M312.84,208c.46,0,1.84-8-2.15-10.37s-7.24-1.84-8.63-.85-2.34,4.85-2.44,7C299.63,203.73,301.45,207.93,312.84,208Z" transform="translate(-50.75)"/>
    <path class="cls-30" d="M282.33,227.11s.86,1.24.5,1.92-1.64,1.74-1.56.88S282,227.18,282.33,227.11Z" transform="translate(-50.75)"/>
    <path class="cls-20" d="M281.38,230.25c.36.56.65.61,1.12.33s2.55-.24,4-2.47c0,0,1.64-.77,3.86-1.92a15.67,15.67,0,0,1-1.22-4l-3.84,3.87s-2.22-.15-3.06.7S281,229.69,281.38,230.25Z" transform="translate(-50.75)"/>
    <path class="cls-12" d="M279.29,238.13h0a.63.63,0,0,0,.8-.4L286,220.3a.65.65,0,0,0-.4-.81h0a.65.65,0,0,0-.81.4l-5.92,17.43A.65.65,0,0,0,279.29,238.13Z" transform="translate(-50.75)"/>
    <path class="cls-13" d="M277.46,236.28l-1.84,5.4a2.42,2.42,0,0,0,4,2.7,2.35,2.35,0,0,0,.4-1.2l1.84-5.4-1.2-.41a1.46,1.46,0,0,1-.81.41,1,1,0,0,1-.8-.27,1.46,1.46,0,0,1-.39-.83Z" transform="translate(-50.75)"/>
    <path class="cls-14" d="M279.05,237.51l-.92,4,1.72-3.72a1,1,0,0,1-.8-.28Z" transform="translate(-50.75)"/>
    <path class="cls-20" d="M285.52,225.83a1.29,1.29,0,0,1-.73,0,1.55,1.55,0,0,0-1.37-.18c-.58.28-1.85,1-1.77,1.21s1.39.15,1.73.25.31.88,1.23.55a3.51,3.51,0,0,0,1.57-1.57Z" transform="translate(-50.75)"/>
    <path class="cls-6" d="M305.63,249.13s-3-4.18-11.07-3.81-17.92-7.72-27.55-6.17-6.78,7.56-17.65,6.17-11.07,3.85-11.07,3.85Z" transform="translate(-50.75)"/>
    <rect class="cls-39" x="261.96" y="233.48" width="3.08" height="13.22" transform="translate(-133.68 324.1) rotate(-55.97)"/>
    <path class="cls-39" d="M260.23,236.06s1-2.73-.77-3.55a2.25,2.25,0,0,0-3,1.1,2.33,2.33,0,0,0-.2.73c0,.55-2.06.94-1.77,2.34.57,2.71,4,1.94,4,1.94Z" transform="translate(-50.75)"/>
    <path class="cls-39" d="M268.88,241.91s2.15-2,3.58-.62a2.24,2.24,0,0,1,.1,3.18,2,2,0,0,1-.6.46c-.5.23-.11,2.27-1.52,2.52-2.72.48-3.28-3-3.28-3Z" transform="translate(-50.75)"/>
    <path class="cls-6" d="M261.83,244.81a15.47,15.47,0,0,1,8.35.52,16.27,16.27,0,0,0,5.95,1.51l-2.94,1.7-7.5-.39-5.49-1.65Z" transform="translate(-50.75)"/>
    <path class="cls-3" d="M421.38,247.55l.05-4a2,2,0,0,0-.79-1.57,33.07,33.07,0,0,0-3.25-2.26c-.31-.11-3.34-.45-5.56-.69a1.94,1.94,0,0,0-2.14,1.72,2.67,2.67,0,0,0,0,.4l.35,3.58a2,2,0,0,0,.24.76l1.76,3.14a1.93,1.93,0,0,0,1.75,1l5.71-.18A1.93,1.93,0,0,0,421.38,247.55Z" transform="translate(-50.75)"/>
    <path class="cls-2" d="M418,246.5l0,1.16a1.93,1.93,0,0,1-1.74,1.9h-.13l-5.94.22a.81.81,0,0,0,0-.16h-5a1.93,1.93,0,0,1-.9-1.41,18.52,18.52,0,0,1-.25-3.72,32.66,32.66,0,0,1,4.51-3.87h0a7.8,7.8,0,0,1,2.53-1.52,16.55,16.55,0,0,1,4.22,1.74,15.16,15.16,0,0,1,2.14,4A9.86,9.86,0,0,1,418,246.5Z" transform="translate(-50.75)"/>
  </g>
</svg>
