<svg id="Layer_1" data-name="Layer 1" xmlns="http://www.w3.org/2000/svg" xmlns:xlink="http://www.w3.org/1999/xlink" viewBox="0 0 472.86 250">
  <defs>
    <style>
      .cls-1 {
        fill: none;
      }

      .cls-2 {
        clip-path: url(#clip-path);
      }

      .cls-3 {
        fill: #fc6;
      }

      .cls-4 {
        fill: #2e3552;
      }

      .cls-5 {
        fill: #ffb27d;
      }

      .cls-6 {
        fill: #2c3a64;
      }

      .cls-7 {
        fill: #35488b;
      }

      .cls-8 {
        fill: #bf6849;
      }

      .cls-9 {
        fill: #ffa412;
      }

      .cls-10 {
        fill: #ea9c68;
      }

      .cls-11 {
        fill: #fff;
      }

      .cls-12 {
        fill: #b2443b;
      }

      .cls-13 {
        fill: #f99746;
      }

      .cls-14 {
        fill: #ed7d2b;
      }

      .cls-15 {
        fill: #f99f46;
      }

      .cls-16 {
        fill: #2a4e96;
      }

      .cls-17 {
        fill: #1e3d70;
      }

      .cls-18 {
        fill: #ed985f;
      }

      .cls-19 {
        fill: #233862;
      }

      .cls-20 {
        fill: #b5453c;
      }

      .cls-21 {
        fill: #9e3530;
      }

      .cls-22 {
        fill: #2b478b;
      }

      .cls-23 {
        fill: #f1a34f;
      }

      .cls-24 {
        fill: #aa443e;
      }

      .cls-25 {
        fill: #d35c2b;
      }

      .cls-26 {
        fill: #739af0;
      }

      .cls-27 {
        fill: #4a82d3;
      }

      .cls-28 {
        fill: #ed975d;
      }

      .cls-29 {
        fill: #4a75cb;
      }

      .cls-30 {
        fill: #e8945b;
      }
    </style>
    <clipPath id="clip-path" transform="translate(-46.04 0)">
      <rect class="cls-1" x="46.04" width="472.86" height="250"/>
    </clipPath>
  </defs>
  <g class="cls-2">
    <g>
      <path class="cls-3" d="M73.65,249.29s-55.32-59.39-9.36-123.7c40.79-57,88.33-53.15,123.22-30,14.86,9.86,57.69,1.22,94.15-56.84C331.38-40.42,503.74,7.6,472.31,129.4c-15.21,58.95,46.28,61.09,14.95,120Z" transform="translate(-46.04 0)"/>
      <path class="cls-4" d="M518.37,248.77a.52.52,0,0,1,.53.52v.18a.53.53,0,0,1-.53.53" transform="translate(-46.04 0)"/>
      <path class="cls-5" d="M465.3,161.53,458,165.27l-1.46-5.08a15.81,15.81,0,0,0,1.35-4.63,19.39,19.39,0,0,0,.15-4.17l6,3.05a10.46,10.46,0,0,0-.24,1.36,10,10,0,0,0,.1,3.19,4.4,4.4,0,0,0,1.45,2.54" transform="translate(-46.04 0)"/>
      <path class="cls-5" d="M452.25,162.56s-6.75-8.73-10-11.45c0,0-4.49-11.07-4.85-11.8s-2.7.61-2.7.61,1.65,10.77,3.39,14,7.13,13.9,10.94,14.3,3.25-5.62,3.25-5.62" transform="translate(-46.04 0)"/>
      <path class="cls-6" d="M446.25,242.21a3.89,3.89,0,0,0,1.08,2.88,4.25,4.25,0,0,1,1.31,2.68,1,1,0,0,1-.92,1.06,1.05,1.05,0,0,1-.6-.15l-7.24-4.58a1.24,1.24,0,0,1-.38-1.71l.07-.1c.39-.5.84-1.08,1.17-1.55a3.62,3.62,0,0,1,2.3-1.19Z" transform="translate(-46.04 0)"/>
      <path class="cls-6" d="M466.45,236.21a3.9,3.9,0,0,0-.06,3.07,4.18,4.18,0,0,1,.24,3,1,1,0,0,1-1.24.65,1,1,0,0,1-.5-.36l-5.06-6.92a1.23,1.23,0,0,1,.27-1.72l.1-.07c.55-.32,1.19-.71,1.66-1a3.65,3.65,0,0,1,2.58-.26Z" transform="translate(-46.04 0)"/>
      <path class="cls-7" d="M479,221.2c-1.08,4-12,16.89-12,16.89s-5.07-3.37-5.07-6c0,0,5.54-11.52,5.54-12.9a16.94,16.94,0,0,0-1.88-3.48c-2-3.17-5.06-7.89-7.45-11.78-2.06-3.35-3.6-6.07-3.44-6.67.47-1.68,16.09-4.64,16.09-4.64S480,217.2,479,221.2" transform="translate(-46.04 0)"/>
      <path class="cls-6" d="M465.57,215.72c-2-3.17-5.06-7.89-7.45-11.78.29-4.88,1.66-9.14,4.28-9.14,6.53,0,5.53.5,5.53.5s1.69,14.41-2.36,20.42" transform="translate(-46.04 0)"/>
      <path class="cls-7" d="M460.7,195.79s1.42,26.8-.82,30.16-12.12,17.6-12.12,17.6-7.72-2-7.31-4.36c0,0,8.31-16,8.3-18.21s-3.95-21.83.2-25.19,11.75,0,11.75,0" transform="translate(-46.04 0)"/>
      <path class="cls-5" d="M465.82,163.33s9.74-8.68,10.33-9.88,3.36-11.86,3.36-11.86l2.31.29s-.44,12.79-1.42,15.28S468,170.24,468,170.24Z" transform="translate(-46.04 0)"/>
      <path class="cls-8" d="M471.38,168c0-.61,3.7-3.08,3.7-3.08a10.38,10.38,0,0,0-2.17-8l-4.41,3.14a2.2,2.2,0,0,0-1.22.36,14.15,14.15,0,0,0-2.91,0c0,1-.24,2-2.09,2.28-2.45.32-4.64-1.35-5.75-2.49a9.29,9.29,0,0,0-3.35.48,5.08,5.08,0,0,0-1.87-.49l-3.61-3.25s-4.22,1.23-4.89,7.6c0,0,4.75,3.61,5.09,6.46l.13,1.08.46,3.83.81,6.73L446.89,196c0,.12,0,.23,0,.35a2,2,0,0,0,1.52,1.91l.58.09c2.56.36,12.93,1.59,21.06-.61a4,4,0,0,0,2.88-4.14L471.17,172s.17-3.45.21-4.06" transform="translate(-46.04 0)"/>
      <path class="cls-9" d="M452.24,188.26c-.16,4.67-.61,8.63-3.29,10.11l-.58-.09a2,2,0,0,1-1.51-1.91,2,2,0,0,1,0-.35l2.41-13.39-.81-6.72.06-.18s3.9,6.56,3.7,12.54" transform="translate(-46.04 0)"/>
      <path class="cls-10" d="M463.85,159c-3.38-.09-6-3.43-6-3.43l5.87.24a10,10,0,0,0,.1,3.19" transform="translate(-46.04 0)"/>
      <path class="cls-5" d="M465.49,157.1s-6.75,1.79-9.08-3.59c-2.51-5.79.24-10,2.54-10.3,4.57-.57,7.23,1.17,8,3s2.24,9.92-1.49,10.87" transform="translate(-46.04 0)"/>
      <path class="cls-11" d="M462.82,154.08s.28.7,2.06.3c0,0,1.5-.32,1.33-1.11a4.85,4.85,0,0,0-3.39.81" transform="translate(-46.04 0)"/>
      <path class="cls-6" d="M457.61,155.39a12.35,12.35,0,0,1-.69-3.56s-1.77-2.25-.74-2.81,1.58.78,1.82.51.6-4.67,1.85-4.53,5.86,1.56,7.88-.18-2.88-8.56-11.2-5.93-6.62,11.89,1.09,16.5" transform="translate(-46.04 0)"/>
      <path class="cls-6" d="M452.43,142.52a3,3,0,0,1,0-1.93,3.1,3.1,0,0,0,.46,1.6c.43.49-.48.33-.48.33" transform="translate(-46.04 0)"/>
      <path class="cls-6" d="M452.6,141.73a1.67,1.67,0,0,0-1.52.68,1.33,1.33,0,0,1,1.46,0Z" transform="translate(-46.04 0)"/>
      <path class="cls-5" d="M479.51,141.59a5.58,5.58,0,0,0-.28-1.85c-.33-.84-.14-3,.28-2.92s.23.92.69.82,1.21-2.64,1.81-2.41,1,1.09.86,3a13.27,13.27,0,0,1-1.05,3.7Z" transform="translate(-46.04 0)"/>
      <path class="cls-5" d="M437.31,139.29a5.93,5.93,0,0,1,0-2.1c.19-1-.44-3.4-.88-3.18s-.08,1.05-.61,1-1.84-2.7-2.47-2.33-.94,1.41-.38,3.43a14.76,14.76,0,0,0,1.87,3.9Z" transform="translate(-46.04 0)"/>
      <path class="cls-10" d="M289.71,163.4s9.26,6,12.23,9.06c0,0,11.4,3.58,12.16,3.88s-.39,2.74-.39,2.74-10.86-.77-14.18-2.24-14.44-6-15.15-9.74,5.33-3.7,5.33-3.7" transform="translate(-46.04 0)"/>
      <path class="cls-5" d="M278.81,233.44l-2.07,11.05H273L272,231Z" transform="translate(-46.04 0)"/>
      <path class="cls-5" d="M295.78,232.45l2.35,12.17-3.3.14-6.28-11.87Z" transform="translate(-46.04 0)"/>
      <path class="cls-12" d="M276.82,244.07a4.37,4.37,0,0,0,2.58,2,4.21,4.21,0,0,1,2.54,1.56,1,1,0,0,1-.21,1.38,1,1,0,0,1-.58.2h-8.58a1.23,1.23,0,0,1-1.23-1.24.49.49,0,0,1,0-.12c.06-.63.13-1.37.16-1.94a4.06,4.06,0,0,1,1.4-2.36,8.61,8.61,0,0,0,1.63.75,6.26,6.26,0,0,0,2.28-.22" transform="translate(-46.04 0)"/>
      <path class="cls-12" d="M298.05,244.07a4.34,4.34,0,0,0,2.57,2,4.19,4.19,0,0,1,2.53,1.58,1,1,0,0,1-.22,1.38,1,1,0,0,1-.59.19l-8.57-.05a1.22,1.22,0,0,1-1.22-1.24v-.12c.07-.63.14-1.37.17-1.94a4.16,4.16,0,0,1,1.41-2.35,8.56,8.56,0,0,0,1.63.75,6,6,0,0,0,2.28-.2" transform="translate(-46.04 0)"/>
      <path class="cls-13" d="M297.73,233a40.76,40.76,0,0,1-7.5,1.46c-3.71.34-7.74,0-9.44-2.56a8.19,8.19,0,0,1-.88-3.7c-.71-10.21,4.68-34.58,4.68-34.58h6.29c0,.5,6.85,39.37,6.85,39.37" transform="translate(-46.04 0)"/>
      <path class="cls-14" d="M290.23,234.42c-3.7.34-7.74,0-9.43-2.56a8.07,8.07,0,0,1-.89-3.7.43.43,0,0,1,0,0c1-3.75,3.74-26.92,3.74-26.92s9.41,24.79,6.57,33.23" transform="translate(-46.04 0)"/>
      <path class="cls-13" d="M270.81,195s-2.83,19-4.1,39.23c0,0,8.88,3.65,17.12.73l1.51-38.62Z" transform="translate(-46.04 0)"/>
      <path class="cls-12" d="M275.05,140a3.41,3.41,0,0,0-3-2.64s.76.45.89.93a3.68,3.68,0,0,0-3.53-.39c-2.15.78-5.33,3-3.73,8s-1.67,6.34-3,9.61,3.16,3.91,2.23,6.47,1.84,8.6,8.86,6,8.62-12.78,5.64-15.25S275.05,140,275.05,140" transform="translate(-46.04 0)"/>
      <path class="cls-15" d="M277.19,139.83a6.57,6.57,0,0,0-5.11,1.63c-1.05,1.1,0,2.69,0,2.69Z" transform="translate(-46.04 0)"/>
      <path class="cls-12" d="M286.75,144.72a11.49,11.49,0,0,0-7.25-4.85,6.93,6.93,0,0,0-7.93,5.77v.07c-.58,3.82,0,8.78,6.25,10.56Z" transform="translate(-46.04 0)"/>
      <path class="cls-5" d="M285.6,161.76,278.54,166l-1.78-5a15.48,15.48,0,0,0,1.05-4.71,18.76,18.76,0,0,0-.11-4.17l6.14,2.66a10.78,10.78,0,0,0-.15,1.38,9.94,9.94,0,0,0,.3,3.17,4.45,4.45,0,0,0,1.61,2.45" transform="translate(-46.04 0)"/>
      <path class="cls-10" d="M284,159.31c-3.38.13-6.18-3-6.18-3l5.88-.13a9.94,9.94,0,0,0,.3,3.17" transform="translate(-46.04 0)"/>
      <path class="cls-5" d="M285.51,157.33s-6.63,2.21-9.29-3c-2.88-5.62-.4-10,1.87-10.45,4.53-.85,7.3.72,8.22,2.51s2.86,9.76-.8,11" transform="translate(-46.04 0)"/>
      <path class="cls-11" d="M282.65,154.48s.32.68,2.08.17c0,0,1.47-.42,1.25-1.2a4.94,4.94,0,0,0-3.33,1" transform="translate(-46.04 0)"/>
      <path class="cls-7" d="M294.52,166.65l-5.63-4.57h0A4.85,4.85,0,0,0,286.3,161c-.39-.05-1.23-.2-1.69-.26.08,1.05.08,1.9-1.75,2.22-2.44.43-4.86-1-6-2.13a20.12,20.12,0,0,0-4.36,1.19,4,4,0,0,0-2.48,4.15l1.87,16.14S269.63,196,270,196.06c2.57.24,13.79,2.49,21.82-.07,1.3-.42-1.81-7.69-1.19-22.58,4.45-2.67,3.87-6.76,3.87-6.76" transform="translate(-46.04 0)"/>
      <path class="cls-12" d="M280.87,144.49s.08,5.21-2.91,6.92c0,0,1.18-2.45.78-3.95,0,0-.77,4.65-3.14,5.46s-3.57-8.63,1.33-10.52,9.74.35,10.32,3.67.13,4,.13,4-2.29-6.3-6.51-5.58" transform="translate(-46.04 0)"/>
      <path class="cls-6" d="M270,196.06c-.38,0,1.86-13.79,1.86-13.79L270,166.13a4,4,0,0,1,.47-2.39.76.76,0,0,1,.38.19c3.93,3.31,7.54,16.75,7.54,16.75s1.9,10.87-8.38,15.38" transform="translate(-46.04 0)"/>
      <path class="cls-5" d="M269.44,168s-3.35,12.62-2.73,14.94,7.12,7.7,8.21,8.05l.78-2.06s-4.95-6.84-4.53-7.58c.9-1.59,4.53-10.9,4.53-10.9Z" transform="translate(-46.04 0)"/>
      <path class="cls-7" d="M274.75,172.85s-3.84.67-7.59-3.21c0,0,3.18-9.32,7.15-7.43s3,8.39.44,10.63" transform="translate(-46.04 0)"/>
      <path class="cls-5" d="M275.7,188.88s3.28.64,3.42,1.7c.11.85-1.38,2.24-2.18,1.94a7.56,7.56,0,0,1-2-1.58Z" transform="translate(-46.04 0)"/>
      <path class="cls-10" d="M314.1,176.34s4.82-2.49,5.25-1.6-.59,3.52-1.61,3.85a26.09,26.09,0,0,1-4,.49Z" transform="translate(-46.04 0)"/>
      <path class="cls-5" d="M320.1,93c-.64,1.13-.32,22.56-1,24.36-2,5.76-.5,20.46-1.59,21.84s-2.27,4.35-1.68,5.74.77,3.16,2.12,3.11,9.28-47.3,9.37-48.53S320.1,93,320.1,93" transform="translate(-46.04 0)"/>
      <path class="cls-5" d="M353.71,126.78s1.72,2.11,1.58,3.1a14.52,14.52,0,0,1-1.58,3.36s-3.69-7.45-3.43-8,2.51-1.06,2.51-1.06Z" transform="translate(-46.04 0)"/>
      <path class="cls-16" d="M312.81,242.89l3.54,1.32s15.39-21.35,17.28-40.12a28.42,28.42,0,0,0-.5-9.6s.15-.86.41-2.38c.12-.71.27-1.56.45-2.54.5-2.86,1.18-6.79,2-11.25,1.81-10.28,4.16-23.41,6-33.07l-1-.31-10.32-3.33-2.14-6.78-7.69-2s-1.72,3.36-3.25,19.23c-.29,2.08-.54,4.38-.74,6.87a136.09,136.09,0,0,0,.74,27.81q.53,4.14,1.35,8.54a37.72,37.72,0,0,1,.29,8.43c-.77,15.35-6.41,39.2-6.41,39.2" transform="translate(-46.04 0)"/>
      <path class="cls-17" d="M316.84,158.91l16.7,33.2c.12-.71.27-1.56.44-2.54.5-2.86,1.19-6.79,2-11.25,1.81-10.28,4.15-23.41,6-33.07l-.95-.31-10.33-3.33-2.13-6.78-7.69-2s-1.72,3.36-3.26,19.23c-.28,2.08-.54,4.38-.73,6.87" transform="translate(-46.04 0)"/>
      <path class="cls-16" d="M324.19,137.07l.38-3.32c6.48,1.72,23.79-4.81,23.79-4.81s6.27,5.52,5.45,18.74c-.41,6.45-1.14,33.87-1.91,42-.27,2.94-.52,5-.62,5.87h0a1.19,1.19,0,0,0,.19.71,37.78,37.78,0,0,1,2.83,6c7.54,20.06-1.16,44.77-1.16,44.77l-2.25-.91s-4.95-27.5-9-39.64a23.67,23.67,0,0,0-1.94-4.65c-1.75-2.82-3.37-7.43-4.84-12.91-2.78-10.35-5-23.83-6.51-34.23-.2,0-4.45-17.58-4.45-17.58" transform="translate(-46.04 0)"/>
      <path class="cls-5" d="M351.79,89l0,.07c-2,4.57-5.7,10.53-12,11.16a13.38,13.38,0,0,1-6.46-1.08,20.15,20.15,0,0,1-6.47-4.1,54.9,54.9,0,0,1,5.93-8.72h0l1.1-.06a4.4,4.4,0,0,0,.64-2.05c.11-.68.2-1.47.27-2.27s.13-1.75.17-2.55c.08-1.56.1-2.77.1-2.77l8.83-.94.52-.05a27.81,27.81,0,0,0,.14,6.76,13.88,13.88,0,0,0,.81,3.1,4.23,4.23,0,0,0,.73,1.25c.67.15,1.48.34,2.24.56A9.35,9.35,0,0,1,351.76,89l0,0" transform="translate(-46.04 0)"/>
      <path class="cls-18" d="M344.07,80.83s-4.3,3.63-9.54,3.38c.11-.68.2-1.47.27-2.27s.13-1.75.17-2.55a30.2,30.2,0,0,1,9.09,1.44" transform="translate(-46.04 0)"/>
      <path class="cls-6" d="M354.58,61.27c.3-.38,3.69-4.35,10.23.12,0,0-3.41-1.93-5-1,0,0,3.39-.13,4.73,1.69s.12,5.63-.61,6.64-4.07,3.54-5.37,3a4.07,4.07,0,0,1-1.34-1A19.31,19.31,0,0,1,357,73c-1.29,7.11-7.67,10.29-9.42,8.14-1.11-1.38-3.24.69-3.24.69L338.87,61s12.44-6.6,15.71.24" transform="translate(-46.04 0)"/>
      <path class="cls-5" d="M349.48,71c-.55,2-1.78,4.27-2.93,7.06-1.88,4.59-7.52,3.84-10.82,2.93h0a21.58,21.58,0,0,1-2.5-.84c-2.69-1.36.7-13,2.16-15s3.81-4,10.46-.8c3.86,1.85,4.4,3.94,3.64,6.66" transform="translate(-46.04 0)"/>
      <path class="cls-19" d="M340,248.83h17.84a9.73,9.73,0,0,0-.5-4.78c-.89-2-2.29-2.88-2-5.27a6.42,6.42,0,0,1-5.56,2.12,19.37,19.37,0,0,1-3.09,4c-1.17.84-6.36.54-6.73,3.91" transform="translate(-46.04 0)"/>
      <path class="cls-19" d="M301.72,248.83h17.84s.67-2.84-.5-4.78c-1-1.71-.64-2.69.13-4.11a6.9,6.9,0,0,1-3,.57,6.42,6.42,0,0,1-2.65-.93,67.37,67.37,0,0,1-5.08,5.34c-1.17.83-6.36.53-6.73,3.91" transform="translate(-46.04 0)"/>
      <path class="cls-6" d="M337.21,61.55c2.47-1.32,3.54-.37,4,.51a8.07,8.07,0,0,1,9,5.47,13.65,13.65,0,0,0,1.07,9.21s-2.44.4-6.45-2.59a8.32,8.32,0,0,1-2.6-4,26.69,26.69,0,0,0,2.14,7c-4.34-4.67-3.43-13-3.32-13.87a8.87,8.87,0,0,0-3.6,2.14c-1.23,1.48-2.9,4.86-3.87,4.33,0,0,0-6.21,3.68-8.19" transform="translate(-46.04 0)"/>
      <path class="cls-20" d="M354.42,102.81a1,1,0,0,0-.46-.44,1,1,0,0,1-.43-.39,16,16,0,0,1-1.44-2.38,3.26,3.26,0,0,1-.31-2.25,11.16,11.16,0,0,1,.6-1.58c.11-.25.23-.49.36-.73A22.76,22.76,0,0,1,356,90.47c-2.43-2.12-7.69-3.18-7.69-3.18s-.08.29-.24.74c-1.11,3-6.46,7.11-7.35,7.8-1.12.85-12.07.49-12.26-1.27s4.14-8,4.3-8.23h0c-5.11.21-7.24,1.14-7.24,1.14h0s-4,1.18-7.45,7.81a16.41,16.41,0,0,0,4.26,2.2,11.08,11.08,0,0,0-.53,3.57,4.36,4.36,0,0,0,.05.72c4.37,23-2.63,32.14-2.63,32.14-2.18,4,32.41,10.29,33.85,6.43a6.56,6.56,0,0,0,1-3.39c.17-3.1-.92-7.05-2-10.22-.39-1.09-.78-2.08-1.13-2.92a9.2,9.2,0,0,1-.53-1.69,9.86,9.86,0,0,1,0-4.39c1.33-5.71,3-11.75,4-14.91" transform="translate(-46.04 0)"/>
      <path class="cls-5" d="M366.07,117.33l-13.28,6.82.92,2.63s19.67-2.46,20.84-7.29Z" transform="translate(-46.04 0)"/>
      <path class="cls-21" d="M350.91,123.8c.35.84.74,1.84,1.13,2.92a.15.15,0,0,0,0,.06c-11.72-9,.07-27.18.07-27.18a16,16,0,0,0,1.44,2.38,1,1,0,0,0,.43.39,1,1,0,0,1,.46.44c-1,3.16-2.7,9.2-4,14.92a9.86,9.86,0,0,0,0,4.39,9.2,9.2,0,0,0,.53,1.69" transform="translate(-46.04 0)"/>
      <path class="cls-5" d="M356,90.47s16.89,15.14,18.53,29a9.71,9.71,0,0,1-5.5,0c-3.09-.88-19.79-19.52-19.28-21.73S356,90.47,356,90.47" transform="translate(-46.04 0)"/>
      <path class="cls-20" d="M352.79,88.64s6.88,2.28,9.95,6.83c0,0-2.59,5.88-12.47,7.44,0,0-6.55-8.94,2.51-14.27" transform="translate(-46.04 0)"/>
      <path class="cls-5" d="M412.26,244.56l-3.43,1.77a56.69,56.69,0,0,1-3.89-5.9,21.55,21.55,0,0,1-2.74-6.87c-.71-5.05-6-13.33-5.49-14.74S407.85,215,407.85,215s2.07,14.16,3.45,23.33c.4,2.67.74,4.92,1,6.26" transform="translate(-46.04 0)"/>
      <path class="cls-22" d="M409.65,224.77a21.49,21.49,0,0,1-5.35,1.8,16.81,16.81,0,0,1-4.85.31l-.44-.06a19.66,19.66,0,0,1-4.11-4.57,34.94,34.94,0,0,1-3.53-7.18l16.17-1.57Z" transform="translate(-46.04 0)"/>
      <path class="cls-19" d="M404.31,226.58a17.23,17.23,0,0,1-4.86.3l1.82-7.06a26,26,0,0,1,3,6.76" transform="translate(-46.04 0)"/>
      <path class="cls-23" d="M412.26,244.56l-3.43,1.77a56.69,56.69,0,0,1-3.89-5.9,13.51,13.51,0,0,0,6.36-2.14c.4,2.68.74,4.92,1,6.27" transform="translate(-46.04 0)"/>
      <path class="cls-5" d="M404.47,218.2a56.52,56.52,0,0,0-7,14.71c-.62,2-2.73,4.55-4.86,6.79s-4.15,4.08-4.92,5L384.24,243a45.63,45.63,0,0,1,3-6.72,18.93,18.93,0,0,1,2.23-3.23c1.12-1.25.75-17,1.86-18s13.09,3.12,13.09,3.12" transform="translate(-46.04 0)"/>
      <path class="cls-22" d="M406.53,214.56l-6.4,13s-4.77.14-8.13-1.74a8.78,8.78,0,0,1-2.79-2.35l2-8.92Z" transform="translate(-46.04 0)"/>
      <path class="cls-24" d="M395.07,171.13s-2.18-4.57-7.44-1.85-.13,13.11-2.89,15.68,1,4.24.44,6.08,1,3.94,4.72,3.68,7.55,0,9.21-3.26,1.29-10.3.64-11.3-4.68-9-4.68-9" transform="translate(-46.04 0)"/>
      <path class="cls-5" d="M394.63,190.15h0s0,0,0,0" transform="translate(-46.04 0)"/>
      <path class="cls-5" d="M403.59,195.55l-8.94-5.39a8.18,8.18,0,0,0,.9-2.22,11,11,0,0,0,.51-2.11c0-.06,0-.11,0-.17a6.28,6.28,0,0,0,0-1.3l2,.71,3.62,1.31a4.44,4.44,0,0,0,.29,2,1.61,1.61,0,0,0,1.38,1.09Z" transform="translate(-46.04 0)"/>
      <path class="cls-18" d="M402,188.39a6.71,6.71,0,0,1-5.91-2.56.93.93,0,0,0-.1-.13l.12,0,2-.59,3.63,1.31a4.45,4.45,0,0,0,.28,2" transform="translate(-46.04 0)"/>
      <path class="cls-5" d="M402.14,187.13s-7.78.86-7.94-4.4-1.3-7.67,4.08-8.14,6.65,1.47,7,3.25c1,5.56-.92,9.06-3.11,9.29" transform="translate(-46.04 0)"/>
      <path class="cls-25" d="M387.63,169.28c-.1-.24-.18-.4-.18-.4a1.2,1.2,0,0,1,.18.4" transform="translate(-46.04 0)"/>
      <path class="cls-5" d="M404.64,190s7.46-5.73,8.26-7.63,4.22-8.84,5.1-9.54c0,0,1.85-.24,2.12,1s-1.77,8.9-3.18,11.2-8.2,10.1-10.42,11.23Z" transform="translate(-46.04 0)"/>
      <path class="cls-5" d="M422.77,169.32a4.11,4.11,0,0,1-.72,1.74,25.93,25.93,0,0,0-1.5,2.12c-.27.39-.44.69-.44.69l-2.12-1s0-3.59,1.36-4.35c0,0,.07,0,.12,0a9.92,9.92,0,0,1,1.65-.69,2.12,2.12,0,0,1,1.47,0c.27.15.32.86.18,1.6" transform="translate(-46.04 0)"/>
      <path class="cls-24" d="M398.69,177.16c-2.75-.69-1.69,4.18-2.39,3.85s-2.11-.37-1.9.57a18,18,0,0,0,.67,1.86c.16.59,0,1.75-.64,1.52s-6.59-7-2.39-12.33,16.73-2,12.79,3.51c-.7,1-4.17,1.52-6.14,1" transform="translate(-46.04 0)"/>
      <path class="cls-26" d="M408.68,216.48a13.35,13.35,0,0,1-6,1.18,41.52,41.52,0,0,1-10.52-2.21c-1.83-.66-3.08-1.36-2.92-1.95.21-.85,1.77-7.36,3.22-13.4L395,189.48s3.64,2.58,5.76,1.67,1.85-2,1.85-2a4.32,4.32,0,0,1,2-.35c.65.2,2.5-.84,2.5-.84a6.53,6.53,0,0,1,2.12,5,9.85,9.85,0,0,1-.1,1.63l-1.48,1.7a44.9,44.9,0,0,1,1,20.18" transform="translate(-46.04 0)"/>
      <path class="cls-24" d="M417.94,248.77H407.7a12.77,12.77,0,0,1,0-3.09.87.87,0,0,1,.25-.47,3.65,3.65,0,0,0,2.46,0,4.92,4.92,0,0,0,1.81-1.12c.11.1,2.22,2.12,3.2,2.12a2.3,2.3,0,0,1,2.49,2.1,2.46,2.46,0,0,1,0,.47" transform="translate(-46.04 0)"/>
      <path class="cls-23" d="M392.65,239.7c-2.06,2.17-4.15,4.08-4.92,5L384.24,243a45.63,45.63,0,0,1,3-6.72,7.5,7.5,0,0,0,5.37,3.38" transform="translate(-46.04 0)"/>
      <path class="cls-24" d="M388.49,243.82s-.13,2.22.61,2.51,2.13,1,2.13,2.44H386.1s-3.54-1.74-4-2.48,2.35-3.9,2.35-3.9a4.64,4.64,0,0,0,4.05,1.43" transform="translate(-46.04 0)"/>
      <path class="cls-5" d="M397,207.68s2.25-.42,3.12.15,1.14,1.48.51,1.85a4.13,4.13,0,0,1-4-.13Z" transform="translate(-46.04 0)"/>
      <path class="cls-27" d="M392.14,215.45c-1.82-.66-3.07-1.36-2.92-1.95.22-.85,1.78-7.36,3.23-13.4.42-.78.69-1.25.69-1.25s2.74,12.52-1,16.6" transform="translate(-46.04 0)"/>
      <path class="cls-5" d="M395.08,190.18s-6.92,1.46-9.65,12.22a3.27,3.27,0,0,0,.73,3c1.26,1.39,4,3.43,10.46,4.17.7.09.79-1.7.79-1.7a45.85,45.85,0,0,1-6.19-4.34,1,1,0,0,1-.08-1.25,31.44,31.44,0,0,0,2-3.41c.5-1.22,3.86-8.12,1.93-8.67" transform="translate(-46.04 0)"/>
      <path class="cls-26" d="M395,189.48s-4.07.28-7.39,4.71c0,0,1.12,4.07,6.39,5.15,0,0,3.25-7.32,1-9.86" transform="translate(-46.04 0)"/>
      <path class="cls-6" d="M229,234s3.05,2.83,2.46,4.84-3.35,3.35-3.72,5.8-1.86,3.79-3.2,3.79h-6.38s-1-1.72,1.39-2.24,3.28-3.41,3.13-6.09a48.37,48.37,0,0,1,.22-6.25l5.06-1.19Z" transform="translate(-46.04 0)"/>
      <path class="cls-6" d="M191.53,241.73s.74,6-.6,6.62-17.33.45-17.33.45,0-2,2.75-2.46,7.59-2.08,8.41-5.73,6.77,1.12,6.77,1.12" transform="translate(-46.04 0)"/>
      <path class="cls-20" d="M177.06,150.84s.91,11.28,2,24.84c1.44,18.41,3.18,41,3.35,45.32.3,7.44,1.49,19.34,1.49,19.34s2.82,2.83,8.48,1.64a195,195,0,0,0,6.48-35c0-.29,0-.59.07-.89,1.34-18.3,3.42-56.84,3.42-56.84Z" transform="translate(-46.04 0)"/>
      <path class="cls-21" d="M177.06,150.84s.91,11.28,2,24.84L198.83,207c0-.29,0-.59.07-.89,1.34-18.3,3.42-56.84,3.42-56.84Z" transform="translate(-46.04 0)"/>
      <path class="cls-20" d="M181.19,152.18s16.3,40.85,27,60,14.06,24.55,14.06,24.55,6.14-2.45,6.7-4.12c0,0-4.1-37.06-11.27-46.1-4.06-5.1-8.82-20.42-9-25.78s-1.45-16-1.45-16Z" transform="translate(-46.04 0)"/>
      <path class="cls-5" d="M149.21,146.53a69.15,69.15,0,0,0-6.52,3.47,15.15,15.15,0,0,0-2.54,4.44c.15.27.44.35,1,0s2-1.87,2-1.59-3.9,4.94-3.2,5.92,4.67.69,6.93-.92,4.53-7.54,4.87-7.86c2.89-2.74-2.53-3.46-2.53-3.46" transform="translate(-46.04 0)"/>
      <path class="cls-14" d="M149,149.49c-1.59-1.39-1.63-1.74-1.63-1.74s10.19-17.63,11.08-19.33,6.34-28.17,6.34-28.17l18.89-5.48s-13.3,34.41-15.62,38.66c-3.85,7-16.38,17.37-16.38,17.37a6,6,0,0,1-2.68-1.31" transform="translate(-46.04 0)"/>
      <path class="cls-5" d="M174,87.88s-6.65,11.69-13.14,13.22a17.76,17.76,0,0,1,1.85-6.61c-.65-.76-1.22-1.47-1.71-2.09A38.33,38.33,0,0,1,158.6,89l2.2-5.93,1.5-4a19.51,19.51,0,0,0,2.34,3.37A15.92,15.92,0,0,0,174,87.89" transform="translate(-46.04 0)"/>
      <path class="cls-28" d="M164.64,82.43a12.34,12.34,0,0,1-3.63,10A38.33,38.33,0,0,1,158.6,89l2.2-5.93a12.84,12.84,0,0,1,3.84-.65" transform="translate(-46.04 0)"/>
      <path class="cls-5" d="M156.85,89.88s9.93-3.87,7.42-10-2.91-10.79-9.36-8.58-6.71,5.06-6.38,7.31,5.67,12.14,8.32,11.29" transform="translate(-46.04 0)"/>
      <path class="cls-13" d="M208.15,147.9c-4,5.76-34,13.46-33.6,9.47a44.85,44.85,0,0,0,0-7.86c-.08-.86-.19-1.76-.32-2.72a63,63,0,0,0-6.6-19.78c-.31-.58-.62-1.17-.95-1.77a61.23,61.23,0,0,1-4.15-9.33c-2.08-6-2.92-11.74-1.87-15.49l0,0c6.26-2.9,8.69-14.12,8.69-14.12s21.36,3.83,33.33,32.3c0,0,1.15,3.13,2.46,7.37,1.6,5.15,3.44,11.94,3.75,16.78.16,2.3,0,4.16-.75,5.2" transform="translate(-46.04 0)"/>
      <path class="cls-22" d="M165.7,68.44c.07-.14.27-.29.76-.44a2.11,2.11,0,0,0-1,0,2.61,2.61,0,0,0-2.23-1.84,1.51,1.51,0,0,1,1,.92c-1.74-1.11-5-1.43-13,1.26-10.63,3.54-5.32,9.71-3.71,10.2s4.58-2.68,7.24-3.11,4.11,3.28,5.13,3.58.44-.53,1.5-1.38S163,78.74,163,80.13s2,2.73,2,2.73l1.22-2.23c1.21-2.24.88-10.34-.28-11.81l-.31-.39" transform="translate(-46.04 0)"/>
      <path class="cls-14" d="M208.91,142.7C183.13,134.93,179,104.19,179,104.19s14.68,11.22,26.13,21.74c1.59,5.15,3.43,11.93,3.75,16.77" transform="translate(-46.04 0)"/>
      <path class="cls-5" d="M216,143.71a51.52,51.52,0,0,0-.44,5.68,10.34,10.34,0,0,0,1.3,3.18c.23,0,.93,0,.91-.45s-.34-.94-.13-.86.26,1.92,1.19,1.87,3.67-1.08,3.56-3.21-3-6.06-3.1-6.41c-.59-3-3.29.21-3.29.21" transform="translate(-46.04 0)"/>
      <path class="cls-13" d="M217.52,144.54c-2,.93-2.8,0-2.8,0s-11.92-19.9-13.17-21.5-23.25-11-23.25-11-9-3.43-9.3-8.85c-.31-4.72,2.37-7.62,5.3-9.37a9.89,9.89,0,0,1,11.13.72c7.22,5.6,21.52,16.87,23.82,19.93,5.12,6.8,10.8,28.12,10.8,28.12a7.14,7.14,0,0,1-2.53,2" transform="translate(-46.04 0)"/>
      <path class="cls-5" d="M121.49,189.68s-5.28,22.4-4.78,27.48c.67,6.84.92,25.42.92,25.42h5.25s4.88-15.11,3.65-24.94c-.66-5.31,12-28.61,12-28.61Z" transform="translate(-46.04 0)"/>
      <path class="cls-7" d="M139.81,191l-5.76,14.47-3.23,8.12q-1,.12-1.89.18c-8.64.54-13.28-3.62-13.28-3.62l3.88-17.93Z" transform="translate(-46.04 0)"/>
      <path class="cls-6" d="M134,205.46l-3.23,8.12c-.64.08-1.27.14-1.88.18-1.85-11.9,4.87-15.68,4.87-15.68s.12,3.45.24,7.38" transform="translate(-46.04 0)"/>
      <path class="cls-5" d="M127.82,190.55s10,27.6,12.67,31S157,239.48,157,239.48l2.69-3a62.37,62.37,0,0,0-4.16-11.57c-2.2-4.35-6.38-6.11-6.57-7.23-1.28-7.41-5-28.61-5-28.61Z" transform="translate(-46.04 0)"/>
      <path class="cls-5" d="M112.13,160.64s-4.89,13.76-5.88,14.88S95.37,184,95.37,184l1.28,2.28s13.07-5.86,15.24-7.92,8.31-18.43,8.31-18.43Z" transform="translate(-46.04 0)"/>
      <path class="cls-5" d="M95.37,184a5.92,5.92,0,0,1-2,.49c-1,0-3.21,1.15-2.91,1.52s1-.14,1.14.38-2.23,2.37-1.74,2.89,1.58.62,3.42-.35a15.1,15.1,0,0,0,3.4-2.65Z" transform="translate(-46.04 0)"/>
      <path class="cls-7" d="M128.75,193.22l6.05,19.61s11.45-1.69,15.3-7.45c0,0-3.12-15-6.11-16.35s-15.24,4.19-15.24,4.19" transform="translate(-46.04 0)"/>
      <path class="cls-5" d="M136.87,161.82s9.57,11,10.06,12.44,2,13.65,2,13.65h2.61s1.34-14.26.61-17.17-12-16.3-12-16.3Z" transform="translate(-46.04 0)"/>
      <path class="cls-7" d="M133.3,132.81a7.64,7.64,0,0,0-2.26-6c-1.38-1.56-3-1.39-4.7-2.63a9.9,9.9,0,0,0-6.53-1.34c-6.75,1-12,6.07-9.55,12.88.76,2.16.67,4,2.88,6.29,2.75,2.91,5.89,5.09,10.29,4.41a8.48,8.48,0,0,0,5.84-3.19c.84-1.07,2.23-1.4,2.94-2.55,1.43-2.3.88-5,1.1-7.84" transform="translate(-46.04 0)"/>
      <path class="cls-5" d="M118,152l9.08,3,.79-6.09a17.8,17.8,0,0,1-2.38-5.09,22.3,22.3,0,0,1-.91-4.78l-6.32,4.56a13.77,13.77,0,0,1,.52,1.53,11.75,11.75,0,0,1,.44,3.68A5.09,5.09,0,0,1,118,152" transform="translate(-46.04 0)"/>
      <path class="cls-26" d="M145.34,188.84a2,2,0,0,0-.1-.4l-5.14-15-.25-7.88-.15-4.49-.34-10.25a35.11,35.11,0,0,0-11.54-1.92c-1.08,1.51-3.31,3.82-6.19,3.89-2.16,0-2.67-1-2.82-2.22a13.43,13.43,0,0,0-5.34,3.36l-3.81,8.55s2.39,2.74,5.35,3.1l2.81,21.25c.16,2.2-1.07,7.43,1.12,7.68,9.75,1.1,21.47-2.16,24.34-3l.67-.21a2.29,2.29,0,0,0,1.4-2.47" transform="translate(-46.04 0)"/>
      <path class="cls-29" d="M134.51,179.16c1,5.36,5.44,11.13,8.77,12.36l.67-.21a2.29,2.29,0,0,0,1.4-2.47,2.92,2.92,0,0,0-.1-.4l-5.14-15-.26-7.88-.1-.19s-6.91,4.3-5.24,13.76" transform="translate(-46.04 0)"/>
      <path class="cls-30" d="M119.17,148.84c3.88-.71,6.27-5,6.27-5l-6.71,1.31a11.75,11.75,0,0,1,.44,3.68" transform="translate(-46.04 0)"/>
      <path class="cls-5" d="M118.44,146.54s8.77-.27,8-6.37-4.93-9.47-7.33-9.06c-4.76.82-5.25,2.88-5.5,5s.78,10.64,4.81,10.46" transform="translate(-46.04 0)"/>
      <path class="cls-11" d="M120.2,142.69s-.07.78-2,.94c0,0-1.61.12-1.68-.72a5.11,5.11,0,0,1,3.65-.22" transform="translate(-46.04 0)"/>
      <path class="cls-7" d="M117,131.49s7.36-1.13,6.44,4.18c-.57,3.35,3,3.3,3,3.3l.92-5.37-1.68-3.81Z" transform="translate(-46.04 0)"/>
      <path class="cls-5" d="M149,187.91a5.88,5.88,0,0,1-.58,2c-.48.9-.58,3.36-.1,3.29s.38-1,.89-.82,1,3.11,1.66,2.94,1.32-1.06,1.37-3.15a14.65,14.65,0,0,0-.63-4.26Z" transform="translate(-46.04 0)"/>
      <path class="cls-26" d="M127.82,148.93l1.65,2.32,1.6,2.25,8.57,12.07c.77-1.38,7.11-4.91,7.11-4.91s-4.81-7.48-7.39-9.81a7.61,7.61,0,0,0-3.44-1.41,28.66,28.66,0,0,0-3.68-.45c-2.4-.15-4.42-.06-4.42-.06" transform="translate(-46.04 0)"/>
      <path class="cls-7" d="M117.26,233.1a28.63,28.63,0,0,0,8.58.4s-.93,5.31-.34,6.64,2.29,5.1-.29,5.83c-2,.59-11,.52-14.69.47a3.1,3.1,0,0,1-2.89-2c-.41-1.13-.25-2.51,2.08-3.38l5.23-1.4c3-1.52,2.31-6.53,2.31-6.53" transform="translate(-46.04 0)"/>
      <path class="cls-6" d="M122.24,247a1.83,1.83,0,1,1,1.82,1.82,1.82,1.82,0,0,1-1.82-1.82h0" transform="translate(-46.04 0)"/>
      <path class="cls-7" d="M122.77,247a1.29,1.29,0,1,1,1.29,1.29h0a1.29,1.29,0,0,1-1.29-1.29" transform="translate(-46.04 0)"/>
      <path class="cls-6" d="M109.6,247a1.83,1.83,0,1,1,1.82,1.82A1.83,1.83,0,0,1,109.6,247h0" transform="translate(-46.04 0)"/>
      <path class="cls-7" d="M110.13,247a1.3,1.3,0,1,1,1.29,1.29h0a1.29,1.29,0,0,1-1.29-1.29" transform="translate(-46.04 0)"/>
      <path class="cls-7" d="M149.41,231.46a28.35,28.35,0,0,0,7.74-3.7s1.71,5.11,2.86,6,4.42,3.41,2.5,5.28c-1.53,1.48-9.48,5.68-12.72,7.36a3.07,3.07,0,0,1-3.5-.42c-.9-.8-1.41-2.09.22-4l4-3.71c1.92-2.75-1.05-6.85-1.05-6.85" transform="translate(-46.04 0)"/>
      <path class="cls-6" d="M160.38,241.36a1.83,1.83,0,1,1,2.47.74,1.83,1.83,0,0,1-2.47-.74h0" transform="translate(-46.04 0)"/>
      <path class="cls-7" d="M160.85,241.1a1.29,1.29,0,1,1,1.75.53,1.29,1.29,0,0,1-1.75-.53h0" transform="translate(-46.04 0)"/>
      <path class="cls-6" d="M149.24,247.34a1.84,1.84,0,0,1,.75-2.48,1.83,1.83,0,1,1-.75,2.48h0" transform="translate(-46.04 0)"/>
      <path class="cls-7" d="M149.72,247.08a1.29,1.29,0,1,1,1.74.53,1.29,1.29,0,0,1-1.74-.53h0" transform="translate(-46.04 0)"/>
    </g>
  </g>
</svg>
